<svg xmlns="http://www.w3.org/2000/svg" width="14" height="16" viewBox="277.998 4569.579 14 16"><g data-name="Group_1640"><g data-name="Group 1304"><path d="M284.998 4585.58c-.1 0-.3 0-.4-.1-.301-.2-6.6-4.5-6.6-8.9 0-3.9 3.1-7 7-7s7 3.1 7 7c0 4.3-6.3 8.7-6.6 8.9-.1 0-.199.1-.4.1Zm0-14.6c-3 0-5.5 2.5-5.5 5.5 0 2.7 3.6 6 5.5 7.3 1.9-1.4 5.5-4.6 5.5-7.3.102-3-2.398-5.5-5.5-5.5Z" fill="#333" fill-rule="evenodd" data-name="Path 4787"/><path d="M284.998 4579.58c-1.7 0-3-1.3-3-3s1.3-3 3-3 3 1.3 3 3-1.299 3-3 3Zm0-4.6c-.8 0-1.5.7-1.5 1.5s.7 1.5 1.5 1.5 1.5-.7 1.5-1.5-.6-1.5-1.5-1.5Z" fill="#333" fill-rule="evenodd" data-name="Path 4788"/></g></g></svg>