<svg xmlns="http://www.w3.org/2000/svg" viewBox="0 0 538 430.68"><defs><style>.a{fill:#8e9b52;}.b{fill:#7d8a41;}.c{fill:#6c7930;}.d,.m{fill:#4d4d4d;}.d{opacity:0.5;}.e{fill:#666;}.f{fill:gray;}.g{fill:#999;}.h{fill:none;}.i{fill:#ccc;}.j{fill:#b3b3b3;}.k{fill:#5793ce;}.l{fill:#f2f2f2;}.n{fill:#fff;}.o{fill:#396caa;}.p{fill:lime;}.q{fill:red;}.r{fill:#ff7104;}.s{fill:#ff1d25;}.t{opacity:0.8;}.u{fill:#c1272d;}</style></defs><g transform="translate(-1609.292 -1246.01)"><g transform="translate(1609.292 1334.99)"><path class="a" d="M1609.292,1576.535,1878.542,1732l268.75-155.469-269-155.319Z" transform="translate(-1609.292 -1421.217)"/><path class="b" d="M1878.292,1913.441l.25-30.932-269.25-155.45v31.051Z" transform="translate(-1609.292 -1571.74)"/><path class="c" d="M2407.978,1727.058v31.051l-269,155.332.249-30.932Z" transform="translate(-1869.979 -1571.74)"/></g><g transform="translate(1749.925 1246.01)"><g transform="translate(0 182.505)"><path class="d" d="M2319.438,1619.815l-26.94-14.435-.7,1.287,26.94,14.422a.977.977,0,0,1,.525.88.941.941,0,0,1-.486.893l-20.215,11.835a2.6,2.6,0,0,1-2.627-.02l-8.681-5.208,9.982-5.773c1.694-.979,1.878-2.456.406-3.3l-23.905-13.8a6.339,6.339,0,0,0-5.714.237l-23.064,13.325c-1.708.979-1.891,2.456-.407,3.3l23.879,13.805a6.408,6.408,0,0,0,5.727-.237l11.637-6.725,9.4,5.634a3.979,3.979,0,0,0,2.075.572,4.039,4.039,0,0,0,2.023-.552l20.214-11.821a2.47,2.47,0,0,0,1.222-2.187A2.439,2.439,0,0,0,2319.438,1619.815Z" transform="translate(-2062.079 -1605.38)"/><path class="d" d="M2092.882,1733.55l-23.892-13.8a6.366,6.366,0,0,0-5.727.236L2040.2,1733.3c-1.694.985-1.878,2.456-.42,3.31l23.906,13.792a6.3,6.3,0,0,0,5.714-.236l11.4-6.581,11.165,6.791a.344.344,0,0,1,.171.3.331.331,0,0,1-.158.3l-18.848,11.6a3.78,3.78,0,0,1-3.782.052l-49.571-27.583a.791.791,0,0,1-.42-.709.808.808,0,0,1,.42-.722l22.434-12.649a2.225,2.225,0,0,0,1.13-1.944,2.19,2.19,0,0,0-1.116-1.944l-24.956-14.33a.769.769,0,0,1-.394-.657.79.79,0,0,1,.355-.683l8.892-5.635,12.635,7.211a8.184,8.184,0,0,0,7.369-.3l29.711-17.167c2.193-1.248,2.43-3.152.538-4.243l-51.646-29.448c-1.891-1.1-5.188-.959-7.368.3l-27.911,16.1-49.794-28.778a8.276,8.276,0,0,0-8.249,0l-44.343,25.652a1.693,1.693,0,0,0,.026,2.955l17.771,10.075a3.347,3.347,0,0,0,3.467-.105l6.436-4.164,7.631,4.4-7.25,4.2a1.654,1.654,0,0,0,0,2.85l15.078,8.748a4.865,4.865,0,0,0,2.469.657,4.98,4.98,0,0,0,2.443-.63l29.54-16.839a3.454,3.454,0,0,1,3.455.026l24.733,14.277a4.941,4.941,0,0,0,4.952.013l10.39-6.016,8.1,4.623-22.868,14.514a2.246,2.246,0,0,0,.079,3.835l24.956,14.33a.762.762,0,0,1,.394.683.769.769,0,0,1-.394.67l-22.434,12.649.722,1.274,22.434-12.649a2.227,2.227,0,0,0,1.143-1.944,2.2,2.2,0,0,0-1.13-1.944l-24.956-14.343a.749.749,0,0,1-.381-.657.712.712,0,0,1,.354-.67l23.485-14.934,6.974,3.967-8.236,5.228a2.235,2.235,0,0,0,.079,3.822l24.956,14.343a.766.766,0,0,1,0,1.34l-22.434,12.649a2.284,2.284,0,0,0,.013,3.98l49.557,27.6a5.3,5.3,0,0,0,2.548.657,5.193,5.193,0,0,0,2.719-.762l18.848-11.585a1.835,1.835,0,0,0,.867-1.55,1.8,1.8,0,0,0-.867-1.55l-10.495-6.384,10.232-5.9C2094.169,1735.862,2094.354,1734.391,2092.882,1733.55Zm-95.792-43.24a3.536,3.536,0,0,1-3.481-.013l-24.746-14.291a4.925,4.925,0,0,0-4.926-.013l-29.527,16.825a3.486,3.486,0,0,1-3.454-.013l-15.079-8.761a.183.183,0,0,1-.092-.145.186.186,0,0,1,.092-.157l7.986-4.637,5.792,3.349a6.408,6.408,0,0,0,5.727-.236l23.065-13.318c1.681-.985,1.878-2.456.407-3.31l-23.892-13.792a6.366,6.366,0,0,0-5.727.236l-23.064,13.319c-1.695.985-1.878,2.456-.42,3.31l7.592,4.374-5.818,3.77a1.909,1.909,0,0,1-1.944.052l-17.771-10.061a.274.274,0,0,1-.131-.223.236.236,0,0,1,.118-.21l44.343-25.646a6.781,6.781,0,0,1,6.791,0l49.058,28.352-.354.21c-2.181,1.261-2.417,3.166-.525,4.256l19.623,11.191Z" transform="translate(-1886.207 -1621.605)"/></g><path class="d" d="M2014.363,1882.355l-23.892-13.8c-1.471-.841-1.287-2.325.407-3.3l23.065-13.318a6.326,6.326,0,0,1,5.727-.237l23.892,13.792c1.471.854,1.288,2.325-.407,3.31l-23.065,13.318A6.408,6.408,0,0,1,2014.363,1882.355Z" transform="translate(-1937.036 -1543.818)"/><g transform="translate(45.544 295.491)"><path class="e" d="M2043.787,1863.694a8.1,8.1,0,0,0,3.836-1.011l28.9-16.681a2.833,2.833,0,0,0,1.746-2.469h0v-10.324l-23.156-.013-8-4.624a6.675,6.675,0,0,0-3.323-.709" transform="translate(-2009.308 -1827.86)"/><path class="f" d="M2010.371,1827.873a8.3,8.3,0,0,0-3.849,1l-7.461,4.308h-23.169v10.613a2.08,2.08,0,0,0,1.234,1.918l29.921,17.272a6.373,6.373,0,0,0,3.323.709Z" transform="translate(-1975.888 -1827.865)"/><path class="g" d="M1978.519,1838.316h-2.627v10.626a2.092,2.092,0,0,0,1.234,1.917l1.393.8Z" transform="translate(-1975.888 -1833.005)"/><path class="g" d="M2038.147,1885.721a8.154,8.154,0,0,0,5.74-.066V1873.6h-5.74Z" transform="translate(-2006.525 -1850.374)"/></g><line class="h" y1="1.82" x2="0.021" transform="translate(180.131 230.797)"/><path class="e" d="M2297.77,1619.222a8.182,8.182,0,0,0,3.835-1.011l28.9-16.681c1.208-.7,1.813-1.616,1.734-2.469h0v-10.324l-23.143-.013-8-4.624a6.573,6.573,0,0,0-3.323-.709" transform="translate(-2088.763 -1412.054)"/><path class="f" d="M2264.353,1583.4a8.261,8.261,0,0,0-3.848,1.005l-7.448,4.308-23.183-.006v10.613a2.084,2.084,0,0,0,1.222,1.918l29.935,17.272a6.4,6.4,0,0,0,3.323.716Z" transform="translate(-2055.342 -1412.056)"/><path class="g" d="M2232.5,1593.845h-2.627v10.626a2.1,2.1,0,0,0,1.222,1.918l1.405.8Z" transform="translate(-2055.342 -1417.198)"/><path class="g" d="M2292.131,1641.25a8.119,8.119,0,0,0,5.727-.066v-12.057h-5.727Z" transform="translate(-2085.98 -1434.56)"/><path class="i" d="M2261.04,1593.828l-29.934-17.279c-1.839-1.057-1.616-2.916.525-4.137l28.884-16.681a7.954,7.954,0,0,1,7.171-.3l29.921,17.279c1.839,1.057,1.6,2.909-.512,4.131l-28.9,16.681A7.968,7.968,0,0,1,2261.04,1593.828Z" transform="translate(-2055.334 -1397.944)"/><path class="i" d="M2297.078,1593.036l-28.9,16.674a7.95,7.95,0,0,1-7.158.3l-29.921-17.279a2.765,2.765,0,0,1-.919-.814,1.931,1.931,0,0,0,.919,2.85l29.921,17.272a7.966,7.966,0,0,0,7.158-.3l28.9-16.681c1.642-.952,2.154-2.286,1.431-3.323A4.1,4.1,0,0,1,2297.078,1593.036Z" transform="translate(-2055.333 -1416.163)"/><path class="j" d="M2266.976,1593.836l-25.074-14.475c-1.537-.887-1.34-2.437.433-3.461l24.221-13.982a6.655,6.655,0,0,1,5.989-.256l25.087,14.481c1.524.886,1.34,2.443-.446,3.468l-24.194,13.975A6.669,6.669,0,0,1,2266.976,1593.836Z" transform="translate(-2060.755 -1401.069)"/><path class="e" d="M2297.8,1586.746a8.274,8.274,0,0,0,3.848-1.018l28.9-16.675a2.869,2.869,0,0,0,1.734-2.482h0v-10.318l-23.144-.013-8-4.624a6.624,6.624,0,0,0-3.336-.716" transform="translate(-2088.775 -1396.065)"/><path class="f" d="M2264.373,1550.912a8.176,8.176,0,0,0-3.836,1.005l-7.46,4.315-23.17-.02v10.62a2.057,2.057,0,0,0,1.208,1.918l29.934,17.279a6.47,6.47,0,0,0,3.323.7Z" transform="translate(-2055.355 -1396.069)"/><path class="g" d="M2232.521,1561.356h-2.614v10.613a2.06,2.06,0,0,0,1.208,1.924l1.406.808Z" transform="translate(-2055.355 -1401.211)"/><path class="g" d="M2292.16,1608.756a8.193,8.193,0,0,0,5.727-.066V1596.64h-5.727Z" transform="translate(-2085.993 -1418.573)"/><path class="i" d="M2261.054,1561.333l-29.934-17.279c-1.826-1.057-1.589-2.9.525-4.131l28.883-16.681a7.978,7.978,0,0,1,7.172-.3l29.907,17.285c1.839,1.057,1.616,2.909-.5,4.137l-28.9,16.681A7.947,7.947,0,0,1,2261.054,1561.333Z" transform="translate(-2055.347 -1381.947)"/><path class="i" d="M2297.113,1560.555l-28.9,16.681a7.944,7.944,0,0,1-7.158.289l-29.934-17.272a2.693,2.693,0,0,1-.906-.808,1.924,1.924,0,0,0,.906,2.837l29.934,17.272a7.925,7.925,0,0,0,7.158-.3l28.9-16.681c1.642-.952,2.141-2.272,1.431-3.323A4.106,4.106,0,0,1,2297.113,1560.555Z" transform="translate(-2055.35 -1400.176)"/><path class="j" d="M2266.976,1561.348l-25.074-14.481c-1.537-.887-1.34-2.437.433-3.461l24.221-13.982a6.631,6.631,0,0,1,5.989-.243l25.087,14.468c1.524.9,1.34,2.45-.446,3.474l-24.194,13.975A6.708,6.708,0,0,1,2266.976,1561.348Z" transform="translate(-2060.755 -1385.072)"/><path class="e" d="M2297.773,1554.248a8.255,8.255,0,0,0,3.835-1.011l28.9-16.681c1.208-.7,1.813-1.622,1.734-2.469h0v-10.331l-23.143-.007-8-4.617a6.441,6.441,0,0,0-3.323-.716" transform="translate(-2088.766 -1380.071)"/><path class="f" d="M2264.345,1518.425a8.407,8.407,0,0,0-3.822,1.011l-7.474,4.308-23.169-.013v10.626a2.079,2.079,0,0,0,1.222,1.918l29.921,17.272a6.6,6.6,0,0,0,3.323.716Z" transform="translate(-2055.344 -1380.083)"/><path class="g" d="M2232.493,1528.87h-2.614v10.613a2.075,2.075,0,0,0,1.222,1.924l1.392.8Z" transform="translate(-2055.344 -1385.217)"/><path class="g" d="M2292.132,1576.275a8.159,8.159,0,0,0,5.727-.066v-12.058h-5.727Z" transform="translate(-2085.982 -1402.585)"/><path class="i" d="M2261.023,1528.844l-29.934-17.272c-1.812-1.057-1.589-2.916.525-4.137l28.9-16.681a7.927,7.927,0,0,1,7.158-.3l29.921,17.272c1.839,1.057,1.6,2.916-.513,4.137l-28.9,16.681A7.966,7.966,0,0,1,2261.023,1528.844Z" transform="translate(-2055.338 -1365.96)"/><path class="i" d="M2297.08,1528.055l-28.9,16.681a7.968,7.968,0,0,1-7.158.3l-29.921-17.272a2.841,2.841,0,0,1-.907-.815,1.911,1.911,0,0,0,.907,2.844l29.921,17.279a7.968,7.968,0,0,0,7.158-.3l28.9-16.681c1.642-.952,2.154-2.286,1.431-3.323A4.03,4.03,0,0,1,2297.08,1528.055Z" transform="translate(-2055.338 -1384.19)"/><path class="j" d="M2280.593,1527.916l-14-8.084c-.88-.493-.762-1.353.223-1.931l13.529-7.808a3.714,3.714,0,0,1,3.349-.138l14,8.085c.854.5.762,1.366-.236,1.931l-13.516,7.809A3.715,3.715,0,0,1,2280.593,1527.916Z" transform="translate(-2073.13 -1375.742)"/><path class="f" d="M2300.838,1512.1l13.962,8.058c.8-.565.828-1.333.04-1.793l-14-8.084" transform="translate(-2090.271 -1376.075)"/><path class="e" d="M2280.344,1510.552l-13.529,7.809c-.985.578-1.1,1.438-.223,1.937l.026.02c.066-.046.131-.092.2-.131l13.529-7.809" transform="translate(-2073.13 -1376.207)"/><path class="g" d="M2294.236,1511.918a3.673,3.673,0,0,1,3.349-.138v-1.826a3.712,3.712,0,0,0-3.349.138Z" transform="translate(-2087.019 -1375.742)"/><path class="e" d="M1976.955,1676.276a8.429,8.429,0,0,0,3.849-1.011l28.9-16.681c1.221-.709,1.812-1.629,1.734-2.482h0v-10.324l-23.143-.013-8.012-4.624a6.315,6.315,0,0,0-3.323-.7" transform="translate(-1930.869 -1440.127)"/><path class="f" d="M1943.541,1640.451a8.061,8.061,0,0,0-3.835,1.011l-7.474,4.308-23.17-.026v10.626a2.058,2.058,0,0,0,1.235,1.918l29.921,17.272a6.343,6.343,0,0,0,3.323.709Z" transform="translate(-1897.45 -1440.138)"/><path class="g" d="M1911.676,1650.9h-2.614v10.626a2.07,2.07,0,0,0,1.235,1.918l1.379.8Z" transform="translate(-1897.45 -1445.271)"/><path class="g" d="M1971.316,1698.3a8.158,8.158,0,0,0,5.714-.066v-12.058h-5.714Z" transform="translate(-1928.094 -1462.64)"/><path class="i" d="M1940.208,1650.872l-29.921-17.279c-1.839-1.057-1.6-2.9.513-4.131l28.9-16.681a7.948,7.948,0,0,1,7.158-.3l29.92,17.285c1.839,1.057,1.6,2.91-.512,4.137l-28.9,16.681A7.945,7.945,0,0,1,1940.208,1650.872Z" transform="translate(-1897.447 -1426.016)"/><path class="i" d="M1976.266,1650.08l-28.9,16.681a7.88,7.88,0,0,1-7.145.3l-29.935-17.272a2.832,2.832,0,0,1-.919-.814,1.918,1.918,0,0,0,.919,2.837l29.935,17.272c1.825,1.077,5.03.932,7.145-.289l28.9-16.681c1.656-.959,2.154-2.272,1.432-3.323A3.965,3.965,0,0,1,1976.266,1650.08Z" transform="translate(-1897.449 -1444.244)"/><path class="j" d="M1946.167,1650.891l-25.074-14.481c-1.537-.887-1.353-2.436.434-3.461l24.207-13.982a6.687,6.687,0,0,1,6.016-.25l25.061,14.474c1.55.893,1.353,2.45-.42,3.474l-24.22,13.969A6.662,6.662,0,0,1,1946.167,1650.891Z" transform="translate(-1902.862 -1429.14)"/><g transform="translate(11.62 183.812)"><path class="e" d="M1976.986,1643.787a8.249,8.249,0,0,0,3.835-1l28.9-16.681c1.222-.709,1.813-1.629,1.734-2.476h0V1613.3l-23.144-.013-8-4.617a6.5,6.5,0,0,0-3.323-.716" transform="translate(-1942.508 -1607.953)"/><path class="f" d="M1943.569,1607.964a8.334,8.334,0,0,0-3.836,1.011l-7.46,4.308-23.183-.007v10.613a2.117,2.117,0,0,0,1.234,1.924l29.921,17.272a6.608,6.608,0,0,0,3.323.716Z" transform="translate(-1909.088 -1607.956)"/><path class="g" d="M1911.717,1618.409h-2.627v10.613a2.111,2.111,0,0,0,1.234,1.924l1.392.8Z" transform="translate(-1909.088 -1613.098)"/><path class="g" d="M1971.345,1665.814a8.2,8.2,0,0,0,5.727-.066V1653.69h-5.727Z" transform="translate(-1939.732 -1630.466)"/></g><path class="i" d="M1940.244,1618.379l-29.921-17.272c-1.839-1.057-1.616-2.916.5-4.137l28.9-16.681a8,8,0,0,1,7.172-.3l29.921,17.272c1.839,1.058,1.6,2.916-.512,4.137l-28.9,16.681A7.966,7.966,0,0,1,1940.244,1618.379Z" transform="translate(-1897.462 -1410.029)"/><path class="i" d="M1976.3,1617.594l-28.9,16.681a7.968,7.968,0,0,1-7.158.3l-29.921-17.272a2.762,2.762,0,0,1-.919-.814,1.924,1.924,0,0,0,.919,2.844l29.921,17.279a7.968,7.968,0,0,0,7.158-.3l28.9-16.681c1.655-.952,2.155-2.286,1.432-3.323A4.036,4.036,0,0,1,1976.3,1617.594Z" transform="translate(-1897.464 -1428.249)"/><path class="j" d="M1946.167,1618.4l-25.074-14.468c-1.537-.9-1.353-2.449.434-3.474l24.207-13.982a6.706,6.706,0,0,1,6.016-.243l25.061,14.481c1.55.887,1.353,2.437-.42,3.461l-24.22,13.982A6.658,6.658,0,0,1,1946.167,1618.4Z" transform="translate(-1902.862 -1413.154)"/><path class="e" d="M1976.959,1611.3a8.339,8.339,0,0,0,3.835-1.012l28.9-16.681c1.222-.709,1.813-1.615,1.747-2.469h0v-10.331l-23.157-.007-8-4.623a6.572,6.572,0,0,0-3.323-.716" transform="translate(-1930.872 -1408.151)"/><path class="f" d="M1943.555,1575.475a8.423,8.423,0,0,0-3.848,1.005l-7.461,4.308-23.183-.006v10.613a2.113,2.113,0,0,0,1.235,1.924l29.921,17.272a6.457,6.457,0,0,0,3.336.716Z" transform="translate(-1897.452 -1408.155)"/><path class="g" d="M1911.69,1585.922h-2.627v10.626a2.117,2.117,0,0,0,1.235,1.918l1.392.795Z" transform="translate(-1897.452 -1413.298)"/><path class="g" d="M1971.32,1633.326a8.156,8.156,0,0,0,5.727-.066V1621.2h-5.727Z" transform="translate(-1928.099 -1430.659)"/><path class="i" d="M1940.217,1585.9l-29.921-17.279c-1.839-1.064-1.615-2.916.513-4.137l28.9-16.681a7.948,7.948,0,0,1,7.158-.3l29.921,17.285c1.839,1.057,1.6,2.9-.512,4.125l-28.9,16.681A7.95,7.95,0,0,1,1940.217,1585.9Z" transform="translate(-1897.452 -1394.042)"/><path class="i" d="M1976.269,1585.113l-28.883,16.675a7.959,7.959,0,0,1-7.172.309l-29.921-17.285a2.755,2.755,0,0,1-.919-.814,1.931,1.931,0,0,0,.919,2.85l29.921,17.272a7.955,7.955,0,0,0,7.172-.3l28.883-16.681c1.655-.952,2.154-2.279,1.432-3.323A3.919,3.919,0,0,1,1976.269,1585.113Z" transform="translate(-1897.452 -1412.263)"/><path class="j" d="M1959.76,1584.974l-14-8.084c-.854-.5-.749-1.366.249-1.937l13.516-7.808a3.714,3.714,0,0,1,3.349-.138l14,8.084c.867.493.749,1.366-.236,1.937l-13.516,7.809A3.762,3.762,0,0,1,1959.76,1584.974Z" transform="translate(-1915.235 -1403.824)"/><path class="f" d="M1980.023,1569.149l13.962,8.065c.788-.565.828-1.34.04-1.8l-14-8.084" transform="translate(-1932.377 -1404.147)"/><path class="e" d="M1959.523,1567.6l-13.516,7.809c-1,.571-1.1,1.445-.249,1.937l.039.02c.066-.046.131-.092.21-.138l13.516-7.808" transform="translate(-1915.235 -1404.282)"/><path class="g" d="M1973.422,1568.97a3.717,3.717,0,0,1,3.349-.144v-1.819a3.714,3.714,0,0,0-3.349.138Z" transform="translate(-1929.133 -1403.824)"/><path class="e" d="M2240.873,1810.081a8.427,8.427,0,0,0,3.849-1.011l28.87-16.681c1.234-.709,1.825-1.616,1.76-2.47h0V1779.6l-23.143-.013-8.012-4.623a6.674,6.674,0,0,0-3.323-.722" transform="translate(-2060.762 -1505.975)"/><path class="f" d="M2207.446,1774.248a8.243,8.243,0,0,0-3.835,1l-7.474,4.321-23.157-.013v10.613a2.066,2.066,0,0,0,1.222,1.918l29.921,17.286a6.637,6.637,0,0,0,3.323.709Z" transform="translate(-2027.344 -1505.987)"/><path class="g" d="M2175.607,1784.705l-2.627-.013v10.626a2.079,2.079,0,0,0,1.222,1.918l1.405.8Z" transform="translate(-2027.344 -1511.12)"/><path class="g" d="M2235.234,1832.1a8.119,8.119,0,0,0,5.727-.066v-12.057h-5.727Z" transform="translate(-2057.98 -1528.49)"/><path class="i" d="M2204.126,1784.675,2174.2,1767.39c-1.839-1.051-1.6-2.916.512-4.137l28.9-16.681a7.945,7.945,0,0,1,7.158-.289l29.934,17.272c1.839,1.064,1.6,2.916-.525,4.137l-28.884,16.681A7.937,7.937,0,0,1,2204.126,1784.675Z" transform="translate(-2027.333 -1491.864)"/><path class="i" d="M2240.176,1783.878l-28.883,16.681a8.023,8.023,0,0,1-7.172.3l-29.921-17.286a2.667,2.667,0,0,1-.919-.814,1.937,1.937,0,0,0,.919,2.85l29.921,17.272a7.977,7.977,0,0,0,7.172-.289l28.883-16.681c1.655-.959,2.155-2.286,1.445-3.323A4.136,4.136,0,0,1,2240.176,1783.878Z" transform="translate(-2027.333 -1510.094)"/><path class="j" d="M2210.078,1784.683l-25.061-14.474c-1.55-.88-1.353-2.43.42-3.468l24.22-13.975a6.66,6.66,0,0,1,6-.25l25.074,14.475c1.55.893,1.34,2.443-.42,3.467l-24.221,13.975A6.686,6.686,0,0,1,2210.078,1784.683Z" transform="translate(-2032.757 -1494.991)"/><path class="e" d="M2240.9,1777.584a8.208,8.208,0,0,0,3.835-1.011l28.884-16.681c1.234-.709,1.826-1.629,1.76-2.469h0V1747.1l-23.157-.013-8.012-4.623a6.264,6.264,0,0,0-3.31-.709" transform="translate(-2060.778 -1489.988)"/><path class="f" d="M2207.487,1741.76a8.264,8.264,0,0,0-3.848,1.011l-7.46,4.308-23.17-.013v10.626a2.071,2.071,0,0,0,1.235,1.917l29.908,17.272a6.552,6.552,0,0,0,3.336.709Z" transform="translate(-2027.356 -1489.991)"/><path class="g" d="M2175.635,1752.2h-2.627v10.613a2.06,2.06,0,0,0,1.235,1.918l1.392.8Z" transform="translate(-2027.356 -1495.133)"/><path class="g" d="M2235.263,1799.609a8.23,8.23,0,0,0,5.714-.066v-12.057h-5.714Z" transform="translate(-2057.993 -1512.501)"/><path class="i" d="M2204.152,1752.183l-29.907-17.272c-1.839-1.077-1.616-2.916.5-4.137l28.9-16.681c2.128-1.222,5.333-1.366,7.158-.3l29.934,17.272c1.839,1.064,1.6,2.916-.525,4.137l-28.883,16.681A8.017,8.017,0,0,1,2204.152,1752.183Z" transform="translate(-2027.351 -1475.878)"/><path class="i" d="M2240.2,1751.4l-28.87,16.681a7.973,7.973,0,0,1-7.172.289l-29.92-17.272a2.807,2.807,0,0,1-.919-.814,1.918,1.918,0,0,0,.919,2.837l29.92,17.285a7.977,7.977,0,0,0,7.172-.3l28.87-16.681c1.668-.946,2.154-2.272,1.445-3.323A3.939,3.939,0,0,1,2240.2,1751.4Z" transform="translate(-2027.346 -1494.097)"/><path class="k" d="M2232.515,1593.846h-2.627v10.626a2.064,2.064,0,0,0,1.235,1.918l1.392.8Z" transform="translate(-2055.355 -1417.199)"/><path class="k" d="M2232.515,1561.358h-2.627v10.613a2.073,2.073,0,0,0,1.235,1.924l1.392.8Z" transform="translate(-2055.355 -1401.213)"/><path class="k" d="M2232.515,1528.87h-2.627v10.613a2.066,2.066,0,0,0,1.235,1.924l1.392.8Z" transform="translate(-2055.355 -1385.217)"/><path class="e" d="M2174.269,1568.635h0V1448.077l-47.929-12.55-8.84-5.1c-2.01-1.169-5.556-1.025-7.894.328l-8.235,4.755-25.56-.013,7.565,116.387a2.272,2.272,0,0,0,1.366,2.121l47.823,36.088c2.01,1.175,5.556,1.024,7.894-.328l31.891-18.4C2173.691,1570.592,2174.348,1569.58,2174.269,1568.635Z" transform="translate(-1979.516 -1336.384)"/><path class="f" d="M2113.846,1429.653a9.146,9.146,0,0,0-4.243,1.116l-8.235,4.755-25.561-.02V1556.4a2.223,2.223,0,0,0,1.353,2.115l55.4,31.6a7.228,7.228,0,0,0,3.664.775l.565-121.641Z" transform="translate(-1979.521 -1336.388)"/><path class="g" d="M2188.578,1627.325a9.028,9.028,0,0,0,6.318-.072V1504.778h-6.318Z" transform="translate(-2035.016 -1373.365)"/><path class="i" d="M2132.552,1453.685l-55.389-31.589c-2.036-1.175-1.773-3.218.564-4.564l31.878-18.408c2.324-1.353,5.871-1.5,7.894-.328l55.4,31.589c2.036,1.176,1.773,3.212-.565,4.564l-31.878,18.408C2138.122,1454.7,2134.575,1454.848,2132.552,1453.685Z" transform="translate(-1979.513 -1320.814)"/><path class="i" d="M2172.338,1453.01l-31.891,18.408c-2.325,1.34-5.872,1.491-7.894.328l-55.389-31.6a2.893,2.893,0,0,1-1.024-.893c-.683,1.123-.381,2.338,1.024,3.139l55.389,31.6c2.022,1.162,5.569,1.018,7.894-.328l31.891-18.408c1.813-1.051,2.364-2.522,1.576-3.665A4.446,4.446,0,0,1,2172.338,1453.01Z" transform="translate(-1979.511 -1341.118)"/><path class="j" d="M2154.309,1450.784l-36.9-21.383c-.959-.552-.828-1.5.263-2.134l14.921-8.61a4.088,4.088,0,0,1,3.691-.158l36.9,21.383c.959.545.828,1.5-.263,2.134l-14.921,8.61A4.087,4.087,0,0,1,2154.309,1450.784Z" transform="translate(-1999.672 -1330.718)"/><g transform="translate(132.476 96.849)"><path class="l" d="M2149.284,1439.508l-2.128-1.235c-.131-.079-.118-.21.026-.3l2.075-1.189a.521.521,0,0,1,.5-.02L2151.9,1438c.131.079.118.21-.039.3l-2.062,1.189A.566.566,0,0,1,2149.284,1439.508Z" transform="translate(-2147.065 -1436.714)"/><path class="l" d="M2163.345,1447.594l-2.127-1.235c-.131-.072-.119-.2.026-.3l2.076-1.189a.567.567,0,0,1,.512-.026l2.128,1.241c.131.072.119.2-.026.3l-2.075,1.189A.566.566,0,0,1,2163.345,1447.594Z" transform="translate(-2153.985 -1440.695)"/><path class="l" d="M2177.406,1455.678l-2.128-1.235c-.131-.079-.119-.21.026-.3l2.075-1.189a.568.568,0,0,1,.512-.026l2.127,1.235c.131.079.119.21-.026.3l-2.076,1.189A.566.566,0,0,1,2177.406,1455.678Z" transform="translate(-2160.903 -1444.675)"/><path class="l" d="M2191.466,1463.764l-2.128-1.241c-.131-.072-.118-.2.026-.3l2.062-1.189a.617.617,0,0,1,.525-.02l2.128,1.235c.131.072.118.2-.026.3l-2.075,1.189A.567.567,0,0,1,2191.466,1463.764Z" transform="translate(-2167.821 -1448.655)"/></g><path class="e" d="M2132.6,1419.16l-14.921,8.61c-1.09.63-1.222,1.589-.263,2.134l.039.026c.079-.052.131-.1.223-.151l14.921-8.61" transform="translate(-1999.672 -1331.223)"/><path class="f" d="M2155.209,1420.867l36.843,21.357c.867-.624.919-1.478.026-1.983l-36.869-21.383" transform="translate(-2018.591 -1331.076)"/><path class="m" d="M2213.317,1530l20.963-12.012a5.127,5.127,0,0,0,2.154-4.078v-7.507c0-1.576-.972-2.3-2.154-1.615l-20.963,12.012a5.094,5.094,0,0,0-2.128,4.078v7.5C2211.189,1529.952,2212.135,1530.681,2213.317,1530Z" transform="translate(-2046.151 -1373.245)"/><path class="i" d="M2235.847,1504.594a2.02,2.02,0,0,1,.552,1.563v7.5a5.117,5.117,0,0,1-2.141,4.085l-20.963,12.005a1.593,1.593,0,0,1-1.051.236,1.32,1.32,0,0,0,1.616.046l20.963-12a5.12,5.12,0,0,0,2.128-4.092v-7.494C2236.95,1505.369,2236.5,1504.713,2235.847,1504.594Z" transform="translate(-2046.663 -1373.271)"/><g transform="translate(173.02 140.429)"><path class="e" d="M2227.347,1534.3l1.931-1.1a1.117,1.117,0,0,0,.473-.887v-2.062c0-.335-.21-.5-.473-.355l-1.931,1.116a1.161,1.161,0,0,0-.446.887v2.056C2226.9,1534.294,2227.11,1534.452,2227.347,1534.3Z" transform="translate(-2226.9 -1526.131)"/><path class="j" d="M2240.052,1526.995l1.917-1.11a1.158,1.158,0,0,0,.46-.9v-2.049c0-.341-.21-.5-.46-.354l-1.917,1.11a1.131,1.131,0,0,0-.486.893v2.056C2239.566,1526.981,2239.789,1527.139,2240.052,1526.995Z" transform="translate(-2233.13 -1522.528)"/></g><path class="m" d="M2213.317,1636.706l20.963-12a5.142,5.142,0,0,0,2.154-4.092v-7.493c0-1.576-.972-2.3-2.154-1.615l-20.963,12a5.108,5.108,0,0,0-2.128,4.085v7.493C2211.189,1636.667,2212.135,1637.389,2213.317,1636.706Z" transform="translate(-2046.151 -1425.762)"/><path class="i" d="M2235.847,1611.309a1.986,1.986,0,0,1,.552,1.557v7.506a5.115,5.115,0,0,1-2.141,4.078l-20.963,12.012a1.538,1.538,0,0,1-1.051.223,1.3,1.3,0,0,0,1.616.059l20.963-12.012a5.094,5.094,0,0,0,2.128-4.078v-7.507C2236.95,1612.078,2236.5,1611.421,2235.847,1611.309Z" transform="translate(-2046.663 -1425.789)"/><g transform="translate(173.02 194.624)"><path class="e" d="M2227.347,1641.021l1.931-1.11a1.1,1.1,0,0,0,.473-.893v-2.056c0-.341-.21-.5-.473-.348l-1.931,1.11a1.163,1.163,0,0,0-.446.893v2.049C2226.9,1641.014,2227.11,1641.165,2227.347,1641.021Z" transform="translate(-2226.9 -1632.846)"/><path class="e" d="M2240.052,1633.708l1.917-1.116a1.132,1.132,0,0,0,.46-.887v-2.049c0-.348-.21-.506-.46-.355l-1.917,1.1a1.131,1.131,0,0,0-.486.893v2.055C2239.566,1633.688,2239.789,1633.859,2240.052,1633.708Z" transform="translate(-2233.13 -1629.244)"/></g><path class="m" d="M2213.317,1690.077l20.963-12.018a5.124,5.124,0,0,0,2.154-4.072v-7.513c0-1.576-.972-2.286-2.154-1.615l-20.963,12.018a5.1,5.1,0,0,0-2.128,4.072v7.513C2211.189,1690.038,2212.135,1690.76,2213.317,1690.077Z" transform="translate(-2046.151 -1452.021)"/><path class="i" d="M2235.847,1664.667a2.011,2.011,0,0,1,.552,1.563v7.5a5.118,5.118,0,0,1-2.141,4.085l-20.963,12.005a1.632,1.632,0,0,1-1.051.236,1.3,1.3,0,0,0,1.616.039l20.963-11.992a5.132,5.132,0,0,0,2.128-4.1v-7.487C2236.95,1665.442,2236.5,1664.785,2235.847,1664.667Z" transform="translate(-2046.663 -1452.056)"/><g transform="translate(173.02 221.721)"><path class="n" d="M2227.347,1694.366l1.931-1.1a1.091,1.091,0,0,0,.473-.893v-2.049c0-.341-.21-.5-.473-.355l-1.931,1.116a1.136,1.136,0,0,0-.446.88v2.062C2226.9,1694.366,2227.11,1694.523,2227.347,1694.366Z" transform="translate(-2226.9 -1686.201)"/><path class="o" d="M2240.052,1687.054l1.917-1.1a1.134,1.134,0,0,0,.46-.893v-2.049c0-.341-.21-.5-.46-.355l-1.917,1.1a1.121,1.121,0,0,0-.486.893v2.062C2239.566,1687.054,2239.789,1687.212,2240.052,1687.054Z" transform="translate(-2233.13 -1682.601)"/></g><path class="m" d="M2213.317,1583.353l20.963-12.012a5.106,5.106,0,0,0,2.154-4.078v-7.5c0-1.57-.972-2.292-2.154-1.616l-20.963,12.005a5.107,5.107,0,0,0-2.128,4.085v7.5C2211.189,1583.313,2212.135,1584.036,2213.317,1583.353Z" transform="translate(-2046.151 -1399.504)"/><path class="i" d="M2235.847,1557.953a1.986,1.986,0,0,1,.552,1.557v7.5a5.117,5.117,0,0,1-2.141,4.085l-20.963,12.005a1.576,1.576,0,0,1-1.051.223,1.283,1.283,0,0,0,1.616.059l20.963-12.012a5.094,5.094,0,0,0,2.128-4.078v-7.5C2236.95,1558.721,2236.5,1558.058,2235.847,1557.953Z" transform="translate(-2046.663 -1399.531)"/><g transform="translate(173.02 167.526)"><path class="j" d="M2227.347,1587.663l1.931-1.116a1.107,1.107,0,0,0,.473-.887v-2.049c0-.348-.21-.506-.473-.355l-1.931,1.1a1.177,1.177,0,0,0-.446.9v2.049C2226.9,1587.656,2227.11,1587.814,2227.347,1587.663Z" transform="translate(-2226.9 -1579.488)"/><path class="j" d="M2240.052,1580.352l1.917-1.11a1.145,1.145,0,0,0,.46-.893v-2.056c0-.341-.21-.5-.46-.354l-1.917,1.116a1.121,1.121,0,0,0-.486.893V1580C2239.566,1580.339,2239.789,1580.5,2240.052,1580.352Z" transform="translate(-2233.13 -1575.885)"/></g><path class="g" d="M2130.839,1498.25l-48.375-27.937a4.687,4.687,0,0,1-1.97-3.75v-9.227c0-1.438.88-2.1,1.97-1.478l48.375,27.938a4.654,4.654,0,0,1,1.957,3.743v9.22C2132.8,1498.2,2131.929,1498.874,2130.839,1498.25Z" transform="translate(-1981.819 -1349.175)"/><path class="e" d="M2131.746,1498.262l-45.617-26.335a2.377,2.377,0,0,1-1-1.9v-6.942c0-.729.447-1.064,1-.748l45.617,26.335a2.38,2.38,0,0,1,.985,1.891v6.935C2132.731,1498.236,2132.284,1498.571,2131.746,1498.262Z" transform="translate(-1984.108 -1352.422)"/><path class="g" d="M2130.839,1530.281l-48.375-27.938a4.675,4.675,0,0,1-1.97-3.743v-9.227c0-1.445.88-2.1,1.97-1.478l48.375,27.931a4.687,4.687,0,0,1,1.957,3.75v9.227C2132.8,1530.248,2131.929,1530.911,2130.839,1530.281Z" transform="translate(-1981.819 -1364.939)"/><path class="e" d="M2131.746,1530.3l-45.617-26.335a2.364,2.364,0,0,1-1-1.891v-6.942c0-.735.447-1.071,1-.755l45.617,26.329a2.426,2.426,0,0,1,.985,1.9v6.935C2132.731,1530.272,2132.284,1530.614,2131.746,1530.3Z" transform="translate(-1984.108 -1368.187)"/><path class="g" d="M2130.839,1562.318l-48.375-27.931a4.675,4.675,0,0,1-1.97-3.743v-9.227c0-1.445.88-2.115,1.97-1.484l48.375,27.931a4.677,4.677,0,0,1,1.957,3.75v9.233C2132.8,1562.279,2131.929,1562.948,2130.839,1562.318Z" transform="translate(-1981.819 -1380.705)"/><path class="e" d="M2131.746,1562.33,2086.129,1536a2.38,2.38,0,0,1-1-1.9v-6.935c0-.729.447-1.07,1-.749l45.617,26.328a2.4,2.4,0,0,1,.985,1.9v6.935C2132.731,1562.311,2132.284,1562.646,2131.746,1562.33Z" transform="translate(-1984.108 -1383.952)"/><path class="g" d="M2130.839,1594.36l-48.375-27.938a4.675,4.675,0,0,1-1.97-3.743v-9.227c0-1.445.88-2.108,1.97-1.491l48.375,27.938a4.684,4.684,0,0,1,1.957,3.743v9.227C2132.8,1594.314,2131.929,1594.977,2130.839,1594.36Z" transform="translate(-1981.819 -1396.469)"/><path class="e" d="M2131.746,1594.368l-45.617-26.329a2.4,2.4,0,0,1-1-1.9v-6.942c0-.729.447-1.064,1-.742l45.617,26.329a2.4,2.4,0,0,1,.985,1.9v6.922C2132.731,1594.349,2132.284,1594.684,2131.746,1594.368Z" transform="translate(-1984.108 -1399.718)"/><path class="g" d="M2130.839,1626.389l-48.375-27.931a4.688,4.688,0,0,1-1.97-3.75v-9.22c0-1.445.88-2.115,1.97-1.484l48.375,27.931a4.664,4.664,0,0,1,1.957,3.743v9.227C2132.8,1626.35,2131.929,1627.02,2130.839,1626.389Z" transform="translate(-1981.819 -1412.234)"/><path class="e" d="M2131.746,1626.406l-45.617-26.335a2.377,2.377,0,0,1-1-1.9v-6.942c0-.729.447-1.064,1-.749l45.617,26.335a2.38,2.38,0,0,1,.985,1.891v6.935C2132.731,1626.38,2132.284,1626.714,2131.746,1626.406Z" transform="translate(-1984.108 -1415.482)"/><path class="g" d="M2130.839,1658.423l-48.375-27.931a4.7,4.7,0,0,1-1.97-3.75v-9.227c0-1.445.88-2.1,1.97-1.478l48.375,27.938a4.664,4.664,0,0,1,1.957,3.743v9.227C2132.8,1658.391,2131.929,1659.054,2130.839,1658.423Z" transform="translate(-1981.819 -1428.007)"/><path class="e" d="M2131.746,1658.446l-45.617-26.335a2.377,2.377,0,0,1-1-1.9v-6.935c0-.742.447-1.077,1-.755l45.617,26.335a2.4,2.4,0,0,1,.985,1.9v6.935C2132.731,1658.419,2132.284,1658.761,2131.746,1658.446Z" transform="translate(-1984.108 -1431.248)"/><path class="g" d="M2130.839,1690.455l-48.375-27.925a4.71,4.71,0,0,1-1.97-3.756v-9.221c0-1.445.88-2.115,1.97-1.471l48.375,27.925a4.674,4.674,0,0,1,1.957,3.743v9.234C2132.8,1690.429,2131.929,1691.086,2130.839,1690.455Z" transform="translate(-1981.819 -1443.772)"/><path class="e" d="M2131.746,1690.465l-45.617-26.322a2.38,2.38,0,0,1-1-1.9v-6.922c0-.749.447-1.077,1-.762l45.617,26.322a2.447,2.447,0,0,1,.985,1.9v6.948C2132.731,1690.452,2132.284,1690.794,2131.746,1690.465Z" transform="translate(-1984.108 -1447.021)"/><path class="f" d="M2257.212,1413.922l11.362-6.686-10.823-13.49-2.837,4.637Z" transform="translate(-2067.661 -1318.723)"/><path class="f" d="M2097.127,1277.543l18.126-10.422s-.7,10.4-.7,10.422-10.4,3.231-10.4,3.231Z" transform="translate(-1990.013 -1256.4)"/><path class="f" d="M2195.769,1307.283a11.56,11.56,0,0,0-3.927-1.451c-1.825-9.6-8.511-19.8-16.471-24.4a16.11,16.11,0,0,0-6.738-2.279c-1.09-11.631-9.168-24.858-19.006-30.538-5.136-2.962-9.785-3.31-13.227-1.5l.013-.006-.184.092c-.079.046-.171.1-.263.158l-10.679,6.3,3.546,2.8c-3.178,1.4-5.2,4.965-5.2,10.252,0,9.746,6.856,21.594,15.289,26.46l56.847,40.593c6.331,3.665,11.467.7,11.467-6.62S2202.1,1310.941,2195.769,1307.283Z" transform="translate(-2003.056 -1246.01)"/><path class="f" d="M2124.672,1262.435l24.536-14.33c-4.768-2.483-9.063-2.693-12.294-.985v-.007l-.171.092c-.079.046-.184.1-.263.151l-10.692,6.3,3.56,2.811A8.547,8.547,0,0,0,2124.672,1262.435Z" transform="translate(-2003.569 -1246.009)"/><path class="f" d="M2195.748,1337.993l17.9-10.5c-3.073-5.3-7.29-9.943-11.965-12.642a20.308,20.308,0,0,0-1.839-.939l-22.762,13.305Z" transform="translate(-2029.367 -1279.431)"/><path class="f" d="M2136.812,1255.292l7.986,4.61,14.593-8.6a28.031,28.031,0,0,0-3.284-2.22,20.133,20.133,0,0,0-5.11-2.154Z" transform="translate(-2009.536 -1246.457)"/><path class="f" d="M2231.352,1334.585,2217.074,1343l4.978,5.536,12.951-7.651A41.126,41.126,0,0,0,2231.352,1334.585Z" transform="translate(-2049.048 -1289.598)"/><path class="j" d="M2167.007,1320.292a11.388,11.388,0,0,0-3.927-1.458c-1.812-9.6-8.5-19.794-16.471-24.4a16.127,16.127,0,0,0-6.738-2.272c-1.09-11.644-9.181-24.864-19.006-30.538-10.561-6.1-19.137-1.156-19.137,11.04q0,.63.039,1.261c-7.723-3.592-13.765.447-13.765,9.6,0,9.746,6.83,21.594,15.263,26.466l63.743,36.791c6.344,3.658,11.48.7,11.48-6.62S2173.351,1323.95,2167.007,1320.292Z" transform="translate(-1985.518 -1252.412)"/><g transform="translate(105.683 9.799)"><path class="j" d="M2103.529,1279.931l4.781,2.213-.236-5.274c-.013-.368-.027-.736-.027-1.1,0-4.7,1.406-8.117,4.006-9.615,2.575-1.484,6.239-1.011,10.324,1.346,8.761,5.057,16.418,17.384,17.4,28.063l.263,2.679,2.693.21a12.978,12.978,0,0,1,5.385,1.859c6.961,4.026,13.227,13.365,14.921,22.224l.433,2.213,2.207.355a8.469,8.469,0,0,1,2.837,1.064c5.346,3.087,9.864,10.915,9.864,17.095,0,2.305-.643,4.006-1.76,4.656s-2.9.342-4.912-.8l-63.73-36.8c-7.407-4.288-13.673-15.131-13.673-23.688,0-3.363,1-5.924,2.719-7.02a4.618,4.618,0,0,1,2.548-.683A9.546,9.546,0,0,1,2103.529,1279.931Z" transform="translate(-2094.308 -1265.304)"/></g><path class="i" d="M2229.735,1611.986h-.985V1557.5l6.436-3.7v-26.821h.985v27.373l-6.436,3.724Z" transform="translate(-2054.796 -1384.285)"/><g transform="translate(36.688 191.907)"><path class="p" d="M1965.048,1628.263c0,.519-.368.729-.814.466a1.762,1.762,0,0,1-.814-1.412c0-.519.355-.722.814-.466A1.817,1.817,0,0,1,1965.048,1628.263Z" transform="translate(-1960.9 -1625.296)"/><path class="q" d="M1960.067,1625.405c0,.525-.355.735-.8.479a1.782,1.782,0,0,1-.815-1.412c0-.519.355-.729.815-.467A1.78,1.78,0,0,1,1960.067,1625.405Z" transform="translate(-1958.451 -1623.893)"/><path class="n" d="M1965.048,1634.256c0,.525-.368.729-.814.479a1.794,1.794,0,0,1-.814-1.419c0-.512.355-.729.814-.466A1.8,1.8,0,0,1,1965.048,1634.256Z" transform="translate(-1960.9 -1628.248)"/><path class="n" d="M1960.067,1631.41c0,.519-.355.729-.8.466a1.751,1.751,0,0,1-.815-1.405c0-.525.355-.729.815-.473A1.8,1.8,0,0,1,1960.067,1631.41Z" transform="translate(-1958.451 -1626.842)"/><g transform="translate(0 17.864)"><path class="p" d="M1965.048,1660.592c0,.512-.368.722-.814.46a1.76,1.76,0,0,1-.814-1.406c0-.512.355-.722.814-.473A1.839,1.839,0,0,1,1965.048,1660.592Z" transform="translate(-1960.9 -1659.068)"/><path class="n" d="M1965.048,1666.582c0,.525-.368.722-.814.473a1.784,1.784,0,0,1-.814-1.419c0-.512.355-.722.814-.46A1.775,1.775,0,0,1,1965.048,1666.582Z" transform="translate(-1960.9 -1662.018)"/><path class="n" d="M1960.067,1663.727c0,.525-.355.736-.8.473a1.761,1.761,0,0,1-.815-1.406c0-.525.355-.722.815-.473A1.8,1.8,0,0,1,1960.067,1663.727Z" transform="translate(-1958.451 -1660.614)"/></g><g transform="translate(0 32.834)"><path class="p" d="M1965.048,1692.921c0,.512-.368.722-.814.46a1.76,1.76,0,0,1-.814-1.405c0-.525.355-.722.814-.473A1.818,1.818,0,0,1,1965.048,1692.921Z" transform="translate(-1960.9 -1689.95)"/><path class="q" d="M1960.067,1690.061c0,.525-.355.736-.8.473a1.741,1.741,0,0,1-.815-1.405c0-.512.355-.736.815-.473A1.8,1.8,0,0,1,1960.067,1690.061Z" transform="translate(-1958.451 -1688.545)"/><path class="n" d="M1965.048,1698.907c0,.525-.368.736-.814.473a1.78,1.78,0,0,1-.814-1.406c0-.512.355-.736.814-.473A1.815,1.815,0,0,1,1965.048,1698.907Z" transform="translate(-1960.9 -1692.9)"/><path class="n" d="M1960.067,1696.059c0,.525-.355.736-.8.473a1.784,1.784,0,0,1-.815-1.419c0-.512.355-.722.815-.46A1.8,1.8,0,0,1,1960.067,1696.059Z" transform="translate(-1958.451 -1691.495)"/></g></g><path class="j" d="M2210.078,1752.2l-25.061-14.488c-1.55-.88-1.353-2.43.42-3.454l24.22-13.989a6.657,6.657,0,0,1,6-.236l25.074,14.461c1.55.906,1.34,2.456-.42,3.481l-24.221,13.975A6.729,6.729,0,0,1,2210.078,1752.2Z" transform="translate(-2032.757 -1479.003)"/><path class="o" d="M2207.449,1709.267a8.256,8.256,0,0,0-3.835,1.011l-7.474,4.308-23.157-.013v10.613a2.084,2.084,0,0,0,1.222,1.931l29.921,17.272a6.5,6.5,0,0,0,3.323.709" transform="translate(-2027.347 -1474.007)"/><path class="e" d="M2240.877,1745.1a8.428,8.428,0,0,0,3.849-1.012l28.87-16.681c1.235-.709,1.826-1.615,1.76-2.469h0v-10.324l-23.143-.013-8.012-4.623a6.344,6.344,0,0,0-3.323-.709" transform="translate(-2060.766 -1474.002)"/><path class="f" d="M2207.449,1709.271a8.419,8.419,0,0,0-3.835,1.012l-7.474,4.321-23.157-.013V1725.2a2.08,2.08,0,0,0,1.222,1.918l29.921,17.272a6.644,6.644,0,0,0,3.323.722Z" transform="translate(-2027.347 -1474.003)"/><path class="g" d="M2175.611,1719.718h-2.627v10.613a2.084,2.084,0,0,0,1.222,1.931l1.405.8Z" transform="translate(-2027.347 -1479.146)"/><path class="g" d="M2235.238,1767.122a8.159,8.159,0,0,0,5.714-.066V1755h-5.714Z" transform="translate(-2057.984 -1496.507)"/><path class="i" d="M2204.13,1719.687l-29.921-17.272c-1.839-1.051-1.6-2.9.513-4.137l28.9-16.681a7.946,7.946,0,0,1,7.158-.289l29.934,17.272c1.839,1.064,1.6,2.916-.512,4.137l-28.9,16.681A7.972,7.972,0,0,1,2204.13,1719.687Z" transform="translate(-2027.337 -1459.89)"/><path class="i" d="M2240.2,1718.9l-28.9,16.681a8,8,0,0,1-7.185.3l-29.908-17.272a2.977,2.977,0,0,1-.919-.814,1.927,1.927,0,0,0,.919,2.837l29.908,17.285a8.046,8.046,0,0,0,7.185-.3l28.9-16.681c1.642-.946,2.127-2.272,1.432-3.323A4.083,4.083,0,0,1,2240.2,1718.9Z" transform="translate(-2027.339 -1478.11)"/><g transform="translate(230.766 151.814)"><path class="n" d="M2342.17,1553.754a1.713,1.713,0,0,1-.775,1.353c-.434.249-.788.046-.788-.453a1.737,1.737,0,0,1,.788-1.353C2341.829,1553.051,2342.17,1553.248,2342.17,1553.754Z" transform="translate(-2340.607 -1549.006)"/><path class="n" d="M2349.3,1549.633a1.753,1.753,0,0,1-.788,1.353c-.433.256-.775.052-.775-.447a1.736,1.736,0,0,1,.775-1.359A.484.484,0,0,1,2349.3,1549.633Z" transform="translate(-2344.107 -1546.976)"/><path class="q" d="M2356.442,1545.509a1.757,1.757,0,0,1-.762,1.353c-.447.243-.788.039-.788-.453a1.693,1.693,0,0,1,.788-1.353C2356.1,1544.8,2356.442,1545,2356.442,1545.509Z" transform="translate(-2347.635 -1544.946)"/></g><g transform="translate(230.766 168.312)"><path class="n" d="M2342.17,1586.241a1.722,1.722,0,0,1-.775,1.353c-.434.25-.788.053-.788-.453a1.727,1.727,0,0,1,.788-1.353C2341.829,1585.538,2342.17,1585.742,2342.17,1586.241Z" transform="translate(-2340.607 -1581.494)"/><path class="n" d="M2349.3,1582.124a1.763,1.763,0,0,1-.788,1.353c-.433.243-.775.046-.775-.453a1.7,1.7,0,0,1,.775-1.353C2348.931,1581.421,2349.3,1581.618,2349.3,1582.124Z" transform="translate(-2344.107 -1579.462)"/><path class="q" d="M2356.442,1577.99a1.737,1.737,0,0,1-.762,1.359c-.447.25-.788.046-.788-.453a1.724,1.724,0,0,1,.788-1.359C2356.1,1577.293,2356.442,1577.49,2356.442,1577.99Z" transform="translate(-2347.635 -1577.432)"/></g><g transform="translate(230.766 184.811)"><path class="n" d="M2342.17,1618.733a1.743,1.743,0,0,1-.775,1.353c-.434.243-.788.039-.788-.453a1.717,1.717,0,0,1,.788-1.353C2341.829,1618.024,2342.17,1618.227,2342.17,1618.733Z" transform="translate(-2340.607 -1613.983)"/><path class="n" d="M2349.3,1614.614a1.784,1.784,0,0,1-.788,1.353c-.433.25-.775.053-.775-.453a1.7,1.7,0,0,1,.775-1.353C2348.931,1613.9,2349.3,1614.114,2349.3,1614.614Z" transform="translate(-2344.107 -1611.949)"/><path class="q" d="M2356.442,1610.485a1.735,1.735,0,0,1-.762,1.353c-.447.243-.788.046-.788-.453a1.683,1.683,0,0,1,.788-1.353C2356.1,1609.776,2356.442,1609.979,2356.442,1610.485Z" transform="translate(-2347.635 -1609.921)"/></g><g transform="translate(205.508 248.735)"><path class="n" d="M2292.436,1740.477a1.737,1.737,0,0,1-.775,1.366c-.447.25-.788.039-.788-.447a1.716,1.716,0,0,1,.788-1.366C2292.094,1739.781,2292.436,1739.991,2292.436,1740.477Z" transform="translate(-2290.873 -1737.823)"/><path class="q" d="M2299.59,1736.353a1.728,1.728,0,0,1-.788,1.353c-.433.25-.775.053-.775-.447a1.715,1.715,0,0,1,.775-1.353C2299.235,1735.644,2299.59,1735.854,2299.59,1736.353Z" transform="translate(-2294.398 -1735.793)"/></g><g transform="translate(201.887 267.332)"><path class="n" d="M2285.294,1777.083a1.656,1.656,0,0,1-.788,1.353c-.42.249-.762.052-.762-.447a1.737,1.737,0,0,1,.762-1.353C2284.952,1776.387,2285.294,1776.584,2285.294,1777.083Z" transform="translate(-2283.744 -1774.435)"/><path class="n" d="M2292.436,1772.966a1.713,1.713,0,0,1-.775,1.353c-.447.249-.788.052-.788-.447a1.673,1.673,0,0,1,.788-1.353C2292.094,1772.27,2292.436,1772.467,2292.436,1772.966Z" transform="translate(-2287.244 -1772.411)"/></g><g transform="translate(201.887 281.733)"><path class="n" d="M2285.294,1809.576a1.692,1.692,0,0,1-.788,1.353c-.42.25-.762.04-.762-.446a1.717,1.717,0,0,1,.762-1.353C2284.952,1808.867,2285.294,1809.078,2285.294,1809.576Z" transform="translate(-2283.744 -1804.829)"/><path class="n" d="M2292.436,1805.464a1.733,1.733,0,0,1-.775,1.353c-.447.25-.788.052-.788-.447a1.7,1.7,0,0,1,.788-1.366C2292.094,1804.755,2292.436,1804.965,2292.436,1805.464Z" transform="translate(-2287.244 -1802.797)"/><path class="q" d="M2299.59,1801.323a1.728,1.728,0,0,1-.788,1.353c-.433.25-.775.052-.775-.447a1.7,1.7,0,0,1,.775-1.353C2299.235,1800.627,2299.59,1800.824,2299.59,1801.323Z" transform="translate(-2290.77 -1800.769)"/></g><path class="j" d="M2223.682,1718.752l-14-8.065c-.854-.512-.761-1.366.25-1.944l13.5-7.8a3.765,3.765,0,0,1,3.362-.144l14,8.091c.866.486.749,1.353-.236,1.931l-13.529,7.8A3.653,3.653,0,0,1,2223.682,1718.752Z" transform="translate(-2045.112 -1469.673)"/><path class="l" d="M2238.515,1720.711l-1.944-1.116c-.131-.066-.119-.184.026-.263l1.878-1.077a.519.519,0,0,1,.46-.026l1.944,1.116c.1.079.092.184-.039.276l-1.878,1.077A.49.49,0,0,1,2238.515,1720.711Z" transform="translate(-2058.602 -1478.395)"/><path class="f" d="M2243.941,1702.951l13.962,8.065c.788-.578.841-1.34.04-1.8l-14-8.091" transform="translate(-2062.271 -1469.995)"/><path class="e" d="M2223.432,1701.4l-13.5,7.8c-1.011.578-1.1,1.445-.25,1.944l.04.026a1.184,1.184,0,0,1,.21-.145l13.5-7.8" transform="translate(-2045.112 -1470.129)"/><line class="h" y1="1.82" transform="translate(181.367 230.986)"/><path class="g" d="M2237.338,1702.754a3.732,3.732,0,0,1,3.349-.131V1700.8a3.737,3.737,0,0,0-3.349.144Z" transform="translate(-2059.017 -1469.673)"/><path class="i" d="M2007.038,1838.289l-29.921-17.272c-1.839-1.064-1.6-2.916.512-4.137l28.9-16.681a8.017,8.017,0,0,1,7.172-.3l29.921,17.272c1.839,1.078,1.6,2.916-.525,4.137l-28.883,16.681A7.976,7.976,0,0,1,2007.038,1838.289Z" transform="translate(-1930.341 -1518.259)"/><path class="i" d="M2043.1,1837.5l-28.9,16.681a7.937,7.937,0,0,1-7.172.3l-29.921-17.286a2.955,2.955,0,0,1-.919-.814,1.945,1.945,0,0,0,.919,2.85l29.921,17.272a7.972,7.972,0,0,0,7.172-.289l28.9-16.681c1.642-.959,2.141-2.286,1.419-3.323A3.925,3.925,0,0,1,2043.1,1837.5Z" transform="translate(-1930.343 -1536.479)"/><path class="j" d="M2013,1838.313l-25.074-14.475c-1.55-.893-1.353-2.456.42-3.481l24.221-13.962a6.663,6.663,0,0,1,6-.263l25.074,14.488c1.537.88,1.353,2.43-.433,3.468l-24.207,13.976A6.7,6.7,0,0,1,2013,1838.313Z" transform="translate(-1935.755 -1521.384)"/><g transform="translate(45.554 264.431)"><g transform="translate(0.005 14.562)"><path class="e" d="M2043.817,1831.217a8.427,8.427,0,0,0,3.848-1.012l28.883-16.681a2.865,2.865,0,0,0,1.76-2.482h0v-10.311l-23.156-.013-8-4.623a6.625,6.625,0,0,0-3.336-.722" transform="translate(-2009.338 -1795.372)"/><path class="f" d="M2010.392,1795.384a8.252,8.252,0,0,0-3.836,1.011l-7.474,4.308-23.157-.014V1811.3a2.032,2.032,0,0,0,1.222,1.917l29.921,17.286a6.5,6.5,0,0,0,3.323.709Z" transform="translate(-1975.919 -1795.375)"/><path class="g" d="M1978.54,1805.829h-2.614v10.613a2.062,2.062,0,0,0,1.222,1.931l1.393.8Z" transform="translate(-1975.919 -1800.518)"/><path class="g" d="M2038.176,1853.235a8.267,8.267,0,0,0,5.727-.066v-12.058h-5.727Z" transform="translate(-2006.562 -1817.887)"/></g><path class="i" d="M2007.063,1805.81l-29.921-17.286c-1.826-1.051-1.6-2.9.525-4.124l28.9-16.681a7.88,7.88,0,0,1,7.146-.3l29.934,17.285c1.839,1.051,1.6,2.9-.525,4.137l-28.883,16.681A7.973,7.973,0,0,1,2007.063,1805.81Z" transform="translate(-1975.908 -1766.698)"/></g><path class="i" d="M2043.125,1805.026l-28.883,16.681a8.019,8.019,0,0,1-7.172.3l-29.921-17.285a2.827,2.827,0,0,1-.919-.814c-.63,1.024-.341,2.114.919,2.85l29.921,17.272a7.977,7.977,0,0,0,7.172-.3l28.883-16.681c1.655-.946,2.154-2.273,1.432-3.323A3.886,3.886,0,0,1,2043.125,1805.026Z" transform="translate(-1930.354 -1520.49)"/><path class="j" d="M2013,1805.825l-25.074-14.488c-1.55-.88-1.353-2.43.42-3.454l24.221-13.989a6.657,6.657,0,0,1,6-.237l25.074,14.475c1.537.88,1.353,2.43-.433,3.454l-24.207,13.989A6.7,6.7,0,0,1,2013,1805.825Z" transform="translate(-1935.755 -1505.397)"/><g transform="translate(45.546 262.494)"><path class="e" d="M2043.789,1798.722a8.426,8.426,0,0,0,3.848-1.011l28.884-16.681a2.861,2.861,0,0,0,1.747-2.469h0v-10.324l-23.144-.026-8-4.61a6.394,6.394,0,0,0-3.336-.709" transform="translate(-2009.31 -1762.886)"/><path class="f" d="M2010.362,1762.9a8.05,8.05,0,0,0-3.822,1.011l-7.474,4.308-23.17-.013v10.613a2.076,2.076,0,0,0,1.235,1.931l29.908,17.272a6.672,6.672,0,0,0,3.323.709Z" transform="translate(-1975.891 -1762.889)"/><path class="g" d="M1978.523,1773.342H1975.9v10.613a2.077,2.077,0,0,0,1.235,1.931l1.392.8Z" transform="translate(-1975.891 -1768.03)"/><path class="g" d="M2038.15,1820.733a8.117,8.117,0,0,0,5.727-.053v-12.057h-5.727Z" transform="translate(-2006.528 -1785.399)"/></g><path class="i" d="M2007.041,1773.317l-29.921-17.272c-1.839-1.064-1.6-2.916.512-4.137l28.9-16.681c2.115-1.222,5.333-1.366,7.158-.289l29.921,17.259c1.839,1.064,1.616,2.916-.5,4.15l-28.9,16.681A7.974,7.974,0,0,1,2007.041,1773.317Z" transform="translate(-1930.336 -1486.277)"/><path class="i" d="M2043.1,1772.526l-28.9,16.681a7.97,7.97,0,0,1-7.171.289l-29.921-17.272a2.888,2.888,0,0,1-.906-.8,1.924,1.924,0,0,0,.906,2.837l29.921,17.272a7.97,7.97,0,0,0,7.171-.289l28.9-16.681c1.642-.959,2.141-2.285,1.432-3.323A4.216,4.216,0,0,1,2043.1,1772.526Z" transform="translate(-1930.338 -1504.505)"/><path class="j" d="M2026.6,1772.395l-14.015-8.091c-.854-.486-.749-1.353.237-1.918l13.529-7.815a3.723,3.723,0,0,1,3.362-.145l13.989,8.091c.867.5.762,1.366-.236,1.931l-13.516,7.8A3.7,3.7,0,0,1,2026.6,1772.395Z" transform="translate(-1948.12 -1496.067)"/><path class="f" d="M2046.853,1756.576l13.962,8.065c.8-.578.841-1.34.039-1.8l-14-8.091" transform="translate(-1965.27 -1496.39)"/><path class="e" d="M2026.355,1755.023l-13.529,7.815c-.985.578-1.09,1.432-.237,1.931l.052.026a.952.952,0,0,1,.184-.131l13.529-7.815" transform="translate(-1948.12 -1496.523)"/><path class="g" d="M2040.252,1756.4a3.7,3.7,0,0,1,3.349-.144v-1.826a3.7,3.7,0,0,0-3.349.145Z" transform="translate(-1962.018 -1496.067)"/><path class="g" d="M2151.616,1420.509a4.066,4.066,0,0,0-3.691.151v-2a4.087,4.087,0,0,1,3.691-.158Z" transform="translate(-2015.018 -1330.718)"/><path class="l" d="M1974.586,1586.924l-1.931-1.116c-.131-.066-.105-.191.026-.276l1.879-1.077a.517.517,0,0,1,.46-.02l1.931,1.123c.131.066.105.19-.026.263l-1.879,1.084A.479.479,0,0,1,1974.586,1586.924Z" transform="translate(-1928.707 -1412.547)"/><path class="l" d="M2295.414,1529.873l-1.944-1.116c-.131-.079-.1-.191.04-.276l1.878-1.084a.51.51,0,0,1,.446-.013l1.944,1.116c.118.073.105.191-.026.27l-1.878,1.077A.52.52,0,0,1,2295.414,1529.873Z" transform="translate(-2086.594 -1384.465)"/><g transform="translate(103.693 114.919)"><path class="r" d="M2118.514,1490.515l-27.359-15.795a1.915,1.915,0,0,1-.762-1.642h0c.013-.643.407-.952.854-.69l27.346,15.788a1.923,1.923,0,0,1,.775,1.642h0C2119.355,1490.456,2118.961,1490.771,2118.514,1490.515Z" transform="translate(-2090.39 -1472.295)"/><ellipse class="n" cx="0.861" cy="1.491" rx="0.861" ry="1.491" transform="matrix(0.866, -0.5, 0.5, 0.866, 30.768, 18.417)"/><path class="n" d="M2162.764,1514.622c0,.677-.486.946-1.051.617a2.3,2.3,0,0,1-1.077-1.832c0-.67.473-.946,1.077-.6A2.363,2.363,0,0,1,2162.764,1514.622Z" transform="translate(-2124.959 -1492.158)"/><path class="s" d="M2171.543,1519.705c0,.677-.447.952-1.051.617a2.377,2.377,0,0,1-1.051-1.832c0-.67.486-.945,1.051-.6A2.269,2.269,0,0,1,2171.543,1519.705Z" transform="translate(-2129.298 -1494.663)"/></g><g transform="translate(103.616 131.157)"><path class="r" d="M2108.958,1517.055l-18.336-10.58a1.482,1.482,0,0,1-.355-1.4h0c.118-.6.46-.933.749-.762l18.336,10.58a1.452,1.452,0,0,1,.342,1.4h0C2109.589,1516.884,2109.247,1517.226,2108.958,1517.055Z" transform="translate(-2090.24 -1504.27)"/><ellipse class="n" cx="0.861" cy="1.491" rx="0.861" ry="1.491" transform="matrix(0.866, -0.5, 0.5, 0.866, 30.844, 18.46)"/><path class="n" d="M2162.764,1546.687c0,.676-.486.946-1.051.611a2.288,2.288,0,0,1-1.077-1.826c0-.67.473-.952,1.077-.611A2.374,2.374,0,0,1,2162.764,1546.687Z" transform="translate(-2124.877 -1524.176)"/><path class="s" d="M2171.543,1551.771c0,.67-.447.939-1.051.6a2.365,2.365,0,0,1-1.051-1.826c0-.67.486-.939,1.051-.611A2.282,2.282,0,0,1,2171.543,1551.771Z" transform="translate(-2129.216 -1526.673)"/></g><g transform="translate(103.693 147.242)"><path class="r" d="M2118.514,1554.163l-27.359-15.788a1.915,1.915,0,0,1-.762-1.642h0c.013-.65.407-.959.854-.7l27.346,15.795a1.9,1.9,0,0,1,.775,1.629h0C2119.355,1554.111,2118.961,1554.426,2118.514,1554.163Z" transform="translate(-2090.39 -1535.944)"/><path class="s" d="M2171.543,1583.357c0,.67-.447.939-1.051.6a2.365,2.365,0,0,1-1.051-1.825c0-.67.486-.939,1.051-.6A2.262,2.262,0,0,1,2171.543,1583.357Z" transform="translate(-2129.298 -1558.311)"/></g><g transform="translate(103.693 163.524)"><path class="r" d="M2118.514,1586.223l-27.359-15.795a1.9,1.9,0,0,1-.762-1.635h0c.013-.65.407-.959.854-.7l27.346,15.788a1.924,1.924,0,0,1,.775,1.642h0C2119.355,1586.17,2118.961,1586.486,2118.514,1586.223Z" transform="translate(-2090.39 -1568.003)"/><ellipse class="n" cx="0.861" cy="1.491" rx="0.861" ry="1.491" transform="matrix(0.866, -0.5, 0.5, 0.866, 30.768, 18.417)"/><path class="n" d="M2162.764,1610.341c0,.676-.486.946-1.051.611a2.309,2.309,0,0,1-1.077-1.832c0-.676.473-.946,1.077-.611A2.4,2.4,0,0,1,2162.764,1610.341Z" transform="translate(-2124.959 -1587.867)"/><path class="s" d="M2171.543,1615.424c0,.67-.447.945-1.051.6a2.375,2.375,0,0,1-1.051-1.826c0-.676.486-.945,1.051-.61A2.282,2.282,0,0,1,2171.543,1615.424Z" transform="translate(-2129.298 -1590.372)"/></g><g transform="translate(103.606 179.96)"><path class="r" d="M2108.071,1612.654l-17.509-10.1c-.289-.164-.42-.781-.3-1.373h0c.118-.591.434-.939.736-.768l17.508,10.1c.289.171.421.781.3,1.372h0C2108.688,1612.476,2108.347,1612.825,2108.071,1612.654Z" transform="translate(-2090.217 -1600.369)"/><ellipse class="n" cx="0.861" cy="1.491" rx="0.861" ry="1.491" transform="matrix(0.866, -0.5, 0.5, 0.866, 30.855, 18.465)"/><path class="s" d="M2171.543,1647.88c0,.67-.447.946-1.051.6a2.365,2.365,0,0,1-1.051-1.826c0-.67.486-.946,1.051-.6A2.243,2.243,0,0,1,2171.543,1647.88Z" transform="translate(-2129.2 -1622.782)"/></g><g transform="translate(103.693 196.05)"><path class="r" d="M2118.514,1650.269l-27.359-15.795a1.915,1.915,0,0,1-.762-1.642h0c.013-.637.407-.952.854-.69l27.346,15.788a1.923,1.923,0,0,1,.775,1.642h0C2119.355,1650.216,2118.961,1650.525,2118.514,1650.269Z" transform="translate(-2090.39 -1632.05)"/><ellipse class="n" cx="0.861" cy="1.491" rx="0.861" ry="1.491" transform="matrix(0.866, -0.5, 0.5, 0.866, 30.768, 18.417)"/><path class="n" d="M2162.764,1674.377c0,.67-.486.946-1.051.617a2.308,2.308,0,0,1-1.077-1.826c0-.67.473-.946,1.077-.617A2.386,2.386,0,0,1,2162.764,1674.377Z" transform="translate(-2124.959 -1651.914)"/><path class="s" d="M2171.543,1679.468c0,.67-.447.946-1.051.6a2.365,2.365,0,0,1-1.051-1.826c0-.67.486-.946,1.051-.6A2.261,2.261,0,0,1,2171.543,1679.468Z" transform="translate(-2129.298 -1654.419)"/></g><g transform="translate(103.693 212.332)"><path class="r" d="M2118.514,1682.33l-27.359-15.775a1.932,1.932,0,0,1-.762-1.655h0c.013-.644.407-.959.854-.7l27.346,15.8a1.907,1.907,0,0,1,.775,1.629h0C2119.355,1682.29,2118.961,1682.592,2118.514,1682.33Z" transform="translate(-2090.39 -1664.111)"/><ellipse class="n" cx="0.861" cy="1.491" rx="0.861" ry="1.491" transform="matrix(0.866, -0.5, 0.5, 0.866, 30.768, 18.417)"/><path class="n" d="M2162.764,1706.449c0,.67-.486.946-1.051.6a2.289,2.289,0,0,1-1.077-1.826c0-.67.473-.946,1.077-.617A2.409,2.409,0,0,1,2162.764,1706.449Z" transform="translate(-2124.959 -1683.973)"/><path class="s" d="M2171.543,1711.515c0,.683-.447.946-1.051.617a2.387,2.387,0,0,1-1.051-1.826c0-.67.486-.946,1.051-.6A2.238,2.238,0,0,1,2171.543,1711.515Z" transform="translate(-2129.298 -1686.48)"/></g><g class="t" transform="translate(110.573 14.733)"><g transform="translate(0 11.956)"><g transform="translate(0.495)"><path class="u" d="M2118.981,1300.487a3.134,3.134,0,0,1,1.431,2.456v1.1a20.658,20.658,0,0,1,2.68,2.85l.709-.4a.989.989,0,0,1,1,.105,2.99,2.99,0,0,1,1,1.057l1.379,2.384a2.809,2.809,0,0,1,.434,1.392.987.987,0,0,1-.434.913l-.722.414a21.3,21.3,0,0,1,1.025,3.461l.945.558a3.125,3.125,0,0,1,1.432,2.456v2.233c0,.9-.644,1.261-1.432.808l-.945-.558a6.9,6.9,0,0,1-1.025,2.285l.722,1.261a2.812,2.812,0,0,1,.434,1.4.98.98,0,0,1-.434.913l-1.379.788a.991.991,0,0,1-1-.112,2.731,2.731,0,0,1-1-1.057l-.709-1.2a6.963,6.963,0,0,1-2.68-.256v1.1c0,.906-.643,1.267-1.431.814l-.959-.565-1-.558a3.152,3.152,0,0,1-1.418-2.463v-1.1a20.912,20.912,0,0,1-2.68-2.837l-.683.394a1.049,1.049,0,0,1-1.025-.1,2.827,2.827,0,0,1-1-1.07l-1.379-2.371a2.956,2.956,0,0,1-.434-1.4.989.989,0,0,1,.434-.906l.735-.42a21.451,21.451,0,0,1-1.037-3.454l-.946-.558a3.155,3.155,0,0,1-1.432-2.456v-2.233c0-.9.644-1.274,1.432-.814l.946.552a6.83,6.83,0,0,1,1.037-2.272l-.735-1.267a2.977,2.977,0,0,1-.434-1.392,1.012,1.012,0,0,1,.434-.919l1.379-.781a1,1,0,0,1,1,.1,3.129,3.129,0,0,1,1.025,1.064l.683,1.2a6.6,6.6,0,0,1,2.68.256v-1.1c0-.9.63-1.261,1.418-.814l1,.565Zm-.959,7.132c-2.85-1.635-5.149-.328-5.149,2.922a11.275,11.275,0,0,0,5.149,8.846c2.811,1.635,5.123.322,5.123-2.916A11.375,11.375,0,0,0,2118.022,1307.619Z" transform="translate(-2105.521 -1298.56)"/><path class="u" d="M2147.51,1345l1.182.578,1.077-.611-1.248-.545Z" transform="translate(-2125.87 -1321.129)"/><path class="u" d="M2123.523,1300.543l1.261.618,1.129-.657-1.326-.585Z" transform="translate(-2114.066 -1299.229)"/><path class="u" d="M2104.91,1311.134l1.274.617,1.129-.657-1.34-.585Z" transform="translate(-2104.91 -1304.444)"/><path class="u" d="M2128.568,1355.355l1.327.657,1.222-.7-1.419-.617Z" transform="translate(-2116.55 -1326.187)"/></g><path class="q" d="M2116.768,1301.76a3.134,3.134,0,0,1,1.431,2.456v1.1a20.448,20.448,0,0,1,2.667,2.837l.709-.394a.975.975,0,0,1,1,.105,2.782,2.782,0,0,1,1.011,1.064l1.366,2.371a2.7,2.7,0,0,1,.433,1.392.953.953,0,0,1-.433.919l-.709.42a22.254,22.254,0,0,1,1.011,3.454l.959.552a3.143,3.143,0,0,1,1.419,2.463v2.233c0,.906-.631,1.261-1.419.814l-.959-.558a7.236,7.236,0,0,1-1.011,2.279l.709,1.268a2.684,2.684,0,0,1,.433,1.392.955.955,0,0,1-.433.913l-1.366.788a1.029,1.029,0,0,1-1.011-.1,2.9,2.9,0,0,1-1-1.064l-.709-1.2a6.541,6.541,0,0,1-2.667-.256v1.11c0,.893-.643,1.261-1.431.8l-.972-.558-.985-.565a3.134,3.134,0,0,1-1.432-2.456v-1.1a20.519,20.519,0,0,1-2.667-2.844l-.7.394a1,1,0,0,1-1.011-.105,2.762,2.762,0,0,1-1.011-1.057l-1.379-2.371a2.851,2.851,0,0,1-.42-1.4.985.985,0,0,1,.42-.919l.722-.42a22.01,22.01,0,0,1-1.011-3.454l-.959-.552a3.156,3.156,0,0,1-1.432-2.463v-2.233c0-.9.644-1.261,1.432-.814l.959.565a7.271,7.271,0,0,1,1.011-2.286l-.722-1.261a2.812,2.812,0,0,1-.42-1.4.974.974,0,0,1,.42-.913l1.379-.788a1.047,1.047,0,0,1,1.011.105,3.16,3.16,0,0,1,1.011,1.064l.7,1.2a6.776,6.776,0,0,1,2.667.256v-1.1c0-.9.644-1.268,1.432-.808l.985.558Zm-.972,7.126c-2.837-1.635-5.135-.322-5.135,2.922a11.308,11.308,0,0,0,5.135,8.853c2.824,1.642,5.123.328,5.123-2.916A11.35,11.35,0,0,0,2115.8,1308.885Z" transform="translate(-2103.936 -1299.185)"/></g><g transform="translate(42.872 38.159)"><g transform="translate(0.368)"><path class="u" d="M2199.548,1351.59a2.353,2.353,0,0,1,1.051,1.832v.814a14.727,14.727,0,0,1,2.009,2.115l.525-.3a.744.744,0,0,1,.735.079,2.164,2.164,0,0,1,.762.795l1.011,1.767a2.15,2.15,0,0,1,.315,1.031.75.75,0,0,1-.315.683l-.538.309a14.232,14.232,0,0,1,.749,2.575l.735.414a2.388,2.388,0,0,1,1.051,1.826v1.661c0,.67-.486.939-1.051.6l-.735-.414a4.713,4.713,0,0,1-.749,1.694l.538.939a2.2,2.2,0,0,1,.315,1.038.75.75,0,0,1-.315.683l-1.011.578a.758.758,0,0,1-.762-.072,2.144,2.144,0,0,1-.735-.788l-.525-.893a5.023,5.023,0,0,1-2.009-.191v.821c0,.663-.473.939-1.051.6l-.709-.414-.735-.42a2.352,2.352,0,0,1-1.064-1.819v-.828a15.032,15.032,0,0,1-2-2.115l-.512.3a.775.775,0,0,1-.761-.072,2.339,2.339,0,0,1-.749-.788l-1.011-1.773a2.058,2.058,0,0,1-.315-1.038.723.723,0,0,1,.315-.683l.538-.309a16.477,16.477,0,0,1-.762-2.568l-.7-.414a2.3,2.3,0,0,1-1.077-1.832v-1.655c0-.67.473-.946,1.077-.6l.7.407a5.418,5.418,0,0,1,.762-1.694l-.538-.939a2.058,2.058,0,0,1-.315-1.038.7.7,0,0,1,.315-.676l1.011-.585a.733.733,0,0,1,.749.072,2.15,2.15,0,0,1,.761.788l.512.893a5.188,5.188,0,0,1,2,.191v-.814c0-.67.486-.939,1.064-.6l.735.414Zm-.709,5.307c-2.128-1.215-3.836-.236-3.836,2.174a8.4,8.4,0,0,0,3.836,6.587c2.1,1.208,3.809.236,3.809-2.181A8.424,8.424,0,0,0,2198.838,1356.9Z" transform="translate(-2189.535 -1350.158)"/><path class="u" d="M2220.767,1384.7l.867.427.788-.46-.919-.4Z" transform="translate(-2204.677 -1366.947)"/><path class="u" d="M2202.925,1351.626l.933.46.84-.493-.985-.427Z" transform="translate(-2195.898 -1350.658)"/><path class="u" d="M2189.08,1359.505l.945.46.841-.492-1-.427Z" transform="translate(-2189.08 -1354.53)"/><path class="u" d="M2206.677,1392.406l.985.486.894-.519-1.051-.46Z" transform="translate(-2197.746 -1370.71)"/></g><path class="q" d="M2197.891,1352.541a2.354,2.354,0,0,1,1.063,1.826v.814a15.826,15.826,0,0,1,2,2.121l.512-.3a.759.759,0,0,1,.762.072,2.3,2.3,0,0,1,.749.788l1.011,1.773a2.049,2.049,0,0,1,.315,1.031.715.715,0,0,1-.315.683l-.539.315a16.211,16.211,0,0,1,.761,2.568l.7.413a2.308,2.308,0,0,1,1.077,1.826v1.668c0,.663-.472.933-1.077.6l-.7-.407a5.238,5.238,0,0,1-.761,1.688l.539.946a2.034,2.034,0,0,1,.315,1.037.7.7,0,0,1-.315.677l-1.011.585a.733.733,0,0,1-.749-.072,2.145,2.145,0,0,1-.762-.788l-.512-.9a4.933,4.933,0,0,1-2-.184v.821c0,.663-.486.932-1.063.6l-.736-.42-.709-.42a2.337,2.337,0,0,1-1.051-1.826v-.814a15,15,0,0,1-2.01-2.115l-.525.289a.712.712,0,0,1-.736-.073,2.2,2.2,0,0,1-.761-.788l-1.012-1.773a2.169,2.169,0,0,1-.315-1.031.749.749,0,0,1,.315-.683l.539-.315a13.778,13.778,0,0,1-.749-2.568l-.736-.407a2.408,2.408,0,0,1-1.051-1.832v-1.655c0-.676.486-.945,1.051-.61l.736.413a4.743,4.743,0,0,1,.749-1.694l-.539-.946a2.149,2.149,0,0,1-.315-1.031.742.742,0,0,1,.315-.683l1.012-.585a.762.762,0,0,1,.761.079,2.1,2.1,0,0,1,.736.788l.525.893a5.018,5.018,0,0,1,2.01.184v-.815c0-.67.472-.939,1.051-.6l.709.42Zm-.736,5.3c-2.1-1.215-3.809-.236-3.809,2.174a8.426,8.426,0,0,0,3.809,6.587c2.127,1.215,3.835.236,3.835-2.174A8.384,8.384,0,0,0,2197.156,1357.841Z" transform="translate(-2188.355 -1350.621)"/></g><g transform="translate(26.221 25.319)"><g transform="translate(0.322)"><path class="u" d="M2165.341,1326.128a2,2,0,0,1,.933,1.6v.716a14.237,14.237,0,0,1,1.747,1.845l.46-.249a.658.658,0,0,1,.657.066,1.849,1.849,0,0,1,.657.69l.88,1.543a1.811,1.811,0,0,1,.289.906.622.622,0,0,1-.289.591l-.473.276a13.853,13.853,0,0,1,.67,2.246l.63.361a2.034,2.034,0,0,1,.919,1.6v1.452c0,.584-.407.821-.919.525l-.63-.361a4.571,4.571,0,0,1-.67,1.491l.473.814a1.853,1.853,0,0,1,.289.906.633.633,0,0,1-.289.6l-.88.512a.673.673,0,0,1-.657-.066,1.8,1.8,0,0,1-.657-.69l-.46-.782a4.51,4.51,0,0,1-1.747-.164v.716c0,.584-.407.821-.933.525l-.631-.375-.63-.354a2.044,2.044,0,0,1-.919-1.6v-.716a13.085,13.085,0,0,1-1.76-1.845l-.446.249a.639.639,0,0,1-.657-.066,1.988,1.988,0,0,1-.657-.683l-.893-1.55a1.871,1.871,0,0,1-.263-.906.633.633,0,0,1,.263-.591l.473-.276a12.692,12.692,0,0,1-.657-2.246l-.63-.361a2.081,2.081,0,0,1-.919-1.6v-1.452c0-.584.42-.821.919-.525l.63.361a4.252,4.252,0,0,1,.657-1.484l-.473-.821a1.9,1.9,0,0,1-.263-.913.64.64,0,0,1,.263-.591l.893-.506a.639.639,0,0,1,.657.066,1.942,1.942,0,0,1,.657.683l.446.782a4.6,4.6,0,0,1,1.76.164v-.709c0-.584.407-.828.919-.525l.63.368Zm-.631,4.636c-1.839-1.057-3.336-.2-3.336,1.9a7.368,7.368,0,0,0,3.336,5.753c1.839,1.057,3.337.2,3.337-1.9A7.379,7.379,0,0,0,2164.71,1330.765Z" transform="translate(-2156.603 -1324.875)"/><path class="u" d="M2183.906,1355.08l.748.374.7-.4-.814-.355Z" transform="translate(-2169.835 -1339.553)"/><path class="u" d="M2168.306,1326.159l.8.4.736-.427-.841-.375Z" transform="translate(-2162.166 -1325.307)"/><path class="u" d="M2156.2,1333.053l.815.4.735-.427-.867-.381Z" transform="translate(-2156.201 -1328.698)"/><path class="u" d="M2171.586,1361.811l.88.427.788-.453-.919-.4Z" transform="translate(-2163.771 -1342.84)"/></g><path class="q" d="M2163.92,1326.95a2.081,2.081,0,0,1,.919,1.6v.716a12.957,12.957,0,0,1,1.734,1.845l.46-.256a.672.672,0,0,1,.657.066,2.021,2.021,0,0,1,.657.69l.88,1.543a1.828,1.828,0,0,1,.289.913.621.621,0,0,1-.289.591l-.473.276a13.968,13.968,0,0,1,.683,2.253l.617.355a2.044,2.044,0,0,1,.919,1.6v1.458c0,.591-.407.821-.919.525l-.617-.361a4.548,4.548,0,0,1-.683,1.484l.473.821a1.809,1.809,0,0,1,.289.913.635.635,0,0,1-.289.591l-.88.506a.64.64,0,0,1-.657-.066,1.851,1.851,0,0,1-.657-.69l-.46-.781a4.455,4.455,0,0,1-1.734-.158v.709c0,.584-.42.821-.919.525l-.644-.361-.643-.368a2.034,2.034,0,0,1-.919-1.6v-.716a11.634,11.634,0,0,1-1.734-1.845l-.473.256a.642.642,0,0,1-.657-.066,2.02,2.02,0,0,1-.657-.69l-.88-1.543a1.786,1.786,0,0,1-.276-.913.628.628,0,0,1,.276-.591l.473-.269a13.773,13.773,0,0,1-.67-2.246l-.631-.368a2.048,2.048,0,0,1-.919-1.6v-1.452c0-.584.42-.827.919-.525l.631.355a4.584,4.584,0,0,1,.67-1.484l-.473-.821a1.761,1.761,0,0,1-.276-.9.643.643,0,0,1,.276-.6l.88-.506a.671.671,0,0,1,.657.066,1.951,1.951,0,0,1,.657.69l.473.782a4.377,4.377,0,0,1,1.734.171v-.722c0-.584.407-.821.919-.525l.643.368Zm-.644,4.637c-1.839-1.057-3.336-.2-3.336,1.9a7.38,7.38,0,0,0,3.336,5.76c1.839,1.057,3.323.21,3.323-1.9A7.378,7.378,0,0,0,2163.276,1331.586Z" transform="translate(-2155.566 -1325.283)"/></g><g transform="translate(14.782)"><g transform="translate(0.379)"><path class="u" d="M2144.559,1276.5a2.385,2.385,0,0,1,1.091,1.878v.841a15.918,15.918,0,0,1,2.049,2.18l.538-.3a.767.767,0,0,1,.775.072,2.242,2.242,0,0,1,.775.808l1.051,1.825a2.153,2.153,0,0,1,.328,1.064.75.75,0,0,1-.328.7l-.552.322a14.954,14.954,0,0,1,.762,2.647l.735.42a2.407,2.407,0,0,1,1.1,1.885v1.708c0,.7-.486.972-1.1.63l-.735-.433a4.989,4.989,0,0,1-.762,1.747l.552.965a2.2,2.2,0,0,1,.328,1.071.764.764,0,0,1-.328.7l-1.051.6a.771.771,0,0,1-.775-.079,2.213,2.213,0,0,1-.775-.815l-.538-.919a5.188,5.188,0,0,1-2.049-.19v.841c0,.69-.486.965-1.091.624l-.748-.433-.736-.433a2.365,2.365,0,0,1-1.1-1.878v-.841a15.907,15.907,0,0,1-2.049-2.18l-.525.3a.768.768,0,0,1-.775-.079,2.111,2.111,0,0,1-.775-.814l-1.051-1.813a2.17,2.17,0,0,1-.328-1.064.77.77,0,0,1,.328-.709l.565-.322a12.971,12.971,0,0,1-.788-2.64l-.736-.427a2.4,2.4,0,0,1-1.09-1.878v-1.708c0-.7.486-.972,1.09-.63l.736.433a4.66,4.66,0,0,1,.788-1.754l-.565-.965a2.175,2.175,0,0,1-.328-1.071.746.746,0,0,1,.328-.7l1.051-.6a.767.767,0,0,1,.775.072,2.445,2.445,0,0,1,.775.815l.525.919a5.333,5.333,0,0,1,2.049.2v-.847c0-.69.486-.972,1.1-.617l.736.427Zm-.748,5.458c-2.167-1.254-3.927-.25-3.927,2.233a8.668,8.668,0,0,0,3.927,6.777c2.167,1.248,3.94.25,3.94-2.24A8.67,8.67,0,0,0,2143.811,1281.959Z" transform="translate(-2134.255 -1275.02)"/><path class="u" d="M2166.4,1310.573l.893.434.828-.466-.959-.414Z" transform="translate(-2149.838 -1292.296)"/><path class="u" d="M2148.039,1276.531l.959.473.867-.5-1.011-.446Z" transform="translate(-2140.798 -1275.533)"/><path class="u" d="M2133.791,1284.641l.959.466.867-.5-1-.44Z" transform="translate(-2133.791 -1279.522)"/><path class="u" d="M2151.9,1318.5l1.024.5.919-.532-1.077-.466Z" transform="translate(-2142.708 -1296.169)"/></g><path class="q" d="M2142.857,1277.474a2.384,2.384,0,0,1,1.09,1.878v.834a16.375,16.375,0,0,1,2.049,2.187l.538-.3a.767.767,0,0,1,.775.072,2.477,2.477,0,0,1,.775.808l1.051,1.826a2.125,2.125,0,0,1,.315,1.064.743.743,0,0,1-.315.7l-.551.322a14.971,14.971,0,0,1,.762,2.647l.735.42a2.386,2.386,0,0,1,1.1,1.879v1.714c0,.7-.486.972-1.1.617l-.735-.42a4.993,4.993,0,0,1-.762,1.747l.551.965a2.166,2.166,0,0,1,.315,1.071.756.756,0,0,1-.315.7l-1.051.6a.768.768,0,0,1-.775-.079,2.266,2.266,0,0,1-.775-.815l-.538-.919a5.083,5.083,0,0,1-2.049-.2v.847c0,.69-.486.965-1.09.624l-.749-.433-.735-.433a2.375,2.375,0,0,1-1.1-1.878v-.841a16.736,16.736,0,0,1-2.049-2.18l-.525.3a.766.766,0,0,1-.775-.079,2.115,2.115,0,0,1-.775-.814l-1.064-1.813a2.315,2.315,0,0,1-.315-1.077.774.774,0,0,1,.315-.7l.578-.322a12.97,12.97,0,0,1-.788-2.64l-.735-.427a2.4,2.4,0,0,1-1.091-1.878v-1.708c0-.7.486-.972,1.091-.63l.735.433a4.612,4.612,0,0,1,.788-1.753l-.578-.965a2.292,2.292,0,0,1-.315-1.07.759.759,0,0,1,.315-.7l1.064-.6a.766.766,0,0,1,.775.072,2.576,2.576,0,0,1,.775.815l.525.919a5.33,5.33,0,0,1,2.049.2v-.847c0-.69.486-.972,1.1-.617l.735.427Zm-.749,5.458c-2.167-1.254-3.927-.25-3.927,2.233a8.668,8.668,0,0,0,3.927,6.778c2.167,1.248,3.94.25,3.94-2.24A8.66,8.66,0,0,0,2142.108,1282.932Z" transform="translate(-2133.045 -1275.5)"/></g></g><line class="h" y2="9.686" transform="translate(123.202 122.152)"/><g transform="translate(101.781 275.968)"><path class="n" d="M2088.188,1798.226a1.729,1.729,0,0,1-.788,1.353c-.434.25-.775.053-.775-.46a1.714,1.714,0,0,1,.775-1.353C2087.833,1797.53,2088.188,1797.714,2088.188,1798.226Z" transform="translate(-2086.625 -1793.478)"/><path class="n" d="M2095.33,1794.1a1.722,1.722,0,0,1-.788,1.353c-.42.263-.788.052-.788-.447a1.763,1.763,0,0,1,.788-1.353C2094.962,1793.406,2095.33,1793.6,2095.33,1794.1Z" transform="translate(-2090.125 -1791.446)"/><path class="q" d="M2102.46,1789.97a1.717,1.717,0,0,1-.788,1.366c-.421.25-.762.04-.762-.46a1.735,1.735,0,0,1,.762-1.353C2102.118,1789.274,2102.46,1789.484,2102.46,1789.97Z" transform="translate(-2093.653 -1789.418)"/></g><g transform="translate(101.781 292.467)"><path class="n" d="M2088.188,1830.707a1.773,1.773,0,0,1-.788,1.366c-.434.236-.775.039-.775-.46a1.714,1.714,0,0,1,.775-1.353C2087.833,1830.01,2088.188,1830.207,2088.188,1830.707Z" transform="translate(-2086.625 -1825.965)"/><path class="q" d="M2102.46,1822.458a1.716,1.716,0,0,1-.788,1.366c-.421.25-.762.04-.762-.46a1.736,1.736,0,0,1,.762-1.353C2102.118,1821.762,2102.46,1821.959,2102.46,1822.458Z" transform="translate(-2093.653 -1821.904)"/></g><g transform="translate(101.781 308.966)"><path class="n" d="M2088.188,1863.193a1.709,1.709,0,0,1-.788,1.353c-.434.263-.775.052-.775-.446a1.713,1.713,0,0,1,.775-1.353C2087.833,1862.5,2088.188,1862.708,2088.188,1863.193Z" transform="translate(-2086.625 -1858.455)"/><path class="n" d="M2095.33,1859.088a1.786,1.786,0,0,1-.788,1.353c-.42.25-.788.039-.788-.46a1.763,1.763,0,0,1,.788-1.353C2094.962,1858.379,2095.33,1858.589,2095.33,1859.088Z" transform="translate(-2090.125 -1856.421)"/><path class="q" d="M2102.46,1854.951a1.675,1.675,0,0,1-.788,1.353c-.421.25-.762.053-.762-.447a1.735,1.735,0,0,1,.762-1.353C2102.118,1854.242,2102.46,1854.453,2102.46,1854.951Z" transform="translate(-2093.653 -1854.391)"/></g><g transform="translate(67.842 180.787)"><path class="n" d="M2021.358,1610.807a1.738,1.738,0,0,1-.788,1.353c-.42.25-.775.039-.775-.447a1.751,1.751,0,0,1,.775-1.359C2021,1610.1,2021.358,1610.308,2021.358,1610.807Z" transform="translate(-2019.795 -1606.057)"/><path class="n" d="M2028.486,1606.684a1.75,1.75,0,0,1-.788,1.36c-.433.243-.775.046-.775-.453a1.7,1.7,0,0,1,.775-1.353C2028.132,1605.981,2028.486,1606.185,2028.486,1606.684Z" transform="translate(-2023.303 -1604.025)"/><path class="q" d="M2035.654,1602.554a1.717,1.717,0,0,1-.788,1.353c-.434.25-.788.052-.788-.446a1.717,1.717,0,0,1,.788-1.353C2035.3,1601.852,2035.654,1602.055,2035.654,1602.554Z" transform="translate(-2026.821 -1601.997)"/></g><g transform="translate(67.842 197.286)"><path class="n" d="M2021.358,1643.292a1.727,1.727,0,0,1-.788,1.353c-.42.25-.775.053-.775-.46a1.771,1.771,0,0,1,.775-1.353C2021,1642.6,2021.358,1642.793,2021.358,1643.292Z" transform="translate(-2019.795 -1638.546)"/><path class="n" d="M2028.486,1639.169a1.727,1.727,0,0,1-.788,1.353c-.433.263-.775.053-.775-.446a1.713,1.713,0,0,1,.775-1.353C2028.132,1638.473,2028.486,1638.683,2028.486,1639.169Z" transform="translate(-2023.303 -1636.516)"/><path class="q" d="M2035.654,1635.048a1.758,1.758,0,0,1-.788,1.353c-.434.243-.788.04-.788-.453a1.718,1.718,0,0,1,.788-1.353C2035.3,1634.339,2035.654,1634.543,2035.654,1635.048Z" transform="translate(-2026.821 -1634.484)"/></g><g transform="translate(67.842 213.785)"><path class="n" d="M2021.358,1675.775a1.731,1.731,0,0,1-.788,1.366c-.42.237-.775.04-.775-.46a1.75,1.75,0,0,1,.775-1.353C2021,1675.078,2021.358,1675.276,2021.358,1675.775Z" transform="translate(-2019.795 -1671.033)"/><path class="n" d="M2028.486,1671.659a1.707,1.707,0,0,1-.788,1.353c-.433.263-.775.053-.775-.447a1.713,1.713,0,0,1,.775-1.353C2028.132,1670.963,2028.486,1671.16,2028.486,1671.659Z" transform="translate(-2023.303 -1669.003)"/><path class="q" d="M2035.654,1667.525a1.731,1.731,0,0,1-.788,1.366c-.434.25-.788.039-.788-.46a1.769,1.769,0,0,1,.788-1.353C2035.3,1666.829,2035.654,1667.039,2035.654,1667.525Z" transform="translate(-2026.821 -1666.973)"/></g><g transform="translate(70.628 290.133)"><path class="n" d="M2031.878,1821.676c0,.513-.354.736-.814.473a1.852,1.852,0,0,1-.814-1.405c0-.525.38-.736.814-.473A1.78,1.78,0,0,1,2031.878,1821.676Z" transform="translate(-2027.73 -1818.713)"/><path class="n" d="M2026.911,1818.829c0,.525-.381.722-.814.473a1.784,1.784,0,0,1-.815-1.418c0-.512.355-.722.815-.46A1.81,1.81,0,0,1,2026.911,1818.829Z" transform="translate(-2025.283 -1817.31)"/><g transform="translate(0 13.372)"><path class="p" d="M2031.878,1848.005c0,.525-.354.735-.814.486a1.855,1.855,0,0,1-.814-1.419c0-.512.38-.736.814-.473A1.78,1.78,0,0,1,2031.878,1848.005Z" transform="translate(-2027.73 -1845.044)"/><path class="q" d="M2026.911,1845.154c0,.525-.381.736-.814.473a1.761,1.761,0,0,1-.815-1.406c0-.525.355-.722.815-.473A1.853,1.853,0,0,1,2026.911,1845.154Z" transform="translate(-2025.283 -1843.641)"/><path class="n" d="M2031.878,1854c0,.525-.354.736-.814.473a1.809,1.809,0,0,1-.814-1.405c0-.525.38-.736.814-.473A1.78,1.78,0,0,1,2031.878,1854Z" transform="translate(-2027.73 -1847.996)"/><path class="n" d="M2026.911,1851.152c0,.525-.381.736-.814.486a1.784,1.784,0,0,1-.815-1.419c0-.512.355-.735.815-.473A1.853,1.853,0,0,1,2026.911,1851.152Z" transform="translate(-2025.283 -1846.59)"/></g><g transform="translate(0 29.789)"><path class="p" d="M2031.878,1880.335c0,.525-.354.736-.814.473a1.852,1.852,0,0,1-.814-1.406c0-.525.38-.735.814-.473A1.78,1.78,0,0,1,2031.878,1880.335Z" transform="translate(-2027.73 -1877.371)"/><path class="q" d="M2026.911,1877.493a.5.5,0,0,1-.814.46,1.76,1.76,0,0,1-.815-1.405c0-.525.355-.722.815-.473A1.855,1.855,0,0,1,2026.911,1877.493Z" transform="translate(-2025.283 -1875.967)"/><path class="n" d="M2031.878,1886.334c0,.513-.354.722-.814.46a1.8,1.8,0,0,1-.814-1.392c0-.525.38-.736.814-.486A1.783,1.783,0,0,1,2031.878,1886.334Z" transform="translate(-2027.73 -1880.321)"/><path class="n" d="M2026.911,1883.478c0,.525-.381.735-.814.486a1.8,1.8,0,0,1-.815-1.418c0-.512.355-.735.815-.473A1.853,1.853,0,0,1,2026.911,1883.478Z" transform="translate(-2025.283 -1878.917)"/></g></g><g transform="translate(170.718 259.855)"><path class="p" d="M2228.967,1762.069c0,.512-.368.722-.827.46a1.8,1.8,0,0,1-.8-1.406c0-.525.355-.736.8-.473A1.8,1.8,0,0,1,2228.967,1762.069Z" transform="translate(-2224.809 -1759.093)"/><path class="q" d="M2223.984,1759.2c0,.525-.354.736-.8.473a1.761,1.761,0,0,1-.814-1.405c0-.512.355-.736.814-.473A1.8,1.8,0,0,1,2223.984,1759.2Z" transform="translate(-2222.369 -1757.688)"/><path class="n" d="M2228.967,1768.053c0,.512-.368.722-.827.46a1.762,1.762,0,0,1-.8-1.406c0-.512.355-.722.8-.46A1.755,1.755,0,0,1,2228.967,1768.053Z" transform="translate(-2224.809 -1762.044)"/><path class="n" d="M2223.984,1765.216c0,.512-.354.709-.8.46a1.78,1.78,0,0,1-.814-1.405c0-.525.355-.736.814-.473A1.805,1.805,0,0,1,2223.984,1765.216Z" transform="translate(-2222.369 -1760.638)"/><g transform="translate(0 16.417)"><path class="q" d="M2223.984,1791.533c0,.512-.354.735-.8.473a1.78,1.78,0,0,1-.814-1.405c0-.525.355-.735.814-.473A1.8,1.8,0,0,1,2223.984,1791.533Z" transform="translate(-2222.369 -1790.014)"/><path class="n" d="M2228.967,1800.376c0,.525-.368.735-.827.473a1.761,1.761,0,0,1-.8-1.405c0-.512.355-.735.8-.473A1.794,1.794,0,0,1,2228.967,1800.376Z" transform="translate(-2224.809 -1794.369)"/><path class="n" d="M2223.984,1797.54c0,.512-.354.722-.8.473a1.784,1.784,0,0,1-.814-1.419c0-.512.355-.736.814-.473A1.805,1.805,0,0,1,2223.984,1797.54Z" transform="translate(-2222.369 -1792.965)"/></g><g transform="translate(0 32.834)"><path class="p" d="M2228.967,1826.711c0,.525-.368.722-.827.473a1.805,1.805,0,0,1-.8-1.419c0-.512.355-.722.8-.46A1.755,1.755,0,0,1,2228.967,1826.711Z" transform="translate(-2224.809 -1823.748)"/><path class="q" d="M2223.984,1823.862c0,.513-.354.736-.8.473a1.78,1.78,0,0,1-.814-1.405c0-.525.355-.736.814-.473A1.8,1.8,0,0,1,2223.984,1823.862Z" transform="translate(-2222.369 -1822.344)"/><path class="n" d="M2228.967,1832.7c0,.525-.368.736-.827.473a1.781,1.781,0,0,1-.8-1.406c0-.512.355-.736.8-.473A1.8,1.8,0,0,1,2228.967,1832.7Z" transform="translate(-2224.809 -1826.696)"/><path class="n" d="M2223.984,1829.866c0,.512-.354.722-.8.473a1.8,1.8,0,0,1-.814-1.419c0-.512.355-.735.814-.473A1.8,1.8,0,0,1,2223.984,1829.866Z" transform="translate(-2222.369 -1825.292)"/></g></g><path class="l" d="M2041.846,1773.5l-1.944-1.116c-.118-.066-.105-.184.04-.263l1.865-1.077a.478.478,0,0,1,.46-.013l1.944,1.116c.118.066.1.184-.04.263l-1.865,1.077A.478.478,0,0,1,2041.846,1773.5Z" transform="translate(-1961.81 -1504.379)"/></g></g></svg>