<svg xmlns="http://www.w3.org/2000/svg" width="534" height="375.855" viewBox="88 2719.679 534 375.855"><g data-name="Group 1459"><path d="M151.023 2846.343c46.752-43.484 106.792 4.411 148.834-1.28 42.042-5.692 113.707-48.286 192.033-.63 104.517 63.592 130.425 58.86 130.107 111.318-.593 97.877-83.208 89.901-115.626 111.05-26.539 17.308-60.911 46.277-114.541 14.544-53.631-31.732-156.945 7.448-203.059-8.134-202.094-68.279-37.748-226.868-37.748-226.868" fill="#8ea172" fill-rule="evenodd" data-name="Path 4764"/><g data-name="Group 84"><g data-name="Group 32"><path d="m483.031 2915.155-26.74-14.328-.69 1.278 26.739 14.314a.97.97 0 0 1 .521.874.933.933 0 0 1-.482.886l-20.065 11.747a2.576 2.576 0 0 1-2.607-.02l-8.617-5.17 9.908-5.729c1.682-.971 1.864-2.438.404-3.279l-23.728-13.695c-1.446-.84-3.988-.737-5.67.235l-22.894 13.226c-1.695.971-1.877 2.438-.404 3.272l23.701 13.702c1.46.834 4.003.73 5.685-.235l11.55-6.675 9.336 5.593a3.95 3.95 0 0 0 2.06.567c.677 0 1.381-.182 2.007-.547l20.064-11.734a2.452 2.452 0 0 0 1.213-2.17c-.027-.9-.496-1.695-1.291-2.112Z" fill="#4d4d4d" fill-rule="evenodd" data-name="Path 560"/><path d="m432.725 3011.94-23.715-13.702c-1.46-.848-4.002-.73-5.684.234l-22.893 13.22c-1.682.978-1.865 2.438-.417 3.285l23.728 13.69c1.46.847 3.989.742 5.67-.235l11.317-6.532 11.081 6.74c.157.091.17.248.17.3a.329.329 0 0 1-.157.3l-18.708 11.512a3.751 3.751 0 0 1-3.755.052l-49.202-27.378a.785.785 0 0 1-.417-.704c0-.144.04-.508.417-.717l22.268-12.555a2.208 2.208 0 0 0 1.12-1.93 2.174 2.174 0 0 0-1.107-1.929l-24.77-14.223a.764.764 0 0 1-.392-.652c0-.144.026-.457.352-.678l8.826-5.593 12.542 7.158c1.877 1.082 5.15.951 7.314-.3l29.49-17.04c2.177-1.238 2.412-3.129.534-4.211l-51.262-29.229c-1.877-1.095-5.15-.952-7.314.3l-27.703 15.983-49.424-28.564a8.215 8.215 0 0 0-8.188 0l-44.013 25.461a1.682 1.682 0 0 0 .026 2.934l17.64 10c.508.286 1.069.43 1.63.43.638 0 1.264-.183 1.811-.535l6.388-4.133 7.575 4.368-7.196 4.171a1.62 1.62 0 0 0-.809 1.421c0 .574.3 1.109.809 1.409l14.966 8.682a4.829 4.829 0 0 0 2.451.652c.848 0 1.682-.208 2.425-.626l29.32-16.713c1.057-.6 2.373-.6 3.43.026l24.548 14.171a4.905 4.905 0 0 0 4.915.013l10.313-5.97 8.044 4.588-22.698 14.406a2.228 2.228 0 0 0 .078 3.807l24.77 14.224a.756.756 0 0 1 .392.678c0 .13-.04.456-.391.664l-22.268 12.555.717 1.265 22.268-12.555a2.21 2.21 0 0 0 1.134-1.93c0-.808-.417-1.538-1.122-1.93l-24.77-14.235a.744.744 0 0 1-.378-.652.707.707 0 0 1 .352-.665l23.31-14.824 6.923 3.938-8.174 5.188a2.166 2.166 0 0 0-1.03 1.917c.013.795.43 1.486 1.108 1.877l24.77 14.237a.751.751 0 0 1 .392.665c0 .13-.04.469-.391.665l-22.268 12.554a2.237 2.237 0 0 0-1.147 1.982 2.24 2.24 0 0 0 1.16 1.969l49.19 27.39c.782.43 1.655.652 2.529.652.938 0 1.864-.247 2.698-.756l18.708-11.499c.535-.338.86-.912.86-1.538 0-.639-.325-1.212-.86-1.538l-10.416-6.336 10.156-5.854c1.682-.978 1.864-2.438.404-3.272Zm-95.08-42.918c-1.069.6-2.399.6-3.455-.014l-24.562-14.184a4.888 4.888 0 0 0-4.888-.013l-29.308 16.7c-1.069.6-2.373.6-3.429-.012l-14.966-8.696a.181.181 0 0 1-.091-.144c0-.052.025-.117.09-.156l7.927-4.602 5.75 3.324c1.447.835 3.989.73 5.684-.234l22.893-13.22c1.669-.978 1.864-2.438.404-3.285l-23.714-13.69c-1.46-.847-4.003-.73-5.685.235l-22.893 13.22c-1.682.978-1.864 2.438-.417 3.285l7.535 4.342-5.775 3.741a1.894 1.894 0 0 1-1.93.052l-17.638-9.986a.272.272 0 0 1-.13-.221c0-.053.012-.144.116-.21l44.014-25.454a6.73 6.73 0 0 1 6.74 0l48.693 28.14-.351.209c-2.165 1.252-2.4 3.142-.522 4.224l19.477 11.108-9.569 5.54Z" fill="#4d4d4d" fill-rule="evenodd" data-name="Path 561"/></g><path d="m304.337 3055.7-23.714-13.702c-1.46-.835-1.278-2.308.404-3.273l22.893-13.22c1.695-.977 4.237-1.082 5.684-.234l23.715 13.689c1.46.847 1.278 2.307-.404 3.285l-22.893 13.22c-1.695.965-4.237 1.07-5.685.234Z" fill="#4d4d4d" fill-rule="evenodd" data-name="Path 562"/><g data-name="Group 33"><path d="M307.014 3048.54c1.33-.025 2.711-.364 3.807-1.003l28.682-16.557c1.211-.691 1.798-1.604 1.733-2.451v-10.248l-22.984-.012-7.94-4.59c-.887-.495-2.073-.73-3.298-.704" fill="#666" fill-rule="evenodd" data-name="Path 563"/><path d="M307.018 3012.981c-1.343.027-2.712.366-3.82.991l-7.405 4.277h-22.997v10.533c-.053.717.351 1.396 1.225 1.904l29.698 17.144c.874.508 2.073.743 3.299.704v-35.553Z" fill="gray" fill-rule="evenodd" data-name="Path 564"/><path d="M275.403 3018.245h-2.607v10.548c-.053.704.351 1.394 1.225 1.903l1.382.795v-13.246Z" fill="#999" fill-rule="evenodd" data-name="Path 565"/><path d="M304.178 3048.058c1.577.678 3.859.639 5.697-.065v-11.968h-5.697v12.033Z" fill="#999" fill-rule="evenodd" data-name="Path 566"/></g><path d="M435.039 2925.307c1.33-.033 2.711-.365 3.806-1.004l28.682-16.557c1.2-.698 1.8-1.604 1.72-2.451v-10.247l-22.97-.013-7.94-4.59c-.874-.501-2.073-.73-3.298-.703" fill="#666" fill-rule="evenodd" data-name="Path 567"/><path d="M435.043 2889.748c-1.342.032-2.724.365-3.819.997l-7.392 4.276-23.011-.006v10.534c-.052.717.353 1.401 1.213 1.903l29.712 17.144c.886.515 2.072.743 3.297.71v-35.558Z" fill="gray" fill-rule="evenodd" data-name="Path 568"/><path d="M403.428 2895.012h-2.607v10.547c-.052.71.353 1.394 1.213 1.903l1.394.795v-13.245Z" fill="#999" fill-rule="evenodd" data-name="Path 569"/><path d="M432.203 2924.832c1.565.678 3.846.639 5.685-.065v-11.968h-5.685v12.033Z" fill="#999" fill-rule="evenodd" data-name="Path 570"/><path d="m431.762 2914.106-29.712-17.15c-1.825-1.05-1.603-2.894.522-4.107l28.669-16.557c2.098-1.219 5.292-1.35 7.118-.294l29.698 17.15c1.826 1.05 1.59 2.889-.508 4.1l-28.682 16.558c-2.099 1.213-5.28 1.35-7.105.3Z" fill="#ccc" fill-rule="evenodd" data-name="Path 571"/><path d="m467.534 2895.237-28.681 16.55c-2.1 1.219-5.28 1.35-7.106.3l-29.698-17.15c-.417-.242-.704-.51-.913-.809-.626 1.01-.339 2.106.913 2.83l29.698 17.143c1.826 1.05 5.006.92 7.106-.293l28.681-16.557c1.63-.946 2.138-2.27 1.42-3.299-.286.463-.768.9-1.42 1.285Z" fill="#ccc" fill-rule="evenodd" data-name="Path 572"/><path d="m432.273 2911.012-24.888-14.366c-1.525-.88-1.33-2.419.43-3.436l24.041-13.878c1.747-1.017 4.433-1.134 5.945-.254l24.9 14.373c1.513.88 1.33 2.425-.442 3.442l-24.015 13.872c-1.786 1.023-4.432 1.134-5.97.247Z" fill="#b3b3b3" fill-rule="evenodd" data-name="Path 573"/><path d="M435.055 2908.942c1.343-.032 2.725-.378 3.82-1.01l28.682-16.55c1.2-.705 1.786-1.617 1.72-2.465v-10.24l-22.97-.014-7.94-4.589c-.887-.501-2.073-.736-3.312-.71" fill="#666" fill-rule="evenodd" data-name="Path 574"/><path d="M435.05 2873.37c-1.331.026-2.713.365-3.808.998l-7.405 4.282-22.997-.02v10.541c-.066.71.338 1.395 1.2 1.904l29.71 17.15c.887.502 2.073.736 3.3.697v-35.552Z" fill="gray" fill-rule="evenodd" data-name="Path 575"/><path d="M403.434 2878.634h-2.594v10.533c-.066.711.338 1.409 1.2 1.91l1.394.802v-13.245Z" fill="#999" fill-rule="evenodd" data-name="Path 576"/><path d="M432.22 2908.448c1.564.671 3.846.632 5.684-.065v-11.962h-5.684v12.027Z" fill="#999" fill-rule="evenodd" data-name="Path 577"/><path d="m431.763 2897.73-29.71-17.15c-1.813-1.049-1.578-2.88.521-4.1l28.668-16.557c2.112-1.219 5.293-1.349 7.119-.3l29.685 17.157c1.825 1.05 1.604 2.888-.495 4.107l-28.682 16.557c-2.112 1.212-5.28 1.343-7.106.287Z" fill="#ccc" fill-rule="evenodd" data-name="Path 578"/><path d="m467.55 2878.865-28.68 16.557c-2.1 1.213-5.28 1.343-7.106.287l-29.712-17.144c-.404-.235-.704-.508-.9-.802-.625.998-.338 2.093.9 2.816l29.712 17.144c1.825 1.063 5.007.92 7.105-.293l28.682-16.557c1.63-.946 2.125-2.256 1.42-3.299-.286.463-.768.906-1.42 1.291Z" fill="#ccc" fill-rule="evenodd" data-name="Path 579"/><path d="m432.273 2894.644-24.888-14.373c-1.525-.88-1.33-2.418.43-3.435l24.041-13.878c1.747-1.017 4.433-1.128 5.945-.241l24.9 14.36c1.513.893 1.33 2.431-.442 3.448l-24.015 13.872c-1.786 1.017-4.432 1.127-5.97.247Z" fill="#b3b3b3" fill-rule="evenodd" data-name="Path 580"/><path d="M435.039 2892.56c1.33-.032 2.712-.371 3.807-1.004L467.527 2875c1.2-.697 1.8-1.61 1.721-2.45v-10.254l-22.971-.007-7.94-4.582c-.873-.509-2.073-.744-3.298-.711" fill="#666" fill-rule="evenodd" data-name="Path 581"/><path d="M435.032 2856.992c-1.316.04-2.698.378-3.793 1.004l-7.419 4.276-22.997-.013v10.547c-.065.704.352 1.395 1.213 1.903l29.698 17.144c.886.509 2.073.73 3.298.71v-35.57Z" fill="gray" fill-rule="evenodd" data-name="Path 582"/><path d="M403.417 2862.264h-2.594v10.534c-.065.717.352 1.401 1.213 1.91l1.381.795v-13.24Z" fill="#999" fill-rule="evenodd" data-name="Path 583"/><path d="M432.203 2892.077c1.591.671 3.846.638 5.685-.065v-11.969h-5.685v12.034Z" fill="#999" fill-rule="evenodd" data-name="Path 584"/><path d="m431.742 2881.352-29.711-17.144c-1.8-1.05-1.578-2.894.521-4.106l28.682-16.558c2.112-1.219 5.28-1.349 7.105-.293l29.7 17.144c1.825 1.05 1.59 2.894-.51 4.107l-28.681 16.557c-2.099 1.212-5.28 1.343-7.106.293Z" fill="#ccc" fill-rule="evenodd" data-name="Path 585"/><path d="m467.531 2862.474-28.681 16.557c-2.1 1.213-5.28 1.343-7.106.294l-29.699-17.144c-.39-.235-.704-.515-.9-.809-.638 1.01-.352 2.106.9 2.823l29.7 17.15c1.825 1.05 5.005.92 7.105-.293l28.681-16.557c1.63-.945 2.138-2.269 1.42-3.298-.273.456-.768.892-1.42 1.277Z" fill="#ccc" fill-rule="evenodd" data-name="Path 586"/><path d="m433.506 2870.721-13.897-8.024c-.874-.489-.756-1.343.222-1.917l13.428-7.75c.978-.567 2.477-.632 3.324-.137l13.897 8.024c.848.496.757 1.356-.234 1.917l-13.415 7.75c-1.004.568-2.477.633-3.325.137Z" fill="#b3b3b3" fill-rule="evenodd" data-name="Path 587"/><path d="m436.587 2854.691 13.859 7.998c.795-.56.821-1.323.039-1.78l-13.898-8.024" fill="gray" fill-rule="evenodd" data-name="Path 588"/><path d="m433.259 2853.024-13.428 7.75c-.978.574-1.096 1.428-.222 1.924l.026.02c.065-.047.13-.092.196-.131l13.428-7.75" fill="#666" fill-rule="evenodd" data-name="Path 589"/><path d="M433.263 2854.842c.977-.573 2.45-.639 3.324-.137v-1.812c-.874-.495-2.347-.43-3.324.137v1.812Z" fill="#999" fill-rule="evenodd" data-name="Path 590"/><path d="M273.33 2954.072c1.343-.039 2.725-.378 3.82-1.004l28.682-16.557c1.212-.704 1.798-1.616 1.72-2.464V2923.8l-22.97-.013-7.954-4.589c-.86-.508-2.06-.73-3.298-.69" fill="#666" fill-rule="evenodd" data-name="Path 591"/><path d="M273.334 2918.503c-1.33.026-2.724.365-3.806 1.004l-7.418 4.276-22.998-.026v10.547c-.052.717.339 1.395 1.226 1.903l29.698 17.144c.874.508 2.06.743 3.298.704v-35.552Z" fill="gray" fill-rule="evenodd" data-name="Path 592"/><path d="M241.707 2923.775h-2.595v10.547c-.052.704.339 1.395 1.226 1.903l1.369.795v-13.245Z" fill="#999" fill-rule="evenodd" data-name="Path 593"/><path d="M270.486 2953.587c1.565.678 3.833.626 5.671-.065v-11.968h-5.67v12.033Z" fill="#999" fill-rule="evenodd" data-name="Path 594"/><path d="m270.028 2942.864-29.698-17.15c-1.825-1.05-1.59-2.882.509-4.101l28.681-16.557c2.099-1.219 5.28-1.35 7.105-.3l29.698 17.157c1.826 1.05 1.592 2.888-.508 4.107l-28.681 16.557c-2.1 1.212-5.28 1.343-7.106.287Z" fill="#ccc" fill-rule="evenodd" data-name="Path 595"/><path d="m305.817 2923.985-28.682 16.557c-2.099 1.225-5.28 1.356-7.091.3l-29.712-17.144c-.404-.235-.704-.509-.913-.808-.626 1.004-.339 2.099.913 2.816l29.712 17.144c1.811 1.068 4.992.925 7.091-.287l28.682-16.558c1.643-.951 2.138-2.255 1.421-3.298-.287.457-.756.9-1.421 1.278Z" fill="#ccc" fill-rule="evenodd" data-name="Path 596"/><path d="m270.569 2939.78-24.888-14.373c-1.525-.88-1.343-2.418.43-3.435l24.027-13.878c1.773-1.024 4.433-1.128 5.971-.248l24.875 14.367c1.538.887 1.343 2.432-.417 3.448l-24.04 13.865c-1.76 1.024-4.433 1.135-5.958.255Z" fill="#b3b3b3" fill-rule="evenodd" data-name="Path 597"/><g data-name="Group 34"><path d="M273.342 2937.692c1.33-.026 2.711-.371 3.806-.997l28.682-16.558c1.212-.703 1.8-1.616 1.721-2.457v-10.247l-22.972-.013-7.94-4.583c-.873-.502-2.072-.743-3.297-.71" fill="#666" fill-rule="evenodd" data-name="Path 598"/><path d="M273.344 2902.132c-1.33.033-2.712.378-3.807 1.004l-7.405 4.276-23.01-.007v10.534c-.04.71.352 1.402 1.225 1.91l29.699 17.144c.873.502 2.06.73 3.298.71v-35.571Z" fill="gray" fill-rule="evenodd" data-name="Path 599"/><path d="M241.73 2907.396h-2.608v10.534c-.04.717.352 1.401 1.225 1.91l1.382.795v-13.24Z" fill="#999" fill-rule="evenodd" data-name="Path 600"/><path d="M270.498 2937.209c1.564.664 3.846.638 5.684-.066v-11.968h-5.684v12.034Z" fill="#999" fill-rule="evenodd" data-name="Path 601"/></g><path d="m270.05 2926.48-29.698-17.144c-1.825-1.05-1.604-2.894.495-4.107l28.682-16.557c2.112-1.212 5.293-1.342 7.118-.293l29.698 17.144c1.826 1.05 1.59 2.894-.508 4.106l-28.682 16.558c-2.099 1.212-5.293 1.343-7.105.293Z" fill="#ccc" fill-rule="evenodd" data-name="Path 602"/><path d="m305.833 2907.615-28.682 16.557c-2.098 1.213-5.28 1.343-7.105.294l-29.698-17.144c-.404-.235-.717-.515-.913-.808-.625 1.01-.339 2.105.913 2.822l29.698 17.15c1.825 1.05 5.007.92 7.105-.293l28.682-16.557c1.643-.945 2.139-2.268 1.422-3.298-.288.456-.757.893-1.422 1.277Z" fill="#ccc" fill-rule="evenodd" data-name="Path 603"/><path d="m270.569 2923.397-24.888-14.36c-1.525-.894-1.343-2.432.43-3.449l24.027-13.878c1.773-1.017 4.433-1.121 5.971-.241l24.875 14.373c1.538.88 1.343 2.419-.417 3.436l-24.04 13.878c-1.76 1.017-4.433 1.127-5.958.24Z" fill="#b3b3b3" fill-rule="evenodd" data-name="Path 604"/><path d="M273.33 2921.32c1.33-.04 2.712-.372 3.807-1.004l28.681-16.557c1.213-.704 1.8-1.603 1.734-2.45v-10.255l-22.984-.006-7.94-4.59c-.873-.508-2.072-.73-3.298-.71" fill="#666" fill-rule="evenodd" data-name="Path 605"/><path d="M273.345 2885.755c-1.342.04-2.724.372-3.82.998l-7.404 4.276-23.01-.007v10.534c-.04.717.351 1.402 1.225 1.91l29.698 17.144c.874.515 2.073.736 3.311.71v-35.565Z" fill="gray" fill-rule="evenodd" data-name="Path 606"/><path d="M241.718 2891.019h-2.608v10.547c-.039.71.352 1.388 1.226 1.903l1.382.79v-13.24Z" fill="#999" fill-rule="evenodd" data-name="Path 607"/><path d="M270.486 2920.84c1.565.678 3.833.632 5.684-.066v-11.968h-5.684v12.034Z" fill="#999" fill-rule="evenodd" data-name="Path 608"/><path d="m270.033 2910.114-29.699-17.15c-1.825-1.056-1.603-2.894.509-4.107l28.682-16.557c2.098-1.219 5.28-1.349 7.105-.3l29.698 17.157c1.825 1.05 1.59 2.882-.508 4.094l-28.682 16.557c-2.099 1.219-5.28 1.356-7.105.306Z" fill="#ccc" fill-rule="evenodd" data-name="Path 609"/><path d="m305.817 2891.244-28.668 16.55c-2.113 1.226-5.294 1.356-7.119.307l-29.698-17.157c-.404-.235-.704-.502-.913-.808-.626 1.017-.339 2.105.913 2.829l29.698 17.144c1.825 1.056 5.006.925 7.119-.294l28.668-16.557c1.643-.945 2.138-2.262 1.42-3.298-.286.463-.755.906-1.42 1.284Z" fill="#ccc" fill-rule="evenodd" data-name="Path 610"/><path d="m271.78 2899.482-13.898-8.024c-.847-.495-.743-1.356.248-1.923l13.415-7.75c.978-.574 2.477-.626 3.325-.137l13.897 8.024c.86.489.743 1.356-.234 1.923l-13.416 7.75c-.99.568-2.477.626-3.337.137Z" fill="#b3b3b3" fill-rule="evenodd" data-name="Path 611"/><path d="m274.878 2883.454 13.858 8.005c.783-.56.822-1.33.04-1.786l-13.898-8.025" fill="gray" fill-rule="evenodd" data-name="Path 612"/><path d="m271.545 2881.787-13.415 7.75c-.991.568-1.095 1.435-.248 1.924l.04.02c.064-.047.13-.092.208-.138l13.415-7.75" fill="#666" fill-rule="evenodd" data-name="Path 613"/><path d="M271.545 2883.597c.978-.574 2.477-.633 3.325-.144v-1.805c-.848-.49-2.347-.437-3.325.137v1.812Z" fill="#999" fill-rule="evenodd" data-name="Path 614"/><path d="M406.357 3021.524c1.343-.04 2.725-.378 3.82-1.004l28.656-16.557c1.225-.704 1.812-1.604 1.747-2.451v-10.247l-22.971-.013-7.953-4.59c-.887-.507-2.073-.73-3.299-.716" fill="#666" fill-rule="evenodd" data-name="Path 615"/><path d="M406.349 2985.945c-1.33.026-2.712.365-3.807.991l-7.418 4.29-22.984-.014v10.534c-.052.717.339 1.395 1.212 1.904l29.699 17.157c.873.495 2.072.73 3.298.703v-35.565Z" fill="gray" fill-rule="evenodd" data-name="Path 616"/><path d="m374.747 2991.23-2.607-.013v10.547c-.052.704.339 1.395 1.212 1.904l1.395.795v-13.233Z" fill="#999" fill-rule="evenodd" data-name="Path 617"/><path d="M403.522 3021.03c1.577.678 3.832.638 5.684-.066v-11.968h-5.684v12.034Z" fill="#999" fill-rule="evenodd" data-name="Path 618"/><path d="m403.064 3010.312-29.699-17.157c-1.825-1.043-1.59-2.894.509-4.106l28.682-16.557c2.098-1.213 5.28-1.343 7.105-.287l29.711 17.144c1.826 1.056 1.59 2.894-.521 4.106l-28.669 16.557c-2.125 1.226-5.293 1.356-7.118.3Z" fill="#ccc" fill-rule="evenodd" data-name="Path 619"/><path d="m438.847 2991.427-28.669 16.558c-2.125 1.212-5.293 1.342-7.118.3l-29.699-17.158a2.647 2.647 0 0 1-.912-.808c-.613 1.017-.339 2.112.912 2.83l29.699 17.143c1.825 1.056 4.993.925 7.118-.287l28.669-16.557c1.643-.952 2.138-2.268 1.434-3.298-.3.456-.77.9-1.434 1.277Z" fill="#ccc" fill-rule="evenodd" data-name="Path 620"/><path d="m403.589 3007.217-24.875-14.367c-1.538-.874-1.342-2.412.418-3.442l24.04-13.871c1.76-1.017 4.433-1.134 5.958-.248l24.888 14.367c1.538.886 1.33 2.425-.417 3.442l-24.04 13.871c-1.76 1.017-4.433 1.135-5.972.248Z" fill="#b3b3b3" fill-rule="evenodd" data-name="Path 621"/><path d="M406.374 3005.137c1.33-.026 2.724-.378 3.806-1.004l28.67-16.557c1.224-.704 1.811-1.617 1.746-2.451v-10.247l-22.985-.013-7.952-4.59c-.86-.508-2.047-.742-3.285-.703" fill="#666" fill-rule="evenodd" data-name="Path 622"/><path d="M406.378 2969.576c-1.342.039-2.724.365-3.82 1.003l-7.404 4.276-22.998-.013v10.548c-.052.704.339 1.394 1.226 1.903l29.685 17.144c.887.508 2.073.73 3.311.704v-35.565Z" fill="gray" fill-rule="evenodd" data-name="Path 623"/><path d="M374.763 2974.84h-2.607v10.533c-.052.717.339 1.395 1.226 1.904l1.381.795v-13.233Z" fill="#999" fill-rule="evenodd" data-name="Path 624"/><path d="M403.538 3004.652c1.565.665 3.846.625 5.671-.065v-11.968h-5.67v12.033Z" fill="#999" fill-rule="evenodd" data-name="Path 625"/><path d="m403.073 2993.929-29.686-17.144c-1.825-1.07-1.604-2.894.496-4.107l28.681-16.557c2.113-1.212 5.294-1.356 7.105-.3l29.712 17.144c1.825 1.056 1.59 2.894-.522 4.107l-28.668 16.557c-2.1 1.212-5.293 1.343-7.118.3Z" fill="#ccc" fill-rule="evenodd" data-name="Path 626"/><path d="m438.856 2975.07-28.656 16.558c-2.112 1.212-5.293 1.343-7.118.287l-29.698-17.144c-.405-.235-.705-.509-.913-.808-.626 1.003-.34 2.099.913 2.816l29.698 17.156c1.825 1.056 5.006.913 7.118-.3l28.656-16.556c1.655-.94 2.137-2.256 1.434-3.299-.287.47-.756.9-1.434 1.29Z" fill="#ccc" fill-rule="evenodd" data-name="Path 627"/><path d="M403.429 2895.012h-2.608v10.547c-.052.71.34 1.395 1.226 1.903l1.382.795v-13.245Z" fill="#5793ce" fill-rule="evenodd" data-name="Path 628"/><path d="M403.429 2878.634h-2.608v10.534c-.052.71.34 1.401 1.226 1.91l1.382.795v-13.24Z" fill="#5793ce" fill-rule="evenodd" data-name="Path 629"/><path d="M403.429 2862.264h-2.608v10.534c-.052.717.34 1.401 1.226 1.91l1.382.795v-13.24Z" fill="#5793ce" fill-rule="evenodd" data-name="Path 630"/><path d="M420.89 2950.203v-119.661l-47.572-12.458-8.774-5.058c-1.995-1.16-5.515-1.017-7.836.326l-8.174 4.72-25.37-.014 7.51 115.522c-.053.782.364 1.552 1.356 2.106l47.467 35.82c1.995 1.166 5.515 1.016 7.836-.327l31.654-18.258c1.33-.776 1.982-1.78 1.903-2.718Z" fill="#666" fill-rule="evenodd" data-name="Path 631"/><path d="M360.913 2812.25c-1.487.04-2.999.41-4.212 1.109l-8.174 4.719-25.37-.02v119.994c-.078.789.365 1.545 1.343 2.099l54.99 31.367c.952.548 2.282.802 3.637.77l.561-120.737-22.775-39.3Z" fill="gray" fill-rule="evenodd" data-name="Path 632"/><path d="M380.006 2971.751c1.721.743 4.237.697 6.271-.072v-121.564h-6.27v121.636Z" fill="#999" fill-rule="evenodd" data-name="Path 633"/><path d="m379.488 2851.562-54.978-31.354c-2.02-1.167-1.76-3.194.56-4.53l31.642-18.272c2.307-1.343 5.827-1.486 7.835-.326l54.99 31.354c2.021 1.167 1.76 3.188-.56 4.53l-31.64 18.272c-2.322 1.336-5.842 1.48-7.85.326Z" fill="#ccc" fill-rule="evenodd" data-name="Path 634"/><path d="m418.979 2830.739-31.654 18.271c-2.308 1.33-5.828 1.48-7.835.326l-54.978-31.367a2.87 2.87 0 0 1-1.016-.887c-.678 1.115-.378 2.32 1.016 3.116l54.978 31.36c2.007 1.155 5.527 1.011 7.835-.325l31.654-18.272c1.8-1.043 2.347-2.503 1.564-3.637-.312.502-.834.99-1.564 1.415Z" fill="#ccc" fill-rule="evenodd" data-name="Path 635"/><path d="m381.073 2838.852-36.622-21.224c-.951-.548-.821-1.493.26-2.119l14.811-8.546c1.095-.625 2.738-.704 3.664-.156l36.62 21.224c.953.541.822 1.493-.26 2.119l-14.81 8.546c-1.095.632-2.725.697-3.663.156Z" fill="#b3b3b3" fill-rule="evenodd" data-name="Path 636"/><g data-name="Group 35"><path d="m361.28 2818.58-2.113-1.225c-.13-.078-.117-.209.027-.294l2.06-1.18c.143-.084.365-.104.495-.019l2.125 1.219c.13.078.117.209-.039.3l-2.047 1.18c-.143.084-.378.097-.508.02Z" fill="#f2f2f2" fill-rule="evenodd" data-name="Path 637"/><path d="m368.368 2822.655-2.111-1.225c-.13-.072-.118-.202.025-.294l2.06-1.18a.563.563 0 0 1 .509-.026l2.112 1.232c.13.072.117.202-.026.294l-2.06 1.18c-.143.084-.378.097-.509.019Z" fill="#f2f2f2" fill-rule="evenodd" data-name="Path 638"/><path d="m375.457 2826.73-2.112-1.226c-.13-.078-.117-.209.027-.294l2.06-1.18a.563.563 0 0 1 .508-.026l2.111 1.226c.13.078.118.208-.025.293l-2.06 1.18a.562.562 0 0 1-.509.026Z" fill="#f2f2f2" fill-rule="evenodd" data-name="Path 639"/><path d="m382.546 2830.804-2.112-1.232c-.13-.072-.117-.202.026-.293l2.047-1.18c.157-.085.391-.092.522-.02l2.112 1.226c.13.071.117.202-.027.293l-2.06 1.18a.563.563 0 0 1-.508.026Z" fill="#f2f2f2" fill-rule="evenodd" data-name="Path 640"/></g><path d="m359.522 2806.962-14.81 8.546c-1.082.626-1.212 1.578-.26 2.119l.038.026c.079-.052.13-.098.222-.15l14.81-8.546" fill="#666" fill-rule="evenodd" data-name="Path 641"/><path d="m363.188 2808.802 36.57 21.198c.86-.619.912-1.466.025-1.968l-36.595-21.225" fill="gray" fill-rule="evenodd" data-name="Path 642"/><path d="m393.509 2875.273 20.807-11.922c1.174-.678 2.138-2.49 2.138-4.048v-7.451c0-1.565-.964-2.282-2.138-1.604l-20.807 11.923c-1.173.671-2.112 2.49-2.112 4.048v7.444c0 1.558.939 2.281 2.112 1.61Z" fill="#4d4d4d" fill-rule="evenodd" data-name="Path 643"/><path d="M415.363 2850.025c.352.313.547.841.547 1.552v7.444c0 1.564-.951 3.377-2.125 4.054l-20.807 11.916c-.378.222-.73.28-1.043.235.391.352.965.41 1.604.046l20.807-11.91c1.173-.678 2.112-2.496 2.112-4.06v-7.439c0-1.068-.443-1.72-1.095-1.838Z" fill="#ccc" fill-rule="evenodd" data-name="Path 644"/><g data-name="Group 36"><path d="m399.762 2867.173 1.917-1.095c.26-.15.469-.548.469-.88v-2.047c0-.333-.209-.495-.47-.352l-1.916 1.108c-.234.15-.443.541-.443.88v2.04c0 .34.209.496.443.346Z" fill="#666" fill-rule="evenodd" data-name="Path 645"/><path d="m406.19 2863.497 1.903-1.101c.248-.157.456-.548.456-.894v-2.033c0-.34-.208-.496-.456-.352l-1.903 1.101c-.261.15-.483.548-.483.887v2.04c0 .34.222.496.483.352Z" fill="#b3b3b3" fill-rule="evenodd" data-name="Path 646"/></g><path d="m393.509 2929.054 20.807-11.91c1.174-.677 2.138-2.496 2.138-4.06v-7.438c0-1.564-.964-2.281-2.138-1.603l-20.807 11.915c-1.173.678-2.112 2.49-2.112 4.055v7.438c0 1.564.939 2.281 2.112 1.603Z" fill="#4d4d4d" fill-rule="evenodd" data-name="Path 647"/><path d="M415.363 2903.82c.352.306.547.828.547 1.545v7.45c0 1.558-.951 3.37-2.125 4.048l-20.807 11.923c-.378.215-.73.28-1.043.221.391.365.965.424 1.604.06l20.807-11.923c1.173-.678 2.112-2.484 2.112-4.048v-7.451c0-1.063-.443-1.714-1.095-1.825Z" fill="#ccc" fill-rule="evenodd" data-name="Path 648"/><g data-name="Group 37"><path d="m399.762 2920.97 1.917-1.102c.26-.144.469-.541.469-.887v-2.04c0-.339-.209-.496-.47-.346l-1.916 1.102c-.234.15-.443.54-.443.886v2.034c0 .346.209.496.443.352Z" fill="#666" fill-rule="evenodd" data-name="Path 649"/><path d="m406.19 2917.286 1.903-1.108c.248-.15.456-.54.456-.88v-2.034c0-.345-.208-.502-.456-.352l-1.903 1.095c-.261.15-.483.548-.483.887v2.04c0 .333.222.502.483.352Z" fill="#666" fill-rule="evenodd" data-name="Path 650"/></g><path d="m393.509 2955.966 20.807-11.93c1.174-.677 2.138-2.49 2.138-4.04v-7.458c0-1.564-.964-2.269-2.138-1.604l-20.807 11.93c-1.173.677-2.112 2.49-2.112 4.04v7.458c0 1.565.939 2.282 2.112 1.604Z" fill="#4d4d4d" fill-rule="evenodd" data-name="Path 651"/><path d="M415.363 2930.709c.352.313.547.834.547 1.551v7.444c0 1.565-.951 3.377-2.125 4.055l-20.807 11.916c-.378.221-.73.273-1.043.234.391.365.965.405 1.604.04l20.807-11.903c1.173-.678 2.112-2.503 2.112-4.068v-7.431c0-1.07-.443-1.721-1.095-1.838Z" fill="#ccc" fill-rule="evenodd" data-name="Path 652"/><g data-name="Group 38"><path d="m399.762 2947.855 1.917-1.095c.26-.144.469-.535.469-.887v-2.033c0-.34-.209-.496-.47-.353l-1.916 1.109c-.234.143-.443.534-.443.873v2.047c0 .339.209.495.443.339Z" fill="#fff" fill-rule="evenodd" data-name="Path 653"/><path d="m406.19 2944.172 1.903-1.095c.248-.144.456-.548.456-.887v-2.033c0-.34-.208-.496-.456-.352l-1.903 1.095c-.261.143-.483.547-.483.886v2.047c0 .339.222.495.483.339Z" fill="#396caa" fill-rule="evenodd" data-name="Path 654"/></g><path d="m393.509 2902.16 20.807-11.922c1.174-.672 2.138-2.484 2.138-4.048v-7.445c0-1.558-.964-2.275-2.138-1.603l-20.807 11.916c-1.173.678-2.112 2.49-2.112 4.054v7.444c0 1.565.939 2.282 2.112 1.604Z" fill="#4d4d4d" fill-rule="evenodd" data-name="Path 655"/><path d="M415.363 2876.922c.352.307.547.828.547 1.545v7.444c0 1.565-.951 3.377-2.125 4.055l-20.807 11.916c-.378.215-.73.274-1.043.222.391.371.965.43 1.604.058l20.807-11.922c1.173-.672 2.112-2.49 2.112-4.048v-7.444c0-1.063-.443-1.721-1.095-1.826Z" fill="#ccc" fill-rule="evenodd" data-name="Path 656"/><g data-name="Group 39"><path d="m399.762 2894.073 1.917-1.108c.26-.15.469-.541.469-.88v-2.034c0-.345-.209-.502-.47-.352l-1.916 1.095c-.234.15-.443.548-.443.893v2.034c0 .346.209.502.443.352Z" fill="#b3b3b3" fill-rule="evenodd" data-name="Path 657"/><path d="m406.19 2890.393 1.903-1.102c.248-.15.456-.547.456-.886v-2.04c0-.34-.208-.496-.456-.353l-1.903 1.109c-.261.15-.483.54-.483.886v2.034c0 .339.222.495.483.352Z" fill="#b3b3b3" fill-rule="evenodd" data-name="Path 658"/></g><path d="m375.498 2867.646-48.015-27.73c-1.082-.619-1.956-2.287-1.956-3.722v-9.158c0-1.428.874-2.086 1.956-1.467l48.015 27.73c1.082.613 1.943 2.282 1.943 3.716v9.152c0 1.434-.86 2.099-1.943 1.48Z" fill="#999" fill-rule="evenodd" data-name="Path 659"/><path d="m374.127 2864.435-45.278-26.14c-.548-.312-.991-1.16-.991-1.883v-6.89c0-.724.443-1.057.99-.744l45.279 26.14c.534.306.977 1.154.977 1.877v6.884c0 .73-.443 1.062-.977.756Z" fill="#666" fill-rule="evenodd" data-name="Path 660"/><path d="m375.498 2883.79-48.015-27.73c-1.082-.618-1.956-2.28-1.956-3.715v-9.158c0-1.434.874-2.086 1.956-1.467l48.015 27.723c1.082.626 1.943 2.289 1.943 3.723v9.158c0 1.434-.86 2.093-1.943 1.467Z" fill="#999" fill-rule="evenodd" data-name="Path 661"/><path d="m374.127 2880.585-45.278-26.14c-.548-.313-.991-1.153-.991-1.877v-6.89c0-.73.443-1.063.99-.75l45.279 26.133c.534.32.977 1.167.977 1.89v6.884c0 .724-.443 1.063-.977.75Z" fill="#666" fill-rule="evenodd" data-name="Path 662"/><path d="m375.498 2899.942-48.015-27.723c-1.082-.62-1.956-2.282-1.956-3.716v-9.159c0-1.434.874-2.098 1.956-1.473l48.015 27.724c1.082.62 1.943 2.288 1.943 3.722v9.165c0 1.421-.86 2.086-1.943 1.46Z" fill="#999" fill-rule="evenodd" data-name="Path 663"/><path d="m374.127 2896.73-45.278-26.132c-.548-.32-.991-1.154-.991-1.89v-6.884c0-.724.443-1.063.99-.743l45.279 26.133c.534.312.977 1.16.977 1.89v6.884c0 .723-.443 1.055-.977.742Z" fill="#666" fill-rule="evenodd" data-name="Path 664"/><path d="m375.498 2916.098-48.015-27.73c-1.082-.619-1.956-2.281-1.956-3.715v-9.159c0-1.434.874-2.092 1.956-1.48l48.015 27.73c1.082.62 1.943 2.295 1.943 3.716v9.159c0 1.434-.86 2.092-1.943 1.48Z" fill="#999" fill-rule="evenodd" data-name="Path 665"/><path d="m374.127 2912.881-45.278-26.133c-.548-.319-.991-1.166-.991-1.89v-6.89c0-.723.443-1.056.99-.737l45.279 26.133c.534.313.977 1.154.977 1.89v6.871c0 .737-.443 1.07-.977.756Z" fill="#666" fill-rule="evenodd" data-name="Path 666"/><path d="m375.498 2932.242-48.015-27.724c-1.082-.62-1.956-2.288-1.956-3.722v-9.152c0-1.434.874-2.099 1.956-1.473l48.015 27.723c1.082.62 1.943 2.282 1.943 3.716v9.158c0 1.434-.86 2.1-1.943 1.474Z" fill="#999" fill-rule="evenodd" data-name="Path 667"/><path d="m374.127 2929.034-45.278-26.14c-.548-.312-.991-1.16-.991-1.883v-6.89c0-.724.443-1.057.99-.744l45.279 26.14c.534.306.977 1.154.977 1.877v6.884c0 .73-.443 1.062-.977.756Z" fill="#666" fill-rule="evenodd" data-name="Path 668"/><path d="m375.498 2948.381-48.015-27.723c-1.082-.626-1.956-2.288-1.956-3.722v-9.159c0-1.434.874-2.086 1.956-1.466l48.015 27.73c1.082.619 1.943 2.281 1.943 3.715v9.159c0 1.434-.86 2.092-1.943 1.466Z" fill="#999" fill-rule="evenodd" data-name="Path 669"/><path d="m374.127 2945.187-45.278-26.14c-.548-.312-.991-1.16-.991-1.883v-6.884c0-.736.443-1.069.99-.75l45.279 26.14c.534.313.977 1.16.977 1.884v6.884c0 .723-.443 1.062-.977.75Z" fill="#666" fill-rule="evenodd" data-name="Path 670"/><path d="m375.498 2964.527-48.015-27.717c-1.082-.625-1.956-2.294-1.956-3.728v-9.152c0-1.434.874-2.1 1.956-1.46l48.015 27.717c1.082.626 1.943 2.281 1.943 3.715v9.165c0 1.434-.86 2.086-1.943 1.46Z" fill="#999" fill-rule="evenodd" data-name="Path 671"/><path d="m374.127 2961.313-45.278-26.127c-.548-.312-.991-1.16-.991-1.89v-6.87c0-.744.443-1.07.99-.757l45.279 26.127c.534.325.977 1.173.977 1.89v6.897c0 .717-.443 1.056-.977.73Z" fill="#666" fill-rule="evenodd" data-name="Path 672"/><path d="m415.728 2814.17 11.277-6.636-10.743-13.389-2.816 4.602 2.282 15.423Z" fill="gray" fill-rule="evenodd" data-name="Path 673"/><path d="m333.904 2740.665 17.99-10.345s-.69 10.32-.69 10.345c0 .02-10.326 3.207-10.326 3.207l-6.974-3.207Z" fill="gray" fill-rule="evenodd" data-name="Path 674"/><path d="M418.866 2780.496c-1.382-.789-2.686-1.252-3.898-1.44-1.812-9.53-8.448-19.654-16.348-24.217-2.386-1.369-4.642-2.112-6.689-2.262-1.082-11.544-9.1-24.673-18.864-30.311-5.098-2.94-9.713-3.286-13.129-1.487l.013-.006-.182.091c-.078.046-.17.098-.26.157l-10.6 6.257 3.52 2.784c-3.155 1.388-5.162 4.928-5.162 10.175 0 9.674 6.805 21.433 15.175 26.264l56.424 40.29c6.284 3.638 11.382.692 11.382-6.57 0-7.262-5.098-16.094-11.382-19.725Z" fill="gray" fill-rule="evenodd" data-name="Path 675"/><path d="m347.788 2735.982 24.353-14.223c-4.732-2.464-8.995-2.673-12.202-.978v-.006l-.17.091c-.078.046-.182.098-.26.15l-10.613 6.258 3.533 2.79c-2.216.971-3.859 2.992-4.64 5.918Z" fill="gray" fill-rule="evenodd" data-name="Path 676"/><path d="m392.73 2777.804 17.77-10.423c-3.05-5.26-7.236-9.869-11.877-12.548a20.163 20.163 0 0 0-1.825-.932l-22.593 13.207 18.525 10.696Z" fill="gray" fill-rule="evenodd" data-name="Path 677"/><path d="m353.916 2728.448 7.926 4.576 14.484-8.54a27.816 27.816 0 0 0-3.259-2.203c-1.734-1.016-3.455-1.72-5.071-2.138l-14.08 8.305Z" fill="gray" fill-rule="evenodd" data-name="Path 678"/><path d="m408.534 2764.33-14.17 8.35 4.94 5.496 12.855-7.594a40.839 40.839 0 0 0-3.625-6.251Z" fill="gray" fill-rule="evenodd" data-name="Path 679"/><path d="M407.726 2787.054c-1.369-.795-2.672-1.251-3.898-1.447-1.8-9.524-8.435-19.647-16.348-24.216-2.373-1.37-4.642-2.1-6.689-2.256-1.082-11.557-9.112-24.68-18.864-30.311-10.482-6.056-18.995-1.147-18.995 10.958 0 .417.012.834.039 1.251-7.666-3.565-13.663.443-13.663 9.53 0 9.674 6.78 21.433 15.15 26.27l63.268 36.517c6.297 3.63 11.394.691 11.394-6.57 0-7.262-5.097-16.095-11.394-19.726Z" fill="#b3b3b3" fill-rule="evenodd" data-name="Path 680"/><g data-name="Group 40"><path d="m341.636 2743.922 4.745 2.197-.234-5.234c-.014-.365-.027-.73-.027-1.095 0-4.668 1.396-8.057 3.976-9.544 2.556-1.472 6.193-1.003 10.248 1.337 8.696 5.019 16.296 17.254 17.274 27.854l.26 2.66 2.673.208c1.643.13 3.442.743 5.346 1.845 6.91 3.996 13.128 13.265 14.81 22.058l.43 2.197 2.19.352c.887.144 1.825.489 2.816 1.056 5.306 3.064 9.79 10.834 9.79 16.968 0 2.288-.638 3.976-1.746 4.621-1.108.64-2.881.34-4.876-.795l-63.256-36.523c-7.353-4.257-13.572-15.019-13.572-23.513 0-3.337.991-5.88 2.7-6.968.703-.456 1.564-.678 2.528-.678 1.173 0 2.49.333 3.925.997Z" fill="#b3b3b3" fill-rule="evenodd" data-name="Path 681"/></g><path d="M401.224 2945.687h-.978v-54.078l6.388-3.677v-26.621h.978v27.169l-6.388 3.696v53.51Z" fill="#ccc" fill-rule="evenodd" data-name="Path 682"/><g data-name="Group 44"><g data-name="Group 41"><path d="M268.12 2913.104c0 .515-.365.723-.809.463-.456-.255-.808-.88-.808-1.402 0-.515.352-.717.808-.463.444.26.809.887.809 1.402Z" fill="#0f0" fill-rule="evenodd" data-name="Path 683"/><path d="M265.605 2911.66c0 .521-.352.73-.795.476-.456-.261-.808-.887-.808-1.402 0-.515.352-.724.808-.463.443.254.795.88.795 1.389Z" fill="red" fill-rule="evenodd" data-name="Path 684"/><path d="M268.12 2916.122c0 .521-.365.723-.809.476-.456-.261-.808-.893-.808-1.408 0-.509.352-.724.808-.463.444.254.809.88.809 1.395Z" fill="#fff" fill-rule="evenodd" data-name="Path 685"/><path d="M265.605 2914.692c0 .515-.352.724-.795.463-.456-.247-.808-.88-.808-1.395 0-.521.352-.723.808-.47.443.262.795.887.795 1.402Z" fill="#fff" fill-rule="evenodd" data-name="Path 686"/></g><g data-name="Group 42"><path d="M268.12 2929.402c0 .508-.365.717-.809.456-.456-.26-.808-.873-.808-1.395 0-.508.352-.717.808-.469.444.26.809.9.809 1.408Z" fill="#0f0" fill-rule="evenodd" data-name="Path 687"/><path d="M268.12 2932.42c0 .522-.365.717-.809.47-.456-.261-.808-.887-.808-1.408 0-.509.352-.717.808-.457.444.248.809.874.809 1.395Z" fill="#fff" fill-rule="evenodd" data-name="Path 689"/><path d="M265.605 2930.98c0 .522-.352.73-.795.47-.456-.248-.808-.887-.808-1.395 0-.522.352-.718.808-.47.443.261.795.887.795 1.395Z" fill="#fff" fill-rule="evenodd" data-name="Path 690"/></g><g data-name="Group 43"><path d="M268.12 2945.697c0 .508-.365.717-.809.456-.456-.26-.808-.873-.808-1.395 0-.521.352-.717.808-.47.444.262.809.887.809 1.409Z" fill="#0f0" fill-rule="evenodd" data-name="Path 691"/><path d="M265.605 2944.253c0 .522-.352.73-.795.47-.456-.248-.808-.874-.808-1.395 0-.509.352-.73.808-.47.443.261.795.887.795 1.395Z" fill="red" fill-rule="evenodd" data-name="Path 692"/><path d="M268.12 2948.71c0 .522-.365.73-.809.47-.456-.261-.808-.887-.808-1.396 0-.508.352-.73.808-.469.444.261.809.887.809 1.395Z" fill="#fff" fill-rule="evenodd" data-name="Path 693"/><path d="M265.605 2947.279c0 .521-.352.73-.795.47-.456-.261-.808-.887-.808-1.409 0-.508.352-.717.808-.456.443.26.795.887.795 1.395Z" fill="#fff" fill-rule="evenodd" data-name="Path 694"/></g></g><path d="m403.589 2990.845-24.875-14.38c-1.538-.874-1.342-2.412.418-3.43l24.04-13.884c1.76-1.016 4.433-1.12 5.958-.234l24.888 14.353c1.538.9 1.33 2.438-.417 3.455l-24.04 13.872c-1.76 1.017-4.433 1.12-5.972.248Z" fill="#b3b3b3" fill-rule="evenodd" data-name="Path 695"/><path d="M406.349 2953.19c-1.33.026-2.711.378-3.807 1.003l-7.418 4.277-22.984-.013v10.533c-.052.718.339 1.409 1.212 1.917l29.699 17.144c.873.495 2.072.743 3.298.704" fill="#396caa" fill-rule="evenodd" data-name="Path 696"/><path d="M406.357 2988.76c1.343-.04 2.725-.379 3.82-1.005l28.656-16.557c1.225-.704 1.812-1.603 1.747-2.45V2958.5l-22.972-.013-7.952-4.59c-.874-.508-2.06-.742-3.299-.703" fill="#666" fill-rule="evenodd" data-name="Path 697"/><path d="M406.349 2953.198c-1.33.039-2.711.378-3.807 1.004l-7.418 4.289-22.984-.013v10.534c-.052.704.339 1.395 1.212 1.903l29.699 17.144c.873.509 2.072.73 3.298.717v-35.578Z" fill="gray" fill-rule="evenodd" data-name="Path 698"/><path d="M374.747 2958.461h-2.607v10.534c-.052.717.339 1.408 1.212 1.917l1.395.795v-13.246Z" fill="#999" fill-rule="evenodd" data-name="Path 699"/><path d="M403.522 2988.282c1.564.665 3.846.639 5.67-.065v-11.968h-5.67v12.033Z" fill="#999" fill-rule="evenodd" data-name="Path 700"/><path d="m403.064 2977.544-29.699-17.144c-1.825-1.043-1.59-2.881.51-4.107l28.68-16.557c2.1-1.212 5.294-1.343 7.106-.287l29.711 17.144c1.826 1.056 1.59 2.894-.508 4.107l-28.682 16.557c-2.099 1.212-5.293 1.343-7.118.287Z" fill="#ccc" fill-rule="evenodd" data-name="Path 701"/><path d="m438.86 2958.68-28.682 16.557c-2.099 1.212-5.306 1.356-7.131.3l-29.686-17.144a2.954 2.954 0 0 1-.912-.809c-.613 1.004-.34 2.1.912 2.817l29.686 17.156c1.825 1.043 5.032.913 7.131-.3l28.682-16.556c1.63-.94 2.112-2.256 1.421-3.299-.3.456-.77.913-1.421 1.278Z" fill="#ccc" fill-rule="evenodd" data-name="Path 702"/><g data-name="Group 45"><path d="M458.187 2875.076c0 .495-.338 1.095-.769 1.343-.43.247-.782.045-.782-.45s.352-1.089.782-1.343c.43-.248.77-.052.77.45Z" fill="#fff" fill-rule="evenodd" data-name="Path 703"/><path d="M461.79 2873.001c0 .496-.366 1.102-.783 1.343-.43.254-.77.052-.77-.443 0-.496.34-1.095.77-1.35.417-.24.782-.039.782.45Z" fill="#fff" fill-rule="evenodd" data-name="Path 704"/><path d="M465.377 2870.923c0 .49-.339 1.089-.756 1.343-.443.241-.782.04-.782-.45 0-.495.339-1.095.782-1.342.417-.255.756-.053.756.45Z" fill="red" fill-rule="evenodd" data-name="Path 705"/></g><g data-name="Group 46"><path d="M458.187 2891.45c0 .496-.338 1.09-.769 1.344-.43.247-.782.052-.782-.45 0-.496.352-1.095.782-1.343.43-.247.77-.045.77.45Z" fill="#fff" fill-rule="evenodd" data-name="Path 706"/><path d="M461.79 2889.382c0 .496-.366 1.096-.783 1.343-.43.241-.77.046-.77-.45 0-.495.34-1.101.77-1.342.417-.248.782-.053.782.45Z" fill="#fff" fill-rule="evenodd" data-name="Path 707"/><path d="M465.377 2887.293c0 .501-.339 1.101-.756 1.349-.443.248-.782.045-.782-.45 0-.489.339-1.095.782-1.35.417-.24.756-.045.756.45Z" fill="red" fill-rule="evenodd" data-name="Path 708"/></g><g data-name="Group 47"><path d="M458.187 2907.831c0 .483-.338 1.089-.769 1.343-.43.241-.782.04-.782-.45 0-.495.352-1.101.782-1.343.43-.254.77-.052.77.45Z" fill="#fff" fill-rule="evenodd" data-name="Path 709"/><path d="M461.79 2905.76c0 .49-.366 1.09-.783 1.343-.43.248-.77.052-.77-.45 0-.495.34-1.101.77-1.342.417-.255.782-.046.782.45Z" fill="#fff" fill-rule="evenodd" data-name="Path 710"/><path d="M465.377 2903.676c0 .495-.339 1.095-.756 1.342-.443.242-.782.046-.782-.45 0-.495.339-1.1.782-1.342.417-.254.756-.052.756.45Z" fill="red" fill-rule="evenodd" data-name="Path 711"/></g><g data-name="Group 48"><path d="M433.117 2969.199c0 .495-.339 1.108-.77 1.356-.443.247-.781.039-.781-.444 0-.495.338-1.108.782-1.355.43-.248.769-.04.769.443Z" fill="#fff" fill-rule="evenodd" data-name="Path 713"/><path d="M436.718 2967.121c0 .495-.352 1.095-.782 1.343-.43.248-.769.052-.769-.444 0-.495.34-1.095.77-1.342.43-.261.781-.052.781.443Z" fill="red" fill-rule="evenodd" data-name="Path 714"/></g><g data-name="Group 49"><path d="M429.51 2987.651c0 .509-.338 1.108-.782 1.343-.417.248-.756.052-.756-.443 0-.496.34-1.095.756-1.343.444-.248.783-.052.783.443Z" fill="#fff" fill-rule="evenodd" data-name="Path 715"/><path d="M433.125 2985.574c0 .495-.339 1.095-.77 1.342-.443.248-.781.052-.781-.443 0-.496.338-1.108.782-1.343.43-.248.769-.052.769.444Z" fill="#fff" fill-rule="evenodd" data-name="Path 716"/></g><g data-name="Group 50"><path d="M429.51 3004.028c0 .496-.338 1.096-.782 1.343-.417.248-.756.04-.756-.443 0-.495.34-1.108.756-1.343.444-.26.783-.052.783.443Z" fill="#fff" fill-rule="evenodd" data-name="Path 718"/><path d="M433.125 3001.963c0 .496-.339 1.083-.77 1.343-.443.248-.781.052-.781-.443 0-.508.338-1.108.782-1.356.43-.247.769-.039.769.456Z" fill="#fff" fill-rule="evenodd" data-name="Path 719"/><path d="M436.726 2999.867c0 .496-.352 1.095-.782 1.343-.43.248-.769.052-.769-.443s.34-1.108.77-1.343c.43-.248.781-.052.781.443Z" fill="red" fill-rule="evenodd" data-name="Path 720"/></g><path d="m404.828 2966.906-13.898-8.004c-.847-.509-.755-1.356.248-1.93l13.403-7.744c.99-.573 2.477-.626 3.337-.143l13.898 8.03c.86.483.743 1.343-.235 1.917l-13.428 7.744c-.978.574-2.477.639-3.325.13Z" fill="#b3b3b3" fill-rule="evenodd" data-name="Path 721"/><path d="m406.16 2960.193-1.929-1.108c-.13-.065-.117-.183.027-.26l1.864-1.07c.13-.078.338-.091.456-.026l1.93 1.108c.104.079.09.183-.04.274l-1.864 1.07c-.13.077-.34.077-.443.012Z" fill="#f2f2f2" fill-rule="evenodd" data-name="Path 722"/><path d="m407.906 2950.903 13.858 8.005c.782-.574.835-1.33.04-1.786l-13.898-8.03" fill="gray" fill-rule="evenodd" data-name="Path 723"/><path d="m404.58 2949.23-13.402 7.744c-1.003.573-1.095 1.434-.248 1.93l.04.025c.078-.052.117-.104.208-.143l13.403-7.744" fill="#666" fill-rule="evenodd" data-name="Path 724"/><path d="M404.581 2951.027c.978-.56 2.477-.626 3.324-.13v-1.812c-.847-.483-2.346-.43-3.324.143v1.8Z" fill="#999" fill-rule="evenodd" data-name="Path 725"/><path d="m303.713 3037.33-29.699-17.145c-1.825-1.055-1.59-2.894.509-4.106l28.682-16.558c2.111-1.212 5.293-1.343 7.118-.3l29.698 17.144c1.826 1.07 1.59 2.895-.521 4.107l-28.669 16.557c-2.112 1.213-5.293 1.356-7.118.3Z" fill="#ccc" fill-rule="evenodd" data-name="Path 726"/><path d="m339.506 3018.463-28.682 16.557c-2.112 1.226-5.293 1.356-7.118.3l-29.698-17.157a2.934 2.934 0 0 1-.913-.808c-.613 1.017-.326 2.112.913 2.829l29.698 17.144c1.825 1.056 5.006.926 7.118-.287l28.682-16.557c1.63-.952 2.125-2.268 1.408-3.299-.274.457-.756.9-1.408 1.278Z" fill="#ccc" fill-rule="evenodd" data-name="Path 727"/><path d="m304.26 3034.251-24.888-14.367c-1.539-.886-1.343-2.438.417-3.455l24.04-13.858c1.76-1.03 4.433-1.134 5.959-.26l24.887 14.379c1.526.873 1.343 2.412-.43 3.442l-24.027 13.871c-1.773 1.017-4.433 1.121-5.958.248Z" fill="#b3b3b3" fill-rule="evenodd" data-name="Path 728"/><g data-name="Group 52"><g data-name="Group 51"><path d="M307.03 3032.176c1.342-.04 2.724-.379 3.819-1.005l28.668-16.557c1.226-.703 1.8-1.603 1.747-2.463v-10.234l-22.984-.014-7.94-4.588c-.873-.51-2.06-.73-3.31-.718" fill="#666" fill-rule="evenodd" data-name="Path 729"/><path d="M307.023 2996.605c-1.33.039-2.712.365-3.807 1.004l-7.418 4.276-22.984-.013v10.534c-.066.717.339 1.408 1.212 1.903l29.699 17.157c.873.508 2.072.73 3.298.704v-35.565Z" fill="gray" fill-rule="evenodd" data-name="Path 730"/><path d="M275.408 3001.869h-2.594v10.534c-.066.717.339 1.408 1.212 1.916l1.382.796v-13.246Z" fill="#999" fill-rule="evenodd" data-name="Path 731"/><path d="M304.185 3031.682c1.565.665 3.846.626 5.685-.065v-11.969h-5.685v12.034Z" fill="#999" fill-rule="evenodd" data-name="Path 732"/></g><path d="m303.724 3020.964-29.698-17.157c-1.813-1.043-1.59-2.881.521-4.093l28.682-16.558c2.099-1.225 5.267-1.355 7.092-.3l29.712 17.157c1.825 1.043 1.59 2.881-.522 4.107l-28.668 16.557c-2.1 1.213-5.294 1.343-7.119.287Z" fill="#ccc" fill-rule="evenodd" data-name="Path 733"/></g><path d="m339.518 3002.098-28.669 16.558c-2.111 1.212-5.293 1.342-7.118.3l-29.699-17.157a2.806 2.806 0 0 1-.912-.809c-.625 1.017-.339 2.099.912 2.83l29.7 17.143c1.824 1.056 5.006.913 7.117-.3l28.669-16.557c1.643-.939 2.138-2.256 1.421-3.299-.287.47-.756.913-1.421 1.291Z" fill="#ccc" fill-rule="evenodd" data-name="Path 734"/><path d="m304.26 3017.872-24.888-14.38c-1.539-.873-1.343-2.412.417-3.428l24.04-13.885c1.76-1.017 4.433-1.121 5.959-.235l24.887 14.367c1.526.874 1.343 2.412-.43 3.429l-24.027 13.885c-1.773 1.016-4.433 1.12-5.958.247Z" fill="#b3b3b3" fill-rule="evenodd" data-name="Path 735"/><g data-name="Group 53"><path d="M307.016 3015.79c1.342-.039 2.724-.378 3.82-1.003l28.668-16.557c1.212-.704 1.799-1.617 1.734-2.451v-10.247l-22.972-.027-7.939-4.576c-.873-.508-2.073-.743-3.311-.704" fill="#666" fill-rule="evenodd" data-name="Path 736"/><path d="M307.007 2980.23c-1.317.025-2.712.364-3.794 1.003l-7.418 4.276-22.997-.013v10.534c-.052.717.339 1.408 1.225 1.917l29.686 17.144c.886.495 2.073.73 3.298.704v-35.566Z" fill="gray" fill-rule="evenodd" data-name="Path 737"/><path d="M275.405 2985.493h-2.607v10.534c-.052.717.339 1.408 1.225 1.916l1.382.796v-13.246Z" fill="#999" fill-rule="evenodd" data-name="Path 738"/><path d="M304.18 3015.293c1.577.678 3.846.652 5.684-.053v-11.968h-5.684v12.02Z" fill="#999" fill-rule="evenodd" data-name="Path 739"/></g><path d="m303.721 3004.584-29.698-17.143c-1.826-1.056-1.591-2.895.508-4.107l28.682-16.557c2.099-1.213 5.293-1.356 7.105-.287l29.698 17.13c1.826 1.057 1.604 2.895-.495 4.12l-28.682 16.557c-2.112 1.213-5.293 1.343-7.118.287Z" fill="#ccc" fill-rule="evenodd" data-name="Path 740"/><path d="m339.51 2985.707-28.682 16.557c-2.098 1.213-5.292 1.343-7.117.287l-29.7-17.144c-.39-.234-.703-.508-.899-.795-.625.991-.339 2.1.9 2.816l29.699 17.144c1.825 1.056 5.019.926 7.117-.287l28.682-16.557c1.63-.952 2.125-2.268 1.422-3.298-.288.456-.77.886-1.422 1.277Z" fill="#ccc" fill-rule="evenodd" data-name="Path 741"/><path d="m305.487 2993.952-13.91-8.03c-.848-.483-.744-1.343.234-1.904l13.428-7.757c.99-.574 2.477-.639 3.337-.144l13.885 8.031c.86.496.756 1.356-.235 1.917l-13.415 7.744c-.99.573-2.477.639-3.324.143Z" fill="#b3b3b3" fill-rule="evenodd" data-name="Path 742"/><path d="m308.563 2977.93 13.858 8.005c.795-.573.834-1.33.039-1.786l-13.897-8.03" fill="gray" fill-rule="evenodd" data-name="Path 743"/><path d="m305.24 2976.257-13.429 7.757c-.978.574-1.082 1.421-.235 1.916l.052.027a.942.942 0 0 1 .183-.13l13.428-7.758" fill="#666" fill-rule="evenodd" data-name="Path 744"/><path d="M305.238 2978.073c.978-.574 2.464-.639 3.325-.143v-1.813c-.86-.495-2.347-.43-3.325.144v1.812Z" fill="#999" fill-rule="evenodd" data-name="Path 745"/><path d="M363.169 2808.802c-.94-.548-2.582-.483-3.664.15v-1.989c1.082-.625 2.724-.704 3.664-.156v1.995Z" fill="#999" fill-rule="evenodd" data-name="Path 746"/><path d="m273.124 2892.76-1.916-1.108c-.13-.065-.105-.19.025-.274l1.865-1.069a.513.513 0 0 1 .456-.02l1.916 1.115c.13.065.105.189-.025.26l-1.865 1.076a.475.475 0 0 1-.456.02Z" fill="#f2f2f2" fill-rule="evenodd" data-name="Path 747"/><path d="m434.853 2864.005-1.93-1.108c-.13-.078-.104-.189.04-.273l1.864-1.076c.13-.072.339-.078.443-.013l1.93 1.108c.117.072.104.19-.026.268l-1.865 1.068c-.143.079-.339.092-.456.026Z" fill="#f2f2f2" fill-rule="evenodd" data-name="Path 748"/><g data-name="Group 54"><path d="m358.423 2851.827-27.156-15.677c-.443-.26-.795-.984-.756-1.63.013-.638.404-.945.847-.684l27.144 15.67c.456.261.795.985.769 1.63-.013.633-.404.945-.848.691Z" fill="#ff7104" fill-rule="evenodd" data-name="Path 749"/><path d="M361.737 2853.218a1.48.855 59.995 1 1 .05.086z" fill="#fff" fill-rule="evenodd" data-name="Ellipse 27"/><path d="M368.032 2856.04c0 .672-.482.94-1.043.613-.6-.332-1.069-1.147-1.069-1.818 0-.665.47-.94 1.069-.6.56.332 1.043 1.14 1.043 1.805Z" fill="#fff" fill-rule="evenodd" data-name="Path 750"/><path d="M372.439 2858.599c0 .671-.443.945-1.043.612-.561-.332-1.043-1.147-1.043-1.818 0-.665.482-.939 1.043-.6.6.332 1.043 1.147 1.043 1.806Z" fill="#ff1d25" fill-rule="evenodd" data-name="Path 751"/></g><g data-name="Group 55"><path d="m349.01 2862.55-18.199-10.501c-.3-.176-.443-.789-.352-1.388.118-.594.456-.926.744-.757l18.199 10.502c.3.176.443.789.34 1.388-.105.587-.444.926-.731.756Z" fill="#ff7104" fill-rule="evenodd" data-name="Path 752"/><path d="M361.737 2869.379a1.48.855 59.995 1 1 .05.086z" fill="#fff" fill-rule="evenodd" data-name="Ellipse 28"/><path d="M368.037 2872.203c0 .672-.482.94-1.043.607-.6-.333-1.068-1.141-1.068-1.812 0-.665.469-.946 1.068-.607.561.333 1.043 1.148 1.043 1.812Z" fill="#fff" fill-rule="evenodd" data-name="Path 753"/><path d="M372.444 2874.771c0 .665-.443.932-1.043.6-.56-.333-1.043-1.141-1.043-1.812 0-.665.482-.933 1.043-.607.6.34 1.043 1.148 1.043 1.82Z" fill="#ff1d25" fill-rule="evenodd" data-name="Path 754"/></g><g data-name="Group 56"><path d="m358.423 2883.91-27.156-15.67c-.443-.261-.795-.985-.756-1.63.013-.645.404-.952.847-.691l27.144 15.677c.456.248.795.984.769 1.616-.013.646-.404.959-.848.698Z" fill="#ff7104" fill-rule="evenodd" data-name="Path 755"/><path d="M372.439 2890.686c0 .665-.443.932-1.043.6-.561-.333-1.043-1.141-1.043-1.813 0-.665.482-.932 1.043-.6.6.333 1.043 1.141 1.043 1.813Z" fill="#ff1d25" fill-rule="evenodd" data-name="Path 756"/></g><g data-name="Group 57"><path d="m358.423 2900.07-27.156-15.676c-.443-.255-.795-.985-.756-1.624.013-.645.404-.951.847-.69l27.144 15.67c.456.26.795.984.769 1.63-.013.638-.404.952-.848.69Z" fill="#ff7104" fill-rule="evenodd" data-name="Path 757"/><path d="M361.737 2901.462a1.48.855 59.995 1 1 .05.086z" fill="#fff" fill-rule="evenodd" data-name="Ellipse 29"/><path d="M368.032 2904.294c0 .671-.482.939-1.043.606-.6-.339-1.069-1.147-1.069-1.818 0-.672.47-.94 1.069-.607.56.34 1.043 1.154 1.043 1.82Z" fill="#fff" fill-rule="evenodd" data-name="Path 758"/><path d="M372.439 2906.853c0 .664-.443.938-1.043.599-.561-.332-1.043-1.147-1.043-1.812 0-.671.482-.939 1.043-.606.6.332 1.043 1.153 1.043 1.819Z" fill="#ff1d25" fill-rule="evenodd" data-name="Path 759"/></g><g data-name="Group 58"><path d="m348.143 2910.494-17.379-10.025c-.286-.163-.417-.776-.3-1.362.118-.587.43-.933.73-.763l17.379 10.025c.287.17.417.776.3 1.362-.117.587-.456.933-.73.763Z" fill="#ff7104" fill-rule="evenodd" data-name="Path 760"/><path d="M361.737 2917.824a1.48.855 59.995 1 1 .05.086z" fill="#fff" fill-rule="evenodd" data-name="Ellipse 30"/><path d="M372.45 2923.212c0 .665-.443.939-1.043.6-.56-.326-1.043-1.147-1.043-1.812s.482-.94 1.043-.6c.6.326 1.043 1.134 1.043 1.812Z" fill="#ff1d25" fill-rule="evenodd" data-name="Path 761"/></g><g data-name="Group 59"><path d="m358.423 2932.354-27.156-15.677c-.443-.26-.795-.984-.756-1.63.013-.632.404-.945.847-.684l27.144 15.67c.456.262.795.985.769 1.63-.013.64-.404.946-.848.691Z" fill="#ff7104" fill-rule="evenodd" data-name="Path 762"/><path d="M361.737 2933.746a1.48.855 59.995 1 1 .05.087z" fill="#fff" fill-rule="evenodd" data-name="Ellipse 31"/><path d="M368.032 2936.567c0 .664-.482.938-1.043.612-.6-.339-1.069-1.147-1.069-1.812s.47-.939 1.069-.613c.56.34 1.043 1.148 1.043 1.813Z" fill="#fff" fill-rule="evenodd" data-name="Path 763"/><path d="M372.439 2939.133c0 .665-.443.939-1.043.6-.561-.326-1.043-1.147-1.043-1.812s.482-.939 1.043-.6c.6.326 1.043 1.148 1.043 1.812Z" fill="#ff1d25" fill-rule="evenodd" data-name="Path 764"/></g><g data-name="Group 60"><path d="m358.423 2948.515-27.156-15.657c-.443-.261-.795-.991-.756-1.643.013-.639.404-.952.847-.691l27.144 15.684c.456.247.795.99.769 1.616-.013.652-.404.952-.848.691Z" fill="#ff7104" fill-rule="evenodd" data-name="Path 765"/><path d="M361.737 2949.907a1.48.855 59.995 1 1 .05.086z" fill="#fff" fill-rule="evenodd" data-name="Ellipse 32"/><path d="M368.032 2952.74c0 .665-.482.939-1.043.6-.6-.339-1.069-1.134-1.069-1.812 0-.665.47-.939 1.069-.613.56.34 1.043 1.16 1.043 1.826Z" fill="#fff" fill-rule="evenodd" data-name="Path 766"/><path d="M372.439 2955.281c0 .678-.443.939-1.043.613-.561-.339-1.043-1.147-1.043-1.812s.482-.939 1.043-.6c.6.326 1.043 1.134 1.043 1.8Z" fill="#ff1d25" fill-rule="evenodd" data-name="Path 767"/></g><g data-name="Group 69"><g data-name="Group 62"><g data-name="Group 61"><g data-name="Group 1467"><g data-name="Group 1468"><path d="M351.19 2748.08c.781.443 1.42 1.545 1.42 2.438v1.088a20.502 20.502 0 0 1 2.66 2.83l.704-.398c.26-.15.612-.118.99.104.366.222.73.593.991 1.05l1.369 2.366c.274.456.43.951.43 1.382 0 .43-.156.75-.43.906l-.717.41c.456 1.16.782 2.308 1.017 3.436l.938.554c.783.443 1.422 1.538 1.422 2.438v2.216c0 .893-.64 1.252-1.422.802l-.938-.554c-.235.873-.56 1.642-1.017 2.268l.717 1.252c.274.456.43.952.43 1.388 0 .43-.156.756-.43.906l-1.369.782c-.26.15-.625.111-.99-.11-.379-.209-.73-.587-.991-1.05l-.704-1.186c-.835.091-1.721.013-2.66-.254v1.088c0 .9-.639 1.258-1.42.808l-.953-.56-.99-.554c-.783-.456-1.408-1.552-1.408-2.445v-1.095a20.77 20.77 0 0 1-2.66-2.816l-.678.391c-.287.157-.639.111-1.017-.097-.378-.222-.73-.594-.99-1.063l-1.37-2.353c-.26-.457-.43-.952-.43-1.389 0-.43.17-.756.43-.9l.73-.416a21.27 21.27 0 0 1-1.03-3.43l-.938-.553c-.782-.45-1.421-1.552-1.421-2.438v-2.216c0-.894.639-1.265 1.42-.809l.94.548c.234-.874.573-1.63 1.03-2.256l-.73-1.258c-.261-.463-.43-.951-.43-1.382 0-.443.169-.756.43-.912l1.368-.776c.261-.156.613-.11.99.098.38.221.731.593 1.018 1.056l.678 1.193c.834-.105 1.72-.02 2.66.254v-1.095c0-.893.625-1.252 1.408-.808l.99.56.952.56Zm-.953 7.079c-2.829-1.623-5.11-.326-5.11 2.9 0 3.22 2.281 7.165 5.11 8.781 1.713.997 3.24.89 4.364-.325.379-.373.72-1.329.72-2.57 0-3.22-2.294-7.163-5.084-8.786Z" fill="#c1272d" fill-rule="evenodd" data-name="Path 768"/><path d="m359.307 2769.858 1.173.573 1.07-.606-1.24-.54-1.003.573Z" fill="#c1272d" fill-rule="evenodd" data-name="Path 769"/><path d="m347.215 2747.472 1.252.613 1.121-.652-1.317-.58-1.056.619Z" fill="#c1272d" fill-rule="evenodd" data-name="Path 770"/><path d="m337.828 2752.809 1.265.612 1.121-.652-1.33-.58-1.056.62Z" fill="#c1272d" fill-rule="evenodd" data-name="Path 771"/><path d="m349.758 2775.118 1.317.652 1.213-.69-1.408-.613-1.122.651Z" fill="#c1272d" fill-rule="evenodd" data-name="Path 772"/></g></g></g><path d="M350.074 2748.725c.782.45 1.42 1.538 1.42 2.438v1.095c.926.808 1.826 1.76 2.647 2.816l.704-.391c.261-.157.613-.118.991.104.378.215.743.587 1.004 1.056l1.356 2.353c.287.463.43.952.43 1.382 0 .443-.143.763-.43.913l-.705.417c.43 1.147.783 2.307 1.005 3.429l.951.547c.782.456 1.408 1.545 1.408 2.445v2.216c0 .9-.626 1.251-1.408.808l-.951-.554a7.187 7.187 0 0 1-1.005 2.262l.705 1.258c.287.456.43.952.43 1.382 0 .437-.143.75-.43.906l-1.356.782c-.261.144-.626.118-1.004-.104-.378-.222-.73-.6-.99-1.056l-.705-1.193c-.821.104-1.72.02-2.647-.254v1.102c0 .886-.638 1.251-1.42.795l-.965-.554-.978-.56c-.782-.45-1.421-1.54-1.421-2.439v-1.088a20.383 20.383 0 0 1-2.647-2.823l-.69.391c-.274.157-.64.118-1.005-.104-.377-.209-.742-.587-1.003-1.05l-1.37-2.353c-.273-.47-.416-.958-.416-1.388 0-.437.143-.756.417-.913l.717-.417c-.43-1.147-.782-2.3-1.004-3.429l-.952-.547c-.782-.457-1.42-1.545-1.42-2.445v-2.216c0-.893.638-1.252 1.42-.808l.952.56a7.215 7.215 0 0 1 1.004-2.268l-.717-1.252c-.274-.456-.417-.958-.417-1.388 0-.43.143-.756.417-.906l1.369-.783c.26-.143.626-.11 1.003.105.366.221.73.6 1.005 1.056l.69 1.186c.822-.098 1.721-.013 2.647.254v-1.088c0-.893.639-1.258 1.421-.802l.978.554.965.56Zm-.965 7.072c-2.816-1.623-5.098-.32-5.098 2.901 0 3.227 2.282 7.164 5.098 8.787 2.803 1.63 5.084.326 5.084-2.894 0-3.227-2.281-7.164-5.084-8.794Z" fill="red" fill-rule="evenodd" data-name="Path 773"/></g><g data-name="Group 64"><g data-name="Group 63"><path d="M390.193 2773.599c.574.339 1.043 1.147 1.043 1.818v.809c.704.606 1.382 1.31 1.995 2.099l.521-.294c.196-.11.457-.078.73.079.274.156.561.443.757.788l1.003 1.754c.196.339.313.704.313 1.023 0 .326-.117.56-.313.678l-.534.306c.339.861.586 1.721.743 2.556l.73.41c.56.333 1.043 1.154 1.043 1.812v1.65c0 .665-.483.932-1.043.6l-.73-.411c-.157.652-.404 1.219-.743 1.681l.534.933c.196.345.313.71.313 1.03 0 .326-.117.56-.313.678l-1.003.573c-.196.118-.483.091-.757-.072a2.129 2.129 0 0 1-.73-.782l-.521-.886c-.613.071-1.291.02-1.995-.19v.815c0 .659-.47.933-1.043.594l-.704-.411-.73-.417c-.573-.333-1.056-1.147-1.056-1.806v-.821a14.91 14.91 0 0 1-1.982-2.1l-.508.294c-.196.111-.47.091-.756-.072-.274-.162-.535-.443-.743-.782l-1.004-1.76a2.041 2.041 0 0 1-.313-1.03c0-.326.104-.56.313-.678l.534-.306a16.361 16.361 0 0 1-.756-2.549l-.69-.41c-.6-.333-1.07-1.148-1.07-1.82v-1.642c0-.664.47-.938 1.07-.6l.69.405a5.38 5.38 0 0 1 .756-1.682l-.534-.932a2.041 2.041 0 0 1-.313-1.03c0-.326.104-.56.313-.671l1.004-.58c.208-.118.469-.092.743.071.287.163.56.443.756.782l.508.887c.613-.072 1.291-.007 1.982.189v-.809c0-.664.483-.932 1.056-.6l.73.411.704.418Zm-.704 5.267c-2.112-1.206-3.807-.235-3.807 2.157 0 2.393 1.695 5.326 3.807 6.538 2.086 1.2 3.781.235 3.781-2.164 0-2.392-1.695-5.325-3.78-6.531Z" fill="#c1272d" fill-rule="evenodd" data-name="Path 774"/><path d="m396.226 2789.8.86.423.782-.456-.912-.397-.73.43Z" fill="#c1272d" fill-rule="evenodd" data-name="Path 775"/><path d="m387.23 2773.138.926.457.834-.49-.978-.423-.782.456Z" fill="#c1272d" fill-rule="evenodd" data-name="Path 776"/><path d="m380.255 2777.115.939.456.834-.489-.99-.424-.783.457Z" fill="#c1272d" fill-rule="evenodd" data-name="Path 777"/><path d="m389.12 2793.712.978.483.887-.515-1.043-.456-.821.488Z" fill="#c1272d" fill-rule="evenodd" data-name="Path 778"/></g><path d="M389.355 2774.083c.574.332 1.056 1.147 1.056 1.812v.808a15.703 15.703 0 0 1 1.982 2.106l.508-.294c.196-.117.47-.091.756.072.274.163.534.437.743.782l1.004 1.76c.209.345.313.71.313 1.024 0 .326-.104.567-.313.678l-.534.312c.326.854.586 1.708.755 2.55l.692.41c.6.339 1.068 1.147 1.068 1.812v1.656c0 .658-.468.926-1.068.593l-.692-.404a5.2 5.2 0 0 1-.755 1.675l.534.939c.209.338.313.71.313 1.03 0 .325-.104.56-.313.671l-1.004.58c-.209.117-.47.091-.743-.072a2.129 2.129 0 0 1-.756-.782l-.508-.893c-.613.078-1.291.02-1.982-.182v.815c0 .658-.482.925-1.056.593l-.73-.417-.704-.418c-.574-.332-1.043-1.147-1.043-1.812v-.808a14.91 14.91 0 0 1-1.995-2.1l-.521.288c-.196.117-.456.091-.73-.072a2.188 2.188 0 0 1-.757-.782l-1.004-1.76c-.195-.34-.312-.71-.312-1.024 0-.326.117-.56.312-.678l.535-.312a13.68 13.68 0 0 1-.743-2.55l-.73-.403c-.56-.346-1.043-1.154-1.043-1.819v-1.643c0-.671.482-.938 1.043-.606l.73.41c.157-.645.404-1.218.743-1.681l-.535-.939c-.195-.339-.312-.704-.312-1.023 0-.326.117-.567.312-.678l1.004-.58c.196-.111.483-.091.756.078.275.157.535.437.73.782l.522.887c.613-.078 1.29-.02 1.995.182v-.808c0-.665.469-.932 1.043-.6l.704.418.73.417Zm-.73 5.26c-2.086-1.206-3.78-.235-3.78 2.158 0 2.399 1.694 5.332 3.78 6.538 2.112 1.206 3.806.235 3.806-2.158 0-2.399-1.694-5.332-3.806-6.538Z" fill="red" fill-rule="evenodd" data-name="Path 779"/></g><g data-name="Group 66"><g data-name="Group 65"><path d="M372.354 2760.676c.522.294.926.997.926 1.584v.71c.613.529 1.186 1.154 1.734 1.832l.456-.247c.157-.098.404-.079.652.065.248.137.47.378.652.684l.874 1.532c.182.3.286.62.286.9s-.104.495-.286.586l-.47.274c.287.75.522 1.5.665 2.23l.626.358c.508.293.913 1.004.913 1.59v1.441c0 .58-.405.815-.913.522l-.626-.359a4.534 4.534 0 0 1-.665 1.48l.47.808c.182.307.286.626.286.9 0 .287-.104.495-.286.593l-.874.508c-.183.098-.404.072-.652-.065a1.788 1.788 0 0 1-.652-.684l-.456-.776c-.548.065-1.121.007-1.734-.163v.71c0 .58-.404.816-.926.522l-.626-.372-.625-.352c-.509-.3-.913-1.003-.913-1.59v-.71c-.625-.528-1.2-1.148-1.747-1.832l-.443.247c-.183.105-.404.079-.652-.065-.234-.137-.47-.378-.652-.678l-.886-1.538a1.86 1.86 0 0 1-.26-.9c0-.286.09-.488.26-.586l.47-.274c-.3-.756-.51-1.5-.653-2.23l-.625-.358c-.496-.293-.913-1.01-.913-1.59v-1.441c0-.58.417-.815.913-.522l.625.359c.144-.567.352-1.063.652-1.473l-.469-.815c-.17-.3-.26-.62-.26-.906 0-.28.09-.49.26-.587l.886-.502c.183-.104.418-.078.652.065.248.144.47.379.652.678l.443.776c.548-.065 1.122-.006 1.747.163v-.704c0-.58.404-.821.913-.521l.625.365.626.358Zm-.626 4.602c-1.825-1.05-3.31-.202-3.31 1.89 0 2.093 1.485 4.655 3.31 5.71 1.826 1.05 3.312.203 3.312-1.89 0-2.092-1.486-4.647-3.312-5.71Z" fill="#c1272d" fill-rule="evenodd" data-name="Path 780"/><path d="m377.648 2774.844.742.372.692-.398-.809-.352-.625.378Z" fill="#c1272d" fill-rule="evenodd" data-name="Path 781"/><path d="m369.777 2760.279.795.397.73-.423-.835-.372-.69.398Z" fill="#c1272d" fill-rule="evenodd" data-name="Path 782"/><path d="m363.682 2763.756.808.398.73-.424-.86-.378-.678.404Z" fill="#c1272d" fill-rule="evenodd" data-name="Path 783"/><path d="m371.439 2778.263.873.424.782-.45-.912-.398-.743.424Z" fill="#c1272d" fill-rule="evenodd" data-name="Path 784"/></g><path d="M371.654 2761.087c.495.293.912 1.01.912 1.59v.71a12.858 12.858 0 0 1 1.721 1.833l.457-.255c.182-.097.404-.071.652.066.247.15.469.384.651.684l.874 1.532c.182.306.287.62.287.906 0 .287-.105.489-.287.587l-.47.273c.3.756.522 1.5.678 2.236l.613.352c.509.294.913 1.01.913 1.584v1.447c0 .587-.404.815-.913.522l-.613-.359c-.156.568-.378 1.063-.678 1.474l.47.814c.182.3.287.62.287.907 0 .273-.105.488-.287.586l-.874.502c-.182.098-.404.085-.651-.065-.248-.137-.47-.378-.652-.685l-.457-.775c-.534.065-1.108.013-1.72-.157v.704c0 .58-.418.815-.913.522l-.64-.359-.638-.365c-.508-.293-.912-1.004-.912-1.59v-.71a11.558 11.558 0 0 1-1.721-1.832l-.47.254c-.17.104-.404.078-.652-.066-.234-.136-.469-.384-.651-.684l-.874-1.532c-.182-.3-.274-.62-.274-.906 0-.274.092-.489.274-.587l.47-.267c-.287-.75-.522-1.5-.665-2.23l-.626-.364c-.496-.287-.913-.998-.913-1.584v-1.441c0-.58.417-.821.913-.521l.626.352a4.552 4.552 0 0 1 .664-1.473l-.469-.815a1.749 1.749 0 0 1-.274-.893c0-.287.092-.496.274-.6l.874-.502c.182-.098.417-.072.651.065.248.15.483.391.652.685l.47.775c.534-.065 1.095-.006 1.72.17v-.717c0-.58.405-.815.913-.522l.639.365.639.359Zm-.64 4.602c-1.824-1.05-3.31-.202-3.31 1.89 0 2.1 1.486 4.655 3.31 5.717 1.826 1.05 3.3.209 3.3-1.884 0-2.099-1.474-4.66-3.3-5.723Z" fill="red" fill-rule="evenodd" data-name="Path 785"/></g><g data-name="Group 68"><g data-name="Group 67"><path d="M362.613 2735.772c.6.339 1.082 1.18 1.082 1.864v.835a15.79 15.79 0 0 1 2.034 2.164l.534-.3c.208-.124.482-.091.77.072.299.169.56.456.769.802l1.042 1.811c.209.353.326.724.326 1.057 0 .339-.117.58-.326.697l-.547.32c.339.886.6 1.766.756 2.626l.73.418c.613.352 1.095 1.193 1.095 1.87v1.695c0 .691-.482.965-1.095.626l-.73-.43a4.948 4.948 0 0 1-.756 1.734l.547.958c.209.352.326.737.326 1.063 0 .332-.117.573-.326.697l-1.042.593c-.21.118-.47.091-.77-.078-.287-.163-.56-.45-.77-.808l-.533-.913c-.64.078-1.317.013-2.034-.189v.834c0 .685-.483.959-1.082.62l-.743-.43-.73-.43c-.613-.34-1.096-1.18-1.096-1.865v-.834a15.777 15.777 0 0 1-2.034-2.165l-.521.3c-.222.117-.482.091-.769-.078a2.095 2.095 0 0 1-.77-.808l-1.042-1.8c-.209-.351-.326-.73-.326-1.055 0-.34.117-.58.326-.705l.56-.319c-.365-.88-.625-1.76-.782-2.62l-.73-.424c-.6-.346-1.082-1.186-1.082-1.864v-1.695c0-.69.482-.965 1.082-.626l.73.43c.157-.671.417-1.251.782-1.74l-.56-.958c-.209-.352-.326-.73-.326-1.063 0-.326.117-.58.326-.691l1.043-.593c.195-.124.482-.091.769.072.287.17.547.456.769.808l.521.913c.64-.072 1.317-.007 2.034.195v-.84c0-.685.483-.965 1.095-.614l.73.424.744.437Zm-.743 5.417c-2.151-1.245-3.899-.248-3.899 2.216 0 2.47 1.748 5.482 3.899 6.727 2.15 1.239 3.91.248 3.91-2.223 0-2.463-1.76-5.482-3.91-6.72Z" fill="#c1272d" fill-rule="evenodd" data-name="Path 786"/><path d="m368.828 2752.443.886.43.822-.463-.952-.41-.756.443Z" fill="#c1272d" fill-rule="evenodd" data-name="Path 787"/><path d="m359.572 2735.292.951.47.861-.496-1.004-.443-.808.47Z" fill="#c1272d" fill-rule="evenodd" data-name="Path 788"/><path d="m352.385 2739.383.952.463.86-.496-.99-.436-.822.469Z" fill="#c1272d" fill-rule="evenodd" data-name="Path 789"/><path d="m361.511 2756.463 1.016.495.913-.528-1.069-.462-.86.495Z" fill="#c1272d" fill-rule="evenodd" data-name="Path 790"/></g><path d="M361.748 2736.26c.6.34 1.082 1.18 1.082 1.865v.828a16.253 16.253 0 0 1 2.034 2.17l.534-.3c.209-.123.483-.09.77.073.273.169.56.456.768.801l1.043 1.812c.21.353.313.724.313 1.057 0 .338-.104.58-.313.697l-.547.32c.339.886.6 1.766.756 2.626l.73.417c.613.353 1.095 1.18 1.095 1.865v1.701c0 .691-.482.965-1.095.613l-.73-.417a4.954 4.954 0 0 1-.756 1.734l.547.958c.21.352.313.737.313 1.063 0 .332-.104.573-.313.697l-1.043.593c-.208.117-.495.091-.769-.078-.286-.163-.56-.456-.769-.809l-.534-.912c-.64.078-1.317.013-2.034-.196v.841c0 .685-.482.959-1.082.62l-.743-.43-.73-.43c-.613-.346-1.096-1.18-1.096-1.865v-.834a16.608 16.608 0 0 1-2.033-2.165l-.522.3c-.222.117-.495.091-.77-.078a2.098 2.098 0 0 1-.768-.808l-1.056-1.8c-.196-.358-.313-.73-.313-1.068 0-.326.117-.574.313-.692l.573-.319c-.365-.88-.625-1.76-.782-2.62l-.73-.424c-.6-.345-1.082-1.186-1.082-1.864v-1.695c0-.691.482-.965 1.082-.626l.73.43c.157-.671.417-1.258.782-1.74l-.573-.958c-.196-.353-.313-.73-.313-1.063 0-.333.117-.58.313-.691l1.056-.593c.195-.124.482-.092.769.071.274.17.547.457.77.809l.52.913c.64-.072 1.317-.007 2.034.195v-.841c0-.684.483-.965 1.096-.613l.73.424.743.437Zm-.743 5.418c-2.152-1.245-3.898-.248-3.898 2.216 0 2.47 1.746 5.482 3.898 6.727 2.15 1.239 3.91.248 3.91-2.223 0-2.47-1.76-5.482-3.91-6.72Z" fill="red" fill-rule="evenodd" data-name="Path 791"/></g></g><g data-name="Group 70"><path d="M330.162 2998.308c0 .496-.352 1.095-.782 1.343-.43.248-.77.052-.77-.457 0-.495.34-1.095.77-1.342.43-.235.782-.053.782.456Z" fill="#fff" fill-rule="evenodd" data-name="Path 792"/><path d="M333.776 2996.232c0 .508-.365 1.108-.782 1.342-.417.261-.782.053-.782-.443s.365-1.095.782-1.343c.417-.247.782-.052.782.444Z" fill="#fff" fill-rule="evenodd" data-name="Path 793"/><path d="M337.352 2994.143c0 .496-.339 1.108-.782 1.356-.418.248-.756.04-.756-.456s.338-1.096.756-1.343c.443-.248.782-.04.782.443Z" fill="red" fill-rule="evenodd" data-name="Path 794"/></g><g data-name="Group 71"><path d="M330.162 3014.677c0 .495-.352 1.095-.782 1.355-.43.235-.77.04-.77-.456 0-.495.34-1.095.77-1.342.43-.248.782-.053.782.443Z" fill="#fff" fill-rule="evenodd" data-name="Path 795"/><path d="M337.352 3010.521c0 .496-.339 1.109-.782 1.356-.418.248-.756.04-.756-.456s.338-1.095.756-1.343c.443-.248.782-.052.782.443Z" fill="red" fill-rule="evenodd" data-name="Path 797"/></g><g data-name="Group 72"><path d="M330.162 3031.05c0 .496-.352 1.109-.782 1.344-.43.26-.77.052-.77-.443 0-.496.34-1.096.77-1.343.43-.248.782-.04.782.443Z" fill="#fff" fill-rule="evenodd" data-name="Path 798"/><path d="M333.776 3028.994c0 .482-.365 1.095-.782 1.343-.417.247-.782.039-.782-.457 0-.495.365-1.095.782-1.342.417-.248.782-.04.782.456Z" fill="#fff" fill-rule="evenodd" data-name="Path 799"/><path d="M337.352 3026.903c0 .496-.339 1.108-.782 1.343-.418.248-.756.053-.756-.443s.338-1.095.756-1.343c.443-.26.782-.052.782.443Z" fill="red" fill-rule="evenodd" data-name="Path 800"/></g><g data-name="Group 73"><path d="M296.475 2903.836c0 .489-.352 1.095-.782 1.343-.418.247-.77.039-.77-.443 0-.503.352-1.102.77-1.35.43-.254.782-.046.782.45Z" fill="#fff" fill-rule="evenodd" data-name="Path 801"/><path d="M300.068 2901.76c0 .496-.352 1.096-.782 1.35-.43.242-.77.046-.77-.45 0-.495.34-1.101.77-1.342.43-.254.782-.052.782.443Z" fill="#fff" fill-rule="evenodd" data-name="Path 802"/><path d="M303.69 2899.675c0 .495-.351 1.102-.781 1.343-.43.247-.783.052-.783-.443 0-.496.352-1.102.783-1.343.43-.254.782-.053.782.443Z" fill="red" fill-rule="evenodd" data-name="Path 803"/></g><g data-name="Group 74"><path d="M296.475 2920.208c0 .496-.352 1.095-.782 1.343-.418.248-.77.052-.77-.456 0-.496.352-1.082.77-1.343.43-.235.782-.039.782.456Z" fill="#fff" fill-rule="evenodd" data-name="Path 804"/><path d="M300.068 2918.132c0 .495-.352 1.095-.782 1.342-.43.261-.77.053-.77-.443 0-.495.34-1.095.77-1.342.43-.248.782-.04.782.443Z" fill="#fff" fill-rule="evenodd" data-name="Path 805"/><path d="M303.69 2916.057c0 .483-.351 1.09-.781 1.343-.43.242-.783.04-.783-.45 0-.495.352-1.101.783-1.343.43-.254.782-.051.782.45Z" fill="red" fill-rule="evenodd" data-name="Path 806"/></g><g data-name="Group 75"><path d="M296.475 2936.58c0 .508-.352 1.108-.782 1.356-.418.235-.77.04-.77-.457 0-.495.352-1.094.77-1.342.43-.248.782-.052.782.443Z" fill="#fff" fill-rule="evenodd" data-name="Path 807"/><path d="M300.068 2934.51c0 .496-.352 1.109-.782 1.343-.43.26-.77.052-.77-.443s.34-1.095.77-1.343.782-.052.782.443Z" fill="#fff" fill-rule="evenodd" data-name="Path 808"/><path d="M303.69 2932.422c0 .509-.351 1.108-.781 1.356-.43.248-.783.04-.783-.456 0-.483.352-1.082.783-1.343.43-.248.782-.04.782.443Z" fill="red" fill-rule="evenodd" data-name="Path 809"/></g><g data-name="Group 79"><g data-name="Group 76"><path d="M301.807 3010.595c0 .51-.352.73-.808.47-.43-.26-.808-.887-.808-1.395 0-.521.377-.73.808-.47.456.261.808.887.808 1.395Z" fill="#fff" fill-rule="evenodd" data-name="Path 812"/><path d="M299.306 3009.162c0 .521-.378.717-.808.47-.457-.262-.809-.887-.809-1.409 0-.508.352-.717.809-.456.43.247.808.873.808 1.395Z" fill="#fff" fill-rule="evenodd" data-name="Path 813"/></g><g data-name="Group 77"><path d="M301.807 3023.866c0 .521-.352.73-.808.483-.43-.261-.808-.887-.808-1.409 0-.508.377-.73.808-.47.456.262.808.887.808 1.396Z" fill="#0f0" fill-rule="evenodd" data-name="Path 814"/><path d="M299.306 3022.428c0 .522-.378.73-.808.47-.457-.26-.809-.874-.809-1.395 0-.522.352-.717.809-.47.43.261.808.887.808 1.395Z" fill="red" fill-rule="evenodd" data-name="Path 815"/><path d="M301.807 3026.891c0 .522-.352.73-.808.47-.43-.248-.808-.874-.808-1.395 0-.522.377-.73.808-.47.456.261.808.887.808 1.395Z" fill="#fff" fill-rule="evenodd" data-name="Path 816"/><path d="M299.306 3025.455c0 .521-.378.73-.808.482-.457-.26-.809-.886-.809-1.408 0-.508.352-.73.809-.47.43.262.808.888.808 1.396Z" fill="#fff" fill-rule="evenodd" data-name="Path 817"/></g><g data-name="Group 78"><path d="M301.807 3040.163c0 .522-.352.73-.808.47-.43-.261-.808-.887-.808-1.395 0-.522.377-.73.808-.47.456.261.808.887.808 1.395Z" fill="#0f0" fill-rule="evenodd" data-name="Path 818"/><path d="M299.306 3038.736c0 .509-.378.717-.808.456-.457-.26-.809-.873-.809-1.394 0-.522.352-.717.809-.47.43.261.808.887.808 1.408Z" fill="red" fill-rule="evenodd" data-name="Path 819"/><path d="M301.807 3043.19c0 .51-.352.718-.808.457-.43-.248-.808-.873-.808-1.382 0-.521.377-.73.808-.482.456.26.808.886.808 1.408Z" fill="#fff" fill-rule="evenodd" data-name="Path 820"/><path d="M299.306 3041.75c0 .521-.378.73-.808.482-.457-.26-.809-.9-.809-1.408 0-.508.352-.73.809-.47.43.261.808.887.808 1.396Z" fill="#fff" fill-rule="evenodd" data-name="Path 821"/></g></g><g data-name="Group 83"><g data-name="Group 80"><path d="M401.162 2980.556c0 .508-.366.717-.822.456-.443-.26-.795-.886-.795-1.395 0-.521.352-.73.795-.47.456.262.822.887.822 1.409Z" fill="#0f0" fill-rule="evenodd" data-name="Path 822"/><path d="M398.639 2979.106c0 .522-.352.73-.796.47-.456-.248-.808-.887-.808-1.395 0-.509.352-.73.808-.47.444.261.796.887.796 1.395Z" fill="red" fill-rule="evenodd" data-name="Path 823"/><path d="M401.162 2983.566c0 .508-.366.717-.822.456-.443-.248-.795-.873-.795-1.395 0-.508.352-.717.795-.456.456.248.822.873.822 1.395Z" fill="#fff" fill-rule="evenodd" data-name="Path 824"/><path d="M398.639 2982.145c0 .508-.352.704-.796.456-.456-.26-.808-.887-.808-1.395 0-.521.352-.73.808-.47.444.261.796.887.796 1.409Z" fill="#fff" fill-rule="evenodd" data-name="Path 825"/></g><g data-name="Group 81"><path d="M398.639 2995.403c0 .509-.352.73-.796.47-.456-.261-.808-.887-.808-1.395 0-.522.352-.73.808-.47.444.261.796.887.796 1.395Z" fill="red" fill-rule="evenodd" data-name="Path 827"/><path d="M401.162 2999.858c0 .522-.366.73-.822.47-.443-.248-.795-.874-.795-1.396 0-.508.352-.73.795-.469.456.261.822.886.822 1.395Z" fill="#fff" fill-rule="evenodd" data-name="Path 828"/><path d="M398.639 2998.437c0 .509-.352.717-.796.47-.456-.261-.808-.887-.808-1.409 0-.508.352-.73.808-.469.444.26.796.887.796 1.408Z" fill="#fff" fill-rule="evenodd" data-name="Path 829"/></g><g data-name="Group 82"><path d="M401.162 3013.133c0 .521-.366.717-.822.47-.443-.262-.795-.887-.795-1.409 0-.508.352-.717.795-.456.456.248.822.873.822 1.395Z" fill="#0f0" fill-rule="evenodd" data-name="Path 830"/><path d="M398.639 3011.698c0 .509-.352.73-.796.47-.456-.261-.808-.887-.808-1.395 0-.522.352-.73.808-.47.444.261.796.887.796 1.395Z" fill="red" fill-rule="evenodd" data-name="Path 831"/><path d="M401.162 3016.153c0 .521-.366.73-.822.47-.443-.248-.795-.887-.795-1.396 0-.508.352-.73.795-.469.456.26.822.887.822 1.395Z" fill="#fff" fill-rule="evenodd" data-name="Path 832"/><path d="M398.639 3014.732c0 .508-.352.717-.796.47-.456-.261-.808-.9-.808-1.409 0-.508.352-.73.808-.469.444.26.796.886.796 1.408Z" fill="#fff" fill-rule="evenodd" data-name="Path 833"/></g></g><path d="m307.027 2986.803-1.93-1.108c-.117-.065-.104-.183.04-.26l1.85-1.07c.144-.078.34-.091.457-.013l1.93 1.108c.117.065.104.182-.04.26l-1.85 1.07c-.131.078-.34.091-.457.013Z" fill="#f2f2f2" fill-rule="evenodd" data-name="Path 834"/></g></g></svg>