<svg xmlns="http://www.w3.org/2000/svg" xmlns:xlink="http://www.w3.org/1999/xlink" width="76.744" height="76.605" viewBox="0 0 76.744 76.605">
  <defs>
    <filter id="Path_2934" x="2.964" y="26.054" width="29.325" height="15.308" filterUnits="userSpaceOnUse">
      <feOffset dy="2" input="SourceAlpha"/>
      <feGaussianBlur stdDeviation="2" result="blur"/>
      <feFlood flood-color="#4b612e" flood-opacity="0.6"/>
      <feComposite operator="in" in2="blur"/>
      <feComposite in="SourceGraphic"/>
    </filter>
    <filter id="Path_2935" x="2.964" y="44.427" width="29.325" height="15.308" filterUnits="userSpaceOnUse">
      <feOffset dy="2" input="SourceAlpha"/>
      <feGaussianBlur stdDeviation="2" result="blur-2"/>
      <feFlood flood-color="#4b612e" flood-opacity="0.6"/>
      <feComposite operator="in" in2="blur-2"/>
      <feComposite in="SourceGraphic"/>
    </filter>
    <filter id="Rectangle_221" x="0" y="35.24" width="29.326" height="15.308" filterUnits="userSpaceOnUse">
      <feOffset dy="2" input="SourceAlpha"/>
      <feGaussianBlur stdDeviation="2" result="blur-3"/>
      <feFlood flood-color="#4b612e" flood-opacity="0.6"/>
      <feComposite operator="in" in2="blur-3"/>
      <feComposite in="SourceGraphic"/>
    </filter>
    <filter id="Path_2936" x="22.864" y="20.64" width="45.965" height="40.593" filterUnits="userSpaceOnUse">
      <feOffset dy="6" input="SourceAlpha"/>
      <feGaussianBlur stdDeviation="4" result="blur-4"/>
      <feFlood flood-color="#4b612e" flood-opacity="0.6"/>
      <feComposite operator="in" in2="blur-4"/>
      <feComposite in="SourceGraphic"/>
    </filter>
    <filter id="Path_2937" x="12.122" y="0" width="64.622" height="76.605" filterUnits="userSpaceOnUse">
      <feOffset dy="2" input="SourceAlpha"/>
      <feGaussianBlur stdDeviation="2" result="blur-5"/>
      <feFlood flood-color="#4b612e" flood-opacity="0.6"/>
      <feComposite operator="in" in2="blur-5"/>
      <feComposite in="SourceGraphic"/>
    </filter>
  </defs>
  <g id="Group_831" data-name="Group 831" transform="translate(-4567.563 -1230.319)">
    <rect id="Rectangle_220" data-name="Rectangle 220" width="72" height="72" transform="translate(4569.935 1230.621)" fill="none"/>
    <g id="Group_680" data-name="Group 680" transform="translate(4573.563 1234.319)">
      <g transform="matrix(1, 0, 0, 1, -6, -4)" filter="url(#Path_2934)">
        <path id="Path_2934-2" data-name="Path 2934" d="M4618.641,1453.728h17.325v-3.308h-17.325Z" transform="translate(-4609.68 -1420.37)" fill="#29400c"/>
      </g>
      <g transform="matrix(1, 0, 0, 1, -6, -4)" filter="url(#Path_2935)">
        <path id="Path_2935-2" data-name="Path 2935" d="M4618.641,1589.466h17.325v-3.308h-17.325Z" transform="translate(-4609.68 -1537.73)" fill="#29400c"/>
      </g>
      <g transform="matrix(1, 0, 0, 1, -6, -4)" filter="url(#Rectangle_221)">
        <rect id="Rectangle_221-2" data-name="Rectangle 221" width="17.326" height="3.308" transform="translate(6 39.24)" fill="#29400c"/>
      </g>
      <g transform="matrix(1, 0, 0, 1, -6, -4)" filter="url(#Path_2936)">
        <path id="Path_2936-2" data-name="Path 2936" d="M4817.69,1441.795l-7.711-7.712,2.339-2.339,5.373,5.373,11.916-11.915,2.338,2.339Z" transform="translate(-4775.12 -1398.56)" fill="#29400c"/>
      </g>
      <g transform="matrix(1, 0, 0, 1, -6, -4)" filter="url(#Path_2937)">
        <path id="Path_2937-2" data-name="Path 2937" d="M4731.51,1276.408l4.156-4.156.909.909,2.339-2.339-4.157-4.157-2.338,2.339.909.909-4.156,4.156-.041.041a27.6,27.6,0,0,0-16.72-6.937v-5.927h7.008v-3.308h-17.326v3.308h7.009v5.926a27.75,27.75,0,0,0-22.81,14.654h3.824a24.4,24.4,0,1,1,0,26.013h-3.824a27.7,27.7,0,1,0,45.177-31.392Z" transform="translate(-4668.17 -1253.94)" fill="#29400c"/>
      </g>
    </g>
  </g>
</svg>
