<svg xmlns="http://www.w3.org/2000/svg" width="137.443" height="136.984" viewBox="170.201 1594.463 137.443 136.984"><g data-name="CompositeLayer"><path d="M278.327 1690.423c18.915-24.598 15.343-36.4 11.787-43.151-3.485-6.617-12.452-10.772-21.95-10.157-10.426.675-15.837.012-22.7-3.178-6.555-3.045-16.982-12.35-30.684-8.626-16.453 4.471-25.951 18.418-26.32 34.059-.413 17.479 9.333 41.123 33.264 50.747 23.932 9.625 46.4-6.426 56.603-19.694" fill="#d5e3c3" fill-rule="evenodd" data-name="Path 3770"/><g data-name="speed"><g data-name="Group_896"><g data-name="Group_680"><g data-name="Group 1019"><path d="M217.263 1682.3h17.2c.6 0 1-.4 1-1v-1.7c0-.6-.4-1-1-1h-17.2c-.6 0-1 .4-1 1v1.7c0 .6.5 1 1 1Z" fill="#4c6539" fill-rule="evenodd" data-name="Path_2934-2"/></g><g data-name="Group 1020"><path d="M217.263 1702.7h17.3c.6 0 1-.4 1-1v-1.7c0-.6-.4-1-1-1h-17.3c-.6 0-1 .4-1 1v1.7c0 .6.5 1 1 1Z" fill="#4c6539" fill-rule="evenodd" data-name="Path_2935-2"/></g><g data-name="Group 1021"><path d="M213.963 1688.9h17.2c.6 0 1 .4 1 1v1.7c0 .6-.4 1-1 1h-17.2c-.6 0-1-.4-1-1v-1.7c0-.6.5-1 1-1Z" fill="#4c6539" fill-rule="evenodd" data-name="Rectangle_221-2"/></g><g data-name="Group 1022"><path d="m252.963 1692.6-7.2-7.2c-.4-.4-.4-1 0-1.4l1.2-1.2c.4-.4 1-.4 1.4 0l4.6 4.6c.4.4 1 .4 1.4 0l11.8-11.8c.4-.4 1-.4 1.4 0l1.2 1.2c.4.4.4 1 0 1.4l-14.4 14.4c-.4.4-1 .4-1.4 0Z" fill="#4c6539" fill-rule="evenodd" data-name="Path_2936-2"/></g><path d="m274.363 1667.41 4.1-4.1c.2-.2.2-.4 0-.6-.4-.4-.4-1 0-1.4l1.2-1.2c.4-.4 1-.4 1.4 0l3.2 3.2c.4.4.4 1 0 1.4l-1.2 1.2c-.4.4-1 .4-1.4 0-.2-.2-.4-.2-.6 0l-4.1 4.1c-.2.2-.2.4 0 .6 1.5 1.7 2.8 3.7 3.9 5.7 8 15 2.3 33.7-12.8 41.6-14.5 7.7-32.3 2.6-40.7-11.2-.4-.7.1-1.5.9-1.5h2c.3 0 .6.2.8.5 2.1 3.2 4.9 6 8.2 8 13.2 8.3 30.7 3.9 38.3-10 6.5-11.9 3-27-7.9-34.9-12.8-9.2-30.3-5.8-38.7 7-.2.3-.5.5-.8.5h-2c-.8 0-1.3-.9-.9-1.5 5.1-8.3 13.8-13.8 23.6-14.7.5 0 .9-.5.9-1v-4.7c0-.6-.4-1-1-1h-5.8c-.6 0-1-.4-1-1v-1.7c0-.6.4-1 1-1h17.3c.6 0 1 .4 1 1v1.7c0 .6-.4 1-1 1h-5.8c-.6 0-1 .4-1 1v4.7c0 .5.4.9.9 1 6.3.6 12.4 3.1 17.2 7.2l.1.1c.2.2.5.1.7 0Z" fill="#4c6539" fill-rule="evenodd" data-name="Path_2937-2"/></g></g></g></g></svg>