<svg xmlns="http://www.w3.org/2000/svg" width="145.052" height="124.134" viewBox="1093.37 1050.445 145.052 124.134"><g data-name="CompositeLayer"><g data-name="Group 1010"><g data-name="Group 1000" transform="rotate(-13 5284.088 -4258.433)" clip-path="url(&quot;#a&quot;)"><g data-name="Group 999"><g data-name="Group 998" clip-path="url(&quot;#b&quot;)"><g data-name="Group 997"><g data-name="Group 996"><g data-name="Group 995" clip-path="url(&quot;#c&quot;)"><path d="M128.247 59.061c-7.846 13.028-23.252 7.705-36.27 6.541-25.521-2.281-42.827 32.044-69.624 14.304-29.67-19.642-29.83-55.334-.325-69.048 82.566-38.374 113.342 36.375 106.22 48.203" fill="#e9e9e9" fill-rule="evenodd" data-name="Path 3762"/></g></g></g></g></g></g></g><g data-name="climate"><g data-name="Group 977"><path d="m1205.598 1162.28-3.7-6.4c-.4-.7-1.4-.7-1.7 0l-3.7 6.4c-.4.7.1 1.5.9 1.5h.8c.6 0 1 .4 1 1v8.8c0 .6.4 1 1 1h1.7c.6 0 1-.4 1-1v-8.7c0-.6.4-1 1-1h.8c.8-.1 1.3-.9.9-1.6Z" fill="#515151" fill-rule="evenodd" data-name="Path_2931-2"/></g><g data-name="Group 978"><path d="m1172.698 1162.28-3.7-6.3c-.4-.7-1.4-.7-1.7 0l-3.7 6.4c-.4.7.1 1.5.9 1.5h.8c.6 0 1 .4 1 1v8.7c0 .6.4 1 1 1h1.7c.6 0 1-.4 1-1v-8.8c0-.6.4-1 1-1h.8c.8 0 1.3-.8.9-1.5Z" fill="#515151" fill-rule="evenodd" data-name="Path_2932-2"/></g><g data-name="Group 979"><path d="m1189.198 1157.58-3.7-6.9c-.4-.7-1.4-.7-1.8 0l-3.7 6.9c-.4.7.1 1.5.9 1.5h.9c.5 0 1 .4 1 1v13.5c0 .5.4 1 1 1h1.7c.5 0 1-.4 1-1v-13.5c0-.6.4-1 1-1h.9c.7 0 1.1-.8.8-1.5Z" fill="#515151" fill-rule="evenodd" data-name="Path_2933-2"/></g><g data-name="Group 980"><path d="M1206.798 1112.38" fill="#515151" fill-rule="evenodd" data-name="Path 3755"/></g><path d="M1206.898 1112.38s-.1 0 0 0c-.4 0-.7-.2-.8-.6h-.1c-2.4-5-7.5-8.2-13.1-8.3-.8 0-1.6.1-2.5.2-.4.1-.8-.1-1-.5-3.4-5.3-9.3-8.6-15.7-8.6-10.1 0-18.3 8.3-18.3 18.4 0 .6 0 1.2.1 1.7 0 .5-.2.9-.7 1.1-6.4 2.2-10.8 8.1-10.8 15 0 8.7 7 15.8 15.8 15.8h47.1c9.4 0 17.1-7.7 17.1-17.1 0-9.4-7.7-17.1-17.1-17.1Zm-.5 30.6h-46.6c-6.4 0-11.7-5-12.1-11.5-.4-6.3 4.4-11.8 10.7-12.8l.5-.1c.6-.1 1-.7.8-1.2l-.2-.9c-.3-1.2-.4-2.3-.4-3.5 0-6.9 4.8-12.8 11.5-14.4 1-.2 2.1-.3 3.1-.3 5.7 0 10.9 3.3 13.4 8.5l.3.7c.2.5.7.7 1.2.5l.7-.2c1.1-.4 2.3-.6 3.5-.6 4.8 0 9 3.1 10.4 7.7l.2.7c.1.5.6.8 1.1.7l.7-.1c.5-.1 1.1-.1 1.6-.1 7.6 0 13.8 6.3 13.4 14-.2 7.3-6.5 12.9-13.8 12.9Z" fill="#515151" fill-rule="evenodd" data-name="Path 3756"/><g data-name="Group 981"><path d="M1171.398 1134.58c-1.8 0-3.3-.4-4.6-1.1-1.3-.7-2.3-1.7-2.9-3.1-.7-1.3-1-2.9-1-4.7 0-1.8.3-3.4 1-4.7.7-1.3 1.7-2.3 2.9-3.1 1.3-.7 2.8-1.1 4.6-1.1.9 0 1.8.1 2.6.3.9.2 1.6.6 2.3 1 .4.3.7.6.8 1 .1.4 0 .7-.1 1-.2.3-.4.5-.8.6-.4.1-.8 0-1.2-.3-.5-.3-1-.6-1.6-.7-.6-.1-1.2-.2-1.8-.2-1.7 0-3.1.5-4 1.6-.9 1-1.4 2.5-1.4 4.5 0 1.9.5 3.4 1.4 4.5.9 1.1 2.2 1.6 4 1.6.6 0 1.2-.1 1.8-.2.6-.2 1.2-.4 1.7-.7.4-.3.8-.4 1.2-.3.3.1.6.3.8.6.2.3.2.6.2 1-.1.4-.3.7-.7.9-.6.5-1.4.8-2.3 1.1-1.1.4-2 .5-2.9.5Z" fill="#515151" fill-rule="evenodd" data-name="Path 3757"/><path d="M1187.098 1134.58c-1.7 0-3.1-.4-4.3-1.1-1.2-.7-2.2-1.8-2.9-3.1-.7-1.3-1-2.9-1-4.7 0-1.8.3-3.4 1-4.7.7-1.3 1.6-2.3 2.9-3.1 1.2-.7 2.7-1.1 4.4-1.1 1.7 0 3.1.4 4.4 1.1 1.2.7 2.2 1.7 2.9 3.1.7 1.3 1 2.9 1 4.6 0 1.8-.3 3.4-1 4.7-.7 1.3-1.6 2.3-2.9 3.1-1.4.8-2.8 1.2-4.5 1.2Zm0-2.7c1.6 0 2.8-.5 3.7-1.6.9-1.1 1.3-2.6 1.3-4.5s-.4-3.5-1.3-4.5c-.9-1.1-2.1-1.6-3.7-1.6s-2.8.5-3.7 1.6c-.9 1.1-1.3 2.6-1.3 4.5s.4 3.4 1.3 4.5 2.1 1.6 3.7 1.6Z" fill="#515151" fill-rule="evenodd" data-name="Path 3758"/><path d="M1198.898 1134.38c-.3 0-.6-.1-.8-.3-.2-.2-.3-.5-.3-.8 0-.3.1-.5.2-.7.1-.2.3-.4.5-.6l2.5-2.6c.4-.4.7-.8.9-1.1.2-.3.3-.7.3-1 0-.8-.5-1.3-1.4-1.3-.3 0-.6 0-.9.1-.3.1-.6.2-.8.4-.6.1-.8.2-1.1.1-.2-.1-.4-.2-.5-.5-.1-.2-.1-.5-.1-.7.1-.3.2-.5.5-.7.4-.3.9-.5 1.5-.6.6-.1 1.1-.2 1.6-.2 1.1 0 1.9.3 2.5.8.6.5.9 1.2.9 2.2 0 .5-.1 1.1-.4 1.6-.3.5-.7 1.1-1.3 1.7l-2.1 2.2h3.3c.7 0 1 .3 1 1s-.3 1-1 1h-5Z" fill="#515151" fill-rule="evenodd" data-name="Path 3759"/></g></g></g><defs><clipPath id="c"><path d="M0 0h129.24v85.017H0V0z" data-name="Rectangle 1664"/></clipPath><clipPath id="b"><path d="M0 0h129.24v85.017H0V0z" data-name="Rectangle 1665"/></clipPath><clipPath id="a"><path d="M0 0h129.24v85.017H0V0z" data-name="Rectangle 1666"/></clipPath></defs></svg>