<svg xmlns="http://www.w3.org/2000/svg" xmlns:xlink="http://www.w3.org/1999/xlink" viewBox="0 0 67.973 67.973"><defs><style>.a{fill:none;}.b{fill:#515151;}.c{filter:url(#m);}.d{filter:url(#k);}.e{filter:url(#i);}.f{filter:url(#g);}.g{filter:url(#e);}.h{filter:url(#c);}.i{filter:url(#a);}</style><filter id="a" x="0" y="0" width="67.973" height="48.42" filterUnits="userSpaceOnUse"><feOffset dy="2" input="SourceAlpha"/><feGaussianBlur stdDeviation="2" result="b"/><feFlood flood-color="#515151" flood-opacity="0.6"/><feComposite operator="in" in2="b"/><feComposite in="SourceGraphic"/></filter><filter id="c" x="9.103" y="11.265" width="33.096" height="35.803" filterUnits="userSpaceOnUse"><feOffset dy="6" input="SourceAlpha"/><feGaussianBlur stdDeviation="4" result="d"/><feFlood flood-color="#515151" flood-opacity="0.6"/><feComposite operator="in" in2="d"/><feComposite in="SourceGraphic"/></filter><filter id="e" x="19.361" y="11.266" width="33.664" height="35.802" filterUnits="userSpaceOnUse"><feOffset dy="6" input="SourceAlpha"/><feGaussianBlur stdDeviation="4" result="f"/><feFlood flood-color="#515151" flood-opacity="0.6"/><feComposite operator="in" in2="f"/><feComposite in="SourceGraphic"/></filter><filter id="g" x="29.825" y="21.314" width="29.045" height="31.091" filterUnits="userSpaceOnUse"><feOffset dy="6" input="SourceAlpha"/><feGaussianBlur stdDeviation="4" result="h"/><feFlood flood-color="#515151" flood-opacity="0.6"/><feComposite operator="in" in2="h"/><feComposite in="SourceGraphic"/></filter><filter id="i" x="36.133" y="41.889" width="19.577" height="26.085" filterUnits="userSpaceOnUse"><feOffset dy="2" input="SourceAlpha"/><feGaussianBlur stdDeviation="2" result="j"/><feFlood flood-color="#515151" flood-opacity="0.6"/><feComposite operator="in" in2="j"/><feComposite in="SourceGraphic"/></filter><filter id="k" x="13.101" y="41.881" width="19.576" height="26.093" filterUnits="userSpaceOnUse"><feOffset dy="2" input="SourceAlpha"/><feGaussianBlur stdDeviation="2" result="l"/><feFlood flood-color="#515151" flood-opacity="0.6"/><feComposite operator="in" in2="l"/><feComposite in="SourceGraphic"/></filter><filter id="m" x="24.616" y="38.104" width="19.576" height="29.87" filterUnits="userSpaceOnUse"><feOffset dy="2" input="SourceAlpha"/><feGaussianBlur stdDeviation="2" result="n"/><feFlood flood-color="#515151" flood-opacity="0.6"/><feComposite operator="in" in2="n"/><feComposite in="SourceGraphic"/></filter></defs><g transform="translate(-5288.491 -715.072)"><path class="a" d="M5350.72,719.072h-55.973v55.973h15.576v-7.531h-2.5l3.789-6.561,3.788,6.561h-2.5v7.531h8.943V764.184h-2.5l3.788-7.008,3.789,7.008h-2.5v10.862h8.945v-7.523h-2.5l3.788-6.561,3.788,6.561h-2.5v7.523h14.793Z" transform="translate(-0.229 0)"/><g transform="translate(5294.491 719.072)"><g transform="translate(0)"><g class="i" transform="matrix(1, 0, 0, 1, -6, -4)"><path class="b" d="M5338.49,755.492h-32.958a11.085,11.085,0,0,1-2.938-21.76,12.693,12.693,0,0,1-.129-1.795,12.858,12.858,0,0,1,24.022-6.388,10.036,10.036,0,0,1,2.2-.243h.011a10.224,10.224,0,0,1,9.4,6.242q.2-.007.4-.007h0a11.975,11.975,0,0,1,0,23.95Zm-23.2-33.847a10.124,10.124,0,0,0-2.181.238,10.35,10.35,0,0,0-8.072,10.053,10.108,10.108,0,0,0,.308,2.471l.346,1.372-1.4.214a8.513,8.513,0,0,0,1.246,16.928h32.953a9.4,9.4,0,0,0,0-18.807,9.561,9.561,0,0,0-1.125.068l-1.067.128-.315-1.027a7.612,7.612,0,0,0-7.3-5.4,7.348,7.348,0,0,0-2.444.408l-1.1.378-.488-1.054A10.364,10.364,0,0,0,5315.29,721.645Z" transform="translate(-5288.49 -715.07)"/></g><g transform="translate(15.103 13.265)"><g class="h" transform="matrix(1, 0, 0, 1, -21.1, -17.27)"><path class="b" d="M5444.886,853.03a6.408,6.408,0,0,1-.268.663,3.648,3.648,0,0,1-.391.652,1.837,1.837,0,0,1-.54.482,1.413,1.413,0,0,1-.724.182,1.915,1.915,0,0,1-.874-.217,2.189,2.189,0,0,1-.765-.685,3.81,3.81,0,0,1-.549-1.234,8.311,8.311,0,0,1,0-3.691,3.753,3.753,0,0,1,.553-1.23,2.176,2.176,0,0,1,.773-.681,1.966,1.966,0,0,1,.879-.213,1.39,1.39,0,0,1,.719.182,1.85,1.85,0,0,1,.536.483,3.586,3.586,0,0,1,.391.656,4.994,4.994,0,0,1,.259.68l.031.106,2.2-1.1-.029-.077a4.645,4.645,0,0,0-.645-1.194,4.246,4.246,0,0,0-.919-.9,4.008,4.008,0,0,0-1.161-.568,4.706,4.706,0,0,0-1.372-.194,5.6,5.6,0,0,0-1.417.185,4.563,4.563,0,0,0-1.348.6,4.414,4.414,0,0,0-1.138,1.1,5.328,5.328,0,0,0-.784,1.678,9.681,9.681,0,0,0,0,4.649,5.431,5.431,0,0,0,.775,1.681,4.362,4.362,0,0,0,1.13,1.109,4.507,4.507,0,0,0,1.348.608,5.581,5.581,0,0,0,1.409.185,4.771,4.771,0,0,0,1.384-.194,4.05,4.05,0,0,0,1.169-.568,4.254,4.254,0,0,0,.923-.894,4.687,4.687,0,0,0,.645-1.165l.03-.078-2.195-1.106Z" transform="translate(-5416.92 -827.87)"/></g><g class="g" transform="matrix(1, 0, 0, 1, -21.1, -17.27)"><path class="b" d="M5544.171,847.138a4.344,4.344,0,0,0-1.084-1.138,4.521,4.521,0,0,0-1.315-.649,5.03,5.03,0,0,0-2.873,0,4.446,4.446,0,0,0-1.32.65,4.373,4.373,0,0,0-1.08,1.138,5.724,5.724,0,0,0-.733,1.668,9.479,9.479,0,0,0,0,4.465,5.714,5.714,0,0,0,.733,1.668,4.333,4.333,0,0,0,2.4,1.8,5.033,5.033,0,0,0,1.44.211,4.959,4.959,0,0,0,1.433-.211,4.47,4.47,0,0,0,1.315-.654,4.4,4.4,0,0,0,1.084-1.142,5.664,5.664,0,0,0,.73-1.668,9.631,9.631,0,0,0,0-4.464A5.671,5.671,0,0,0,5544.171,847.138Zm-1.542,3.9a7.723,7.723,0,0,1-.191,1.845,3.783,3.783,0,0,1-.521,1.234,2.135,2.135,0,0,1-.733.688,1.78,1.78,0,0,1-1.7,0,2.078,2.078,0,0,1-.736-.688,3.9,3.9,0,0,1-.521-1.235,8.75,8.75,0,0,1,0-3.681,3.852,3.852,0,0,1,.521-1.23,2.092,2.092,0,0,1,.737-.684,1.826,1.826,0,0,1,.853-.216,1.78,1.78,0,0,1,.844.216,2.155,2.155,0,0,1,.733.684,3.74,3.74,0,0,1,.521,1.229A7.685,7.685,0,0,1,5542.629,851.034Z" transform="translate(-5504.14 -827.88)"/></g><g class="f" transform="matrix(1, 0, 0, 1, -21.1, -17.27)"><path class="b" d="M5638.017,945.959c.214-.192.436-.41.66-.648a8.44,8.44,0,0,0,.635-.761,4.29,4.29,0,0,0,.487-.832,2.167,2.167,0,0,0,.192-.863,2.506,2.506,0,0,0-.194-1.034,1.834,1.834,0,0,0-.547-.7,2.163,2.163,0,0,0-.8-.38,3.948,3.948,0,0,0-.954-.11,2.931,2.931,0,0,0-1.1.207,2.48,2.48,0,0,0-.887.6,2.144,2.144,0,0,0-.517.957l-.043.172,1.554.689.06-.244a1.588,1.588,0,0,1,.194-.457,1.169,1.169,0,0,1,.325-.347.689.689,0,0,1,.41-.122.9.9,0,0,1,.291.045.577.577,0,0,1,.212.127.549.549,0,0,1,.135.223,1.2,1.2,0,0,1,.054.387,1.188,1.188,0,0,1-.12.486,3.307,3.307,0,0,1-.351.584,6.578,6.578,0,0,1-.513.609c-.193.2-.395.4-.6.589s-.409.366-.6.524-.372.3-.529.423-.278.213-.37.28l-.087.063v1.3h4.918V946.3h-2.312C5637.739,946.2,5637.872,946.089,5638.017,945.959Z" transform="translate(-5593.12 -913.31)"/></g></g></g><g class="e" transform="matrix(1, 0, 0, 1, -6, -4)"><path class="b" d="M5645.446,1123.708l-3.789-6.561-3.788,6.561h2.5v7.523h2.571v-7.523Z" transform="translate(-5595.74 -1071.26)"/></g><g class="d" transform="matrix(1, 0, 0, 1, -6, -4)"><path class="b" d="M5426.567,1123.632l-3.788-6.561-3.788,6.561h2.5v7.531h2.571v-7.531Z" transform="translate(-5399.89 -1071.19)"/></g><g class="c" transform="matrix(1, 0, 0, 1, -6, -4)"><path class="b" d="M5536,1088.184l-3.788-7.008-3.788,7.008h2.5v10.862h2.572v-10.862Z" transform="translate(-5497.8 -1039.07)"/></g></g></g></svg>