<svg xmlns="http://www.w3.org/2000/svg" viewBox="0 0 538 383.726"><defs><style>.a{fill:#8e9b52;}.b{fill:#7d8a41;}.c{fill:#6c7930;}.d{fill:#838a5e;}.e{fill:#41372f;}.f,.n,.o{fill:none;}.g{fill:#29400c;}.h{fill:#4e3b2e;}.i{fill:#3d2a1d;}.j{fill:#4b612e;}.k{fill:#3a501d;}.l{fill:#ccc;}.m{fill:#fff;}.n{stroke:#636363;}.n,.o{stroke-linecap:round;stroke-linejoin:round;stroke-width:0.4px;}.o{stroke:#858585;}.p{fill:#c1c1c1;}.q{fill:#f3832d;}.r{fill:#ffbe3b;}.s{opacity:0.6;}.t{fill:#ff1200;}</style></defs><g transform="translate(-472.509 -1338.47)"><path class="a" d="M472.509,1576.537,741.764,1732l268.746-155.463-269-155.32Z" transform="translate(0 -40.724)"/><path class="b" d="M741.511,1913.442l.253-30.932L472.509,1727.06v31.064Z" transform="translate(0 -191.246)"/><path class="c" d="M1271.191,1727.06v31.064L1002.2,1913.442l.25-30.932Z" transform="translate(-260.685 -191.246)"/><path class="d" d="M1048.485,1704.413c-41.181,23.781-44.334-21.83-70.094-18.343s-66.876-27.307-75.115-35.352-44.606.138-58.955-3.908-43.371-16.156-23.5-29.113c16.264-10.607,47.229-37.7,80.092-18.258s96.18-4.564,124.44,4.984C1149.2,1646.265,1048.485,1704.413,1048.485,1704.413Z" transform="translate(-168.106 -125.069)"/><g transform="translate(482.477 1420.817)"><ellipse class="e" cx="6.414" cy="3.703" rx="6.414" ry="3.703" transform="translate(20.462 111.004) rotate(-0.36)"/><path class="f" d="M545.3,1722.832a3.131,3.131,0,0,0-1.862-2.627,10,10,0,0,0-9.073.013c-2.512,1.445-2.528,3.8-.033,5.241a9.693,9.693,0,0,0,5.7,1" transform="translate(-511.989 -1608.159)"/><ellipse class="g" cx="8.807" cy="5.084" rx="8.807" ry="5.084" transform="translate(18.061 111.148) rotate(-0.36)"/><path class="h" d="M532.476,1694.484v-29.238a3.233,3.233,0,0,1,1.9-2.614,10.072,10.072,0,0,1,9.07-.013,3.142,3.142,0,0,1,1.865,2.627h0v29.238h0a3.24,3.24,0,0,1-1.9,2.614,9.991,9.991,0,0,1-9.07.013,3.137,3.137,0,0,1-1.862-2.627Z" transform="translate(-511.99 -1579.824)"/><path class="i" d="M547.365,1701.728v-29.251a8.651,8.651,0,0,0,3.369-1.024,3.233,3.233,0,0,0,1.9-2.614v29.251a3.216,3.216,0,0,1-1.9,2.6,8.662,8.662,0,0,1-3.369,1.038" transform="translate(-519.318 -1583.413)"/><path class="g" d="M545.938,1653.793l-26.9,15.525-26.9-15.525,26.9-15.539Z" transform="translate(-492.138 -1568.361)"/><path class="j" d="M519.038,1645l-26.9-15.532,26.9-40.626Z" transform="translate(-492.138 -1544.039)"/><path class="k" d="M572,1629.463l-26.9-40.626V1645Z" transform="translate(-518.204 -1544.039)"/><path class="f" d="M545.805,1633.269l-22.7,18.644-22.7-18.644,22.7-13.1Z" transform="translate(-496.209 -1559.46)"/><path class="j" d="M523.109,1611.821l-22.7-13.108,22.7-48.763Z" transform="translate(-496.209 -1524.904)"/><path class="k" d="M567.8,1598.712l-22.7-48.763v61.871Z" transform="translate(-518.204 -1524.904)"/><path class="f" d="M545.653,1592.53,528,1606.748l-17.656-14.218L528,1582.344Z" transform="translate(-501.1 -1540.847)"/><path class="k" d="M562.756,1564.608l-17.65-39.017v49.21Z" transform="translate(-518.204 -1512.915)"/><path class="j" d="M528,1574.8l-17.656-10.192L528,1525.59Z" transform="translate(-501.1 -1512.915)"/><path class="g" d="M545.534,1556.758,531.7,1568.264l-13.831-11.506,13.831-7.986Z" transform="translate(-504.8 -1524.325)"/><path class="k" d="M558.937,1533.069l-13.831-32.443v40.429Z" transform="translate(-518.204 -1500.626)"/><path class="j" d="M531.7,1541.055l-13.831-7.986,13.831-32.443Z" transform="translate(-504.8 -1500.626)"/><path class="g" d="M518.187,1607.12l-.319.677,13.831,11.151,13.834-11.151-.322-.677-13.512,7.8Z" transform="translate(-504.8 -1553.037)"/><path class="g" d="M505.121,1648.837l-.263.394,20.441,16.8,20.438-16.8-.266-.394-20.172,11.65Z" transform="translate(-498.397 -1573.567)"/></g><g transform="translate(521.691 1373.672)"><ellipse class="e" cx="8.879" cy="5.126" rx="8.879" ry="5.126" transform="translate(28.325 153.658) rotate(-0.36)"/><path class="f" d="M642.947,1715.361c.016-1.313-.841-2.641-2.578-3.639a13.911,13.911,0,0,0-12.557.027c-3.481,2.009-3.5,5.254-.043,7.25a13.452,13.452,0,0,0,7.887,1.406" transform="translate(-596.83 -1556.636)"/><ellipse class="g" cx="12.191" cy="7.038" rx="12.191" ry="7.038" transform="translate(25.001 153.858) rotate(-0.36)"/><path class="h" d="M625.189,1676.138V1635.67c.017-1.307.893-2.621,2.624-3.612a13.87,13.87,0,0,1,12.557-.033c1.737,1.011,2.594,2.325,2.578,3.645h0v40.468h0c-.016,1.307-.89,2.614-2.624,3.612a13.851,13.851,0,0,1-12.557.026c-1.734-1-2.594-2.312-2.578-3.638Z" transform="translate(-596.83 -1517.416)"/><path class="i" d="M645.8,1686.145v-40.481a12.059,12.059,0,0,0,4.673-1.418c1.731-1.011,2.607-2.312,2.624-3.612V1681.1c-.017,1.313-.893,2.614-2.624,3.612a11.848,11.848,0,0,1-4.673,1.432" transform="translate(-606.974 -1522.379)"/><path class="g" d="M643.819,1619.8l-37.231,21.495L569.351,1619.8l37.237-21.5Z" transform="translate(-569.351 -1501.542)"/><path class="j" d="M606.588,1607.633l-37.237-21.5,37.237-56.243Z" transform="translate(-569.351 -1467.875)"/><path class="k" d="M679.91,1586.131l-37.237-56.243v77.745Z" transform="translate(-605.436 -1467.875)"/><path class="f" d="M643.642,1591.4l-31.415,25.81L580.8,1591.4l31.422-18.146Z" transform="translate(-574.989 -1489.22)"/><path class="j" d="M612.227,1561.7,580.8,1543.558l31.422-67.5Z" transform="translate(-574.989 -1441.382)"/><path class="k" d="M674.1,1543.558l-31.422-67.5V1561.7Z" transform="translate(-605.436 -1441.382)"/><path class="f" d="M643.426,1535l-24.434,19.689L594.558,1535l24.434-14.1Z" transform="translate(-581.756 -1463.452)"/><path class="k" d="M667.107,1496.347l-24.434-54.01v68.117Z" transform="translate(-605.436 -1424.786)"/><path class="j" d="M618.992,1510.454l-24.434-14.107,24.434-54.01Z" transform="translate(-581.756 -1424.786)"/><path class="g" d="M643.264,1485.474l-19.148,15.933-19.147-15.933,19.147-11.046Z" transform="translate(-586.881 -1440.582)"/><path class="k" d="M661.821,1452.678l-19.148-44.9v55.955Z" transform="translate(-605.436 -1407.782)"/><path class="j" d="M624.117,1463.737l-19.147-11.06,19.147-44.9Z" transform="translate(-586.881 -1407.782)"/><path class="g" d="M605.413,1555.2l-.443.939,19.147,15.433,19.148-15.427-.443-.946-18.7,10.8Z" transform="translate(-586.881 -1480.337)"/><path class="g" d="M587.324,1612.946l-.365.558,28.292,23.242,28.3-23.242-.368-.558-27.928,16.129Z" transform="translate(-578.016 -1508.754)"/></g><g transform="translate(587.9 1370.929)"><ellipse class="e" cx="5.568" cy="3.214" rx="5.568" ry="3.214" transform="translate(17.761 96.349) rotate(-0.36)"/><path class="f" d="M745.874,1595.255a2.743,2.743,0,0,0-1.619-2.279,8.663,8.663,0,0,0-7.871.02c-2.184,1.255-2.2,3.291-.029,4.538a8.373,8.373,0,0,0,4.945.88" transform="translate(-716.957 -1495.729)"/><ellipse class="g" cx="7.644" cy="4.413" rx="7.644" ry="4.413" transform="translate(15.677 96.474) rotate(-0.36)"/><path class="h" d="M734.738,1570.657V1545.28a2.809,2.809,0,0,1,1.648-2.266,8.7,8.7,0,0,1,7.871-.02,2.759,2.759,0,0,1,1.619,2.285h0v25.377h0a2.808,2.808,0,0,1-1.648,2.266,8.7,8.7,0,0,1-7.871.02,2.744,2.744,0,0,1-1.619-2.285Z" transform="translate(-716.957 -1471.128)"/><path class="i" d="M747.661,1576.93v-25.383a7.442,7.442,0,0,0,2.926-.887,2.817,2.817,0,0,0,1.648-2.266v25.376a2.8,2.8,0,0,1-1.648,2.266,7.342,7.342,0,0,1-2.926.893" transform="translate(-723.317 -1474.249)"/><path class="g" d="M746.423,1535.325l-23.351,13.483-23.347-13.483,23.347-13.476Z" transform="translate(-699.725 -1461.183)"/><path class="j" d="M723.072,1527.7l-23.347-13.483,23.347-35.267Z" transform="translate(-699.725 -1440.067)"/><path class="k" d="M769.048,1514.221,745.7,1478.954v48.75Z" transform="translate(-722.354 -1440.067)"/><path class="f" d="M746.308,1517.525l-19.7,16.182-19.7-16.182,19.7-11.375Z" transform="translate(-703.258 -1453.455)"/><path class="j" d="M726.609,1498.908l-19.7-11.381,19.7-42.327Z" transform="translate(-703.258 -1423.462)"/><path class="k" d="M765.4,1487.527,745.7,1445.2v53.708Z" transform="translate(-722.354 -1423.462)"/><path class="f" d="M746.171,1482.159l-15.318,12.347-15.322-12.347,15.322-8.84Z" transform="translate(-707.502 -1437.296)"/><path class="k" d="M761.02,1457.919,745.7,1424.057v42.7Z" transform="translate(-722.354 -1413.057)"/><path class="j" d="M730.853,1466.759l-15.322-8.84,15.322-33.862Z" transform="translate(-707.502 -1413.057)"/><path class="g" d="M746.076,1451.108l-12.008,9.989-12.008-9.989,12.008-6.929Z" transform="translate(-710.718 -1422.958)"/><path class="k" d="M757.706,1430.544,745.7,1402.39v35.083Z" transform="translate(-722.354 -1402.39)"/><path class="j" d="M734.068,1437.473l-12.008-6.929,12.008-28.154Z" transform="translate(-710.718 -1402.39)"/><path class="g" d="M722.338,1494.823l-.279.591,12.008,9.667,12.008-9.667-.279-.591-11.729,6.771Z" transform="translate(-710.718 -1447.883)"/><path class="g" d="M711,1531.036l-.23.341,17.742,14.573,17.738-14.573-.23-.341-17.508,10.1Z" transform="translate(-705.159 -1465.706)"/></g><g transform="translate(586.129 1430.135)"><ellipse class="e" cx="2.524" cy="4.372" rx="2.524" ry="4.372" transform="translate(13.946 80.648) rotate(-89.64)"/><path class="f" d="M723.731,1670.417a2.161,2.161,0,0,1,1.271-1.8,6.8,6.8,0,0,1,6.183.027c1.714.985,1.721,2.587.023,3.559a6.494,6.494,0,0,1-3.885.683" transform="translate(-709.767 -1592.255)"/><ellipse class="g" cx="3.465" cy="6.002" rx="3.465" ry="6.002" transform="translate(12.31 82.609) rotate(-89.64)"/><path class="h" d="M732.477,1651.094v-19.92a2.209,2.209,0,0,0-1.291-1.786,6.844,6.844,0,0,0-6.186-.006,2.146,2.146,0,0,0-1.268,1.792h0v19.92h0a2.207,2.207,0,0,0,1.294,1.786,6.853,6.853,0,0,0,6.18.013,2.168,2.168,0,0,0,1.271-1.8Z" transform="translate(-709.768 -1572.946)"/><path class="i" d="M727.325,1656.029V1636.1a5.971,5.971,0,0,1-2.3-.7,2.207,2.207,0,0,1-1.294-1.786v19.932a2.2,2.2,0,0,0,1.294,1.773,5.88,5.88,0,0,0,2.3.709" transform="translate(-709.768 -1575.395)"/><path class="g" d="M696.24,1623.358l18.336,10.58,18.336-10.58-18.336-10.588Z" transform="translate(-696.24 -1565.133)"/><path class="j" d="M732.341,1617.364l18.329-10.58-18.329-27.695Z" transform="translate(-714.006 -1548.559)"/><path class="k" d="M696.24,1606.784l18.336-27.695v38.275Z" transform="translate(-696.24 -1548.559)"/><path class="f" d="M701.879,1609.374l15.466,12.708,15.469-12.708-15.469-8.932Z" transform="translate(-699.014 -1559.068)"/><path class="j" d="M732.341,1594.756l15.469-8.932-15.469-33.237Z" transform="translate(-714.006 -1535.511)"/><path class="k" d="M701.879,1585.824l15.466-33.237v42.169Z" transform="translate(-699.014 -1535.511)"/><path class="f" d="M708.651,1581.606l12.028,9.687,12.031-9.687-12.031-6.941Z" transform="translate(-702.346 -1546.384)"/><path class="k" d="M708.651,1562.568l12.028-26.585v33.533Z" transform="translate(-702.346 -1527.339)"/><path class="j" d="M732.341,1569.517l12.028-6.948-12.028-26.585Z" transform="translate(-714.006 -1527.339)"/><path class="g" d="M713.777,1557.221l9.427,7.848,9.431-7.848-9.431-5.438Z" transform="translate(-704.87 -1535.118)"/><path class="k" d="M713.777,1541.075l9.427-22.106v27.55Z" transform="translate(-704.87 -1518.969)"/><path class="j" d="M732.341,1546.519l9.427-5.444-9.427-22.106Z" transform="translate(-714.006 -1518.969)"/><path class="g" d="M732.414,1591.55l.217.466-9.427,7.6-9.427-7.6.217-.466,9.211,5.32Z" transform="translate(-704.869 -1554.691)"/><path class="g" d="M732.591,1619.983l.181.269L718.839,1631.7l-13.929-11.447.181-.269,13.749,7.941Z" transform="translate(-700.505 -1568.684)"/></g><g transform="translate(636.296 1374.525)"><ellipse class="e" cx="5.672" cy="3.275" rx="5.672" ry="3.275" transform="translate(18.095 98.16) rotate(-0.36)"/><path class="f" d="M842.036,1605.965a2.776,2.776,0,0,0-1.649-2.325,8.808,8.808,0,0,0-8.019.019c-2.226,1.281-2.233,3.356-.026,4.63a8.621,8.621,0,0,0,5.037.894" transform="translate(-812.579 -1504.559)"/><ellipse class="g" cx="7.788" cy="4.496" rx="7.788" ry="4.496" transform="translate(15.971 98.288) rotate(-0.36)"/><path class="h" d="M830.694,1580.9v-25.856a2.851,2.851,0,0,1,1.675-2.312,8.867,8.867,0,0,1,8.018-.013,2.789,2.789,0,0,1,1.649,2.325h0V1580.9h0a2.852,2.852,0,0,1-1.675,2.305,8.87,8.87,0,0,1-8.019.02,2.764,2.764,0,0,1-1.648-2.325Z" transform="translate(-812.581 -1479.503)"/><path class="i" d="M843.859,1587.3v-25.863a7.477,7.477,0,0,0,2.982-.906,2.865,2.865,0,0,0,1.681-2.312v25.863a2.865,2.865,0,0,1-1.681,2.305,7.807,7.807,0,0,1-2.982.912" transform="translate(-819.058 -1482.677)"/><path class="g" d="M842.6,1544.905l-23.787,13.732-23.791-13.732,23.791-13.732Z" transform="translate(-795.022 -1469.366)"/><path class="j" d="M818.813,1537.136,795.022,1523.4l23.791-35.93Z" transform="translate(-795.022 -1447.855)"/><path class="k" d="M865.649,1523.4l-23.788-35.93v49.663Z" transform="translate(-818.075 -1447.855)"/><path class="f" d="M842.483,1526.768l-20.07,16.484-20.073-16.484,20.073-11.591Z" transform="translate(-798.624 -1461.488)"/><path class="j" d="M822.412,1507.8l-20.073-11.592,20.073-43.122Z" transform="translate(-798.624 -1430.936)"/><path class="k" d="M861.932,1496.206l-20.07-43.122V1507.8Z" transform="translate(-818.075 -1430.936)"/><path class="f" d="M842.346,1490.741l-15.611,12.577-15.611-12.577,15.611-9.01Z" transform="translate(-802.948 -1445.035)"/><path class="k" d="M857.472,1466.042l-15.611-34.5v43.509Z" transform="translate(-818.075 -1420.33)"/><path class="j" d="M826.735,1475.052l-15.611-9.011,15.611-34.5Z" transform="translate(-802.948 -1420.33)"/><path class="g" d="M842.24,1459.1l-12.232,10.179L817.776,1459.1l12.232-7.06Z" transform="translate(-806.222 -1430.419)"/><path class="k" d="M854.09,1438.148l-12.228-28.68v35.753Z" transform="translate(-818.075 -1409.468)"/><path class="j" d="M830.008,1445.221l-12.232-7.073,12.232-28.68Z" transform="translate(-806.222 -1409.468)"/><path class="g" d="M818.058,1503.639l-.282.6,12.232,9.864,12.232-9.851-.279-.611-11.952,6.9Z" transform="translate(-806.222 -1455.812)"/><path class="g" d="M806.5,1540.531l-.233.355,18.07,14.849,18.077-14.849-.233-.355-17.844,10.3Z" transform="translate(-800.557 -1473.971)"/></g><g transform="translate(673.18 1349.807)"><ellipse class="e" cx="5.138" cy="2.966" rx="5.138" ry="2.966" transform="translate(16.39 88.912) rotate(-0.36)"/><path class="f" d="M910.229,1538.769a2.509,2.509,0,0,0-1.484-2.1,8.014,8.014,0,0,0-7.27.02c-2.016,1.156-2.023,3.034-.026,4.2a7.767,7.767,0,0,0,4.564.8" transform="translate(-883.547 -1446.924)"/><ellipse class="g" cx="7.054" cy="4.073" rx="7.054" ry="4.073" transform="translate(14.467 89.027) rotate(-0.36)"/><path class="h" d="M899.958,1516.078v-23.426a2.555,2.555,0,0,1,1.517-2.082,8,8,0,0,1,7.263-.02,2.518,2.518,0,0,1,1.491,2.1h0v23.426h0a2.6,2.6,0,0,1-1.517,2.089,8.055,8.055,0,0,1-7.27.02,2.513,2.513,0,0,1-1.484-2.109Z" transform="translate(-883.548 -1424.228)"/><path class="i" d="M911.883,1521.865v-23.426a6.9,6.9,0,0,0,2.706-.821,2.575,2.575,0,0,0,1.51-2.088v23.419a2.593,2.593,0,0,1-1.51,2.095,7.14,7.14,0,0,1-2.706.821" transform="translate(-889.419 -1427.106)"/><path class="g" d="M910.741,1483.478l-21.548,12.438-21.547-12.438,21.547-12.446Z" transform="translate(-867.646 -1415.045)"/><path class="j" d="M889.194,1476.436l-21.547-12.445,21.547-32.542Z" transform="translate(-867.646 -1395.567)"/><path class="k" d="M931.615,1463.991l-21.542-32.542v44.987Z" transform="translate(-888.528 -1395.567)"/><path class="f" d="M910.638,1467.047l-18.179,14.928-18.185-14.928,18.185-10.5Z" transform="translate(-870.908 -1407.922)"/><path class="j" d="M892.459,1449.865l-18.185-10.5,18.185-39.063Z" transform="translate(-870.908 -1380.238)"/><path class="k" d="M928.252,1439.364,910.073,1400.3v49.564Z" transform="translate(-888.528 -1380.238)"/><path class="f" d="M910.513,1434.418l-14.14,11.388-14.14-11.388,14.14-8.17Z" transform="translate(-874.825 -1393.009)"/><path class="k" d="M924.213,1412.043l-14.14-31.254V1420.2Z" transform="translate(-888.528 -1370.634)"/><path class="j" d="M896.373,1420.2l-14.14-8.156,14.14-31.254Z" transform="translate(-874.825 -1370.634)"/><path class="g" d="M910.415,1405.755l-11.079,9.227-11.079-9.227,11.079-6.4Z" transform="translate(-877.79 -1379.771)"/><path class="k" d="M921.152,1386.775l-11.079-25.98v32.377Z" transform="translate(-888.528 -1360.795)"/><path class="j" d="M899.336,1393.172l-11.079-6.4,11.079-25.98Z" transform="translate(-877.79 -1360.795)"/><path class="g" d="M888.513,1446.093l-.256.545,11.079,8.932,11.079-8.932-.256-.545-10.823,6.252Z" transform="translate(-877.79 -1402.773)"/><path class="g" d="M878.051,1479.509l-.217.322,16.373,13.444,16.373-13.444-.21-.322-16.163,9.326Z" transform="translate(-872.659 -1419.22)"/></g><g transform="translate(732.828 1338.47)"><ellipse class="e" cx="4.359" cy="2.516" rx="4.359" ry="2.516" transform="translate(13.904 75.428) rotate(-0.36)"/><path class="f" d="M1021.223,1489.456a2.134,2.134,0,0,0-1.261-1.78,6.8,6.8,0,0,0-6.167.006c-1.707.985-1.714,2.574-.019,3.56a6.543,6.543,0,0,0,3.868.683" transform="translate(-998.591 -1411.539)"/><ellipse class="g" cx="5.984" cy="3.455" rx="5.984" ry="3.455" transform="translate(12.273 75.525) rotate(-0.36)"/><path class="h" d="M1012.51,1470.212v-19.88a2.214,2.214,0,0,1,1.294-1.773,6.79,6.79,0,0,1,6.16-.007,2.138,2.138,0,0,1,1.268,1.78h0v19.88h0a2.192,2.192,0,0,1-1.287,1.773,6.824,6.824,0,0,1-6.167.007,2.136,2.136,0,0,1-1.261-1.78Z" transform="translate(-998.591 -1392.289)"/><path class="i" d="M1022.627,1475.106V1455.24a5.9,5.9,0,0,0,2.286-.7,2.205,2.205,0,0,0,1.294-1.773v19.866a2.206,2.206,0,0,1-1.294,1.773,5.681,5.681,0,0,1-2.286.7" transform="translate(-1003.569 -1394.724)"/><path class="g" d="M1021.655,1442.55l-18.277,10.554L985.1,1442.55l18.277-10.56Z" transform="translate(-985.101 -1384.499)"/><path class="j" d="M1003.378,1436.579l-18.277-10.56,18.277-27.609Z" transform="translate(-985.101 -1367.97)"/><path class="k" d="M1039.376,1426.019l-18.283-27.609v38.17Z" transform="translate(-1002.815 -1367.97)"/><path class="f" d="M1021.57,1428.605l-15.427,12.668-15.42-12.668,15.42-8.906Z" transform="translate(-987.866 -1378.448)"/><path class="j" d="M1006.143,1414.024l-15.42-8.905,15.42-33.133Z" transform="translate(-987.866 -1354.968)"/><path class="k" d="M1036.52,1405.119l-15.427-33.133v42.038Z" transform="translate(-1002.815 -1354.968)"/><path class="f" d="M1021.458,1400.914l-11.992,9.667-11.993-9.667,11.993-6.916Z" transform="translate(-991.189 -1365.8)"/><path class="k" d="M1033.091,1381.941l-12-26.507v33.435Z" transform="translate(-1002.815 -1346.822)"/><path class="j" d="M1009.466,1388.869l-11.993-6.929,11.993-26.507Z" transform="translate(-991.189 -1346.822)"/><path class="g" d="M1021.386,1376.61l-9.4,7.822-9.4-7.822,9.4-5.425Z" transform="translate(-993.706 -1354.57)"/><path class="k" d="M1030.491,1360.512l-9.4-22.041v27.465Z" transform="translate(-1002.815 -1338.471)"/><path class="j" d="M1011.982,1365.937l-9.4-5.425,9.4-22.041Z" transform="translate(-993.706 -1338.471)"/><path class="g" d="M1002.8,1410.833l-.217.459,9.4,7.573,9.4-7.566-.217-.466-9.188,5.3Z" transform="translate(-993.706 -1374.08)"/><path class="g" d="M993.928,1439.181l-.184.276,13.89,11.408,13.89-11.408-.177-.276-13.713,7.914Z" transform="translate(-989.356 -1388.037)"/></g><g transform="translate(897.553 1465.196)"><ellipse class="e" cx="5.662" cy="3.269" rx="5.662" ry="3.269" transform="translate(18.061 97.976) rotate(-0.36)"/><path class="f" d="M1356.39,1784.128a2.8,2.8,0,0,0-1.642-2.325,8.834,8.834,0,0,0-8.012.027c-2.219,1.274-2.233,3.349-.026,4.61a8.529,8.529,0,0,0,5.024.893" transform="translate(-1326.978 -1682.918)"/><ellipse class="g" cx="7.773" cy="4.488" rx="7.773" ry="4.488" transform="translate(15.941 98.103) rotate(-0.36)"/><path class="h" d="M1345.062,1759.108v-25.8a2.9,2.9,0,0,1,1.675-2.312,8.875,8.875,0,0,1,8.012-.013,2.788,2.788,0,0,1,1.642,2.325h0v25.8h0a2.869,2.869,0,0,1-1.675,2.312,8.808,8.808,0,0,1-8,.013,2.732,2.732,0,0,1-1.642-2.325Z" transform="translate(-1326.977 -1657.903)"/><path class="i" d="M1358.2,1765.488v-25.81a7.655,7.655,0,0,0,2.975-.893,2.87,2.87,0,0,0,1.675-2.312v25.81a2.853,2.853,0,0,1-1.675,2.3,7.456,7.456,0,0,1-2.975.906" transform="translate(-1333.445 -1661.072)"/><path class="g" d="M1356.941,1723.19,1333.2,1736.9l-23.741-13.713,23.741-13.713Z" transform="translate(-1309.458 -1647.785)"/><path class="j" d="M1333.2,1715.443l-23.741-13.712,23.741-35.871Z" transform="translate(-1309.458 -1626.316)"/><path class="k" d="M1379.952,1701.731l-23.742-35.871v49.583Z" transform="translate(-1332.469 -1626.316)"/><path class="f" d="M1356.823,1705.086l-20.031,16.445-20.031-16.445,20.031-11.572Z" transform="translate(-1313.051 -1639.932)"/><path class="j" d="M1336.792,1686.144l-20.031-11.572,20.031-43.036Z" transform="translate(-1313.051 -1609.429)"/><path class="k" d="M1376.248,1674.573l-20.038-43.036v54.608Z" transform="translate(-1332.469 -1609.429)"/><path class="f" d="M1356.694,1669.128l-15.584,12.543-15.578-12.543,15.578-9Z" transform="translate(-1317.372 -1623.501)"/><path class="k" d="M1371.8,1644.476l-15.585-34.44v43.438Z" transform="translate(-1332.469 -1598.846)"/><path class="j" d="M1341.109,1653.473l-15.578-9,15.578-34.44Z" transform="translate(-1317.372 -1598.846)"/><path class="g" d="M1356.587,1637.551l-12.208,10.153-12.209-10.153,12.209-7.053Z" transform="translate(-1320.635 -1608.915)"/><path class="k" d="M1368.419,1616.629,1356.21,1588v35.681Z" transform="translate(-1332.469 -1588.002)"/><path class="j" d="M1344.378,1623.683l-12.209-7.054L1344.378,1588Z" transform="translate(-1320.635 -1588.002)"/><path class="g" d="M1332.451,1681.994l-.282.617,12.209,9.825,12.208-9.825-.282-.617-11.926,6.9Z" transform="translate(-1320.635 -1634.258)"/><path class="g" d="M1320.929,1718.819l-.243.355,18.048,14.816,18.041-14.816-.237-.355-17.8,10.285Z" transform="translate(-1314.98 -1652.382)"/></g><g transform="translate(735.888 1545.137)"><ellipse class="e" cx="5.363" cy="3.096" rx="5.363" ry="3.096" transform="translate(17.107 92.801) rotate(-0.36)"/><path class="f" d="M1035.573,1931.183a2.652,2.652,0,0,0-1.55-2.194,8.349,8.349,0,0,0-7.585.026c-2.1,1.209-2.121,3.167-.033,4.375a8.106,8.106,0,0,0,4.768.841" transform="translate(-1007.725 -1835.325)"/><ellipse class="g" cx="7.363" cy="4.251" rx="7.363" ry="4.251" transform="translate(15.099 92.921) rotate(-0.36)"/><path class="h" d="M1024.851,1907.5v-24.457a2.646,2.646,0,0,1,1.583-2.167,8.387,8.387,0,0,1,7.585-.026,2.639,2.639,0,0,1,1.55,2.193h0V1907.5h0a2.681,2.681,0,0,1-1.583,2.18,8.43,8.43,0,0,1-7.585.014,2.627,2.627,0,0,1-1.55-2.194Z" transform="translate(-1007.726 -1811.632)"/><path class="i" d="M1037.3,1913.531V1889.1a7.384,7.384,0,0,0,2.811-.867,2.7,2.7,0,0,0,1.589-2.18V1910.5a2.7,2.7,0,0,1-1.589,2.18,7.148,7.148,0,0,1-2.811.854" transform="translate(-1013.852 -1814.633)"/><path class="g" d="M1036.107,1873.473l-22.493,12.991-22.487-12.991,22.487-12.99Z" transform="translate(-991.127 -1802.049)"/><path class="j" d="M1013.614,1866.114l-22.487-12.978,22.487-33.967Z" transform="translate(-991.127 -1781.719)"/><path class="k" d="M1057.9,1853.136l-22.493-33.967v46.944Z" transform="translate(-1012.924 -1781.719)"/><path class="f" d="M1035.992,1856.329l-18.974,15.578-18.974-15.578,18.974-10.968Z" transform="translate(-994.531 -1794.612)"/><path class="j" d="M1017.019,1838.37l-18.974-10.942,18.974-40.772Z" transform="translate(-994.531 -1765.716)"/><path class="k" d="M1054.389,1827.429l-18.98-40.772v51.713Z" transform="translate(-1012.924 -1765.716)"/><path class="f" d="M1035.865,1822.265l-14.758,11.887-14.757-11.887,14.757-8.525Z" transform="translate(-998.618 -1779.049)"/><path class="k" d="M1050.167,1798.908l-14.757-32.613v41.137Z" transform="translate(-1012.924 -1755.696)"/><path class="j" d="M1021.107,1807.432l-14.757-8.524,14.757-32.613Z" transform="translate(-998.618 -1755.696)"/><path class="g" d="M1035.77,1792.347l-11.573,9.615-11.558-9.615,11.558-6.673Z" transform="translate(-1001.712 -1765.234)"/><path class="k" d="M1046.975,1772.547l-11.565-27.123v33.8Z" transform="translate(-1012.924 -1745.423)"/><path class="j" d="M1024.2,1779.219l-11.558-6.672,11.558-27.123Z" transform="translate(-1001.712 -1745.423)"/><path class="g" d="M1012.9,1834.454l-.263.578,11.558,9.313,11.573-9.313-.269-.578-11.3,6.515Z" transform="translate(-1001.712 -1789.237)"/><path class="g" d="M1001.979,1869.33l-.217.328,17.089,14.041,17.081-14.041-.217-.328-16.865,9.733Z" transform="translate(-996.36 -1806.407)"/></g><g transform="translate(764.093 1340.44)"><ellipse class="e" cx="6.918" cy="3.994" rx="6.918" ry="3.994" transform="translate(22.069 119.721) rotate(-0.36)"/><path class="f" d="M1104,1582.007a3.386,3.386,0,0,0-2-2.844,10.818,10.818,0,0,0-9.785.026c-2.706,1.564-2.725,4.092-.033,5.649a10.552,10.552,0,0,0,6.141,1.09" transform="translate(-1068.081 -1458.333)"/><ellipse class="g" cx="9.499" cy="5.484" rx="9.499" ry="5.484" transform="translate(19.48 119.876) rotate(-0.36)"/><path class="h" d="M1090.172,1551.44v-31.53a3.467,3.467,0,0,1,2.042-2.817,10.817,10.817,0,0,1,9.786-.027,3.412,3.412,0,0,1,2,2.844h0v31.53h0a3.467,3.467,0,0,1-2.042,2.817,10.763,10.763,0,0,1-9.779.013,3.371,3.371,0,0,1-2.01-2.831Z" transform="translate(-1068.081 -1427.766)"/><path class="i" d="M1106.231,1559.232V1527.7a9.6,9.6,0,0,0,3.639-1.11,3.468,3.468,0,0,0,2.042-2.817v31.537a3.451,3.451,0,0,1-2.042,2.811,9.163,9.163,0,0,1-3.639,1.11" transform="translate(-1075.979 -1431.641)"/><path class="g" d="M1104.69,1507.535l-29.015,16.754-29.009-16.754,29.009-16.747Z" transform="translate(-1046.666 -1415.403)"/><path class="j" d="M1075.675,1498.055l-29.009-16.747,29.009-43.819Z" transform="translate(-1046.666 -1389.17)"/><path class="k" d="M1132.808,1481.308l-29.015-43.819v60.565Z" transform="translate(-1074.782 -1389.17)"/><path class="f" d="M1104.543,1485.414l-24.476,20.117-24.477-20.117,24.477-14.133Z" transform="translate(-1051.059 -1405.803)"/><path class="j" d="M1080.067,1462.273l-24.477-14.126,24.477-52.6Z" transform="translate(-1051.059 -1368.532)"/><path class="k" d="M1128.276,1448.146l-24.483-52.6v66.724Z" transform="translate(-1074.782 -1368.532)"/><path class="f" d="M1104.378,1441.474l-19.039,15.335-19.033-15.335,19.033-10.987Z" transform="translate(-1056.332 -1385.729)"/><path class="k" d="M1122.832,1411.347l-19.039-42.071v53.065Z" transform="translate(-1074.782 -1355.599)"/><path class="j" d="M1085.339,1422.341l-19.033-10.994,19.033-42.071Z" transform="translate(-1056.332 -1355.599)"/><path class="g" d="M1104.247,1402.9l-14.915,12.412-14.914-12.412,14.914-8.623Z" transform="translate(-1060.323 -1367.909)"/><path class="k" d="M1118.714,1377.343l-14.921-34.99v43.6Z" transform="translate(-1074.782 -1342.353)"/><path class="j" d="M1089.333,1385.953l-14.914-8.61,14.914-34.99Z" transform="translate(-1060.323 -1342.353)"/><path class="g" d="M1074.76,1457.207l-.342.742,14.914,12.018,14.915-12.018-.341-.742-14.573,8.413Z" transform="translate(-1060.323 -1398.881)"/><path class="g" d="M1060.668,1502.2l-.282.433,22.04,18.106,22.048-18.106-.283-.433-21.765,12.57Z" transform="translate(-1053.416 -1421.021)"/></g><g transform="translate(571.223 1507.252)"><ellipse class="e" cx="2.553" cy="4.423" rx="2.553" ry="4.423" transform="translate(14.109 81.59) rotate(-89.64)"/><path class="f" d="M694.7,1824.017a2.13,2.13,0,0,1,1.284-1.8,6.909,6.909,0,0,1,6.256,0c1.734,1.012,1.744,2.627.02,3.612a6.723,6.723,0,0,1-3.928.709" transform="translate(-680.577 -1744.958)"/><ellipse class="g" cx="3.506" cy="6.073" rx="3.506" ry="6.073" transform="translate(12.454 83.573) rotate(-89.64)"/><path class="h" d="M703.548,1804.479v-20.162a2.258,2.258,0,0,0-1.307-1.8,6.906,6.906,0,0,0-6.256,0,2.144,2.144,0,0,0-1.284,1.8h0v20.162h0a2.231,2.231,0,0,0,1.31,1.813,6.9,6.9,0,0,0,6.249,0,2.173,2.173,0,0,0,1.288-1.813Z" transform="translate(-680.577 -1725.42)"/><path class="i" d="M698.333,1809.465V1789.3a5.953,5.953,0,0,1-2.322-.709,2.23,2.23,0,0,1-1.31-1.8v20.149a2.23,2.23,0,0,0,1.31,1.813,5.949,5.949,0,0,0,2.322.709" transform="translate(-680.577 -1727.894)"/><path class="g" d="M666.887,1776.415l18.55,10.7,18.547-10.7-18.547-10.7Z" transform="translate(-666.887 -1717.514)"/><path class="j" d="M703.41,1770.357l18.547-10.718-18.547-28Z" transform="translate(-684.862 -1700.745)"/><path class="k" d="M666.887,1759.64l18.55-28v38.721Z" transform="translate(-666.887 -1700.745)"/><path class="f" d="M672.592,1762.284l15.65,12.846,15.65-12.846-15.65-9.05Z" transform="translate(-669.695 -1711.376)"/><path class="j" d="M703.41,1747.482l15.65-9.037-15.65-33.625Z" transform="translate(-684.862 -1687.548)"/><path class="k" d="M672.592,1738.445l15.65-33.625v42.662Z" transform="translate(-669.695 -1687.548)"/><path class="f" d="M679.443,1734.184,691.612,1744l12.176-9.812-12.176-7.027Z" transform="translate(-673.069 -1698.539)"/><path class="k" d="M679.443,1714.925l12.169-26.9v33.928Z" transform="translate(-673.069 -1679.281)"/><path class="j" d="M703.41,1721.952l12.173-7.027-12.173-26.9Z" transform="translate(-684.862 -1679.281)"/><path class="g" d="M684.629,1709.513l9.539,7.933,9.539-7.933-9.539-5.5Z" transform="translate(-675.62 -1687.148)"/><path class="k" d="M684.629,1693.166l9.539-22.355v27.872Z" transform="translate(-675.62 -1670.811)"/><path class="j" d="M703.41,1698.683l9.539-5.517-9.539-22.355Z" transform="translate(-684.862 -1670.811)"/><path class="g" d="M703.484,1744.241l.22.46-9.536,7.684-9.539-7.684.22-.46,9.319,5.372Z" transform="translate(-675.619 -1706.946)"/><path class="g" d="M703.665,1773.006l.18.276-14.1,11.585-14.09-11.585.181-.276,13.91,8.038Z" transform="translate(-671.205 -1721.107)"/></g><g transform="translate(609.612 1435.102)"><ellipse class="g" cx="8.807" cy="5.084" rx="8.807" ry="5.084" transform="translate(18.061 111.148) rotate(-0.36)"/><path class="h" d="M782.815,1722.616v-29.238a3.219,3.219,0,0,1,1.891-2.6,10,10,0,0,1,9.073-.026,3.131,3.131,0,0,1,1.862,2.627h0v29.238h0a3.235,3.235,0,0,1-1.895,2.614,10.038,10.038,0,0,1-9.073.013,3.149,3.149,0,0,1-1.858-2.627Z" transform="translate(-762.329 -1607.952)"/><path class="i" d="M797.7,1729.843V1700.6a8.881,8.881,0,0,0,3.373-1.024,3.242,3.242,0,0,0,1.895-2.614V1726.2a3.242,3.242,0,0,1-1.895,2.614,8.655,8.655,0,0,1-3.373,1.025" transform="translate(-769.657 -1611.54)"/><path class="j" d="M769.377,1673.122l-26.9-15.532,26.9-40.626Z" transform="translate(-742.477 -1572.166)"/><path class="k" d="M822.349,1657.59l-26.9-40.626v56.158Z" transform="translate(-768.544 -1572.166)"/><path class="j" d="M773.448,1639.948l-22.7-13.108,22.7-48.764Z" transform="translate(-746.548 -1553.03)"/><path class="k" d="M818.146,1626.84l-22.7-48.764v61.872Z" transform="translate(-768.544 -1553.03)"/><path class="g" d="M768.53,1635.247l-.322.683,13.834,11.144,13.831-11.138-.315-.69-13.516,7.8Z" transform="translate(-755.138 -1581.164)"/><path class="g" d="M755.46,1676.965l-.263.394,20.438,16.8,20.441-16.8-.263-.394-20.178,11.651Z" transform="translate(-748.736 -1601.694)"/><path class="l" d="M795.445,1603.01v8.6l9.782-5.648v-8.6Z" transform="translate(-768.544 -1562.522)"/><path class="m" d="M776.184,1605.966l9.782,5.648v-8.6l-9.782-5.648Z" transform="translate(-759.068 -1562.522)"/><g transform="translate(29.103 37.235)"><line class="n" x1="5.376" y2="3.104"/><line class="n" x1="5.376" y2="3.104" transform="translate(0 1.339)"/><line class="n" x1="5.376" y2="3.104" transform="translate(0 2.678)"/><line class="n" x1="5.376" y2="3.104" transform="translate(0 4.017)"/><line class="n" x1="5.376" y2="3.104" transform="translate(0 5.356)"/></g><g transform="translate(19.321 37.235)"><line class="o" x1="5.376" y1="3.104"/><line class="o" x1="5.376" y1="3.104" transform="translate(0 1.339)"/><line class="o" x1="5.376" y1="3.104" transform="translate(0 2.678)"/><line class="o" x1="5.376" y1="3.104" transform="translate(0 4.017)"/><line class="o" x1="5.376" y1="3.104" transform="translate(0 5.356)"/></g><path class="g" d="M795.873,1584.885l-13.831,11.507-13.834-11.507,13.834-7.986Z" transform="translate(-755.138 -1552.452)"/><path class="k" d="M809.28,1561.2l-13.834-32.443v40.428Z" transform="translate(-768.544 -1528.753)"/><path class="j" d="M782.042,1569.182l-13.834-7.986,13.834-32.443Z" transform="translate(-755.138 -1528.753)"/></g><g transform="translate(788.904 1459.186)"><ellipse class="g" cx="8.807" cy="5.084" rx="8.807" ry="5.084" transform="translate(18.061 111.148) rotate(-0.36)"/><path class="h" d="M1135.859,1770.032v-29.238a3.215,3.215,0,0,1,1.885-2.614,10.045,10.045,0,0,1,9.076-.013,3.114,3.114,0,0,1,1.858,2.627h0v29.238h0a3.21,3.21,0,0,1-1.891,2.614,10.044,10.044,0,0,1-9.076.013,3.117,3.117,0,0,1-1.852-2.627Z" transform="translate(-1115.377 -1655.367)"/><path class="i" d="M1150.747,1777.26v-29.238a8.749,8.749,0,0,0,3.375-1.025,3.213,3.213,0,0,0,1.885-2.613v29.238a3.214,3.214,0,0,1-1.885,2.614,8.749,8.749,0,0,1-3.375,1.025" transform="translate(-1122.696 -1658.958)"/><path class="j" d="M1122.42,1720.544l-26.9-15.525,26.9-40.64Z" transform="translate(-1095.52 -1619.582)"/><path class="k" d="M1175.388,1705.02l-26.9-40.64v56.164Z" transform="translate(-1121.585 -1619.582)"/><path class="j" d="M1126.5,1687.365l-22.7-13.108,22.7-48.763Z" transform="translate(-1099.59 -1600.447)"/><path class="k" d="M1171.184,1674.257l-22.7-48.763v61.872Z" transform="translate(-1121.585 -1600.447)"/><path class="g" d="M1121.566,1682.662l-.315.683,13.831,11.151,13.831-11.151-.322-.683-13.509,7.8Z" transform="translate(-1108.182 -1628.58)"/><path class="g" d="M1108.5,1724.384l-.263.394,20.431,16.786,20.445-16.786-.263-.394-20.182,11.65Z" transform="translate(-1101.78 -1649.113)"/><path class="l" d="M1148.487,1650.428v8.6l9.785-5.648v-8.6Z" transform="translate(-1121.585 -1609.94)"/><path class="m" d="M1129.227,1653.383l9.772,5.648v-8.6l-9.772-5.648Z" transform="translate(-1112.111 -1609.94)"/><g transform="translate(29.103 37.235)"><line class="n" x1="5.376" y2="3.104"/><line class="n" x1="5.376" y2="3.104" transform="translate(0 1.339)"/><line class="n" x1="5.376" y2="3.104" transform="translate(0 2.678)"/><line class="n" x1="5.376" y2="3.104" transform="translate(0 4.017)"/><line class="n" x1="5.376" y2="3.104" transform="translate(0 5.356)"/></g><g transform="translate(19.321 37.235)"><line class="o" x1="5.376" y1="3.104"/><line class="o" x1="5.376" y1="3.104" transform="translate(0 1.339)"/><line class="o" x1="5.376" y1="3.104" transform="translate(0 2.678)"/><line class="o" x1="5.376" y1="3.104" transform="translate(0 4.017)"/><line class="o" x1="5.376" y1="3.104" transform="translate(0 5.356)"/></g><path class="g" d="M1148.913,1632.308l-13.831,11.506-13.831-11.506,13.831-7.992Z" transform="translate(-1108.182 -1599.869)"/><path class="k" d="M1162.318,1608.614l-13.831-32.443v40.423Z" transform="translate(-1121.585 -1576.17)"/><path class="j" d="M1135.082,1616.593l-13.831-7.979,13.831-32.443Z" transform="translate(-1108.182 -1576.17)"/></g><g transform="translate(655.6 1501.85)"><path class="p" d="M888.459,1846.987c.059,4.282-6.692,4.282-6.633,0C881.768,1842.679,888.519,1842.679,888.459,1846.987Z" transform="translate(-857.047 -1750.524)"/><path class="p" d="M891.63,1819.353c.066,4.3-6.686,4.3-6.627,0C884.944,1815.058,891.7,1815.058,891.63,1819.353Z" transform="translate(-858.61 -1736.929)"/><path class="p" d="M886.98,1839.041c.066,4.61-7.178,4.61-7.113,0C879.8,1834.431,887.046,1834.431,886.98,1839.041Z" transform="translate(-856.081 -1746.505)"/><path class="p" d="M883.338,1828.41c.079,5.149-8,5.149-7.927,0C875.339,1823.274,883.417,1823.274,883.338,1828.41Z" transform="translate(-853.891 -1741.078)"/><path class="p" d="M895.053,1826.711c.086,5.648-8.787,5.648-8.708,0C886.266,1821.063,895.139,1821.063,895.053,1826.711Z" transform="translate(-859.27 -1740.054)"/><path class="p" d="M879.994,1816.431c.079,5.306-8.255,5.306-8.176,0C871.739,1811.124,880.073,1811.124,879.994,1816.431Z" transform="translate(-852.119 -1735.12)"/><path class="p" d="M901.454,1807.424c-.033,7.579-11.546,7.579-11.578,0C889.909,1799.859,901.421,1799.859,901.454,1807.424Z" transform="translate(-861.008 -1729.854)"/><path class="p" d="M888.525,1803.584c-.033,7.579-11.545,7.565-11.578,0C876.979,1796.005,888.492,1796.005,888.525,1803.584Z" transform="translate(-854.646 -1727.957)"/><path class="p" d="M872.964,1800.985c-.033,7.566-11.553,7.566-11.585-.013C861.418,1793.406,872.931,1793.406,872.964,1800.985Z" transform="translate(-846.984 -1726.679)"/><path class="p" d="M886.019,1784.049c-.033,8.117-12.38,8.117-12.419,0C873.64,1775.919,885.986,1775.919,886.019,1784.049Z" transform="translate(-852.999 -1718.139)"/><path class="p" d="M890.069,1767.692c-.039,8.13-12.38,8.13-12.42,0C877.689,1759.574,890.036,1759.574,890.069,1767.692Z" transform="translate(-854.992 -1710.099)"/><path class="p" d="M901.454,1792.649c-.033,7.578-11.546,7.578-11.578,0C889.909,1785.083,901.421,1785.083,901.454,1792.649Z" transform="translate(-861.008 -1722.581)"/><path class="p" d="M867.7,1778.48c-.039,8.59-13.1,8.59-13.135,0C854.6,1769.891,867.657,1769.891,867.7,1778.48Z" transform="translate(-843.626 -1715.23)"/><path class="p" d="M877.148,1765.544c-.039,8.59-13.1,8.59-13.128,0C864.053,1756.966,877.109,1756.966,877.148,1765.544Z" transform="translate(-848.283 -1708.87)"/><path class="p" d="M873.94,1735.326c-.039,8.59-13.089,8.59-13.129,0C860.85,1726.737,873.907,1726.737,873.94,1735.326Z" transform="translate(-846.703 -1693.995)"/><path class="p" d="M908.576,1770.3c-.046,11.48-17.5,11.48-17.548,0C891.087,1758.835,908.53,1758.835,908.576,1770.3Z" transform="translate(-861.573 -1710.147)"/><path class="p" d="M866.023,1751.113c-.046,10.666-16.261,10.666-16.307,0C849.769,1740.448,865.977,1740.448,866.023,1751.113Z" transform="translate(-841.244 -1700.993)"/><path class="p" d="M907.118,1741.958c-.052,10.665-16.267,10.665-16.307,0C890.858,1731.293,907.066,1731.293,907.118,1741.958Z" transform="translate(-861.468 -1696.492)"/><path class="p" d="M853.706,1725.965c-.236,13.581-20.444,13.581-20.674,0C833.269,1712.371,853.477,1712.371,853.706,1725.965Z" transform="translate(-833.032 -1687.538)"/><path class="p" d="M925.832,1751.113c-.053,10.666-16.261,10.666-16.307,0C909.571,1740.448,925.786,1740.448,925.832,1751.113Z" transform="translate(-870.679 -1700.993)"/><path class="p" d="M892.5,1742.972c-.046,10.666-16.261,10.666-16.307,0C876.239,1732.307,892.453,1732.307,892.5,1742.972Z" transform="translate(-854.274 -1696.989)"/><path class="p" d="M924.259,1713.734c-.256,14.934-22.487,14.934-22.736,0C901.779,1698.786,924.01,1698.786,924.259,1713.734Z" transform="translate(-866.74 -1681.023)"/><path class="p" d="M861.442,1700.4c-.256,14.947-22.487,14.947-22.743,0C838.955,1685.456,861.186,1685.468,861.442,1700.4Z" transform="translate(-835.822 -1674.462)"/><path class="p" d="M898.567,1676.523c-.368,21.791-32.791,21.791-33.165,0C865.776,1654.732,898.2,1654.732,898.567,1676.523Z" transform="translate(-848.963 -1660.18)"/><path class="p" d="M891.327,1706.042c-.374,21.8-32.8,21.8-33.166,0C858.536,1684.25,890.953,1684.25,891.327,1706.042Z" transform="translate(-845.4 -1674.708)"/><g transform="translate(20.353 80.312)"><path class="q" d="M885.015,1818.321c-2.115,2.942,1.09,5.832,1.694,10.915,0,0,.079-2.233,1.458-2.614-.4,3.559,4.958,2.509-.125,8.275,0,0,.6.079,1.892-.972,0,0-.847,5.149-8.223,5.149,0,0-7.3.618-8.6-5.924,0,0,.788.762,1.379.7,0,0-1.918-3.914,1.924-8.537,0,0-.157,1.471,1,1.852C877.41,1827.161,876.72,1820.4,885.015,1818.321Z" transform="translate(-873.108 -1818.321)"/><path class="r" d="M880.107,1834.851s.085,1.642.946,2.18c0,0-.46-5.963,4.453-7.737-1.4,3.048,2.916,4.282,3.014,8.788a1.732,1.732,0,0,0,.768-1.945C895.514,1845.254,873.821,1849.759,880.107,1834.851Z" transform="translate(-875.983 -1823.721)"/></g></g><g transform="translate(713.239 1373.458)"><ellipse class="e" cx="5.138" cy="2.966" rx="5.138" ry="2.966" transform="translate(16.39 88.912) rotate(-0.36)"/><path class="f" d="M989.112,1585.334a2.511,2.511,0,0,0-1.491-2.1,8.055,8.055,0,0,0-7.27.007c-2.01,1.169-2.023,3.047-.02,4.2a7.8,7.8,0,0,0,4.564.815" transform="translate(-962.427 -1493.488)"/><ellipse class="g" cx="7.054" cy="4.073" rx="7.054" ry="4.073" transform="translate(14.467 89.027) rotate(-0.36)"/><path class="h" d="M978.837,1562.639V1539.22a2.617,2.617,0,0,1,1.517-2.095,8.061,8.061,0,0,1,7.264-.019,2.543,2.543,0,0,1,1.5,2.114h0v23.419h0a2.582,2.582,0,0,1-1.517,2.082,8.014,8.014,0,0,1-7.27.019,2.518,2.518,0,0,1-1.491-2.1Z" transform="translate(-962.427 -1470.79)"/><path class="i" d="M990.763,1568.428v-23.42a6.985,6.985,0,0,0,2.706-.827,2.585,2.585,0,0,0,1.517-2.089v23.42a2.585,2.585,0,0,1-1.517,2.089,6.991,6.991,0,0,1-2.706.828" transform="translate(-968.298 -1473.668)"/><path class="g" d="M989.622,1530.033l-21.548,12.446-21.548-12.446,21.548-12.438Z" transform="translate(-946.526 -1461.608)"/><path class="j" d="M968.075,1522.992l-21.548-12.439,21.548-32.541Z" transform="translate(-946.526 -1442.13)"/><path class="k" d="M1010.5,1510.553l-21.547-32.541v44.98Z" transform="translate(-967.408 -1442.13)"/><path class="f" d="M989.518,1513.609l-18.178,14.927-18.185-14.927,18.185-10.5Z" transform="translate(-949.789 -1454.485)"/><path class="j" d="M971.339,1496.427l-18.185-10.494,18.185-39.07Z" transform="translate(-949.789 -1426.8)"/><path class="k" d="M1007.138,1485.933l-18.185-39.07v49.564Z" transform="translate(-967.408 -1426.8)"/><path class="f" d="M989.386,1480.968l-14.134,11.394-14.139-11.394,14.139-8.156Z" transform="translate(-953.704 -1439.573)"/><path class="k" d="M1003.093,1458.594l-14.139-31.241v39.411Z" transform="translate(-967.408 -1417.198)"/><path class="j" d="M975.252,1466.764l-14.139-8.17,14.139-31.241Z" transform="translate(-953.704 -1417.198)"/><path class="g" d="M989.3,1452.318l-11.079,9.214-11.08-9.214,11.08-6.4Z" transform="translate(-956.67 -1426.334)"/><path class="k" d="M1000.033,1433.344l-11.079-25.988v32.378Z" transform="translate(-967.408 -1407.357)"/><path class="j" d="M978.216,1439.735l-11.08-6.39,11.08-25.988Z" transform="translate(-956.67 -1407.357)"/><path class="g" d="M967.393,1492.655l-.257.552,11.08,8.926,11.079-8.926-.256-.552-10.823,6.246Z" transform="translate(-956.67 -1449.335)"/><path class="g" d="M956.926,1526.072l-.21.322,16.366,13.444,16.379-13.444-.217-.322-16.162,9.332Z" transform="translate(-951.54 -1465.783)"/></g><g class="s" transform="translate(831.216 1467.872)"><path class="t" d="M1221.9,1593.28l-3.894,3.211a37.929,37.929,0,0,1,1.037,50.714l3.855,3.271a43,43,0,0,0-1-57.2Z" transform="translate(-1198.113 -1593.28)"/><path class="t" d="M1204.992,1647.7l2.9,2.457a32.467,32.467,0,0,0-1.1-43.667l-2.949,2.424a28.641,28.641,0,0,1,1.149,38.787Z" transform="translate(-1191.143 -1599.786)"/><path class="t" d="M1194.368,1648.074l2.181,1.852a24.509,24.509,0,0,0-1.189-33.454l-2.233,1.839a21.644,21.644,0,0,1,1.242,29.763Z" transform="translate(-1185.869 -1604.692)"/><path class="t" d="M1190.4,1637.571a16.326,16.326,0,0,1-4.072,10.8l1.649,1.405a18.511,18.511,0,0,0-1.287-25.731l-1.682,1.392A16.323,16.323,0,0,1,1190.4,1637.571Z" transform="translate(-1181.873 -1608.42)"/><path class="t" d="M1183.355,1640.4a12.24,12.24,0,0,1-3.12,8.2l1.248,1.058a13.979,13.979,0,0,0-1.359-19.873l-1.288,1.058A12.317,12.317,0,0,1,1183.355,1640.4Z" transform="translate(-1178.836 -1611.246)"/></g><g class="s" transform="translate(765.402 1467.872)"><path class="t" d="M1060.633,1593.28l3.894,3.211a37.928,37.928,0,0,0-1.037,50.714l-3.855,3.271a43.021,43.021,0,0,1,1-57.2Z" transform="translate(-1049.244 -1593.28)"/><path class="t" d="M1080.776,1647.7l-2.9,2.457a32.447,32.447,0,0,1,1.1-43.667l2.942,2.424a28.659,28.659,0,0,0-1.149,38.787Z" transform="translate(-1059.449 -1599.786)"/><path class="t" d="M1093.823,1648.074l-2.18,1.852a24.518,24.518,0,0,1,1.2-33.454l2.226,1.839a21.662,21.662,0,0,0-1.241,29.763Z" transform="translate(-1067.148 -1604.692)"/><path class="t" d="M1099.618,1637.571a16.326,16.326,0,0,0,4.072,10.8l-1.655,1.405a18.52,18.52,0,0,1,1.294-25.731l1.681,1.392A16.324,16.324,0,0,0,1099.618,1637.571Z" transform="translate(-1072.971 -1608.42)"/><path class="t" d="M1108.021,1640.4a12.274,12.274,0,0,0,3.12,8.2l-1.248,1.058a13.965,13.965,0,0,1,1.373-19.873l1.28,1.058A12.324,12.324,0,0,0,1108.021,1640.4Z" transform="translate(-1077.359 -1611.246)"/></g><g class="s" transform="translate(651.614 1444.952)"><path class="t" d="M868.25,1548.145l-3.9,3.218a37.927,37.927,0,0,1,1.044,50.72l3.849,3.257a43.014,43.014,0,0,0-.992-57.2Z" transform="translate(-844.458 -1548.145)"/><path class="t" d="M851.338,1602.564l2.9,2.463a32.466,32.466,0,0,0-1.1-43.668l-2.949,2.424a28.651,28.651,0,0,1,1.149,38.78Z" transform="translate(-837.489 -1554.645)"/><path class="t" d="M840.713,1602.934l2.187,1.859a24.518,24.518,0,0,0-1.2-33.454l-2.233,1.839a21.637,21.637,0,0,1,1.241,29.757Z" transform="translate(-832.215 -1559.558)"/><path class="t" d="M836.748,1592.424a16.268,16.268,0,0,1-4.072,10.8l1.648,1.405a18.5,18.5,0,0,0-1.281-25.718l-1.688,1.386A16.307,16.307,0,0,1,836.748,1592.424Z" transform="translate(-828.22 -1563.287)"/><path class="t" d="M829.707,1595.254a12.322,12.322,0,0,1-3.12,8.209l1.248,1.058a13.98,13.98,0,0,0-1.373-19.873l-1.281,1.051A12.325,12.325,0,0,1,829.707,1595.254Z" transform="translate(-825.182 -1566.111)"/></g><g class="s" transform="translate(585.801 1444.952)"><path class="t" d="M706.981,1548.145l3.894,3.218a37.942,37.942,0,0,0-1.041,50.72l-3.845,3.257a43,43,0,0,1,.992-57.2Z" transform="translate(-695.59 -1548.145)"/><path class="t" d="M727.122,1602.564l-2.9,2.463a32.452,32.452,0,0,1,1.107-43.668l2.942,2.424a28.651,28.651,0,0,0-1.149,38.78Z" transform="translate(-705.791 -1554.645)"/><path class="t" d="M740.179,1602.934l-2.187,1.859a24.506,24.506,0,0,1,1.2-33.454l2.23,1.839a21.636,21.636,0,0,0-1.241,29.757Z" transform="translate(-713.494 -1559.558)"/><path class="t" d="M745.963,1592.424a16.287,16.287,0,0,0,4.075,10.8l-1.652,1.405a18.494,18.494,0,0,1,1.287-25.718l1.688,1.386A16.3,16.3,0,0,0,745.963,1592.424Z" transform="translate(-719.316 -1563.287)"/><path class="t" d="M754.361,1595.254a12.306,12.306,0,0,0,3.12,8.209l-1.248,1.058a13.984,13.984,0,0,1,1.369-19.873l1.284,1.051A12.335,12.335,0,0,0,754.361,1595.254Z" transform="translate(-723.71 -1566.111)"/></g></g></svg>