<svg xmlns="http://www.w3.org/2000/svg" width="91.766" height="56" viewBox="56 709.5 91.766 56"><g data-name="Group 888"><g data-name="Group 735"><path d="M126.835 710.906v32.339H76.931v-32.339h49.904m1.406-1.406H75.526v35.151h52.715V709.5Z" fill="#333" fill-rule="evenodd" data-name="Path 3340"/><path d="m100.76 717.162 1.115-.813 1.111.813-.425-1.313 1.131-.812H102.3l-.425-1.329-.425 1.329h-1.397l1.128.812-.421 1.313Z" fill="#333" fill-rule="evenodd" data-name="Path 3341"/><path d="m95.003 718.706 1.114-.812 1.112.812-.424-1.312 1.13-.812h-1.393l-.427-1.332-.425 1.335-1.39-.003 1.128.812-.425 1.312Z" fill="#333" fill-rule="evenodd" data-name="Path 3342"/><path d="m91.902 719.474-.425 1.333-1.392-.003 1.127.813-.421 1.312 1.111-.809 1.115.81-.424-1.313 1.131-.813h-1.393l-.429-1.33Z" fill="#333" fill-rule="evenodd" data-name="Path 3343"/><path d="m90.36 727.863 1.109.817-.422-1.313 1.131-.812h-1.392l-.425-1.332-.432 1.335-1.39-.003 1.127.812-.42 1.313 1.115-.817Z" fill="#333" fill-rule="evenodd" data-name="Path 3344"/><path d="m92.33 732.321-.428-1.328-.424 1.328h-1.394l1.128.816-.421 1.31 1.11-.814 1.116.813-.425-1.309 1.132-.816H92.33Z" fill="#333" fill-rule="evenodd" data-name="Path 3345"/><path d="m96.548 736.542-.425-1.328-.428 1.332-1.393-.004 1.132.813-.422 1.312 1.111-.812 1.115.812-.424-1.312 1.131-.813h-1.397Z" fill="#333" fill-rule="evenodd" data-name="Path 3346"/><path d="m102.299 738.072-.425-1.332-.425 1.332h-1.396l1.131.81-.425 1.315 1.115-.813 1.115.813-.429-1.315 1.136-.81h-1.397Z" fill="#333" fill-rule="evenodd" data-name="Path 3347"/><path d="m108.05 736.542-.429-1.328-.429 1.332-1.386-.004 1.125.813-.421 1.312 1.111-.812 1.115.812-.425-1.312 1.135-.813h-1.397Z" fill="#333" fill-rule="evenodd" data-name="Path 3348"/><path d="m112.27 732.321-.428-1.328-.424 1.328h-1.39l1.128.816-.429 1.31 1.115-.814 1.115.813-.425-1.309 1.132-.816h-1.393Z" fill="#333" fill-rule="evenodd" data-name="Path 3349"/><path d="M115.19 726.538h-1.394l-.422-1.332-.43 1.332h-1.389l1.13.813-.429 1.312 1.118-.812 1.112.812-.424-1.312 1.128-.813Z" fill="#333" fill-rule="evenodd" data-name="Path 3350"/><path d="m110.728 722.91 1.115-.809 1.115.808-.425-1.312 1.131-.808h-1.393l-.428-1.335-.424 1.338-1.391-.003 1.129.808-.429 1.312Z" fill="#333" fill-rule="evenodd" data-name="Path 3351"/><path d="m107.637 715.25-.42 1.335-1.397-.003 1.131.813-.421 1.314 1.115-.816 1.107.816-.421-1.314 1.128-.813h-1.393l-.429-1.332Z" fill="#333" fill-rule="evenodd" data-name="Path 3352"/></g><g data-name="Group 737"><g data-name="Group 736"><path d="M59.45 763.153c-.6 0-1.116-.086-1.547-.26a2.859 2.859 0 0 1-1.072-.729 2.977 2.977 0 0 1-.627-1.103 4.556 4.556 0 0 1-.204-1.395v-5.493h1.612v5.34c0 .397.044.738.133 1.021.089.284.215.514.38.691.165.178.36.309.584.394.224.084.475.127.754.127.28 0 .533-.043.761-.127.229-.085.425-.216.59-.394.165-.177.292-.407.38-.69.09-.284.134-.625.134-1.022v-5.34h1.61v5.493c0 .507-.07.972-.209 1.395-.14.422-.35.79-.634 1.103a2.842 2.842 0 0 1-1.084.73c-.44.173-.96.26-1.56.26Z" fill="#333" fill-rule="evenodd" data-name="Path 3353"/><path d="M64.829 756.723a10.316 10.316 0 0 1 2.727-.355c.54 0 .993.073 1.356.222.364.147.654.355.87.621.215.266.367.588.456.964.089.376.133.788.133 1.236v3.73h-1.534v-3.488c0-.355-.024-.658-.07-.907a1.6 1.6 0 0 0-.229-.609.913.913 0 0 0-.43-.342 1.82 1.82 0 0 0-.667-.108c-.194 0-.397.012-.609.038a12.35 12.35 0 0 0-.469.063v5.353H64.83v-6.418Z" fill="#333" fill-rule="evenodd" data-name="Path 3354"/><path d="M73.885 754.566c0 .288-.093.517-.28.686a.95.95 0 0 1-.66.253.965.965 0 0 1-.671-.253c-.186-.17-.28-.398-.28-.686 0-.295.094-.528.28-.697a.965.965 0 0 1 .672-.254.95.95 0 0 1 .66.254c.186.17.279.402.279.697Zm-.165 8.575h-1.535v-6.634h1.535v6.634Z" fill="#333" fill-rule="evenodd" data-name="Path 3355"/><path d="M77.804 756.215c.507 0 .934.064 1.28.19.347.127.624.305.831.533.207.229.355.506.444.831.089.326.133.683.133 1.072v4.02c-.237.051-.594.113-1.071.185a10.96 10.96 0 0 1-1.617.107c-.398 0-.761-.038-1.092-.114a2.292 2.292 0 0 1-.843-.367 1.74 1.74 0 0 1-.545-.66c-.132-.27-.197-.605-.197-1.002 0-.38.074-.702.222-.964a1.82 1.82 0 0 1 .603-.64c.253-.166.547-.284.881-.356a4.964 4.964 0 0 1 1.58-.076c.185.021.384.057.596.108v-.253c0-.178-.022-.347-.064-.508a1.053 1.053 0 0 0-.222-.425 1.043 1.043 0 0 0-.419-.285 1.811 1.811 0 0 0-.653-.102c-.355 0-.68.026-.976.076-.296.051-.537.11-.723.178l-.19-1.243c.194-.068.477-.135.85-.203.371-.068.768-.102 1.192-.102Zm.126 5.72c.473 0 .833-.025 1.079-.076v-1.699a3.372 3.372 0 0 0-.9-.114c-.17 0-.342.012-.515.038-.173.025-.33.072-.47.14a.85.85 0 0 0-.335.285.795.795 0 0 0-.127.463c0 .364.114.615.342.754.229.14.537.21.926.21Z" fill="#333" fill-rule="evenodd" data-name="Path 3356"/><path d="M85.249 763.14v-8.789h5.644v1.357h-4.046v2.169h3.602v1.332h-3.602v2.575h4.35v1.357H85.25Z" fill="#333" fill-rule="evenodd" data-name="Path 3357"/><path d="M97.754 762.798c-.296.076-.68.155-1.153.235-.474.08-.994.12-1.56.12-.533 0-.98-.076-1.339-.228a2.14 2.14 0 0 1-.862-.634 2.499 2.499 0 0 1-.463-.97 5.15 5.15 0 0 1-.14-1.237v-3.716h1.535v3.475c0 .71.104 1.218.31 1.522.208.304.57.456 1.085.456.186 0 .383-.008.59-.025.207-.017.361-.038.463-.063v-5.365h1.534v6.43Z" fill="#333" fill-rule="evenodd" data-name="Path 3358"/><path d="M103.412 757.89a4.912 4.912 0 0 0-.527-.134 3.876 3.876 0 0 0-.78-.07c-.169 0-.349.018-.539.051-.19.034-.323.064-.4.09v5.314h-1.534v-6.317c.296-.11.666-.213 1.11-.31a6.928 6.928 0 0 1 1.477-.146c.101 0 .22.006.356.019.134.012.27.03.405.05a5.309 5.309 0 0 1 .698.159l-.266 1.294Z" fill="#333" fill-rule="evenodd" data-name="Path 3359"/><path d="M110.666 759.653c0 .524-.076 1.002-.228 1.433-.152.431-.368.8-.647 1.103a2.9 2.9 0 0 1-1.008.71c-.393.17-.827.254-1.3.254-.474 0-.905-.084-1.294-.253a2.915 2.915 0 0 1-1.002-.71 3.244 3.244 0 0 1-.653-1.104 4.175 4.175 0 0 1-.235-1.433c0-.524.078-1 .235-1.427.156-.427.376-.793.66-1.097a2.911 2.911 0 0 1 1.008-.704c.389-.165.816-.248 1.281-.248.465 0 .894.083 1.287.248.393.165.73.4 1.009.704.279.304.496.67.653 1.097.156.427.234.903.234 1.427Zm-1.572 0c0-.66-.142-1.182-.425-1.567-.284-.384-.679-.577-1.186-.577-.507 0-.903.193-1.186.577-.283.385-.425.907-.425 1.567 0 .668.142 1.196.425 1.585.283.39.679.583 1.186.583.507 0 .902-.194 1.186-.583.283-.389.425-.917.425-1.585Z" fill="#333" fill-rule="evenodd" data-name="Path 3360"/><path d="M118.15 759.83c0 .507-.066.973-.197 1.395-.131.424-.319.787-.564 1.091a2.512 2.512 0 0 1-.92.71 2.96 2.96 0 0 1-1.249.254 3.217 3.217 0 0 1-1.51-.368v2.575h-1.534v-8.764c.313-.085.697-.165 1.154-.241a8.806 8.806 0 0 1 1.446-.114c.524 0 .993.08 1.408.24.414.162.767.391 1.059.692.292.3.515.664.672 1.09.157.428.235.908.235 1.44Zm-1.573.026c0-.685-.155-1.218-.463-1.598-.309-.381-.805-.571-1.49-.571-.144 0-.294.006-.45.019-.157.013-.311.04-.464.082v3.792c.136.093.315.18.54.26.223.08.463.121.716.121.558 0 .966-.19 1.224-.57.258-.381.387-.893.387-1.535Z" fill="#333" fill-rule="evenodd" data-name="Path 3361"/><path d="M119.29 759.703c0-.583.088-1.095.261-1.534a3.21 3.21 0 0 1 .691-1.097 2.86 2.86 0 0 1 .99-.66 3.066 3.066 0 0 1 1.141-.222c.913 0 1.625.284 2.138.85.51.567.767 1.412.767 2.537a7.385 7.385 0 0 1-.026.57h-4.376c.043.533.23.945.565 1.237.334.292.818.437 1.452.437.372 0 .712-.033 1.021-.101.309-.068.552-.14.73-.215l.203 1.255a2.467 2.467 0 0 1-.35.133 4.833 4.833 0 0 1-.507.127c-.19.038-.395.07-.615.095-.22.026-.444.038-.672.038-.584 0-1.091-.086-1.522-.26a2.83 2.83 0 0 1-1.065-.723 2.954 2.954 0 0 1-.622-1.09 4.449 4.449 0 0 1-.203-1.377Zm4.453-.684c0-.212-.03-.413-.089-.603a1.46 1.46 0 0 0-.26-.495 1.234 1.234 0 0 0-.419-.33 1.336 1.336 0 0 0-.59-.12c-.236 0-.443.045-.62.133a1.403 1.403 0 0 0-.45.35 1.586 1.586 0 0 0-.286.494 2.67 2.67 0 0 0-.14.57h2.854Z" fill="#333" fill-rule="evenodd" data-name="Path 3362"/><path d="M125.975 765.5c-.11 0-.264-.01-.462-.032a2.061 2.061 0 0 1-.527-.12l.203-1.256c.186.059.41.088.672.088.356 0 .605-.103.749-.31.143-.207.216-.518.216-.932v-6.43h1.534v6.455c0 .862-.205 1.501-.615 1.915-.41.414-1 .622-1.77.622Zm2.55-10.934c0 .288-.093.517-.279.686a.95.95 0 0 1-.66.253.964.964 0 0 1-.672-.253c-.186-.17-.279-.398-.279-.686 0-.295.093-.528.28-.697a.964.964 0 0 1 .671-.254.95.95 0 0 1 .66.254c.186.17.28.402.28.697Z" fill="#333" fill-rule="evenodd" data-name="Path 3363"/><path d="M131.899 761.885c.405 0 .7-.049.887-.146.186-.097.28-.264.28-.5 0-.22-.1-.403-.299-.546-.199-.144-.526-.3-.983-.47a7.884 7.884 0 0 1-.767-.323 2.614 2.614 0 0 1-.603-.4 1.634 1.634 0 0 1-.4-.552 1.924 1.924 0 0 1-.145-.792c0-.609.224-1.089.672-1.44.448-.35 1.057-.526 1.827-.526.388 0 .76.036 1.116.108.355.072.62.141.799.21l-.28 1.242a3.728 3.728 0 0 0-.646-.209 3.9 3.9 0 0 0-.913-.095c-.313 0-.567.053-.761.158a.521.521 0 0 0-.292.489c0 .11.02.207.057.291a.62.62 0 0 0 .197.235c.092.072.215.144.368.216.152.072.338.145.558.221.363.136.672.27.926.4.253.131.462.279.627.444.165.165.286.353.362.564.076.212.114.465.114.761 0 .634-.235 1.114-.704 1.44-.469.326-1.14.488-2.01.488-.584 0-1.053-.048-1.408-.145a7.174 7.174 0 0 1-.748-.235l.266-1.281c.228.093.5.181.818.266.317.085.679.127 1.085.127Z" fill="#333" fill-rule="evenodd" data-name="Path 3364"/><path d="M137.492 759.095c.194-.203.402-.42.621-.653a57.154 57.154 0 0 0 1.738-1.934h1.814c-.423.473-.869.963-1.339 1.47a69.75 69.75 0 0 1-1.413 1.485c.253.21.52.467.798.767.28.3.55.62.812.957.262.339.508.677.736 1.015.228.338.418.652.57.939h-1.775a13.039 13.039 0 0 0-.526-.825 10.95 10.95 0 0 0-.641-.837c-.228-.27-.46-.526-.697-.767a5.962 5.962 0 0 0-.698-.615v3.044h-1.535v-8.536l1.535-.254v4.744Z" fill="#333" fill-rule="evenodd" data-name="Path 3365"/><path d="M145.077 756.215c.507 0 .934.064 1.28.19.347.127.624.305.832.533.207.229.355.506.444.831.089.326.133.683.133 1.072v4.02c-.237.051-.594.113-1.072.185-.478.072-1.017.107-1.617.107a4.86 4.86 0 0 1-1.091-.114 2.292 2.292 0 0 1-.843-.367 1.736 1.736 0 0 1-.546-.66c-.131-.27-.197-.605-.197-1.002 0-.38.075-.702.222-.964a1.83 1.83 0 0 1 .603-.64c.254-.166.547-.284.881-.356a4.967 4.967 0 0 1 1.58-.076c.185.021.384.057.596.108v-.253c0-.178-.022-.347-.063-.508a1.06 1.06 0 0 0-.223-.425 1.04 1.04 0 0 0-.418-.285 1.81 1.81 0 0 0-.653-.102c-.356 0-.68.026-.977.076-.296.051-.537.11-.723.178l-.19-1.243c.195-.068.478-.135.85-.203a6.652 6.652 0 0 1 1.192-.102Zm.127 5.72c.473 0 .832-.025 1.078-.076v-1.699a3.365 3.365 0 0 0-.9-.114c-.17 0-.341.012-.514.038-.174.025-.33.072-.47.14a.854.854 0 0 0-.336.285.799.799 0 0 0-.127.463c0 .364.115.615.343.754.228.14.537.21.926.21Z" fill="#333" fill-rule="evenodd" data-name="Path 3366"/></g></g></g></svg>