<?xml version="1.0" encoding="utf-8"?>
<!-- Generator: Adobe Illustrator 24.3.0, SVG Export Plug-In . SVG Version: 6.00 Build 0)  -->
<svg version="1.1" id="Warstwa_1" xmlns="http://www.w3.org/2000/svg" xmlns:xlink="http://www.w3.org/1999/xlink" x="0px" y="0px"
	 viewBox="0 0 48 48" style="enable-background:new 0 0 48 48;" xml:space="preserve">
<style type="text/css">
	.st0{fill:#29400C;}
	.st1{fill:#FFFFFF;}
</style>
<g>
	<path class="st0" d="M24,48L24,48C10.7,48,0,37.3,0,24v0C0,10.7,10.7,0,24,0h0c13.3,0,24,10.7,24,24v0C48,37.3,37.3,48,24,48z"/>
	<g>
		<path class="st1" d="M26.1,39.8c-0.7,0.1-1.3,0.2-2,0.2h0c-0.1-0.5-0.2-1.1-0.2-1.7c0-1.6,0.6-3.1,1.6-4.2
			c1.1-1.3,2.8-2.1,4.7-2.1c1.7,0,3.3,0.7,4.4,1.8l0,0c-0.3,0.6-0.7,1.1-1.2,1.7c0,0-0.1-0.1-0.1-0.1c-0.8-0.9-1.9-1.4-3.2-1.4
			c-1.3,0-2.4,0.5-3.2,1.4c-0.7,0.8-1.1,1.8-1.1,2.9C25.9,38.8,26,39.3,26.1,39.8"/>
		<path class="st1" d="M19.9,39.3c0.7,0.2,1.4,0.4,2.1,0.5l0,0c-0.1-0.5-0.1-1-0.1-1.5c0-2.1,0.8-4.1,2.1-5.5
			c1.5-1.7,3.7-2.7,6.1-2.7c2,0,3.9,0.7,5.3,1.9l0,0c0.2-0.7,0.4-1.3,0.6-2.1l0,0c-1.7-1.2-3.7-1.9-5.9-1.9c-3,0-5.7,1.3-7.6,3.4
			c-1.6,1.8-2.6,4.2-2.6,6.9C19.9,38.7,19.9,39,19.9,39.3"/>
		<path class="st1" d="M36.2,27.7c-1.8-1-3.9-1.6-6.1-1.6c-3.6,0-6.8,1.6-9.1,4c-2,2.2-3.2,5-3.2,8.2c0,0,0,0,0,0.1l0,0
			C17.2,38,16.6,37.5,16,37c-2.6-2.2-4.2-5.6-4.2-9.3c0-2.4,0.7-4.6,1.8-6.4l0,0c1-1.8,1.5-3.8,1.5-5.9c0-2.8-0.9-5.3-2.5-7.4l0,0
			c5.8,0.3,11,3.1,14.5,7.3c0.6-1,1-2.2,1.3-3.3C33.2,15.6,36.2,21.3,36.2,27.7"/>
		<path class="st1" d="M28.1,39.3c1.5-0.5,2.8-1.3,4-2.3c-0.4-0.6-1.1-1-1.9-1c-1.3,0-2.3,1-2.3,2.3C27.9,38.7,27.9,39,28.1,39.3"/>
	</g>
</g>
</svg>
