<?xml version="1.0" encoding="utf-8"?>
<!-- Generator: Adobe Illustrator 26.5.0, SVG Export Plug-In . SVG Version: 6.00 Build 0)  -->
<svg version="1.1" id="Warstwa_1" xmlns="http://www.w3.org/2000/svg" xmlns:xlink="http://www.w3.org/1999/xlink" x="0px" y="0px"
	 viewBox="0 0 32 32" style="enable-background:new 0 0 32 32;" xml:space="preserve">
<style type="text/css">
	.st0{fill:#6B8656;}
	.st1{fill:#FFFFFF;}
	.st2{fill:#333333;}
</style>
<g>
	<path class="st0" d="M27.6,19.2L27.6,19.2l-6.2-7.1l-0.7-0.9h2.6c0.1,0,0.3,0,0.4-0.1c0.3-0.2,0.3-0.6,0.1-0.8l-3.6-4.9l-3.8-5.2
		c0-0.1-0.1-0.1-0.1-0.1c-0.3-0.2-0.6-0.1-0.8,0.1l-3.8,5.2l-3.6,4.9c-0.1,0.1-0.1,0.2-0.1,0.4c0,0.3,0.3,0.6,0.6,0.6h2.6l-0.7,0.9
		l-6.2,7.1l0,0c0,0,0,0,0,0c-0.4,0.4-0.4,1.2,0,1.6l10.8,10.8c0.4,0.4,1.2,0.4,1.6,0l10.8-10.8h0c0.1-0.1,0.1-0.1,0.2-0.2
		C28.1,20.2,28,19.6,27.6,19.2z"/>
	<path id="Path_3451_00000123401975477859741290000017804914374625098665_" class="st1" d="M22.4,19.8c0,3.5-2.9,6.4-6.4,6.4
		c-3.5,0-6.4-2.9-6.4-6.4c0-3.5,2.9-6.4,6.4-6.4l0,0C19.5,13.4,22.4,16.3,22.4,19.8"/>
	<path class="st2" d="M16,14.5c-1.1,0-2.2,0.4-3,1c0.1,0,0.3-0.1,0.4-0.1c0.8,0,1.5,0.7,1.5,1.5c0,0.8-0.7,1.5-1.5,1.5
		c-0.8,0-1.5-0.7-1.5-1.5c0-0.2,0-0.4,0.1-0.5c-0.8,0.9-1.3,2.1-1.3,3.4c0,2.9,2.4,5.3,5.3,5.3s5.3-2.4,5.3-5.3S18.9,14.5,16,14.5z
		 M16,20.9c-0.6,0-1-0.5-1-1c0-0.6,0.5-1,1-1c0.6,0,1,0.5,1,1C17,20.4,16.6,20.9,16,20.9z"/>
</g>
</svg>
