<svg xmlns="http://www.w3.org/2000/svg" width="238.959" height="72" viewBox="1.668 -8 238.959 72"><g data-name="Group 965" transform="translate(1.668 -8)" clip-path="url(&quot;#a&quot;)"><path d="M7.066 41.356c-1.165 0-2.3-.13-3.404-.391-1.105-.26-2.066-.652-2.883-1.174-.4-.26-.644-.582-.73-.965a1.696 1.696 0 0 1 .09-1.083 1.27 1.27 0 0 1 .705-.704c.322-.13.692-.065 1.11.195a8.893 8.893 0 0 0 2.425.992 11.25 11.25 0 0 0 2.687.313c1.374 0 2.374-.23 3-.692.627-.46.94-1.056.94-1.787 0-.608-.222-1.086-.665-1.434-.444-.348-1.205-.635-2.283-.861l-2.87-.6C1.918 32.469.283 30.79.283 28.13c0-1.148.304-2.148.913-3 .61-.853 1.452-1.514 2.531-1.983 1.078-.47 2.322-.705 3.73-.705 1.044 0 2.036.13 2.975.392.94.26 1.782.643 2.53 1.147.348.244.557.544.626.9.07.357.027.688-.13.992a1.242 1.242 0 0 1-.743.626c-.34.113-.735.04-1.188-.222a7.423 7.423 0 0 0-1.956-.782 9.272 9.272 0 0 0-2.14-.235c-1.2 0-2.139.252-2.817.756-.678.505-1.017 1.166-1.017 1.983 0 .626.208 1.126.626 1.5.417.374 1.13.665 2.139.874l2.844.6c1.721.365 3.004.94 3.848 1.722.843.783 1.265 1.826 1.265 3.13 0 1.096-.296 2.062-.887 2.897-.591.834-1.43 1.482-2.518 1.943-1.087.46-2.37.691-3.848.691" fill="#333" fill-rule="evenodd" data-name="Path 3436"/><path d="M18.754 41.304c-1.01 0-1.513-.522-1.513-1.565v-15.68c0-1.043.521-1.565 1.565-1.565.435 0 .778.083 1.03.248.252.166.483.448.692.848l6.026 11.14 6.027-11.14c.209-.4.434-.682.678-.848.244-.165.583-.248 1.018-.248 1.008 0 1.513.522 1.513 1.566v15.679c0 1.043-.505 1.565-1.513 1.565-1.01 0-1.514-.522-1.514-1.565V28.703l-4.904 8.949c-.174.296-.357.513-.548.652-.192.14-.453.209-.783.209s-.6-.074-.808-.222a1.915 1.915 0 0 1-.548-.64l-4.905-8.895v10.983c0 1.043-.505 1.565-1.513 1.565" fill="#333" fill-rule="evenodd" data-name="Path 3437"/><path d="M48.077 41.356c-1.774 0-3.326-.39-4.656-1.174-1.33-.782-2.361-1.882-3.092-3.3-.73-1.417-1.096-3.082-1.096-4.996 0-1.93.366-3.6 1.096-5.009.73-1.408 1.756-2.5 3.078-3.274 1.322-.773 2.879-1.16 4.67-1.16s3.348.387 4.67 1.16c1.322.774 2.348 1.866 3.079 3.274.73 1.41 1.095 3.07 1.095 4.983 0 1.93-.365 3.605-1.095 5.022-.73 1.418-1.757 2.518-3.079 3.3-1.322.783-2.879 1.174-4.67 1.174m0-2.87c1.687 0 3-.582 3.94-1.747.939-1.165 1.408-2.783 1.408-4.853 0-2.087-.465-3.704-1.395-4.852-.93-1.148-2.248-1.722-3.953-1.722-1.687 0-3 .574-3.939 1.722-.94 1.148-1.409 2.765-1.409 4.852 0 2.07.47 3.688 1.41 4.853.938 1.165 2.251 1.748 3.938 1.748" fill="#333" fill-rule="evenodd" data-name="Path 3438"/><path d="M61.982 41.304c-1.113 0-1.67-.574-1.67-1.722V24.19c0-1.13.557-1.696 1.67-1.696s1.67.566 1.67 1.696v6.653h.052l7.488-7.514a3.28 3.28 0 0 1 .834-.626c.279-.139.591-.209.94-.209.504 0 .865.13 1.082.392.218.26.305.565.261.913-.043.348-.213.67-.509.965l-6.86 6.783 7.226 7.33c.365.35.556.714.574 1.097.017.382-.1.7-.352.952-.253.252-.623.378-1.11.378-.417 0-.752-.087-1.004-.26a6.522 6.522 0 0 1-.874-.757l-7.696-7.696h-.052v6.991c0 1.148-.557 1.722-1.67 1.722" fill="#333" fill-rule="evenodd" data-name="Path 3439"/><path d="M79.435 41.096c-1.183 0-1.774-.592-1.774-1.774V24.477c0-1.182.591-1.774 1.774-1.774h9.314c.904 0 1.357.435 1.357 1.305 0 .904-.453 1.356-1.357 1.356H80.87v5.061h7.305c.904 0 1.357.444 1.357 1.33 0 .888-.453 1.331-1.357 1.331H80.87v5.349h7.879c.904 0 1.357.443 1.357 1.33s-.453 1.33-1.357 1.33h-9.314Z" fill="#333" fill-rule="evenodd" data-name="Path 3440"/><path d="M149.124 41.304c-1.148 0-1.722-.59-1.722-1.774V24.477c0-1.182.591-1.774 1.774-1.774h9.105c.904 0 1.356.435 1.356 1.305 0 .904-.452 1.356-1.356 1.356h-7.54v5.192h6.992c.904 0 1.357.435 1.357 1.304 0 .905-.453 1.357-1.357 1.357h-6.992v6.313c0 1.183-.539 1.774-1.617 1.774" fill="#333" fill-rule="evenodd" data-name="Path 3441"/><path d="M163.733 41.304c-1.113 0-1.67-.574-1.67-1.721V24.216c0-1.148.557-1.721 1.67-1.721s1.67.573 1.67 1.721v15.367c0 1.147-.557 1.721-1.67 1.721" fill="#333" fill-rule="evenodd" data-name="Path 3442"/><path d="M170.986 41.304c-1.044 0-1.565-.539-1.565-1.617V24.164c0-.539.134-.952.404-1.239.27-.287.622-.43 1.056-.43.4 0 .7.074.9.221.2.148.44.396.718.744l9.314 12.079V24.086c0-1.06.521-1.591 1.565-1.591 1.026 0 1.54.53 1.54 1.591v15.653c0 .487-.123.87-.366 1.148-.244.278-.574.417-.991.417-.4 0-.718-.078-.953-.234-.235-.157-.491-.409-.77-.757l-9.313-12.105v11.479c0 1.078-.513 1.617-1.54 1.617" fill="#333" fill-rule="evenodd" data-name="Path 3443"/><path d="M190.709 41.096c-1.183 0-1.775-.592-1.775-1.774V24.477c0-1.183.592-1.774 1.775-1.774h5.06c3.08 0 5.457.792 7.136 2.374 1.678 1.583 2.517 3.853 2.517 6.81 0 2.939-.839 5.208-2.517 6.808-1.679 1.6-4.057 2.4-7.135 2.4h-5.061Zm1.565-2.766h3.287c4.244 0 6.366-2.148 6.366-6.444 0-4.278-2.122-6.417-6.366-6.417h-3.287V38.33Z" fill="#333" fill-rule="evenodd" data-name="Path 3444"/><path d="M210.588 41.096c-1.183 0-1.774-.592-1.774-1.774V24.477c0-1.182.59-1.774 1.774-1.774h9.313c.904 0 1.357.435 1.357 1.305 0 .904-.453 1.356-1.357 1.356h-7.878v5.061h7.304c.904 0 1.357.444 1.357 1.33 0 .888-.453 1.331-1.357 1.331h-7.304v5.349h7.878c.904 0 1.357.443 1.357 1.33s-.453 1.33-1.357 1.33h-9.313Z" fill="#333" fill-rule="evenodd" data-name="Path 3445"/><path d="M226.058 41.304c-1.113 0-1.67-.574-1.67-1.722V24.4c0-1.13.565-1.696 1.696-1.696h6.287c2.018 0 3.575.483 4.67 1.448 1.096.965 1.644 2.318 1.644 4.057 0 1.374-.357 2.509-1.07 3.404-.713.896-1.739 1.5-3.078 1.814.887.278 1.617.948 2.191 2.008l1.957 3.627c.295.556.352 1.07.17 1.539-.183.47-.631.704-1.344.704-.47 0-.852-.1-1.148-.3-.296-.2-.557-.508-.783-.926l-2.634-4.852c-.313-.591-.683-.987-1.11-1.187-.426-.2-.97-.3-1.63-.3h-2.478v5.843c0 1.148-.557 1.722-1.67 1.722m1.67-10.044h4.07c2.434 0 3.652-.991 3.652-2.974 0-1.965-1.218-2.948-3.652-2.948h-4.07v5.922Z" fill="#333" fill-rule="evenodd" data-name="Path 3446"/><path d="m141.266 50.398-20.959 20.958a2.197 2.197 0 0 1-3.107 0L96.242 50.398a2.197 2.197 0 0 1 .38-3.412l22.132-13.966 22.13 13.966a2.197 2.197 0 0 1 .382 3.412" fill="#6b8656" fill-rule="evenodd" data-name="Path 3447"/><path d="M118.754 17.04h-8.5a1.16 1.16 0 0 1-1.004-1.739l4.25-7.36L117.75.58a1.16 1.16 0 0 1 2.008 0l4.25 7.36 4.25 7.361a1.16 1.16 0 0 1-1.005 1.74h-8.5Z" fill="#6b8656" fill-rule="evenodd" data-name="Path 3448"/><path d="M118.754 31.9h-14.156a1.16 1.16 0 0 1-.937-1.843l6.875-9.434 7.281-9.99a1.159 1.159 0 0 1 1.874 0l7.28 9.99 6.876 9.434a1.16 1.16 0 0 1-.937 1.842h-14.156Z" fill="#6b8656" fill-rule="evenodd" data-name="Path 3449"/><path d="m118.754 46.76-22.469.487 12.012-13.694 10.457-13.207 10.456 13.207 12.012 13.695-22.468-.489Z" fill="#6b8656" fill-rule="evenodd" data-name="Path 3450"/><path d="M131.075 48.454c0 6.805-5.516 12.321-12.321 12.321s-12.321-5.516-12.321-12.321 5.516-12.321 12.32-12.321c6.806 0 12.322 5.516 12.322 12.32" fill="#fff" fill-rule="evenodd" data-name="Path 3451"/><path d="M129.032 48.454c0 5.676-4.602 10.278-10.278 10.278-5.677 0-10.278-4.602-10.278-10.278 0-5.677 4.601-10.278 10.278-10.278 5.676 0 10.278 4.601 10.278 10.278" fill="#333" fill-rule="evenodd" data-name="Path 3452"/><path d="M120.758 48.454a2.005 2.005 0 1 1-4.009 0 2.005 2.005 0 0 1 4.01 0" fill="#fff" fill-rule="evenodd" data-name="Path 3453"/><path d="M116.596 42.866a2.945 2.945 0 1 1-5.89 0 2.945 2.945 0 0 1 5.89 0" fill="#fff" fill-rule="evenodd" data-name="Path 3454"/></g><defs><clipPath id="a"><path d="M0 0h238.959v72H0V0z" data-name="Rectangle 1650"/></clipPath></defs></svg>