<svg xmlns="http://www.w3.org/2000/svg" width="24" height="24" viewBox="0 0 24 24">
  <g id="_38-instagram" data-name="38-instagram" transform="translate(-3.7 -5.2)">
    <circle id="Ellipse_122" data-name="Ellipse 122" cx="2.146" cy="2.146" r="2.146" transform="translate(13.456 15.151)" fill="#fff"/>
    <path id="Path_3412" data-name="Path 3412" d="M25.251,19.2H19.885A2.369,2.369,0,0,0,17.3,21.785v5.366a2.689,2.689,0,0,0,.732,1.951,2.75,2.75,0,0,0,1.9.683h5.317a2.666,2.666,0,0,0,1.9-.683,2.5,2.5,0,0,0,.732-1.9V21.834a2.75,2.75,0,0,0-.683-1.9A2.612,2.612,0,0,0,25.251,19.2Zm-2.683,8.585a3.317,3.317,0,1,1,0-6.634,3.317,3.317,0,1,1,0,6.634Zm3.463-6a.78.78,0,1,1,.78-.78A.77.77,0,0,1,26.032,21.785Z" transform="translate(-6.966 -7.171)" fill="#fff"/>
    <path id="Path_3413" data-name="Path 3413" d="M15.7,5.2a12,12,0,1,0,12,12A11.991,11.991,0,0,0,15.7,5.2Zm6.39,14.829a3.867,3.867,0,0,1-1.073,2.78,3.8,3.8,0,0,1-2.732,1.024H12.968a3.8,3.8,0,0,1-2.732-1.024,3.675,3.675,0,0,1-1.073-2.78V14.663a3.61,3.61,0,0,1,3.8-3.8h5.366a3.6,3.6,0,0,1,3.756,3.8v5.366Z" transform="translate(0)" fill="#fff"/>
  </g>
</svg>
