<svg xmlns="http://www.w3.org/2000/svg" width="24" height="24.001" viewBox="0 0 24 24.001">
  <g id="_11-linkedin" data-name="11-linkedin" transform="translate(-3.722 -5.155)">
    <path id="Path_3409" data-name="Path 3409" d="M15.722,5.155a12,12,0,1,0,12,12A12,12,0,0,0,15.722,5.155Zm6.684,17.829a.978.978,0,0,1-.99.966H10a.978.978,0,0,1-.99-.966V11.44a.978.978,0,0,1,.99-.966H21.416a.979.979,0,0,1,.99.966V22.984Z" fill="#fff"/>
    <path id="Path_3410" data-name="Path 3410" d="M29.054,26.441a2.007,2.007,0,0,0-1.823,1v.02h-.013a.109.109,0,0,0,.013-.02v-.862H25.209c.027.57,0,6.084,0,6.084h2.022v-3.4a1.379,1.379,0,0,1,.067-.493,1.11,1.11,0,0,1,1.038-.741c.733,0,1.025.558,1.025,1.376v3.255h2.022V29.179C31.383,27.31,30.384,26.441,29.054,26.441Z" transform="translate(-11.016 -10.913)" fill="#fff"/>
    <path id="Path_3411" data-name="Path 3411" d="M19.66,20.712a1.055,1.055,0,1,0-.027,2.1h.013a1.055,1.055,0,1,0,.014-2.1Z" transform="translate(-7.584 -7.976)" fill="#fff"/>
    <rect id="Rectangle_1633" data-name="Rectangle 1633" width="2.023" height="6.084" transform="translate(11.051 15.671)" fill="#fff"/>
  </g>
</svg>
