<svg xmlns="http://www.w3.org/2000/svg" xmlns:xlink="http://www.w3.org/1999/xlink" viewBox="0 0 72 84">
  <defs>
    <filter id="Path_2940" x="19.256" y="13.685" width="33.577" height="33.576" filterUnits="userSpaceOnUse">
      <feOffset dy="2" input="SourceAlpha"/>
      <feGaussianBlur stdDeviation="2" result="blur"/>
      <feFlood flood-color="#4b612e" flood-opacity="0.6"/>
      <feComposite operator="in" in2="blur"/>
      <feComposite in="SourceGraphic"/>
    </filter>
    <filter id="Path_2941" x="5.511" y="0" width="60.979" height="75.517" filterUnits="userSpaceOnUse">
      <feOffset dy="2" input="SourceAlpha"/>
      <feGaussianBlur stdDeviation="2" result="blur-2"/>
      <feFlood flood-color="#4b612e" flood-opacity="0.6"/>
      <feComposite operator="in" in2="blur-2"/>
      <feComposite in="SourceGraphic"/>
    </filter>
    <filter id="Path_2942" x="13.142" y="55.69" width="45.716" height="28.31" filterUnits="userSpaceOnUse">
      <feOffset dy="2" input="SourceAlpha"/>
      <feGaussianBlur stdDeviation="2" result="blur-3"/>
      <feFlood flood-color="#4b612e" flood-opacity="0.6"/>
      <feComposite operator="in" in2="blur-3"/>
      <feComposite in="SourceGraphic"/>
    </filter>
  </defs>
  <g id="Group_833" data-name="Group 833" transform="translate(-5997.607 -2665.481)">
    <g id="Group_684" data-name="Group 684" transform="translate(6009.118 2669.481)">
      <g transform="matrix(1, 0, 0, 1, -11.51, -4)" filter="url(#Path_2940)">
        <path id="Path_2940-2" data-name="Path 2940" d="M6194.982,2792.158a10.788,10.788,0,1,1,10.788-10.788A10.8,10.8,0,0,1,6194.982,2792.158Zm0-18.269a7.48,7.48,0,1,0,7.479,7.48A7.489,7.489,0,0,0,6194.982,2773.889Z" transform="translate(-6158.94 -2752.9)" fill="#29400c"/>
      </g>
      <g transform="matrix(1, 0, 0, 1, -11.51, -4)" filter="url(#Path_2941)">
        <path id="Path_2941-2" data-name="Path 2941" d="M6107.137,2733l-.874-.545a60.048,60.048,0,0,1-11.778-10.28,50.9,50.9,0,0,1-8.111-12.071,37.665,37.665,0,0,1-3.726-16.131,24.49,24.49,0,1,1,48.979,0,37.694,37.694,0,0,1-3.726,16.131,50.932,50.932,0,0,1-8.111,12.071,60.111,60.111,0,0,1-11.778,10.28Zm0-60.209a21.206,21.206,0,0,0-21.182,21.182c0,11.241,5.948,20.307,10.938,25.933a60.112,60.112,0,0,0,10.243,9.155,60.107,60.107,0,0,0,10.244-9.155c4.989-5.626,10.938-14.692,10.938-25.933A21.205,21.205,0,0,0,6107.137,2672.79Z" transform="translate(-6071.14 -2665.48)" fill="#29400c"/>
      </g>
      <g transform="matrix(1, 0, 0, 1, -11.51, -4)" filter="url(#Path_2942)">
        <path id="Path_2942-2" data-name="Path 2942" d="M6144.12,3083.278a4.746,4.746,0,0,0-1.789,3.443c0,1.741,1.3,3.452,3.667,4.816,5.493,3.172,14.4,3.191,19.848.045,2.312-1.336,3.586-3.017,3.586-4.733a4.833,4.833,0,0,0-1.846-3.516c.756-.735,1.531-1.525,2.312-2.368a7.977,7.977,0,0,1,2.842,5.884c0,2.948-1.86,5.646-5.241,7.6a23.373,23.373,0,0,1-11.505,2.77h-.059a23.652,23.652,0,0,1-11.591-2.815c-3.43-1.98-5.32-4.708-5.32-7.681a7.9,7.9,0,0,1,2.789-5.814C6142.591,3081.751,6143.366,3082.542,6144.12,3083.278Z" transform="translate(-6119.88 -3021.22)" fill="#29400c"/>
      </g>
    </g>
    <rect id="Rectangle_223" data-name="Rectangle 223" width="72" height="72" transform="translate(5997.607 2669.481)" fill="none"/>
  </g>
</svg>
