<svg xmlns="http://www.w3.org/2000/svg" width="125.709" height="122.183" viewBox="1118.564 1607.83 125.709 122.183"><g data-name="CompositeLayer"><path d="M1138.925 1663.083s1.086 4.118 5.426 25.208c4.34 21.09 26.452 15.894 32.005 14.225 5.553-1.67 15.967-4.845 31.533-9.354 15.567-4.507 24.337-11.871 25.765-20.832 1.428-8.96-3.04-21.107-14.884-24.64-12.971-3.868-26.519-2.166-28.835-18.057-2.923-20.058-29.705-1.843-39.148 3.428-9.443 5.271-14.405 17.135-11.862 30.022" fill="#d5e3c3" fill-rule="evenodd" data-name="Path 3773"/><g data-name="Group 1024"><g data-name="Group 1023" transform="translate(1143.998 1647.58)" clip-path="url(&quot;#a&quot;)"><path d="M40.054 39.347c-6.62 0-11.987-5.367-11.987-11.987s5.366-11.987 11.987-11.987c6.62 0 11.987 5.367 11.987 11.987-.008 6.617-5.37 11.98-11.987 11.987m0-20.3a8.311 8.311 0 1 0 8.311 8.312 8.322 8.322 0 0 0-8.311-8.31v-.002Z" fill="#4c6539" fill-rule="evenodd" data-name="Path 3767"/><path d="M41.186 70.002a2.003 2.003 0 0 1-2.371 0l.214.141a66.752 66.752 0 0 1-13.087-11.422 56.516 56.516 0 0 1-9.012-13.412 41.836 41.836 0 0 1-4.14-17.924C12.694 12.357 24.799.097 39.827.001 54.855-.095 67.115 12.01 67.21 27.038v.347a41.865 41.865 0 0 1-4.14 17.924 56.567 56.567 0 0 1-9.012 13.412 66.813 66.813 0 0 1-13.086 11.422m-.971-66.294c-12.992.015-23.52 10.543-23.535 23.535 0 12.491 6.609 22.564 12.153 28.815a66.856 66.856 0 0 0 10.196 9.316c.701.517 1.67.517 2.371 0a66.864 66.864 0 0 0 10.197-9.316c5.543-6.251 12.152-16.324 12.152-28.815C63.52 14.393 52.992 3.865 40.001 3.85v-.001Z" fill="#4c6539" fill-rule="evenodd" data-name="Path 3768"/><path d="M26.207 63.969c.379.38.381.975.028 1.379a5.27 5.27 0 0 0-1.292 3.163c0 1.935 1.447 3.835 4.074 5.352 6.1 3.524 16 3.546 22.054.05 2.569-1.484 3.985-3.352 3.985-5.259a5.366 5.366 0 0 0-1.345-3.244 1.003 1.003 0 0 1 .025-1.384c.379-.379.761-.77 1.145-1.173a1.01 1.01 0 0 1 1.469 0 8.87 8.87 0 0 1 2.381 5.801c0 3.276-2.067 6.274-5.824 8.442a25.97 25.97 0 0 1-12.784 3.077h-.065a26.284 26.284 0 0 1-12.879-3.127c-3.812-2.2-5.911-5.231-5.911-8.534a8.778 8.778 0 0 1 2.323-5.715 1.01 1.01 0 0 1 1.473-.002c.383.403.765.794 1.143 1.174" fill="#4c6539" fill-rule="evenodd" data-name="Path 3769"/></g></g></g><defs><clipPath id="a"><path d="M0 0h80v80.178H0V0z" data-name="Rectangle 1672"/></clipPath></defs></svg>