<?xml version="1.0" encoding="utf-8"?>
<!-- Generator: Adobe Illustrator 23.0.1, SVG Export Plug-In . SVG Version: 6.00 Build 0)  -->
<svg version="1.1" id="Warstwa_1" xmlns="http://www.w3.org/2000/svg" xmlns:xlink="http://www.w3.org/1999/xlink" x="0px" y="0px"
	 viewBox="0 0 206.9 207.6" style="enable-background:new 0 0 206.9 207.6;" xml:space="preserve">
<style type="text/css">
	.st0{clip-path:url(#SVGID_1_);}
	.st1{fill-rule:evenodd;clip-rule:evenodd;fill:#D5E3C3;}
	.st2{fill-rule:evenodd;clip-rule:evenodd;fill:#4C6539;}
</style>
<g>
	<g>
		<g>
			<g>
				<defs>
					<path id="SVGID_3_" d="M190.3,97.3c-0.7-13.5-15.8-22.1-36.7-38.5c-20.7-16.3-28.8-24.2-36.8-38.3c-7.6-13.4-19.7-15-29.9-5
						c-10.2,10-20.3,25.9-26.1,38.1c-24,51.2-17.9,84.9-6.4,102.9c11.5,18,25.6,9,46.2-5.9c16.6-12.1,37.3-20.3,59.1-23.5
						C182.6,123.7,191,110.8,190.3,97.3"/>
				</defs>
				<clipPath id="SVGID_1_">
					<use xlink:href="#SVGID_3_"  style="overflow:visible;"/>
				</clipPath>
				<g transform="translate(-.035 -.174)" class="st0">
					<path class="st1" d="M71.3-13.2l160.2,68.4l-97.1,167.2L-25.8,154L71.3-13.2z"/>
				</g>
			</g>
		</g>
	</g>
	<g>
		<g>
			<g>
				<g>
					<path class="st2" d="M92.8,125.2h-2.8c-1,0-1.6,0.6-1.6,1.6v28.1c0,1-0.6,1.6-1.6,1.6h-1.3c-1.3,0-2.1,1.3-1.5,2.4l6,10.4
						c0.6,1.1,2.1,1.1,2.8,0l6-10.4c0.6-1.1-0.2-2.4-1.5-2.4h-1.3c-1,0-1.6-0.6-1.6-1.6v-28.1C94.4,125.9,93.6,125.2,92.8,125.2z"/>
				</g>
				<g>
					<path class="st2" d="M146.2,125.2h-2.8c-1,0-1.6,0.6-1.6,1.6v28.1c0,1-0.6,1.6-1.6,1.6h-1.3c-1.3,0-2.1,1.3-1.5,2.4l6,10.4
						c0.6,1.1,2.1,1.1,2.8,0l6-10.4c0.6-1.1-0.2-2.4-1.5-2.4h-1.3c-1,0-1.6-0.6-1.6-1.6v-28.1C147.9,125.9,147.2,125.2,146.2,125.2z
						"/>
				</g>
				<g>
					<path class="st2" d="M126.9,149.7c3.4-0.6,6.8-1.6,10.1-2.9c0.6-0.3,1-0.8,1-1.5v-2.9c0-1.1-1.1-1.9-2.3-1.5
						c-2.9,1.3-6.2,2.3-9.4,2.9c-0.8,0.2-1.3,0.8-1.3,1.6v2.8C125,149.1,125.9,149.9,126.9,149.7L126.9,149.7z"/>
				</g>
				<g>
					<path class="st2" d="M109.9,143.9c-3.2-0.6-6.3-1.6-9.4-2.9c-1.1-0.5-2.3,0.3-2.3,1.5v2.9c0,0.6,0.3,1.3,1,1.5
						c3.2,1.3,6.7,2.3,10.1,2.9c1,0.2,1.9-0.6,1.9-1.6v-2.8C111.3,144.7,110.7,144,109.9,143.9L109.9,143.9z"/>
				</g>
				<g>
					<path class="st2" d="M121.1,134V125c0.6-0.2,1.3-0.2,2.1-0.3c1.6-0.3,3.2-1,4.7-1.6s2.8-1.6,3.9-2.9c1.1-1.1,1.9-2.6,2.6-4.1
						c0.6-1.6,1-3.4,1-5.2c0-1.6-0.3-3.2-1-4.9c-0.6-1.3-1.6-2.6-2.8-3.6c-1.1-1-2.4-1.9-3.7-2.6c-1.5-0.6-2.8-1.3-4.2-1.8
						c-1.5-0.5-2.9-1-4.2-1.3c-1.8-0.5-3.7-1.1-5.5-1.9c-1.5-0.6-2.8-1.6-3.9-2.8c-1-1.1-1.5-2.6-1.5-4.1c0-1.1,0.3-2.3,1-3.4
						c0.6-0.8,1.5-1.6,2.4-2.1c1-0.5,2.1-0.8,3.2-1.1c1.1-0.2,2.3-0.3,3.4-0.3c1.1,0,2.3,0.2,3.4,0.5c1,0.3,2.1,0.6,2.9,1.3
						c0.8,0.5,1.6,1.1,2.3,1.9c0.2,0.3,0.5,0.5,0.6,0.8c0.5,0.8,1.5,1,2.3,0.5l2.8-1.8c0.8-0.5,1-1.5,0.5-2.3
						c-0.6-0.8-1.3-1.6-2.1-2.3c-1.6-1.3-3.2-2.3-5.2-3.1c-1.5-0.5-3.1-1-4.7-1.1v-6.7c0-1-0.6-1.6-1.6-1.6H117
						c-1,0-1.6,0.6-1.6,1.6v6.7c-0.5,0-1,0.2-1.5,0.2c-1.6,0.3-3.1,0.8-4.5,1.5c-1.5,0.6-2.6,1.5-3.9,2.4c-1.1,1-1.9,2.1-2.6,3.6
						c-0.8,1.5-1.1,2.9-1.1,4.5c0,1.9,0.3,3.9,1.3,5.7c0.8,1.6,1.9,2.9,3.4,3.9c1.5,1.1,2.9,1.9,4.5,2.6c1.6,0.6,3.2,1.3,4.9,1.6
						c2.1,0.5,4.1,1.3,6.2,2.1c1.6,0.6,3.2,1.6,4.5,2.9c1.1,1.1,1.8,2.8,1.8,4.4c0,1.3-0.2,2.4-0.8,3.6c-0.5,1-1.3,1.9-2.1,2.6
						c-1,0.6-2.1,1.3-3.2,1.6c-1.3,0.3-2.8,0.5-4.2,0.5c-1.5,0-2.8-0.2-4.2-0.6c-1.1-0.3-2.3-0.8-3.4-1.5c-1.3-0.8-2.4-1.9-3.2-3.2
						c-0.5-0.8-1.5-1-2.3-0.5l-2.9,2.1c-0.8,0.5-1,1.6-0.3,2.3c0.8,1.1,1.6,1.9,2.8,2.8c1.8,1.5,3.7,2.4,5.8,3.1
						c1.6,0.5,3.2,1,5,1.1v37.8c0,1-0.6,1.6-1.6,1.6h-1.5c-1.3,0-1.9,1.3-1.5,2.4l6,11.2c0.6,1.1,2.3,1.1,2.9,0l6-11.2
						c0.6-1.1-0.2-2.4-1.5-2.4h-1.5c-1,0-1.6-0.6-1.6-1.6L121.1,134L121.1,134z"/>
				</g>
				<path class="st2" d="M118,56.5c-10.6,0-21.1,3.7-29.2,11c-17.9,16.1-19.5,42.7-4.9,60.7c0.2,0.3,0.3,0.6,0.3,1v4.2
					c0,1.5-1.8,2.3-2.8,1.1c-18.3-19.8-18-51,1.9-70.1c9.4-9.3,22.1-14,34.6-14s25,4.7,34.6,13.8c20,19.3,20.3,50.5,1.9,70.1
					c-1,1.1-2.8,0.3-2.8-1.1v-4.2c0-0.3,0.2-0.6,0.3-1c14.6-18,13-44.7-4.9-60.7C139.1,60.3,128.5,56.5,118,56.5"/>
			</g>
		</g>
	</g>
</g>
</svg>
