<svg xmlns="http://www.w3.org/2000/svg" xmlns:xlink="http://www.w3.org/1999/xlink" viewBox="0 0 56 68"><defs><style>.a{fill:#515151;}.b{fill:none;}.c{filter:url(#k);}.d{filter:url(#i);}.e{filter:url(#g);}.f{filter:url(#e);}.g{filter:url(#c);}.h{filter:url(#a);}</style><filter id="a" x="29.66" y="3.787" width="19.58" height="32.04" filterUnits="userSpaceOnUse"><feOffset dy="2" input="SourceAlpha"/><feGaussianBlur stdDeviation="2" result="b"/><feFlood flood-color="#515151" flood-opacity="0.6"/><feComposite operator="in" in2="b"/><feComposite in="SourceGraphic"/></filter><filter id="c" x="6.616" y="3.779" width="19.58" height="32.04" filterUnits="userSpaceOnUse"><feOffset dy="2" input="SourceAlpha"/><feGaussianBlur stdDeviation="2" result="d"/><feFlood flood-color="#515151" flood-opacity="0.6"/><feComposite operator="in" in2="d"/><feComposite in="SourceGraphic"/></filter><filter id="e" x="0.448" y="18.443" width="55.105" height="49.557" filterUnits="userSpaceOnUse"><feOffset dy="2" input="SourceAlpha"/><feGaussianBlur stdDeviation="2" result="f"/><feFlood flood-color="#515151" flood-opacity="0.6"/><feComposite operator="in" in2="f"/><feComposite in="SourceGraphic"/></filter><filter id="g" x="7.369" y="11.109" width="29.588" height="28.433" filterUnits="userSpaceOnUse"><feOffset dy="6" input="SourceAlpha"/><feGaussianBlur stdDeviation="4" result="h"/><feFlood flood-color="#515151" flood-opacity="0.6"/><feComposite operator="in" in2="h"/><feComposite in="SourceGraphic"/></filter><filter id="i" x="18.899" y="11.089" width="29.58" height="28.38" filterUnits="userSpaceOnUse"><feOffset dy="6" input="SourceAlpha"/><feGaussianBlur stdDeviation="4" result="j"/><feFlood flood-color="#515151" flood-opacity="0.6"/><feComposite operator="in" in2="j"/><feComposite in="SourceGraphic"/></filter><filter id="k" x="14.475" y="0" width="26.901" height="61.143" filterUnits="userSpaceOnUse"><feOffset dy="2" input="SourceAlpha"/><feGaussianBlur stdDeviation="2" result="l"/><feFlood flood-color="#515151" flood-opacity="0.6"/><feComposite operator="in" in2="l"/><feComposite in="SourceGraphic"/></filter></defs><g transform="translate(-3915.163 110.952)"><g transform="translate(3921.61 -106.952)"><g class="h" transform="matrix(1, 0, 0, 1, -6.45, -4)"><path class="a" d="M4256.384-50.94h2.573V-64.416h2.5l-3.79-6.565-3.79,6.565h2.5Z" transform="translate(-4218.22 78.77)"/></g><g class="g" transform="matrix(1, 0, 0, 1, -6.45, -4)"><path class="a" d="M4037.506-51.016h2.573V-64.492h2.5l-3.79-6.565L4035-64.492h2.5Z" transform="translate(-4022.39 78.84)"/></g><g class="f" transform="matrix(1, 0, 0, 1, -6.45, -4)"><path class="a" d="M4012.378,68.235v3.677a18.98,18.98,0,1,1-28.985.17V68.366a21.552,21.552,0,1,0,28.985-.131Z" transform="translate(-3969.96 -45.79)"/></g><g class="e" transform="matrix(1, 0, 0, 1, -6.45, -4)"><path class="a" d="M4104.731,17.568a21.367,21.367,0,0,0-5.588,1.59l.008,2.843a18.83,18.83,0,0,1,5.58-1.83Z" transform="translate(-4079.77 -0.46)"/></g><g class="d" transform="matrix(1, 0, 0, 1, -6.45, -4)"><path class="a" d="M4208.66,19.978a18.838,18.838,0,0,1,5.58,1.78V18.922a21.373,21.373,0,0,0-5.58-1.544Z" transform="translate(-4177.76 -0.29)"/></g><g class="c" transform="matrix(1, 0, 0, 1, -6.45, -4)"><path class="a" d="M4115.816-86.624v3.612c-.183.026-.364.057-.546.093a9.207,9.207,0,0,0-1.976.617,6.369,6.369,0,0,0-1.646,1.05,4.6,4.6,0,0,0-1.132,1.523,4.672,4.672,0,0,0-.412,2,5.027,5.027,0,0,0,.556,2.439,5.329,5.329,0,0,0,1.461,1.708,8.711,8.711,0,0,0,1.986,1.132,18.584,18.584,0,0,0,2.13.731,20.268,20.268,0,0,1,2.645.906,6.015,6.015,0,0,1,1.945,1.266,2.55,2.55,0,0,1,.741,1.863,3.479,3.479,0,0,1-.329,1.554,3.162,3.162,0,0,1-.916,1.122,4.043,4.043,0,0,1-1.389.679,6.588,6.588,0,0,1-1.791.226,6.177,6.177,0,0,1-1.8-.247,5.9,5.9,0,0,1-1.461-.659,4.715,4.715,0,0,1-1.091-.937,4.725,4.725,0,0,1-.689-1.06l-2.449,1.729a6.034,6.034,0,0,0,1.544,1.811,8.085,8.085,0,0,0,2.521,1.358,9.4,9.4,0,0,0,2.1.449v3.852h2.573v-3.867c.323-.04.642-.1.957-.167a8.664,8.664,0,0,0,2.038-.731,6.045,6.045,0,0,0,1.657-1.235,5.547,5.547,0,0,0,1.111-1.739,5.986,5.986,0,0,0,.4-2.264,4.756,4.756,0,0,0-.432-2.089,5.115,5.115,0,0,0-1.163-1.564,7.687,7.687,0,0,0-1.636-1.142,13.773,13.773,0,0,0-1.853-.8q-.946-.329-1.791-.556a17.7,17.7,0,0,1-2.356-.844,4.908,4.908,0,0,1-1.687-1.173,2.491,2.491,0,0,1-.628-1.729,2.461,2.461,0,0,1,.4-1.441,2.827,2.827,0,0,1,1.039-.906,4.9,4.9,0,0,1,1.379-.463,8.119,8.119,0,0,1,1.441-.134,5.492,5.492,0,0,1,1.482.2,5.1,5.1,0,0,1,1.276.545,4.3,4.3,0,0,1,.988.813,3.262,3.262,0,0,1,.617,1L4124-79.688a4.9,4.9,0,0,0-1.266-1.616,7.222,7.222,0,0,0-2.253-1.307,8.04,8.04,0,0,0-2.088-.466V-99.941h2.5l-3.79-7.011-3.79,7.011h2.5Z" transform="translate(-4089.18 110.95)"/></g></g><rect class="b" width="56" height="56" transform="translate(3915.163 -106.952)"/></g></svg>