<svg xmlns="http://www.w3.org/2000/svg" xmlns:xlink="http://www.w3.org/1999/xlink" viewBox="0 0 79.421 96">
  <defs>
    <filter id="Path_2914" x="8.117" y="41.365" width="33.746" height="49.766" filterUnits="userSpaceOnUse">
      <feOffset dy="6" input="SourceAlpha"/>
      <feGaussianBlur stdDeviation="4" result="blur"/>
      <feFlood flood-color="#4b612e" flood-opacity="0.6"/>
      <feComposite operator="in" in2="blur"/>
      <feComposite in="SourceGraphic"/>
    </filter>
    <filter id="Path_2915" x="37.743" y="41.375" width="33.746" height="49.766" filterUnits="userSpaceOnUse">
      <feOffset dy="6" input="SourceAlpha"/>
      <feGaussianBlur stdDeviation="4" result="blur-2"/>
      <feFlood flood-color="#4b612e" flood-opacity="0.6"/>
      <feComposite operator="in" in2="blur-2"/>
      <feComposite in="SourceGraphic"/>
    </filter>
    <filter id="Path_2916" x="0" y="0" width="79.421" height="72.287" filterUnits="userSpaceOnUse">
      <feOffset dy="6" input="SourceAlpha"/>
      <feGaussianBlur stdDeviation="4" result="blur-3"/>
      <feFlood flood-color="#4b612e" flood-opacity="0.6"/>
      <feComposite operator="in" in2="blur-3"/>
      <feComposite in="SourceGraphic"/>
    </filter>
    <filter id="Path_2917" x="31.623" y="49.446" width="31.185" height="29.699" filterUnits="userSpaceOnUse">
      <feOffset dy="6" input="SourceAlpha"/>
      <feGaussianBlur stdDeviation="4" result="blur-4"/>
      <feFlood flood-color="#4b612e" flood-opacity="0.6"/>
      <feComposite operator="in" in2="blur-4"/>
      <feComposite in="SourceGraphic"/>
    </filter>
    <filter id="Path_2918" x="16.809" y="49.54" width="31.174" height="29.631" filterUnits="userSpaceOnUse">
      <feOffset dy="6" input="SourceAlpha"/>
      <feGaussianBlur stdDeviation="4" result="blur-5"/>
      <feFlood flood-color="#4b612e" flood-opacity="0.6"/>
      <feComposite operator="in" in2="blur-5"/>
      <feComposite in="SourceGraphic"/>
    </filter>
    <filter id="Path_2919" x="18.13" y="9.187" width="43.158" height="86.813" filterUnits="userSpaceOnUse">
      <feOffset dy="6" input="SourceAlpha"/>
      <feGaussianBlur stdDeviation="4" result="blur-6"/>
      <feFlood flood-color="#4b612e" flood-opacity="0.6"/>
      <feComposite operator="in" in2="blur-6"/>
      <feComposite in="SourceGraphic"/>
    </filter>
  </defs>
  <g id="Group_832" data-name="Group 832" transform="translate(-4334.462 -620.147)">
    <g id="Group_672" data-name="Group 672" transform="translate(4346.462 626.147)">
      <g transform="matrix(1, 0, 0, 1, -12, -6)" filter="url(#Path_2914)">
        <path id="Path_2914-2" data-name="Path 2914" d="M4465.9,931.745H4462.6v17.326h-3.219l4.873,8.44,4.873-8.44H4465.9Z" transform="translate(-4439.26 -884.38)" fill="#29400c"/>
      </g>
      <g transform="matrix(1, 0, 0, 1, -12, -6)" filter="url(#Path_2915)">
        <path id="Path_2915-2" data-name="Path 2915" d="M4684.782,931.821h-3.308v17.326h-3.219l4.873,8.44,4.873-8.44h-3.219Z" transform="translate(-4628.51 -884.45)" fill="#29400c"/>
      </g>
      <g transform="matrix(1, 0, 0, 1, -12, -6)" filter="url(#Path_2916)">
        <path id="Path_2916-2" data-name="Path 2916" d="M4408.585,674.434v-4.727a24.4,24.4,0,1,1,37.267-.218v4.778a27.71,27.71,0,1,0-37.267.168Z" transform="translate(-4387.42 -620.15)" fill="#29400c"/>
      </g>
      <g transform="matrix(1, 0, 0, 1, -12, -6)" filter="url(#Path_2917)">
        <path id="Path_2917-2" data-name="Path 2917" d="M4633.036,997.146a27.484,27.484,0,0,0,7.185-2.044l-.011-3.655a24.22,24.22,0,0,1-7.174,2.353Z" transform="translate(-4589.41 -936)" fill="#29400c"/>
      </g>
      <g transform="matrix(1, 0, 0, 1, -12, -6)" filter="url(#Path_2918)">
        <path id="Path_2918-2" data-name="Path 2918" d="M4530.77,994.427a24.206,24.206,0,0,1-7.174-2.289v3.646a27.485,27.485,0,0,0,7.174,1.985Z" transform="translate(-4494.79 -936.6)" fill="#29400c"/>
      </g>
      <g transform="matrix(1, 0, 0, 1, -12, -6)" filter="url(#Path_2919)">
        <path id="Path_2919-2" data-name="Path 2919" d="M4544.688,731.063h0V726.08q.574-.077,1.138-.2a11.139,11.139,0,0,0,2.62-.939,7.773,7.773,0,0,0,2.13-1.588,7.136,7.136,0,0,0,1.429-2.236,7.7,7.7,0,0,0,.516-2.911,6.126,6.126,0,0,0-.555-2.686,6.588,6.588,0,0,0-1.5-2.011,9.91,9.91,0,0,0-2.1-1.469,17.738,17.738,0,0,0-2.382-1.032q-1.217-.423-2.3-.714a22.681,22.681,0,0,1-3.029-1.085,6.313,6.313,0,0,1-2.171-1.509,3.206,3.206,0,0,1-.807-2.223,3.16,3.16,0,0,1,.517-1.852,3.624,3.624,0,0,1,1.336-1.164,6.294,6.294,0,0,1,1.772-.6,10.44,10.44,0,0,1,1.853-.172,7.044,7.044,0,0,1,1.9.252,6.53,6.53,0,0,1,1.641.7,5.553,5.553,0,0,1,1.271,1.045,4.184,4.184,0,0,1,.792,1.284l3.044-2.038a6.3,6.3,0,0,0-1.628-2.077,9.284,9.284,0,0,0-2.9-1.68,10.267,10.267,0,0,0-2.593-.59v-4.571h-3.309v4.632c-.264.037-.529.08-.793.132a11.842,11.842,0,0,0-2.54.794,8.163,8.163,0,0,0-2.117,1.349,5.9,5.9,0,0,0-1.455,1.958,5.991,5.991,0,0,0-.53,2.567,6.456,6.456,0,0,0,.715,3.136,6.843,6.843,0,0,0,1.878,2.2,11.232,11.232,0,0,0,2.554,1.455,23.857,23.857,0,0,0,2.74.939,26.061,26.061,0,0,1,3.4,1.164,7.738,7.738,0,0,1,2.5,1.627,3.277,3.277,0,0,1,.952,2.4,4.462,4.462,0,0,1-.423,2,4.055,4.055,0,0,1-1.178,1.442,5.183,5.183,0,0,1-1.785.873,8.47,8.47,0,0,1-2.3.291,7.935,7.935,0,0,1-2.315-.318,7.6,7.6,0,0,1-1.879-.847,6.133,6.133,0,0,1-2.29-2.567l-3.148,2.223a7.765,7.765,0,0,0,1.983,2.329,10.406,10.406,0,0,0,3.243,1.747,12.15,12.15,0,0,0,2.791.586v3.19h0v18.505h-3.218l4.874,9.015,4.873-9.015h-3.219Z" transform="translate(-4503.23 -678.83)" fill="#29400c"/>
      </g>
    </g>
    <rect id="Rectangle_218" data-name="Rectangle 218" width="72" height="72" transform="translate(4338.172 626.147)" fill="none"/>
  </g>
</svg>
