<svg xmlns="http://www.w3.org/2000/svg" viewBox="0 0 76.998 48.718">
  <g id="Group_783" data-name="Group 783" transform="translate(-135.101 -577)">
    <text id="neuralbit" transform="translate(165.099 623.718)" fill="#333333" font-size="11" font-family="Ubuntu-Medium, Ubuntu" font-weight="500"><tspan x="0" y="0">neuralbit</tspan></text>
    <path id="Path_3368" data-name="Path 3368" d="M1420.816,1268.517a1.469,1.469,0,0,0-1.467-1.467,1.451,1.451,0,0,0-.922.335l-10.535-7.726a1.454,1.454,0,0,0,.106-.542,1.466,1.466,0,0,0-2.812-.583l-13.392-2.1a1.463,1.463,0,0,0-2.919.144,1.447,1.447,0,0,0,.049.356l-12.76,6.974a1.462,1.462,0,1,0-1.971,2.147l-3.991,9.077a1.465,1.465,0,1,0-.234,2.91c.048,0,.092-.01.139-.014l2.6,7.147a1.463,1.463,0,1,0,1.792,2.307l6.026,4.106a1.447,1.447,0,0,0-.091.493,1.469,1.469,0,0,0,1.467,1.467,1.45,1.45,0,0,0,.708-.19l4.2,4.224a1.448,1.448,0,0,0-.21.743,1.467,1.467,0,1,0,2.387-1.133l2.886-6.337a1.44,1.44,0,0,0,1.707-1.32l9.475-1.638a1.465,1.465,0,0,0,2.8-.6,1.411,1.411,0,0,0-.018-.176l9.884-3.888a1.464,1.464,0,1,0,1.791-2.191l1.95-11.069A1.464,1.464,0,0,0,1420.816,1268.517Zm-4.574,12.556-5.922-6.649a1.453,1.453,0,0,0,.221-.765,1.474,1.474,0,0,0-.033-.306l7.742-3.874a1.468,1.468,0,0,0,.491.37l-1.951,11.069A1.444,1.444,0,0,0,1416.242,1281.073ZM1383.2,1291.4a1.465,1.465,0,0,0-.858-.714l.734-9.04a1.452,1.452,0,0,0,.495-.186l7.3,7.22a1.451,1.451,0,0,0-.2.733s0,.005,0,.008Zm-8.276-5.5,6.892-4.632a1.463,1.463,0,0,0,.527.318l-.735,9.061a1.454,1.454,0,0,0-.661.336l-6.026-4.106a1.371,1.371,0,0,0,0-.976Zm-3.516-9.625,12.466-6.472a1.469,1.469,0,0,0,.442.311l-1.606,8.637a1.459,1.459,0,0,0-1.149.721l-10.128-2.828c0-.023.007-.045.007-.068A1.476,1.476,0,0,0,1371.4,1276.272Zm46.512-7.449-7.742,3.874a1.455,1.455,0,0,0-.984-.494l-2.052-11.753a1.461,1.461,0,0,0,.316-.2l10.535,7.726a1.427,1.427,0,0,0-.073.848Zm-25.789,19.122a1.451,1.451,0,0,0-.747.211l-7.3-7.22a1.451,1.451,0,0,0,.194-.633l10.434-1.965a1.47,1.47,0,0,0,.546.648l-3.026,8.969C1392.195,1287.953,1392.162,1287.945,1392.126,1287.945Zm5.028-21.83a1.466,1.466,0,0,0,.648.62l-1.894,9.575a1.452,1.452,0,0,0-.726.282l-8.946-7.17a1.452,1.452,0,0,0,.153-.636Zm8.488-5.839a1.451,1.451,0,0,0,.771.3l2.052,11.756a1.453,1.453,0,0,0-.283.174l-8.4-6.505a1.456,1.456,0,0,0,0-1.16Zm-20.606,9.961a1.454,1.454,0,0,0,.724-.255l8.961,7.182a1.455,1.455,0,0,0-.115.446l-10.463,1.97a1.472,1.472,0,0,0-.713-.707Zm11.6,6.178,1.886-9.538a1.449,1.449,0,0,0,.806-.3l8.4,6.505a1.457,1.457,0,0,0-.12.578c0,.029.007.056.009.085l-10.318,3.243A1.471,1.471,0,0,0,1396.637,1276.415Zm8.549-16.716-5.859,4.561a1.425,1.425,0,0,0-1.565-.136l-6.158-6.811a1.452,1.452,0,0,0,.084-.153l13.392,2.1A1.459,1.459,0,0,0,1405.186,1259.7Zm-14.843-1.656a1.451,1.451,0,0,0,.742-.209l6.129,6.779a1.458,1.458,0,0,0-.242.79l-10.772,2.671a1.474,1.474,0,0,0-.309-.386l4.183-9.672A1.466,1.466,0,0,0,1390.343,1258.043Zm2.585,30.143,3.026-8.969c.035,0,.068.011.1.011a1.452,1.452,0,0,0,.654-.161l6.473,7.4a1.458,1.458,0,0,0-.246.7l-9.478,1.639A1.471,1.471,0,0,0,1392.928,1288.186Zm11.464-2.357a1.449,1.449,0,0,0-.65.159l-6.474-7.4a1.457,1.457,0,0,0,.256-.826c0-.025-.006-.049-.007-.073l10.322-3.244a1.472,1.472,0,0,0,.384.405l-3.731,10.991C1404.458,1285.837,1404.426,1285.829,1404.392,1285.829Zm-15.115-28.252a1.475,1.475,0,0,0,.132.121l-4.174,9.651a1.444,1.444,0,0,0-1.487.56l-7.2-2.828a1.389,1.389,0,0,0,.018-.174,1.455,1.455,0,0,0-.049-.356Zm-14.411,8.773a1.44,1.44,0,0,0,.233.024,1.462,1.462,0,0,0,1.183-.607l7.192,2.825a1.466,1.466,0,0,0-.019.19,1.445,1.445,0,0,0,.055.377l-12.439,6.458a1.481,1.481,0,0,0-.2-.188Zm-4.066,11.429a1.471,1.471,0,0,0,.411-.435l10.144,2.832c0,.009,0,.018,0,.027a1.446,1.446,0,0,0,.073.435l-6.916,4.649a1.455,1.455,0,0,0-.968-.374c-.047,0-.092.01-.138.014Zm17.52,19.1a1.471,1.471,0,0,0-.252-.026,1.45,1.45,0,0,0-.735.205l-4.186-4.212a1.455,1.455,0,0,0,.221-.736l7.488-1.985a1.467,1.467,0,0,0,.351.416Zm17.254-10.447a1.474,1.474,0,0,0-.383-.367l3.721-10.96a1.25,1.25,0,0,0,.878-.177l5.9,6.625a1.458,1.458,0,0,0-.249.815,1.431,1.431,0,0,0,.018.175Z" transform="translate(-1233.401 -678.109)" fill="#333"/>
  </g>
</svg>
