<svg xmlns="http://www.w3.org/2000/svg" width="16" height="16.1" viewBox="22733.299 -164.3 16 16.1"><path d="M22747.2-148.2c-3.7 0-7.2-1.4-9.802-4.1-2.6-2.6-4.1-6.1-4.1-9.9 0-1.1.901-2.1 2.1-2.1h2.801c.301 0 .5.1.6.3l2.1 3.1c.199.3.199.7-.1.9l-1.6 1.6c-.1.1-.1.1 0 .2.4.9 1 1.6 1.7 2.3.699.7 1.5 1.2 2.3 1.7h.2l1.599-1.6c.3-.3.7-.3.9-.1l3.1 2.1c.2.1.3.4.3.6v2.8c-.099 1.2-.997 2.2-2.099 2.2Zm-11.9-14.6c-.3 0-.599.3-.599.6 0 3.3 1.301 6.4 3.6 8.8 2.299 2.4 5.5 3.6 8.8 3.6.301 0 .6-.3.6-.6v-2.4l-2.3-1.5-1.2 1.2c-.5.5-1.3.6-1.9.3-1-.5-1.9-1.2-2.7-1.9-.8-.8-1.5-1.7-2-2.8-.3-.6-.099-1.4.401-1.9l1.2-1.2-1.5-2.3h-2.401Z" fill="#333" fill-rule="evenodd" data-name="Path 4789"/></svg>