<svg xmlns="http://www.w3.org/2000/svg" viewBox="0 0 328.005 350.705"><defs><style>.a{fill:#41372f;}.b,.k,.l{fill:none;}.c{fill:#29400c;}.d{fill:#4e3b2e;}.e{fill:#3d2a1d;}.f{fill:#4b612e;}.g{fill:#3a501d;}.h{fill:#838a5e;}.i{fill:#ccc;}.j{fill:#fff;}.k{stroke:#636363;}.k,.l{stroke-linecap:round;stroke-linejoin:round;stroke-width:0.4px;}.l{stroke:#858585;}.m{fill:#e6e6e6;}</style></defs><g transform="translate(-97.894 51.98)"><g transform="translate(377.173 -40.763)"><ellipse class="a" cx="2.133" cy="3.694" rx="2.133" ry="3.694" transform="translate(11.783 68.143) rotate(-89.64)"/><path class="b" d="M-1306.614,6435.454a1.812,1.812,0,0,1,1.071-1.514,5.776,5.776,0,0,1,5.224.011c1.448.836,1.457,2.187.02,3.016a5.606,5.606,0,0,1-3.282.583" transform="translate(1318.411 -6369.42)"/><ellipse class="c" cx="2.928" cy="5.072" rx="2.928" ry="5.072" transform="translate(10.401 69.799) rotate(-89.64)"/><path class="d" d="M-1299.225,6414.7v-16.839a1.861,1.861,0,0,0-1.092-1.5,5.773,5.773,0,0,0-5.224-.011,1.806,1.806,0,0,0-1.071,1.513h0V6414.7h0a1.863,1.863,0,0,0,1.091,1.5,5.774,5.774,0,0,0,5.224.01,1.809,1.809,0,0,0,1.071-1.513Z" transform="translate(1318.41 -6348.663)"/><path class="e" d="M-1303.581,6419.422v-16.838a5,5,0,0,1-1.942-.593,1.862,1.862,0,0,1-1.092-1.5v16.838a1.861,1.861,0,0,0,1.091,1.5,4.993,4.993,0,0,0,1.942.592" transform="translate(1318.411 -6351.293)"/><path class="c" d="M-1332.954,6389.46l15.491,8.944,15.491-8.944-15.491-8.945Z" transform="translate(1332.954 -6340.265)"/><path class="f" d="M-1298.367,6380.586l15.491-8.944-15.491-23.4Z" transform="translate(1313.857 -6322.448)"/><path class="g" d="M-1332.954,6371.643l15.491-23.4v32.342Z" transform="translate(1332.954 -6322.448)"/><path class="b" d="M-1327.552,6376.253l13.071,10.736,13.071-10.736-13.071-7.548Z" transform="translate(1329.971 -6333.745)"/><path class="f" d="M-1298.367,6358.483l13.071-7.548-13.071-28.083Z" transform="translate(1313.857 -6308.428)"/><path class="g" d="M-1327.552,6350.935l13.071-28.083v35.632Z" transform="translate(1329.971 -6308.428)"/><path class="b" d="M-1321.064,6349.875l10.165,8.188,10.165-8.188-10.165-5.87Z" transform="translate(1326.389 -6320.107)"/><path class="g" d="M-1321.064,6329.415l10.165-22.467v28.336Z" transform="translate(1326.389 -6299.647)"/><path class="f" d="M-1298.367,6335.284l10.165-5.87-10.165-22.467Z" transform="translate(1313.857 -6299.647)"/><path class="c" d="M-1316.153,6326.685l7.966,6.628,7.966-6.628-7.966-4.6Z" transform="translate(1323.677 -6308.005)"/><path class="g" d="M-1316.153,6309.326l7.966-18.679v23.278Z" transform="translate(1323.677 -6290.646)"/><path class="f" d="M-1298.367,6313.925l7.966-4.6-7.966-18.68Z" transform="translate(1313.857 -6290.646)"/><path class="c" d="M-1300.406,6360.183l.184.394-7.966,6.419-7.966-6.418.184-.395,7.782,4.492Z" transform="translate(1323.678 -6329.039)"/><path class="c" d="M-1301.258,6387.423l.152.23-11.771,9.667-11.771-9.667.152-.231,11.617,6.71Z" transform="translate(1328.368 -6344.078)"/></g><path class="h" d="M-976.066,6297.4c-38.212,17.188-41.137-15.779-65.037-13.257s-62.052-19.742-69.693-25.562-41.387.1-54.7-2.823-40.247-11.677-21.814-21.042c15.093-7.668,43.826-27.255,74.317-13.2s89.239-3.3,115.461,3.6C-882.618,6255.371-976.066,6297.4-976.066,6297.4Z" transform="translate(1362.876 -6091.435)"/><g transform="translate(97.894 24.242)"><ellipse class="a" cx="5.672" cy="3.275" rx="5.672" ry="3.275" transform="translate(18.095 98.161) rotate(-0.36)"/><path class="b" d="M-1257.355,6219.324A2.78,2.78,0,0,0-1259,6217a8.864,8.864,0,0,0-8.021.017c-2.224,1.283-2.236,3.357-.03,4.631a8.593,8.593,0,0,0,5.039.894" transform="translate(1286.814 -6117.924)"/><ellipse class="c" cx="7.788" cy="4.496" rx="7.788" ry="4.496" transform="translate(15.972 98.289) rotate(-0.36)"/><path class="d" d="M-1268.7,6197.854V6172a2.859,2.859,0,0,1,1.676-2.306,8.863,8.863,0,0,1,8.021-.017,2.775,2.775,0,0,1,1.646,2.323h0v25.858h0a2.856,2.856,0,0,1-1.674,2.308,8.867,8.867,0,0,1-8.022.017,2.778,2.778,0,0,1-1.646-2.325Z" transform="translate(1286.814 -6096.455)"/><path class="e" d="M-1256.46,6203.791v-25.857a7.675,7.675,0,0,0,2.982-.911,2.858,2.858,0,0,0,1.676-2.308v25.857a2.853,2.853,0,0,1-1.676,2.307,7.685,7.685,0,0,1-2.983.911" transform="translate(1281.262 -6099.173)"/><path class="c" d="M-1254.28,6163.313l-23.788,13.736-23.787-13.736,23.787-13.734Z" transform="translate(1301.856 -6087.771)"/><path class="f" d="M-1278.068,6158.619l-23.787-13.735,23.787-35.929Z" transform="translate(1301.856 -6069.342)"/><path class="g" d="M-1234.529,6144.884l-23.788-35.929v49.664Z" transform="translate(1282.104 -6069.342)"/><path class="b" d="M-1254.91,6146.3l-20.072,16.486-20.072-16.486,20.072-11.59Z" transform="translate(1298.77 -6081.025)"/><path class="f" d="M-1274.982,6131.7l-20.072-11.589,20.072-43.124Z" transform="translate(1298.77 -6054.84)"/><path class="g" d="M-1238.245,6120.114l-20.072-43.124V6131.7Z" transform="translate(1282.104 -6054.84)"/><path class="b" d="M-1255.668,6112.632l-15.61,12.574-15.61-12.574,15.61-9.014Z" transform="translate(1295.066 -6066.92)"/><path class="g" d="M-1242.707,6091.468l-15.61-34.5v43.516Z" transform="translate(1282.104 -6045.757)"/><path class="f" d="M-1271.278,6100.482l-15.61-9.014,15.61-34.5Z" transform="translate(1295.066 -6045.757)"/><path class="c" d="M-1256.241,6083.086l-12.233,10.179-12.232-10.179,12.232-7.064Z" transform="translate(1292.261 -6054.401)"/><path class="g" d="M-1246.084,6065.133l-12.233-28.684V6072.2Z" transform="translate(1282.104 -6036.449)"/><path class="f" d="M-1268.474,6072.2l-12.232-7.062,12.232-28.684Z" transform="translate(1292.261 -6036.45)"/><path class="c" d="M-1280.423,6123.983l-.282.606,12.232,9.854,12.233-9.853-.283-.608-11.95,6.9Z" transform="translate(1292.26 -6076.159)"/><path class="c" d="M-1291.167,6158.28l-.233.351,18.075,14.847,18.075-14.847-.234-.351-17.839,10.3Z" transform="translate(1297.112 -6091.719)"/></g><g transform="translate(207.08 7.341)"><ellipse class="a" cx="5.235" cy="3.022" rx="5.235" ry="3.022" transform="translate(16.698 90.584) rotate(-0.36)"/><path class="b" d="M-1101.766,6165.817a2.567,2.567,0,0,0-1.519-2.145,8.181,8.181,0,0,0-7.4.016c-2.051,1.185-2.064,3.1-.027,4.271a7.934,7.934,0,0,0,4.651.825" transform="translate(1128.951 -6072.245)"/><ellipse class="c" cx="7.187" cy="4.149" rx="7.187" ry="4.149" transform="translate(14.739 90.702) rotate(-0.36)"/><path class="d" d="M-1112.234,6146v-23.862a2.637,2.637,0,0,1,1.546-2.129,8.183,8.183,0,0,1,7.4-.014,2.565,2.565,0,0,1,1.519,2.144h0V6146h0a2.636,2.636,0,0,1-1.546,2.129,8.182,8.182,0,0,1-7.4.016,2.566,2.566,0,0,1-1.519-2.145Z" transform="translate(1128.952 -6052.432)"/><path class="e" d="M-1100.94,6151.481v-23.863a7.071,7.071,0,0,0,2.751-.84,2.631,2.631,0,0,0,1.547-2.129v23.861a2.637,2.637,0,0,1-1.546,2.13,7.115,7.115,0,0,1-2.751.84" transform="translate(1123.828 -6054.94)"/><path class="c" d="M-1098.93,6114.128l-21.952,12.676-21.951-12.676,21.951-12.674Z" transform="translate(1142.833 -6044.417)"/><path class="f" d="M-1120.882,6109.8l-21.951-12.677,21.951-33.154Z" transform="translate(1142.833 -6027.412)"/><path class="g" d="M-1080.7,6097.124l-21.952-33.154V6109.8Z" transform="translate(1124.606 -6027.412)"/><path class="b" d="M-1099.512,6098.429l-18.522,15.213-18.523-15.213,18.523-10.7Z" transform="translate(1139.986 -6038.192)"/><path class="f" d="M-1118.034,6084.96l-18.522-10.694,18.522-39.8Z" transform="translate(1139.985 -6014.029)"/><path class="g" d="M-1084.131,6074.266l-18.523-39.8v50.49Z" transform="translate(1124.606 -6014.029)"/><path class="b" d="M-1100.209,6067.361l-14.406,11.6-14.405-11.6,14.405-8.316Z" transform="translate(1136.567 -6025.179)"/><path class="g" d="M-1088.248,6047.832l-14.406-31.837v40.155Z" transform="translate(1124.606 -6005.648)"/><path class="f" d="M-1114.615,6056.149l-14.405-8.317,14.405-31.837Z" transform="translate(1136.567 -6005.648)"/><path class="c" d="M-1100.739,6040.1l-11.288,9.394-11.288-9.394,11.288-6.518Z" transform="translate(1133.979 -6013.625)"/><path class="g" d="M-1091.366,6023.528l-11.288-26.47v32.988Z" transform="translate(1124.606 -5997.058)"/><path class="f" d="M-1112.027,6030.046l-11.288-6.518,11.288-26.47Z" transform="translate(1133.979 -5997.058)"/><path class="c" d="M-1123.053,6077.833l-.261.56,11.288,9.095,11.289-9.095-.261-.561-11.028,6.367Z" transform="translate(1133.978 -6033.701)"/><path class="c" d="M-1132.968,6109.483l-.215.324,16.679,13.7,16.68-13.7-.216-.326-16.464,9.509Z" transform="translate(1138.455 -6048.059)"/></g><g transform="translate(349.286 3.606)"><ellipse class="a" cx="2.567" cy="4.446" rx="2.567" ry="4.446" transform="translate(14.182 82.014) rotate(-89.64)"/><path class="b" d="M-1306.614,6435.888a2.181,2.181,0,0,1,1.289-1.822,6.947,6.947,0,0,1,6.287.014c1.743,1.005,1.754,2.63.024,3.629a6.75,6.75,0,0,1-3.95.7" transform="translate(1320.812 -6356.413)"/><ellipse class="c" cx="3.524" cy="6.104" rx="3.524" ry="6.104" transform="translate(12.518 84.008) rotate(-89.64)"/><path class="d" d="M-1297.721,6418.559v-20.267a2.239,2.239,0,0,0-1.314-1.809,6.949,6.949,0,0,0-6.287-.013,2.174,2.174,0,0,0-1.289,1.821h0v20.267h0a2.242,2.242,0,0,0,1.313,1.808,6.947,6.947,0,0,0,6.288.012,2.177,2.177,0,0,0,1.289-1.821Z" transform="translate(1320.811 -6339.083)"/><path class="e" d="M-1302.964,6423.276V6403.01a6.025,6.025,0,0,1-2.337-.713,2.242,2.242,0,0,1-1.314-1.808v20.267a2.238,2.238,0,0,0,1.313,1.807,6.029,6.029,0,0,0,2.338.715" transform="translate(1320.813 -6341.279)"/><path class="c" d="M-1332.954,6391.282l18.644,10.765,18.645-10.765-18.645-10.766Z" transform="translate(1332.954 -6332.072)"/><path class="f" d="M-1298.367,6387.17l18.645-10.765-18.645-28.16Z" transform="translate(1317.01 -6317.197)"/><path class="g" d="M-1332.954,6376.406l18.644-28.161v38.925Z" transform="translate(1332.954 -6317.197)"/><path class="b" d="M-1327.552,6377.79l15.732,12.921,15.732-12.921-15.732-9.084Z" transform="translate(1330.464 -6326.628)"/><path class="f" d="M-1298.367,6365.736l15.732-9.084-15.732-33.8Z" transform="translate(1317.01 -6305.492)"/><path class="g" d="M-1327.552,6356.652l15.732-33.8v42.886Z" transform="translate(1330.464 -6305.492)"/><path class="b" d="M-1321.064,6351.071l12.234,9.855,12.235-9.855-12.235-7.065Z" transform="translate(1327.473 -6315.242)"/><path class="g" d="M-1321.064,6333.988l12.234-27.041v34.105Z" transform="translate(1327.473 -6298.161)"/><path class="f" d="M-1298.367,6341.053l12.235-7.065-12.235-27.041Z" transform="translate(1317.01 -6298.161)"/><path class="c" d="M-1316.153,6327.621l9.588,7.979,9.587-7.979-9.587-5.536Z" transform="translate(1325.209 -6305.139)"/><path class="g" d="M-1316.153,6313.129l9.588-22.482v28.018Z" transform="translate(1325.209 -6290.646)"/><path class="f" d="M-1298.367,6318.664l9.587-5.536-9.587-22.482Z" transform="translate(1317.01 -6290.646)"/><path class="c" d="M-1297.2,6360.183l.221.475-9.588,7.725-9.588-7.724.222-.476,9.366,5.408Z" transform="translate(1325.21 -6322.699)"/><path class="c" d="M-1296.5,6387.424l.182.277-14.167,11.635-14.167-11.635.183-.278,13.981,8.075Z" transform="translate(1329.125 -6335.256)"/></g><g transform="translate(239.941 32.524)"><ellipse class="a" cx="5.235" cy="3.022" rx="5.235" ry="3.022" transform="translate(16.699 90.584) rotate(-0.36)"/><path class="b" d="M-1027.065,6209.913a2.567,2.567,0,0,0-1.52-2.145,8.178,8.178,0,0,0-7.4.016c-2.052,1.185-2.064,3.1-.027,4.271a7.939,7.939,0,0,0,4.651.826" transform="translate(1054.252 -6116.34)"/><ellipse class="c" cx="7.187" cy="4.149" rx="7.187" ry="4.149" transform="translate(14.74 90.702) rotate(-0.36)"/><path class="d" d="M-1037.533,6190.1V6166.24a2.635,2.635,0,0,1,1.546-2.129,8.181,8.181,0,0,1,7.4-.015,2.565,2.565,0,0,1,1.519,2.145h0V6190.1h0a2.637,2.637,0,0,1-1.546,2.13,8.178,8.178,0,0,1-7.4.014,2.563,2.563,0,0,1-1.519-2.145Z" transform="translate(1054.252 -6096.528)"/><path class="e" d="M-1026.24,6195.58v-23.86a7.116,7.116,0,0,0,2.751-.841,2.634,2.634,0,0,0,1.547-2.129v23.86a2.637,2.637,0,0,1-1.546,2.13,7.081,7.081,0,0,1-2.751.839" transform="translate(1049.129 -6099.037)"/><path class="c" d="M-1024.229,6158.223l-21.951,12.676-21.952-12.676,21.951-12.675Z" transform="translate(1068.133 -6088.512)"/><path class="f" d="M-1046.182,6153.9l-21.952-12.675,21.952-33.154Z" transform="translate(1068.134 -6071.508)"/><path class="g" d="M-1006,6141.22l-21.951-33.154v45.827Z" transform="translate(1049.906 -6071.508)"/><path class="b" d="M-1024.811,6142.524l-18.522,15.213-18.523-15.213,18.523-10.695Z" transform="translate(1065.286 -6082.289)"/><path class="f" d="M-1043.333,6129.056l-18.523-10.694,18.523-39.8Z" transform="translate(1065.286 -6058.125)"/><path class="g" d="M-1009.431,6118.361l-18.522-39.8v50.49Z" transform="translate(1049.906 -6058.125)"/><path class="b" d="M-1025.509,6111.458l-14.405,11.6-14.406-11.6,14.406-8.317Z" transform="translate(1061.867 -6069.275)"/><path class="g" d="M-1013.548,6091.927l-14.405-31.837v40.154Z" transform="translate(1049.906 -6049.744)"/><path class="f" d="M-1039.914,6100.244l-14.406-8.317,14.406-31.837Z" transform="translate(1061.867 -6049.744)"/><path class="c" d="M-1026.038,6084.191l-11.288,9.393-11.288-9.393,11.288-6.517Z" transform="translate(1059.279 -6057.721)"/><path class="g" d="M-1016.665,6067.624l-11.288-26.47v32.988Z" transform="translate(1049.906 -6041.154)"/><path class="f" d="M-1037.326,6074.142l-11.288-6.519,11.288-26.47Z" transform="translate(1059.279 -6041.154)"/><path class="c" d="M-1048.354,6121.931l-.26.56,11.288,9.1,11.289-9.1-.261-.561-11.028,6.368Z" transform="translate(1059.279 -6077.797)"/><path class="c" d="M-1058.268,6153.578l-.215.324,16.68,13.7,16.68-13.7-.216-.326-16.464,9.508Z" transform="translate(1063.756 -6092.154)"/></g><g transform="translate(379.172 32.524)"><ellipse class="a" cx="5.571" cy="3.216" rx="5.571" ry="3.216" transform="translate(17.772 96.409) rotate(-0.36)"/><path class="b" d="M-579.841,6443.408a2.728,2.728,0,0,0-1.617-2.283,8.706,8.706,0,0,0-7.878.017c-2.183,1.26-2.2,3.3-.029,4.549a8.438,8.438,0,0,0,4.95.877" transform="translate(608.775 -6343.819)"/><ellipse class="c" cx="7.649" cy="4.416" rx="7.649" ry="4.416" transform="translate(15.686 96.534) rotate(-0.36)"/><path class="d" d="M-590.983,6415.541v-25.4a2.8,2.8,0,0,1,1.646-2.266,8.7,8.7,0,0,1,7.878-.016,2.728,2.728,0,0,1,1.616,2.279h0v25.395h0a2.8,2.8,0,0,1-1.645,2.267,8.7,8.7,0,0,1-7.878.017,2.733,2.733,0,0,1-1.616-2.281Z" transform="translate(608.775 -6315.952)"/><path class="e" d="M-577.211,6422.234v-25.4a7.533,7.533,0,0,0,2.928-.895,2.8,2.8,0,0,0,1.647-2.266v25.4a2.8,2.8,0,0,1-1.646,2.266,7.529,7.529,0,0,1-2.929.894" transform="translate(601.57 -6319.483)"/><path class="c" d="M-581.572,6378.873l-23.363,13.49-23.363-13.49,23.363-13.49Z" transform="translate(628.298 -6304.679)"/><path class="f" d="M-604.935,6368.445l-23.363-13.49,23.363-35.287Z" transform="translate(628.298 -6280.761)"/><path class="g" d="M-555.937,6354.955l-23.363-35.287v48.777Z" transform="translate(602.663 -6280.761)"/><path class="b" d="M-581.217,6360.035l-19.713,16.19-19.714-16.19,19.714-11.384Z" transform="translate(624.293 -6295.925)"/><path class="f" d="M-600.934,6337.432l-19.714-11.383,19.714-42.355Z" transform="translate(624.296 -6261.939)"/><path class="g" d="M-559.586,6326.048l-19.714-42.355v53.737Z" transform="translate(602.663 -6261.939)"/><path class="b" d="M-580.79,6322.515l-15.331,12.35-15.331-12.35,15.331-8.853Z" transform="translate(619.485 -6277.619)"/><path class="g" d="M-563.968,6295.047l-15.331-33.885V6303.9Z" transform="translate(602.662 -6250.151)"/><path class="f" d="M-596.122,6303.9l-15.331-8.853,15.331-33.884Z" transform="translate(619.485 -6250.151)"/><path class="c" d="M-580.468,6289.543l-12.014,10-12.014-10,12.014-6.937Z" transform="translate(615.844 -6261.371)"/><path class="g" d="M-567.288,6266.242l-12.016-28.173v35.109Z" transform="translate(602.665 -6238.069)"/><path class="f" d="M-592.482,6273.179l-12.014-6.937,12.014-28.173Z" transform="translate(615.845 -6238.069)"/><path class="c" d="M-604.218,6336.581l-.277.6,12.014,9.679,12.016-9.678-.278-.6-11.737,6.777Z" transform="translate(615.844 -6289.61)"/><path class="c" d="M-616.3,6375.176l-.229.346,17.752,14.581,17.752-14.581-.23-.347-17.522,10.119Z" transform="translate(622.141 -6309.802)"/></g><g transform="translate(373.185 187.199)"><ellipse class="a" cx="5.897" cy="3.404" rx="5.897" ry="3.404" transform="translate(18.812 102.046) rotate(-0.36)"/><path class="b" d="M-755.445,6534.812a2.892,2.892,0,0,0-1.712-2.417,9.224,9.224,0,0,0-8.342.018c-2.312,1.335-2.325,3.491-.031,4.816a8.949,8.949,0,0,0,5.24.929" transform="translate(786.072 -6429.398)"/><ellipse class="c" cx="8.096" cy="4.674" rx="8.096" ry="4.674" transform="translate(16.604 102.179) rotate(-0.36)"/><path class="d" d="M-767.237,6512.494v-26.882a2.969,2.969,0,0,1,1.742-2.4,9.227,9.227,0,0,1,8.342-.018,2.886,2.886,0,0,1,1.708,2.416h0v26.882h0a2.969,2.969,0,0,1-1.741,2.4,9.226,9.226,0,0,1-8.342.018,2.884,2.884,0,0,1-1.708-2.417Z" transform="translate(786.07 -6407.08)"/><path class="e" d="M-754.514,6518.665v-26.88a8,8,0,0,0,3.1-.946,2.967,2.967,0,0,0,1.742-2.4v26.88a2.969,2.969,0,0,1-1.742,2.4,7.976,7.976,0,0,1-3.1.946" transform="translate(780.298 -6409.907)"/><path class="c" d="M-752.249,6476.583l-24.729,14.278-24.729-14.278,24.729-14.279Z" transform="translate(801.708 -6398.049)"/><path class="f" d="M-776.979,6471.705l-24.729-14.279,24.729-37.35Z" transform="translate(801.708 -6378.894)"/><path class="g" d="M-731.716,6457.426l-24.729-37.35v51.629Z" transform="translate(781.174 -6378.894)"/><path class="b" d="M-752.9,6458.9l-20.866,17.139-20.866-17.139,20.866-12.048Z" transform="translate(798.498 -6391.038)"/><path class="f" d="M-773.771,6443.725l-20.866-12.048,20.866-44.83Z" transform="translate(798.5 -6363.819)"/><path class="g" d="M-735.578,6431.677l-20.867-44.83v56.878Z" transform="translate(781.174 -6363.819)"/><path class="b" d="M-753.691,6423.9l-16.228,13.072-16.228-13.072,16.228-9.37Z" transform="translate(794.648 -6376.375)"/><path class="g" d="M-740.216,6401.9l-16.228-35.867v45.235Z" transform="translate(781.174 -6354.375)"/><path class="f" d="M-769.918,6411.267l-16.228-9.37,16.228-35.867Z" transform="translate(794.648 -6354.375)"/><path class="c" d="M-754.283,6393.182-767,6403.763l-12.716-10.582,12.716-7.342Z" transform="translate(791.731 -6363.361)"/><path class="g" d="M-743.728,6374.517l-12.716-29.819v37.161Z" transform="translate(781.174 -6344.698)"/><path class="f" d="M-767,6381.859l-12.716-7.342L-767,6344.7Z" transform="translate(791.733 -6344.698)"/><path class="c" d="M-779.426,6435.7l-.294.63L-767,6446.572l12.718-10.241-.294-.631L-767,6442.873Z" transform="translate(791.733 -6385.981)"/><path class="c" d="M-790.593,6471.35l-.243.366,18.788,15.434,18.79-15.434-.243-.367-18.547,10.711Z" transform="translate(796.776 -6402.154)"/></g><g transform="translate(129.296 49.847)"><ellipse class="c" cx="8.973" cy="5.18" rx="8.973" ry="5.18" transform="translate(18.401 113.238) rotate(-0.36)"/><path class="d" d="M-1223.17,6342.073v-29.791a3.288,3.288,0,0,1,1.931-2.658,10.213,10.213,0,0,1,9.242-.02,3.2,3.2,0,0,1,1.9,2.677h0v29.79h0a3.283,3.283,0,0,1-1.93,2.658,10.21,10.21,0,0,1-9.242.02,3.2,3.2,0,0,1-1.9-2.677Z" transform="translate(1244.04 -6225.25)"/><path class="e" d="M-1209.068,6348.912v-29.789a8.848,8.848,0,0,0,3.435-1.049,3.293,3.293,0,0,0,1.931-2.658v29.789a3.29,3.29,0,0,1-1.931,2.658,8.834,8.834,0,0,1-3.435,1.049" transform="translate(1237.643 -6228.382)"/><path class="f" d="M-1233.964,6296.871l-27.406-15.825,27.406-41.392Z" transform="translate(1261.37 -6194.014)"/><path class="g" d="M-1183.8,6281.046l-27.406-41.392v57.217Z" transform="translate(1238.614 -6194.014)"/><path class="f" d="M-1230.41,6265.862l-23.127-13.353,23.125-49.683Z" transform="translate(1257.816 -6177.307)"/><path class="g" d="M-1188.084,6252.509l-23.125-49.683v63.036Z" transform="translate(1238.614 -6177.307)"/><path class="c" d="M-1236.678,6256.965l-.325.7,14.093,11.357,14.093-11.353-.325-.7-13.769,7.95Z" transform="translate(1250.316 -6201.866)"/><path class="c" d="M-1249.054,6296.476l-.269.407,20.824,17.1,20.824-17.1-.27-.408-20.552,11.871Z" transform="translate(1255.905 -6219.79)"/><path class="i" d="M-1211.208,6226.845v8.764l9.966-5.754v-8.764Z" transform="translate(1238.614 -6185.592)"/><path class="j" d="M-1229.45,6229.855l9.966,5.754v-8.764l-9.966-5.754Z" transform="translate(1246.889 -6185.592)"/><g transform="translate(29.65 37.935)"><line class="k" x1="5.478" y2="3.162"/><line class="k" x1="5.478" y2="3.162" transform="translate(0 1.364)"/><line class="k" x1="5.478" y2="3.162" transform="translate(0 2.729)"/><line class="k" x1="5.478" y2="3.162" transform="translate(0 4.093)"/><line class="k" x1="5.478" y2="3.162" transform="translate(0 5.457)"/></g><g transform="translate(19.684 37.935)"><line class="l" x1="5.478" y1="3.162"/><line class="l" x1="5.478" y1="3.162" transform="translate(0 1.364)"/><line class="l" x1="5.478" y1="3.162" transform="translate(0 2.729)"/><line class="l" x1="5.478" y1="3.162" transform="translate(0 4.093)"/><line class="l" x1="5.478" y1="3.162" transform="translate(0 5.457)"/></g><path class="c" d="M-1208.816,6209.847l-14.093,11.728L-1237,6209.847l14.093-8.136Z" transform="translate(1250.315 -6176.801)"/><path class="g" d="M-1197.116,6189.163l-14.093-33.047V6197.3Z" transform="translate(1238.614 -6156.116)"/><path class="f" d="M-1222.909,6197.3l-14.091-8.137,14.093-33.047Z" transform="translate(1250.315 -6156.116)"/></g><g transform="translate(139.802 15.841)"><g transform="translate(1.142)"><path class="m" d="M-1210.659,6114.418l1.864-1.061c-8.632-14.876-22.626-22.956-31.256-18.046l1.864,3.212C-1230.586,6094.2-1218.261,6101.316-1210.659,6114.418Z" transform="translate(1240.05 -6093.875)"/><path class="m" d="M-1211.4,6123.408l1.864-1.06c-6.24-10.753-16.356-16.595-22.6-13.045l1.865,3.213C-1225.053,6109.553-1216.606,6114.43-1211.4,6123.408Z" transform="translate(1236.456 -6100.402)"/><path class="m" d="M-1212.13,6132.408l1.864-1.06c-3.847-6.633-10.084-10.232-13.932-8.044l1.865,3.213C-1219.516,6124.912-1214.948,6127.549-1212.13,6132.408Z" transform="translate(1232.859 -6106.934)"/><ellipse class="m" cx="1.881" cy="3.259" rx="1.881" ry="3.259" transform="translate(12.356 24.464) rotate(-30.36)"/></g><path class="m" d="M-1185.205,6130.674l1.139-1.139-1.474.569Z" transform="translate(1216.463 -6110.052)"/><path class="m" d="M-1192.067,6134.045l-1.139,1.14-.424-.714Z" transform="translate(1220.133 -6112.098)"/><path class="m" d="M-1199.977,6138.554l-1.139,1.139-.4-.666Z" transform="translate(1223.712 -6114.144)"/><path class="m" d="M-1210.046,6147.925l1.116-1.114-.776-.07Z" transform="translate(1227.58 -6117.858)"/><path class="m" d="M-1215.774,6137.279l-1.02,1.028,1.549-.109Z" transform="translate(1230.642 -6113.565)"/><path class="m" d="M-1225.144,6123.831l-1.139,1.139,1.658-.214Z" transform="translate(1234.946 -6107.464)"/><path class="m" d="M-1233.072,6110.167l.565.8-1.7.344Z" transform="translate(1238.543 -6101.266)"/><path class="m" d="M-1242.14,6097.643l2.06-.535-.921-.6Z" transform="translate(1242.14 -6095.068)"/><g transform="translate(0 1.14)"><path class="j" d="M-1212.746,6116.5l1.864-1.06c-8.632-14.877-22.627-22.957-31.258-18.047l1.865,3.213C-1232.673,6096.286-1220.348,6103.4-1212.746,6116.5Z" transform="translate(1242.14 -6095.96)"/><path class="j" d="M-1213.481,6125.5l1.864-1.06c-6.24-10.753-16.356-16.594-22.6-13.045l1.865,3.213C-1227.138,6111.641-1218.691,6116.518-1213.481,6125.5Z" transform="translate(1238.543 -6102.49)"/><path class="j" d="M-1214.216,6134.491l1.865-1.061c-3.848-6.634-10.085-10.232-13.932-8.044l1.864,3.212C-1221.6,6127-1217.033,6129.633-1214.216,6134.491Z" transform="translate(1234.946 -6109.019)"/><ellipse class="j" cx="1.881" cy="3.259" rx="1.881" ry="3.259" transform="translate(12.358 24.463) rotate(-30.36)"/></g></g><line class="b" y2="20.54" transform="translate(113.943 243.302)"/><g transform="translate(307.734 -25.463)"><ellipse class="c" cx="6.966" cy="4.022" rx="6.966" ry="4.022" transform="translate(14.285 87.91) rotate(-0.36)"/><path class="d" d="M-888.833,6379.369v-23.126a2.556,2.556,0,0,1,1.5-2.064,7.929,7.929,0,0,1,7.175-.015,2.486,2.486,0,0,1,1.472,2.079h0v23.126h0a2.55,2.55,0,0,1-1.5,2.064,7.929,7.929,0,0,1-7.175.015,2.485,2.485,0,0,1-1.472-2.079Z" transform="translate(905.036 -6288.674)"/><path class="e" d="M-874.733,6386.221v-23.127a6.841,6.841,0,0,0,2.667-.815,2.553,2.553,0,0,0,1.5-2.062v23.126a2.554,2.554,0,0,1-1.5,2.063,6.859,6.859,0,0,1-2.667.815" transform="translate(896.916 -6292.65)"/><path class="f" d="M-905.757,6328.872l-21.276-12.285,21.276-32.135Z" transform="translate(927.033 -6249.021)"/><path class="g" d="M-855.6,6316.587l-21.276-32.135v44.42Z" transform="translate(898.148 -6249.021)"/><path class="f" d="M-901.246,6296.561l-17.953-10.366,17.953-38.57Z" transform="translate(922.522 -6227.813)"/><path class="g" d="M-858.92,6286.2l-17.953-38.569v48.936Z" transform="translate(898.148 -6227.814)"/><path class="c" d="M-902.415,6301.764l-.252.542,10.941,8.816,10.941-8.814-.252-.542-10.689,6.17Z" transform="translate(913.002 -6258.989)"/><path class="c" d="M-914.778,6341.274l-.209.317,16.167,13.278,16.166-13.278-.209-.317-15.956,9.215Z" transform="translate(920.096 -6281.742)"/><path class="i" d="M-876.873,6270.356v6.8l7.737-4.467v-6.8Z" transform="translate(898.148 -6238.332)"/><path class="j" d="M-895.117,6272.689l7.736,4.467v-6.8l-7.736-4.467Z" transform="translate(908.654 -6238.33)"/><g transform="translate(23.018 29.449)"><line class="k" x1="4.253" y2="2.455"/><line class="k" x1="4.253" y2="2.455" transform="translate(0 1.059)"/><line class="k" x1="4.253" y2="2.455" transform="translate(0 2.118)"/><line class="k" x1="4.253" y2="2.455" transform="translate(0 3.177)"/><line class="k" x1="4.253" y2="2.455" transform="translate(0 4.236)"/></g><g transform="translate(15.281 29.449)"><line class="l" x1="4.253" y1="2.455"/><line class="l" x1="4.253" y1="2.455" transform="translate(0 1.059)"/><line class="l" x1="4.253" y1="2.455" transform="translate(0 2.118)"/><line class="l" x1="4.253" y1="2.455" transform="translate(0 3.177)"/><line class="l" x1="4.253" y1="2.455" transform="translate(0 4.236)"/></g><path class="c" d="M-880.784,6252.828l-10.941,9.1-10.941-9.1,10.941-6.317Z" transform="translate(913.001 -6227.172)"/><path class="g" d="M-865.932,6226.572l-10.941-25.655v31.972Z" transform="translate(898.148 -6200.917)"/><path class="f" d="M-891.726,6232.888l-10.941-6.316,10.941-25.655Z" transform="translate(913.002 -6200.917)"/></g><g transform="translate(316.434 -51.98)"><g transform="translate(0.884)"><path class="m" d="M-881.617,6154.346l1.447-.822c-6.7-11.55-17.566-17.822-24.267-14.011l1.448,2.495C-897.088,6138.65-887.519,6144.175-881.617,6154.346Z" transform="translate(904.437 -6138.398)"/><path class="m" d="M-880.414,6164.546l1.447-.823c-4.844-8.348-12.7-12.882-17.542-10.128l1.447,2.5C-891.017,6153.791-884.459,6157.576-880.414,6164.546Z" transform="translate(899.872 -6146.685)"/><path class="m" d="M-879.211,6174.747l1.447-.823c-2.987-5.149-7.829-7.943-10.816-6.245l1.447,2.494C-884.946,6168.93-881.4,6170.976-879.211,6174.747Z" transform="translate(895.306 -6154.972)"/><ellipse class="m" cx="1.461" cy="2.53" rx="1.461" ry="2.53" transform="translate(9.594 18.992) rotate(-30.36)"/></g><path class="m" d="M-849.662,6174.943l.885-.884-1.145.443Z" transform="translate(873.929 -6158.934)"/><path class="m" d="M-856.8,6178.567l-.884.884-.329-.554Z" transform="translate(878.587 -6161.529)"/><path class="m" d="M-864.7,6183.079l-.884.884-.312-.518Z" transform="translate(883.13 -6164.128)"/><path class="m" d="M-874.428,6192.183l.867-.865-.6-.053Z" transform="translate(888.041 -6168.842)"/><path class="m" d="M-880.386,6181.808l-.792.8,1.2-.085Z" transform="translate(891.928 -6163.396)"/><path class="m" d="M-889.781,6168.352l-.884.884,1.287-.167Z" transform="translate(897.391 -6155.647)"/><path class="m" d="M-897.709,6154.687l.439.618-1.324.267Z" transform="translate(901.957 -6147.777)"/><path class="m" d="M-906.519,6141.913l1.6-.415-.715-.468Z" transform="translate(906.52 -6139.913)"/><g transform="translate(0 0.885)"><path class="j" d="M-883.7,6156.431l1.447-.823c-6.7-11.55-17.566-17.821-24.267-14.01l1.448,2.495C-899.173,6140.735-889.6,6146.26-883.7,6156.431Z" transform="translate(906.522 -6140.483)"/><path class="j" d="M-882.5,6166.633l1.447-.824c-4.844-8.347-12.7-12.882-17.542-10.126l1.447,2.494C-893.1,6155.875-886.544,6159.662-882.5,6166.633Z" transform="translate(901.957 -6148.771)"/><path class="j" d="M-881.3,6176.832l1.447-.823c-2.987-5.15-7.829-7.944-10.816-6.246l1.447,2.495C-887.03,6171.015-883.484,6173.062-881.3,6176.832Z" transform="translate(897.391 -6157.057)"/><ellipse class="j" cx="1.461" cy="2.53" rx="1.461" ry="2.53" transform="translate(9.594 18.992) rotate(-30.36)"/></g></g><g transform="translate(272.138 4.856)"><ellipse class="a" cx="4.441" cy="2.564" rx="4.441" ry="2.564" transform="translate(14.166 76.846) rotate(-0.36)"/><path class="b" d="M-996.765,6119.083a2.182,2.182,0,0,0-1.289-1.821,6.945,6.945,0,0,0-6.281.014c-1.741,1.005-1.751,2.628-.023,3.626a6.726,6.726,0,0,0,3.946.7" transform="translate(1019.828 -6039.7)"/><ellipse class="c" cx="6.097" cy="3.52" rx="6.097" ry="3.52" transform="translate(12.504 76.946) rotate(-0.36)"/><path class="d" d="M-1005.645,6102.275v-20.242a2.236,2.236,0,0,1,1.312-1.807,6.94,6.94,0,0,1,6.281-.013,2.177,2.177,0,0,1,1.288,1.82h0v20.242h0a2.233,2.233,0,0,1-1.311,1.806,6.94,6.94,0,0,1-6.281.013,2.176,2.176,0,0,1-1.288-1.819Z" transform="translate(1019.827 -6022.893)"/><path class="e" d="M-996.064,6106.922v-20.241a6.046,6.046,0,0,0,2.335-.713,2.242,2.242,0,0,0,1.312-1.806V6104.4a2.233,2.233,0,0,1-1.312,1.806,6,6,0,0,1-2.335.712" transform="translate(1015.481 -6025.022)"/><path class="c" d="M-994.358,6075.232l-18.622,10.754-18.623-10.754,18.623-10.753Z" transform="translate(1031.603 -6016.092)"/><path class="f" d="M-1012.98,6071.557-1031.6,6060.8l18.623-28.126Z" transform="translate(1031.603 -6001.666)"/><path class="g" d="M-978.895,6060.81l-18.622-28.127v38.879Z" transform="translate(1016.14 -6001.668)"/><path class="b" d="M-994.852,6061.914l-15.713,12.906-15.714-12.906,15.714-9.073Z" transform="translate(1029.188 -6010.813)"/><path class="f" d="M-1010.565,6050.488l-15.714-9.073,15.714-33.76Z" transform="translate(1029.188 -5990.314)"/><path class="g" d="M-981.8,6041.415l-15.713-33.76v42.833Z" transform="translate(1016.14 -5990.314)"/><path class="b" d="M-995.443,6035.557l-12.22,9.844-12.22-9.844,12.22-7.056Z" transform="translate(1026.286 -5999.771)"/><path class="g" d="M-985.3,6018.989l-12.22-27.009v34.066Z" transform="translate(1016.14 -5983.203)"/><path class="f" d="M-1007.664,6026.046l-12.22-7.057,12.22-27.009Z" transform="translate(1026.286 -5983.203)"/><path class="c" d="M-995.893,6012.425l-9.576,7.969-9.576-7.969,9.576-5.528Z" transform="translate(1024.091 -5989.971)"/><path class="g" d="M-987.941,5998.372l-9.576-22.456V6003.9Z" transform="translate(1016.14 -5975.916)"/><path class="f" d="M-1005.468,6003.907l-9.576-5.528,9.576-22.456Z" transform="translate(1024.091 -5975.92)"/><path class="c" d="M-1014.823,6044.443l-.221.475,9.576,7.715,9.576-7.714-.221-.476-9.355,5.4Z" transform="translate(1024.091 -6007.003)"/><path class="c" d="M-1023.233,6071.292l-.183.276,14.151,11.622,14.15-11.622-.183-.276-13.967,8.065Z" transform="translate(1027.889 -6019.184)"/></g><g transform="translate(169.317 15.841)"><ellipse class="a" cx="5.779" cy="3.336" rx="5.779" ry="3.336" transform="translate(18.435 100.007) rotate(-0.36)"/><path class="b" d="M-1166.271,6229.466a2.836,2.836,0,0,0-1.678-2.369,9.033,9.033,0,0,0-8.173.018c-2.266,1.309-2.278,3.419-.03,4.718a8.753,8.753,0,0,0,5.135.91" transform="translate(1196.285 -6126.158)"/><ellipse class="c" cx="7.934" cy="4.581" rx="7.934" ry="4.581" transform="translate(16.272 100.136) rotate(-0.36)"/><path class="d" d="M-1177.828,6207.593V6181.25a2.909,2.909,0,0,1,1.709-2.351,9.036,9.036,0,0,1,8.172-.017,2.831,2.831,0,0,1,1.677,2.368h0v26.343h0a2.907,2.907,0,0,1-1.708,2.35,9.036,9.036,0,0,1-8.172.018,2.837,2.837,0,0,1-1.677-2.368Z" transform="translate(1196.284 -6104.287)"/><path class="e" d="M-1165.359,6213.64V6187.3a7.846,7.846,0,0,0,3.038-.927,2.916,2.916,0,0,0,1.708-2.351v26.343a2.908,2.908,0,0,1-1.708,2.351,7.83,7.83,0,0,1-3.038.928" transform="translate(1190.628 -6107.056)"/><path class="c" d="M-1163.138,6172.4l-24.236,13.993-24.235-13.993,24.235-13.992Z" transform="translate(1211.609 -6095.438)"/><path class="f" d="M-1187.374,6167.621l-24.235-13.993,24.235-36.6Z" transform="translate(1211.609 -6076.664)"/><path class="g" d="M-1143.015,6153.628l-24.236-36.6v50.6Z" transform="translate(1191.486 -6076.664)"/><path class="b" d="M-1163.781,6155.067l-20.449,16.8-20.449-16.8,20.449-11.808Z" transform="translate(1208.465 -6088.565)"/><path class="f" d="M-1184.23,6140.2l-20.449-11.809,20.449-43.935Z" transform="translate(1208.465 -6061.889)"/><path class="g" d="M-1146.8,6128.391l-20.449-43.935V6140.2Z" transform="translate(1191.485 -6061.89)"/><path class="b" d="M-1164.552,6120.769l-15.9,12.811-15.9-12.811,15.9-9.183Z" transform="translate(1204.691 -6074.196)"/><path class="g" d="M-1151.347,6099.207l-15.9-35.149v44.334Z" transform="translate(1191.486 -6052.636)"/><path class="f" d="M-1180.456,6108.393l-15.9-9.182,15.9-35.15Z" transform="translate(1204.691 -6052.637)"/><path class="c" d="M-1165.136,6090.669l-12.462,10.37-12.462-10.37,12.462-7.2Z" transform="translate(1201.833 -6061.443)"/><path class="g" d="M-1154.788,6072.375l-12.462-29.225v36.42Z" transform="translate(1191.485 -6043.151)"/><path class="f" d="M-1177.6,6079.571l-12.462-7.2,12.462-29.225Z" transform="translate(1201.833 -6043.151)"/><path class="c" d="M-1189.774,6132.333l-.287.617,12.462,10.041,12.462-10.04-.288-.618-12.174,7.029Z" transform="translate(1201.834 -6083.608)"/><path class="c" d="M-1200.719,6167.271l-.238.359,18.415,15.125,18.414-15.125-.239-.361-18.176,10.5Z" transform="translate(1206.776 -6099.457)"/></g><g transform="translate(319.121 119.364)"><ellipse class="c" cx="8.973" cy="5.18" rx="8.973" ry="5.18" transform="translate(18.4 113.238) rotate(-0.36)"/><path class="d" d="M-888.833,6386.876v-29.789a3.291,3.291,0,0,1,1.931-2.659,10.218,10.218,0,0,1,9.242-.02,3.2,3.2,0,0,1,1.9,2.679h0v29.789h0a3.286,3.286,0,0,1-1.93,2.658,10.213,10.213,0,0,1-9.242.02,3.2,3.2,0,0,1-1.9-2.678Z" transform="translate(909.703 -6270.051)"/><path class="e" d="M-874.733,6393.713v-29.79a8.83,8.83,0,0,0,3.435-1.05,3.29,3.29,0,0,0,1.931-2.657V6390a3.289,3.289,0,0,1-1.931,2.658,8.831,8.831,0,0,1-3.435,1.05" transform="translate(903.307 -6273.183)"/><path class="f" d="M-899.628,6341.67l-27.405-15.824,27.405-41.393Z" transform="translate(927.033 -6238.814)"/><path class="g" d="M-849.467,6325.846l-27.406-41.393v57.217Z" transform="translate(904.278 -6238.814)"/><path class="f" d="M-896.074,6310.66l-23.125-13.353,23.125-49.683Z" transform="translate(923.479 -6222.105)"/><path class="g" d="M-853.748,6297.309l-23.125-49.683v63.035Z" transform="translate(904.278 -6222.107)"/><path class="c" d="M-902.342,6301.764l-.325.7,14.093,11.357,14.093-11.354-.325-.7-13.769,7.949Z" transform="translate(915.979 -6246.666)"/><path class="c" d="M-914.718,6341.275l-.269.407,20.824,17.1,20.824-17.1-.269-.408-20.553,11.87Z" transform="translate(921.568 -6264.59)"/><path class="i" d="M-876.873,6271.644v8.764l9.967-5.755v-8.764Z" transform="translate(904.278 -6230.392)"/><path class="j" d="M-895.117,6274.65l9.965,5.754v-8.763l-9.965-5.754Z" transform="translate(912.554 -6230.391)"/><g transform="translate(29.649 37.934)"><line class="k" x1="5.478" y2="3.162"/><line class="k" x1="5.478" y2="3.162" transform="translate(0 1.364)"/><line class="k" x1="5.478" y2="3.162" transform="translate(0 2.729)"/><line class="k" x1="5.478" y2="3.162" transform="translate(0 4.093)"/><line class="k" x1="5.478" y2="3.162" transform="translate(0 5.457)"/></g><g transform="translate(19.684 37.934)"><line class="l" x1="5.478" y1="3.162"/><line class="l" x1="5.478" y1="3.162" transform="translate(0 1.364)"/><line class="l" x1="5.478" y1="3.162" transform="translate(0 2.729)"/><line class="l" x1="5.478" y1="3.162" transform="translate(0 4.093)"/><line class="l" x1="5.478" y1="3.162" transform="translate(0 5.457)"/></g><path class="c" d="M-874.48,6254.648l-14.093,11.727-14.093-11.727,14.093-8.137Z" transform="translate(915.979 -6221.601)"/><path class="g" d="M-862.78,6233.964l-14.093-33.047V6242.1Z" transform="translate(904.278 -6200.917)"/><path class="f" d="M-888.574,6242.1l-14.093-8.136,14.093-33.047Z" transform="translate(915.979 -6200.917)"/></g><g transform="translate(330.327 85.206)"><g transform="translate(1.139)"><path class="m" d="M-875.043,6158.941l1.864-1.059c-8.632-14.878-22.627-22.958-31.258-18.048l1.865,3.213C-894.97,6138.723-882.645,6145.84-875.043,6158.941Z" transform="translate(904.437 -6138.398)"/><path class="m" d="M-875.778,6167.935l1.864-1.061c-6.239-10.753-16.356-16.594-22.6-13.046l1.864,3.214C-889.435,6154.079-880.988,6158.956-875.778,6167.935Z" transform="translate(900.84 -6144.926)"/><path class="m" d="M-876.512,6176.926l1.864-1.061c-3.847-6.633-10.085-10.232-13.932-8.043l1.864,3.212C-883.9,6169.433-879.33,6172.069-876.512,6176.926Z" transform="translate(897.243 -6151.455)"/><ellipse class="m" cx="1.881" cy="3.259" rx="1.881" ry="3.259" transform="translate(12.358 24.464) rotate(-30.36)"/></g><path class="m" d="M-849.587,6175.2l1.14-1.14-1.474.569Z" transform="translate(880.845 -6154.576)"/><path class="m" d="M-856.449,6178.567l-1.139,1.139-.424-.712Z" transform="translate(884.515 -6156.62)"/><path class="m" d="M-864.36,6183.079l-1.139,1.139-.4-.668Z" transform="translate(888.094 -6158.667)"/><path class="m" d="M-874.428,6192.447l1.116-1.114-.776-.068Z" transform="translate(891.962 -6162.381)"/><path class="m" d="M-880.157,6181.808l-1.021,1.029,1.549-.11Z" transform="translate(895.025 -6158.09)"/><path class="m" d="M-889.527,6168.352l-1.139,1.139,1.658-.215Z" transform="translate(899.329 -6151.986)"/><path class="m" d="M-897.454,6154.687l.566.8-1.705.344Z" transform="translate(902.925 -6145.787)"/><path class="m" d="M-906.519,6142.167l2.06-.535-.921-.6Z" transform="translate(906.521 -6139.591)"/><g transform="translate(0 1.139)"><path class="j" d="M-877.128,6161.026l1.864-1.06c-8.632-14.878-22.627-22.957-31.258-18.047l1.865,3.214C-897.056,6140.808-884.73,6147.924-877.128,6161.026Z" transform="translate(906.522 -6140.483)"/><path class="j" d="M-877.863,6170.02l1.864-1.061c-6.239-10.753-16.356-16.595-22.6-13.045l1.864,3.213C-891.52,6156.164-883.073,6161.041-877.863,6170.02Z" transform="translate(902.925 -6147.012)"/><path class="j" d="M-878.6,6179.012l1.864-1.06c-3.847-6.633-10.085-10.233-13.932-8.044l1.863,3.212C-885.983,6171.519-881.415,6174.155-878.6,6179.012Z" transform="translate(899.328 -6153.54)"/><ellipse class="j" cx="1.881" cy="3.259" rx="1.881" ry="3.259" transform="translate(12.358 24.464) rotate(-30.36)"/></g></g></g></svg>