<svg xmlns="http://www.w3.org/2000/svg" xmlns:xlink="http://www.w3.org/1999/xlink" viewBox="0 0 68 68"><defs><style>.a{fill:none;}.b{fill:#515151;}.c{filter:url(#a);}</style><filter id="a" x="0" y="0" width="68" height="68" filterUnits="userSpaceOnUse"><feOffset dy="2" input="SourceAlpha"/><feGaussianBlur stdDeviation="2" result="b"/><feFlood flood-color="#515151" flood-opacity="0.6"/><feComposite operator="in" in2="b"/><feComposite in="SourceGraphic"/></filter></defs><g transform="translate(-4286.797 -3565.707)"><rect class="a" width="56" height="56" transform="translate(4292.797 3569.707)"/><g class="c" transform="matrix(1, 0, 0, 1, 4286.8, 3565.71)"><path class="b" d="M4339.366,3623.134v-19.741l6.571-2.82h0l2.364-1.015-.584-1.361-.431-1-1.8-4.2-1.015-2.364-1.528.656-.836.359-2.738,1.176v-23.112h-14.094v6.515l-2.066-.825-2.389-.954-.5,1.263-.45,1.126-1.7,4.246-.954,2.39,8.06,3.219v36.448h-8.949v-29.62h-14.094v6.65l-1.087-.91-1.973-1.651-.877,1.049-.774.924-4.586,5.479h0l1.884,1.578.088.074,7.325,6.132v3.577h0v2.573h0v4.147H4292.8v2.573h56v-2.573Zm-34.565,0v-4.147h3.078v-2.573H4304.8v-4.778l-2.572-2.154-5.674-4.75,2.935-3.506,2.739,2.292,2.572,2.154v-9.586h8.949v3.3H4309.7v2.573h4.047v21.178Zm31.992-18.636v5.21H4332.5v2.573h4.288v10.854h-8.949v-30.413h4.165v-2.573h-4.165v-5.2l-2.573-1.028-4.716-1.883,1.7-4.247,3.02,1.207,2.573,1.027v-7.74h8.949v4.518h-2.458v2.573h2.458v17.353l2.573-1.1,3.753-1.611,1.8,4.2-5.556,2.385-2.573,1.1Z" transform="translate(-4286.8 -3565.71)"/></g></g></svg>