<svg xmlns="http://www.w3.org/2000/svg" width="128.778" height="119.767" viewBox="177.999 1054.813 128.778 119.767"><g data-name="CompositeLayer"><g data-name="Group 994"><g data-name="Group 993" transform="rotate(-165 218.4 568.716)" clip-path="url(&quot;#a&quot;)"><g data-name="Group 992"><g data-name="Group 991" clip-path="url(&quot;#b&quot;)"><g data-name="Group 990"><g data-name="Group 989"><g data-name="Group 988" clip-path="url(&quot;#c&quot;)"><path d="M6.12 46.165c-21.876 33.51 19.919 48.931 46.352 48.931 25.993 0 55.368-9.805 55.368-39.939 0-77.572-64.173-66.508-101.72-8.992" fill="#e9e9e9" fill-rule="evenodd" data-name="Path 3761"/></g></g></g></g></g></g></g><g data-name="deforestation"><path d="M245.9 1135.98c0 .6-.4 1-1 1h-3.8c-.6 0-1 .4-1 1v1.7c0 .6.4 1 1 1h3.8c.6 0 1 .4 1 1v28.3c0 .6-.4 1-1 1h-10.8c-.6 0-1-.4-1-1v-3.9c0-.6.4-1 1-1h2.4c.6 0 1-.4 1-1v-1.7c0-.6-.4-1-1-1h-2.4c-.6 0-1-.4-1-1v-5.4c0-.3-.1-.6-.4-.8l-3.3-2.8-7.3-6.1c-.4-.4-.5-1-.1-1.4l2.9-3.5c.4-.4 1-.5 1.4-.1l3.1 2.6 2 1.7c.7.5 1.6.1 1.6-.8v-10.5c0-.6.4-1 1-1h10.8c.6 0 1 .4 1 1v2.7h.1Zm33.6 4c-.4.2-.6.5-.6.9v9.7c0 .6-.4 1-1 1h-4.1c-.6 0-1 .4-1 1v1.7c0 .6.4 1 1 1h4.1c.6 0 1 .4 1 1v13.5c0 .6-.4 1-1 1h-10.8c-.6 0-1-.4-1-1v-41.3c0-.6.4-1 1-1h4c.6 0 1-.4 1-1v-1.7c0-.6-.4-1-1-1h-4c-.6 0-1-.4-1-1v-5.8c0-.4-.2-.8-.6-.9l-3-1.2-5.9-2.3c-.5-.2-.8-.8-.6-1.3.5-1.4 1.1-2.9 1.7-4.2.2-.5.8-.8 1.3-.6l3.4 1.4 2.3.9c.7.3 1.4-.2 1.4-.9v-8.6c0-.6.4-1 1-1h10.8c.6 0 1 .4 1 1v4.5c0 .6-.4 1-1 1h-1.5c-.6 0-1 .4-1 1v1.7c0 .6.4 1 1 1h1.5c.6 0 1 .4 1 1v22.3c0 .7.7 1.2 1.4.9l2.3-1 4.4-1.9c.5-.2 1.1 0 1.3.5l1.8 4.2c.2.5 0 1.1-.5 1.3l-7 3-3.1 1.2Zm-50-5.8v1.8c0 .8-1 1.3-1.6.8l-.9-.8.9.8-2-1.6c-.4-.4-1.1-.3-1.4.1l-.6.7-1.1 1.3-5.9 7.1c-.4.4-.3 1.1.1 1.4l1.9 1.6.1.1 10.1 8.5c.2.2.4.5.4.8V1169.98c0 .6-.4 1-1 1H217c-.6 0-1 .4-1 1v1.6c0 .6.4 1 1 1h78c.6 0 1-.4 1-1v-1.7c0-.6-.4-1-1-1h-11.5c-.6 0-1-.4-1-1v-26.5c0-.4.2-.8.6-.9l8.8-3.8 2.5-1.1c.5-.2.7-.8.5-1.3l-.4-1-.6-1.4-2.6-6-1.1-2.5c-.2-.5-.8-.7-1.3-.5l-1.3.5-1.2.5-2.5 1.1c-.7.3-1.4-.2-1.4-.9v-30.5c0-.6-.4-1-1-1h-18.1c-.6 0-1 .4-1 1v6.8c0 .7-.7 1.2-1.4.9l-1.6-.6-2.5-1c-.5-.2-1.1 0-1.3.6l-.4.9-.6 1.6-2.4 6.1-1 2.5c-.2.5 0 1.1.6 1.3l10 4c.4.2.6.5.6.9v50.4c0 .6-.4 1-1 1h-10.8c-.6 0-1-.4-1-1v-40.4c0-.6-.4-1-1-1h-18.1c-.6 0-1 .4-1 1v6.4" fill="#515151" fill-rule="evenodd" data-name="Path 3760"/></g></g><defs><clipPath id="c"><path d="M0 0h107.84v95.096H0V0z" data-name="Rectangle 1658"/></clipPath><clipPath id="b"><path d="M0 0h107.84v95.096H0V0z" data-name="Rectangle 1659"/></clipPath><clipPath id="a"><path d="M0 0h107.84v95.096H0V0z" data-name="Rectangle 1660"/></clipPath></defs></svg>